<?xml version="1.0" encoding="utf-8"?>
<!-- Generator: Adobe Illustrator 18.1.1, SVG Export Plug-In . SVG Version: 6.00 Build 0)  -->
<svg version="1.1" id="HueFashion" xmlns="http://www.w3.org/2000/svg" xmlns:xlink="http://www.w3.org/1999/xlink" x="0px" y="0px"
	 viewBox="0 0 322 40" enable-background="new 0 0 322 40" xml:space="preserve">
<rect fill="#64D2CB" width="40" height="40"/>
<g>
	<path fill="#FFFFFF" d="M55.3,20.7V27h-1.6V13h1.6v6.2h8.1V13H65v14h-1.6v-6.3H55.3z"/>
	<path fill="#FFFFFF" d="M83.9,21c0,4.1-2.3,6.2-5.8,6.2c-3.5,0-5.8-2.1-5.8-6.1V13h1.6v8c0,3,1.6,4.7,4.3,4.7
		c2.6,0,4.2-1.6,4.2-4.6V13h1.6V21z"/>
	<path fill="#FFFFFF" d="M101.3,14.4h-8.5v4.8h7.6v1.4h-7.6v4.9h8.6V27H91.1V13h10.1V14.4z"/>
	<path fill="#FFFFFF" d="M110.8,15.8v3h6.7v2.8h-6.7V27h-3.1V13h10.7v2.8H110.8z"/>
	<path fill="#FFFFFF" d="M133.2,27l-1.3-3.1H126l-1.3,3.1h-3.1l6-14.1h2.8l6,14.1H133.2z M128.9,16.6l-1.9,4.5h3.7L128.9,16.6z"/>
	<path fill="#FFFFFF" d="M146.8,27.2c-2.1,0-4.3-0.7-5.9-2.2l1.8-2.2c1.3,1,2.6,1.7,4.2,1.7c1.3,0,2-0.5,2-1.3v0
		c0-0.8-0.5-1.2-2.8-1.8c-2.8-0.7-4.6-1.5-4.6-4.3v0c0-2.5,2-4.2,4.9-4.2c2,0,3.8,0.6,5.2,1.8l-1.6,2.3c-1.2-0.9-2.5-1.4-3.6-1.4
		s-1.8,0.5-1.8,1.2v0c0,0.9,0.6,1.2,3,1.8c2.8,0.7,4.4,1.8,4.4,4.2v0C152,25.6,149.9,27.2,146.8,27.2z"/>
	<path fill="#FFFFFF" d="M166.9,27v-5.6h-5.7V27h-3.1V13h3.1v5.5h5.7V13h3.1v14H166.9z"/>
	<path fill="#FFFFFF" d="M177,27V13h3.1v14H177z"/>
	<path fill="#FFFFFF" d="M193.9,27.2c-4.3,0-7.4-3.2-7.4-7.2v0c0-4,3.1-7.2,7.5-7.2s7.4,3.2,7.4,7.2v0
		C201.3,24,198.2,27.2,193.9,27.2z M198.1,20c0-2.4-1.8-4.4-4.2-4.4s-4.2,2-4.2,4.4v0c0,2.4,1.8,4.4,4.2,4.4S198.1,22.4,198.1,20
		L198.1,20z"/>
	<path fill="#FFFFFF" d="M217.4,27l-6.8-8.9V27h-3V13h2.8l6.6,8.6V13h3v14H217.4z"/>
</g>
<g>
	<path fill="#FFFFFF" d="M10,9.3l6,0l0,8.1l7.7,0l0-8.1l6,0l0,21.7l-6,0l0-8.2l-7.7,0l0,8.2l-6,0L10,9.3z"/>
</g>
</svg>
