<svg xmlns="http://www.w3.org/2000/svg" xmlns:xlink="http://www.w3.org/1999/xlink" version="1.1" id="Layer_1" x="0px" y="0px" width="90px" height="90px" viewBox="0 0 90 90" enable-background="new 0 0 90 90" xml:space="preserve">
<path d="M23.493,19.32c-1.486,0-2.691-1.206-2.691-2.691V5.476c0-1.486,1.205-2.691,2.691-2.691c1.487,0,2.692,1.205,2.692,2.691  v11.152C26.185,18.114,24.98,19.32,23.493,19.32z"/>
<path d="M56.396,19.32c-1.486,0-2.692-1.206-2.692-2.691V5.476c0-1.486,1.206-2.691,2.692-2.691s2.691,1.205,2.691,2.691v11.152  C59.087,18.114,57.882,19.32,56.396,19.32z"/>
<path d="M29.171,71.682h-3.133V57.16h2.315c0.129-0.639,0.285-1.266,0.456-1.889h-2.771V41.219h11.659  c1.002-0.866,2.063-1.663,3.18-2.386V25.729h12.952v8.646c0.624-0.055,1.254-0.088,1.888-0.103v-8.543H67.17v10.631  c1.196,0.487,2.351,1.053,3.461,1.691V17.013c0-3.498-2.848-6.344-6.346-6.344h-2.699v5.96c0,2.867-2.323,5.191-5.19,5.191  c-2.868,0-5.191-2.324-5.191-5.191v-5.96h-22.52v5.96c0,2.867-2.324,5.191-5.192,5.191c-2.867,0-5.191-2.324-5.191-5.191v-5.96  h-2.699c-3.499,0-6.345,2.846-6.345,6.344v51.784c0,3.5,2.846,6.346,6.345,6.346h14.942C30.014,74.027,29.556,72.871,29.171,71.682z   M26.038,25.729H38.99v13.604H26.038V25.729z M24.15,71.682h-8.548c-1.59,0-2.883-1.295-2.883-2.885V57.16H24.15V71.682z   M24.15,55.271H12.719V41.219H24.15V55.271z M24.15,39.332H12.719V25.729H24.15V39.332z"/>
<path d="M56.396,87.215c-13.424,0-24.347-10.922-24.347-24.348c0-13.424,10.923-24.345,24.347-24.345  c13.424,0,24.346,10.921,24.346,24.345C80.742,76.293,69.82,87.215,56.396,87.215z M56.396,44.129  c-10.333,0-18.74,8.406-18.74,18.738c0,10.334,8.407,18.74,18.74,18.74s18.738-8.406,18.738-18.74  C75.135,52.535,66.729,44.129,56.396,44.129z"/>
<path d="M43.395,62.582c0,0,1.283,0.59,2.862,0.674c-0.059,0.65-0.062,1.318,0.008,1.992c0.582,5.746,6.069,9.895,6.069,9.895  s2.188-2.488,3.335-5.93c3.885,3.26,9.522,3.43,9.522,3.43s0.588-5.607-2.119-9.896c3.565-0.672,6.325-2.506,6.325-2.506  s-3.373-5.996-8.986-7.346c-0.66-0.158-1.321-0.246-1.974-0.275c0.129-1.576-0.282-2.928-0.282-2.928s-0.974,0.219-2.061,0.818  c-1.507,0.684-3.664,1.83-5.862,3.561l-2.662-3.967l-2.343,2.045l3.549,3.154c-1.777,1.621-3.493,3.648-4.821,6.146  C43.576,62.094,43.395,62.582,43.395,62.582z"/>
</svg>