<?xml version="1.0" encoding="utf-8"?>
<!-- Generator: Adobe Illustrator 18.1.0, SVG Export Plug-In . SVG Version: 6.00 Build 0)  -->
<!DOCTYPE svg PUBLIC "-//W3C//DTD SVG 1.1//EN" "http://www.w3.org/Graphics/SVG/1.1/DTD/svg11.dtd" [
	<!ENTITY ns_flows "http://ns.adobe.com/Flows/1.0/">
	<!ENTITY ns_extend "http://ns.adobe.com/Extensibility/1.0/">
	<!ENTITY ns_ai "http://ns.adobe.com/AdobeIllustrator/10.0/">
	<!ENTITY ns_graphs "http://ns.adobe.com/Graphs/1.0/">
]>
<svg version="1.1" id="Layer_1" xmlns:x="&ns_extend;" xmlns:i="&ns_ai;" xmlns:graph="&ns_graphs;"
	 xmlns="http://www.w3.org/2000/svg" xmlns:xlink="http://www.w3.org/1999/xlink" xmlns:a="http://ns.adobe.com/AdobeSVGViewerExtensions/3.0/"
	 x="0px" y="0px" viewBox="0 0 28 77.4" enable-background="new 0 0 28 77.4" xml:space="preserve">
<g>
	<path d="M17.3,8c0.5,0,0.6-1.1,0.6-1.5c-0.1-0.4-0.4-0.4-0.4-0.4s0.4-4.7-2.1-4.8c0,0-3.3-0.5-3.9,1.6c-0.6,2.1-0.3,3.2-0.3,3.2
		s-0.3-0.1-0.4,1c0,0.6,0.6,0.9,0.6,0.9l0.8,2.7c0,0,0.3,2.6-1.7,2.9c-2,0.3-3.9,0.1-4.3,1.9c-0.4,1.8-0.7,4.6-0.8,5.8
		c-0.1,1.1-0.1,3.3-0.2,3.8c-0.1,0.5-0.8,1.9-1,2.7c0,0.3-0.5,4.3-0.7,5.3c-0.1,1-0.8,6-1.2,6.8C2,40.9,2,41.6,2.1,42.4
		s0.8,1.6,0.9,1.8c0.2,0.3,0.7,1,0.9,1.3c0.2,0.3,0.9,0,0.2-1.2c-0.7-1.2-0.8-1.5-0.7-2c0.1-0.5,0.1-1.4,0.1-1.4s-0.1,2.4,0.3,2.3
		c0.4,0,0.4-0.4,0.4-0.4s0.2-1,0.3-1.6s0.7-1.6,0.5-2.2c-0.2-0.6-0.2-1.3,0.1-2c0.3-0.8,2.8-7.8,2.9-8.3c0.1-0.7,0-0.6,0.5-6.9
		l0.1,2.8c0,0,0.4,2.3,0,3.5c-1.1,3.7-1.5,4.9-2.2,7c-0.8,2.1-0.5,4.3-0.2,6.3c0.3,1.9,1.2,5.9,1.4,6.8c0.2,0.9,1,5.2,0.7,8.1
		C7.8,59.1,9,63.9,9,63.9c1.1,2.9,1.5,5.7,1.3,6.6c-0.2,0.9-0.7,1.9-1.3,2.6c-1.5,1.5-1.5,1.9-1.5,1.9s0,1.2,2.5,1
		c1-0.1,1.8-1.3,2.1-2.2c0.4-0.7,0.5-1.2,0.5-1.2s0.8-2.1,0.4-3.2c-0.4-1.1,0.1-5.8,0.1-5.8s0.1-2.8-0.1-3.9
		c-0.2-1.2-0.4-2.4-0.4-3.1c0-0.8,0.3-1.2,0.4-2.2c0.2-1,0.4-1.8,0.3-3.4c-0.1-1.4,0-5.8,0-6.7c0-0.9,0.3-3.1,0.3-4
		c0.2,0,0.4,0,1.2,0c0,0.2-0.1,1.7,0,2.9c0,0.6,0.1,5-0.1,6.6c-0.2,1.6-0.2,2.9-0.1,3.7c0.1,0.8,0.3,2.6,0,4.5
		c-0.3,1.9-0.4,5.6-0.4,5.6s-0.1,4.8-0.2,5.3c0,0.5-0.2,1.1-0.5,1.9c-0.2,0.6,0.1,1.9,0.2,3.2c0.1,1.3,1,2.5,1.7,2.6
		c0.7,0.1,2.8-1.1,2.2-2.2c-0.6-1.1-0.7-1.3-0.9-1.9c-0.2-0.7-0.8-1.8-0.6-2.3c2.5-6.2,2.6-6.7,2.6-6.7c0.8-3.1,1-6,0.9-7.1
		c-0.1-1.1,0-3.3,0.2-4.8c0.2-1.4,0.6-2.5,1-3.5c0.5-1.5,1.3-5.2,1.4-5.9c0.3-1.5,0.3-4.1,0-5.8c-0.3-1.7-1.8-5.5-2.2-6.3
		c-0.2-0.5-0.8-1.6-0.7-2.9c0.2-1.3,0.5-3.3,0.5-3.3l0.4-3.5c0,0,0.2,4.3,0.2,4.8c0,0.5,0.2,2.3,0.2,3c0,0.6,0.2,2.1,0.6,3.4
		c0.4,1.2,2.1,4.8,2.2,5.4c0.2,0.5,0.4,1.5,0.4,2c-0.1,0.6-0.4,1.6-0.4,2c0,0.4,0,1.2,0,1.6c0,0.4,0.1,1.1,0.5,1.1
		c0.4,0,0.6-0.6,0.5-0.9c-0.1-0.3,0.1-1.2,0.2-1.3c0.1-0.1,0.3,2.1-0.7,3.4c0,0-0.6,0.9-0.2,1c0,0.2,0.1,0.4,0.2,0.4
		c0.2,0,1.3-1.2,1.5-1.8c0.2-0.6,0.7-1.8,0.4-4.2c-0.4-2.3-0.9-6.3-0.9-6.3s-0.4-4.1-0.5-4.8c-0.1-0.7-1-2.5-1-4
		c0-1.5-0.4-5.9-0.4-6.8c0-0.9-0.1-3.7-2-3.9c-2-0.2-3.1-0.2-3.7-0.7c-0.6-0.5-1.4-1.8-1.1-2.6C16.2,10.9,17.1,8.1,17.3,8z"/>
	<path d="M25.7,4c0.1,1.4-4.2,2.9-11,3.5C7.9,8.1,3.6,7.4,3.5,6c-0.1-1.2,1.8-1.6,7-2.1l-0.1-0.9c-0.1-1.3,1.5-2.3,3.4-2.6
		c2-0.3,3.5,0.6,3.7,1.9l0.1,1C22.7,3,25.7,3,25.7,4z"/>
	<path d="M8.4,29.3L0.4,52c-0.5,0.9,1,4.9,4.3,4.2c5.7-1.2,1,3.7,9.7,0.7c3.9-1.3,6.9-3.5,9.4-2c2.5,1.5,3.8-0.5,3.8-0.5
		c0,0-4.9-16.7-5.7-19.2c-0.8-2.5-2.3-6.2-2.3-6.2L8.4,29.3z"/>
</g>
</svg>
