<svg xmlns="http://www.w3.org/2000/svg" xmlns:xlink="http://www.w3.org/1999/xlink" version="1.1" id="Layer_1" x="0px" y="0px" width="90px" height="90px" viewBox="0 0 90 90" enable-background="new 0 0 90 90" xml:space="preserve">
<path d="M23.474,19.204c-1.494,0-2.704-1.21-2.704-2.703V5.299c0-1.493,1.21-2.704,2.704-2.704c1.493,0,2.703,1.21,2.703,2.704V16.5  C26.177,17.994,24.967,19.204,23.474,19.204z"/>
<path d="M56.524,19.204c-1.495,0-2.704-1.21-2.704-2.703V5.299c0-1.493,1.209-2.704,2.704-2.704c1.493,0,2.703,1.21,2.703,2.704  V16.5C59.228,17.994,58.018,19.204,56.524,19.204z"/>
<path d="M29.177,71.802H26.03V57.215h2.326c0.129-0.642,0.287-1.271,0.458-1.896H26.03V41.202h11.711  c1.007-0.87,2.074-1.67,3.195-2.396V25.642h13.01v8.685c0.627-0.056,1.259-0.089,1.896-0.104v-8.581h11.505v10.679  c1.201,0.489,2.36,1.058,3.477,1.698V16.886c0-3.514-2.86-6.372-6.375-6.372h-2.711V16.5c0,2.88-2.333,5.214-5.213,5.214  c-2.882,0-5.216-2.334-5.216-5.214v-5.986h-22.62V16.5c0,2.88-2.335,5.214-5.214,5.214c-2.88,0-5.215-2.334-5.215-5.214v-5.986  h-2.711c-3.514,0-6.373,2.858-6.373,6.372v52.018c0,3.514,2.859,6.373,6.373,6.373h15.009  C30.023,74.157,29.564,72.995,29.177,71.802z M26.03,25.642h13.01v13.663H26.03V25.642z M24.134,71.802h-8.586  c-1.597,0-2.896-1.301-2.896-2.897V57.215h11.483V71.802z M24.134,55.318H12.651V41.202h11.483V55.318z M24.134,39.305H12.651  V25.642h11.483V39.305z"/>
<path d="M56.525,87.404c-13.486,0-24.457-10.972-24.457-24.457c0-13.484,10.97-24.454,24.457-24.454  c13.483,0,24.455,10.97,24.455,24.454C80.98,76.433,70.009,87.404,56.525,87.404z M56.525,44.125  c-10.38,0-18.824,8.443-18.824,18.822c0,10.381,8.444,18.826,18.824,18.826c10.379,0,18.822-8.445,18.822-18.826  C75.348,52.568,66.904,44.125,56.525,44.125z"/>
<circle cx="56.524" cy="62.948" r="7.26"/>
<path d="M64.342,59.13l2.081-6.082l-6.081,2.083C62.08,55.98,63.491,57.393,64.342,59.13z"/>
<path d="M56.524,54.24c0.99,0,1.938,0.174,2.827,0.479l-2.827-5.771l-2.828,5.771C54.584,54.414,55.533,54.24,56.524,54.24z"/>
<path d="M70.523,62.948l-5.77-2.827c0.306,0.889,0.479,1.837,0.479,2.827c0,0.991-0.173,1.939-0.479,2.827L70.523,62.948z"/>
<path d="M52.706,55.131l-6.082-2.083l2.081,6.083C49.557,57.393,50.967,55.98,52.706,55.131z"/>
<path d="M60.343,70.767l6.08,2.082l-2.081-6.081C63.492,68.507,62.08,69.916,60.343,70.767z"/>
<path d="M56.524,71.658c-0.991,0-1.94-0.175-2.828-0.479l2.828,5.771l2.827-5.771C58.463,71.483,57.515,71.658,56.524,71.658z"/>
<path d="M47.814,62.948c0-0.99,0.174-1.938,0.479-2.828l-5.771,2.828l5.77,2.828C47.988,64.888,47.814,63.939,47.814,62.948z"/>
<path d="M48.705,66.768l-2.081,6.081l6.081-2.082C50.967,69.916,49.557,68.506,48.705,66.768z"/>
</svg>