<svg xmlns="http://www.w3.org/2000/svg" xmlns:xlink="http://www.w3.org/1999/xlink" version="1.1" id="Layer_1" x="0px" y="0px" width="90px" height="90px" viewBox="0 0 90 90" enable-background="new 0 0 90 90" xml:space="preserve">
<path d="M23.274,19.058c-1.502,0-2.719-1.217-2.719-2.719V5.074c0-1.501,1.217-2.719,2.719-2.719s2.719,1.218,2.719,2.719v11.265  C25.993,17.841,24.776,19.058,23.274,19.058z"/>
<path d="M56.512,19.058c-1.503,0-2.72-1.217-2.72-2.719V5.074c0-1.501,1.217-2.719,2.72-2.719c1.502,0,2.719,1.218,2.719,2.719  v11.265C59.23,17.841,58.014,19.058,56.512,19.058z"/>
<path d="M29.01,71.953h-3.165V57.284h2.338c0.13-0.646,0.289-1.279,0.461-1.907h-2.799V41.181h11.777  c1.012-0.875,2.085-1.68,3.213-2.41V25.532h13.083v8.734c0.631-0.056,1.266-0.089,1.907-0.104v-8.63h11.567v10.739  c1.209,0.491,2.377,1.064,3.498,1.708V16.728c0-3.534-2.877-6.41-6.41-6.41h-2.727v6.021c0,2.896-2.35,5.244-5.245,5.244  s-5.243-2.348-5.243-5.244v-6.021h-22.75v6.021c0,2.896-2.348,5.244-5.244,5.244s-5.244-2.348-5.244-5.244v-6.021h-2.727  c-3.535,0-6.41,2.876-6.41,6.41V69.04c0,3.535,2.875,6.41,6.41,6.41h15.093C29.861,74.323,29.399,73.154,29.01,71.953z   M25.845,25.532h13.083v13.742H25.845V25.532z M23.938,71.953h-8.634c-1.607,0-2.914-1.309-2.914-2.914V57.284h11.548V71.953z   M23.938,55.377H12.39V41.181h11.548V55.377z M23.938,39.274H12.39V25.532h11.548V39.274z"/>
<path d="M56.514,87.645c-13.563,0-24.596-11.033-24.596-24.595c0-13.561,11.033-24.593,24.596-24.593  c13.561,0,24.594,11.033,24.594,24.593C81.105,76.611,70.073,87.645,56.514,87.645z M56.514,44.12  c-10.438,0-18.932,8.493-18.932,18.93c0,10.438,8.492,18.933,18.932,18.933c10.438,0,18.928-8.493,18.928-18.933  C75.439,52.611,66.95,44.12,56.514,44.12z"/>
<path d="M65.657,64.357c-0.658-0.659-1.458-1.055-2.298-1.309c0.836-0.255,1.642-0.646,2.3-1.306c2.161-2.161,2.161-5.679,0-7.838  c-2.164-2.163-5.679-2.162-7.839,0c-0.659,0.657-1.053,1.459-1.309,2.298c-0.254-0.842-0.648-1.641-1.307-2.298  c-2.166-2.166-5.678-2.163-7.84-0.001c-2.163,2.162-2.165,5.674,0,7.839c0.658,0.659,1.458,1.055,2.299,1.306  c-0.838,0.256-1.639,0.648-2.298,1.309c-2.163,2.162-2.163,5.677,0,7.838c2.161,2.162,5.677,2.164,7.84,0  c0.659-0.657,1.05-1.461,1.306-2.297c0.252,0.84,0.646,1.64,1.305,2.297c2.166,2.166,5.679,2.164,7.842,0  C67.82,70.034,67.823,66.521,65.657,64.357z M53.339,66.227c-1.754-1.754-1.751-4.598,0-6.35c1.751-1.75,4.595-1.754,6.349,0  c1.754,1.753,1.752,4.598,0,6.348C57.936,67.977,55.091,67.979,53.339,66.227z"/>
</svg>