<svg xmlns="http://www.w3.org/2000/svg" xmlns:xlink="http://www.w3.org/1999/xlink" version="1.1" id="Layer_1" x="0px" y="0px" width="90px" height="90px" viewBox="0 0 90 90" enable-background="new 0 0 90 90" xml:space="preserve">
<path d="M23.381,19.373c-1.483,0-2.686-1.202-2.686-2.686V5.558c0-1.483,1.203-2.686,2.686-2.686c1.484,0,2.687,1.202,2.687,2.686  v11.129C26.068,18.171,24.865,19.373,23.381,19.373z"/>
<path d="M56.218,19.373c-1.484,0-2.687-1.202-2.687-2.686V5.558c0-1.483,1.202-2.686,2.687-2.686c1.483,0,2.687,1.202,2.687,2.686  v11.129C58.904,18.171,57.701,19.373,56.218,19.373z"/>
<path d="M29.048,71.631h-3.127V57.138h2.31c0.128-0.637,0.285-1.263,0.455-1.884h-2.765V41.229h11.635  c1-0.865,2.06-1.66,3.174-2.381V25.77h12.925v8.628c0.623-0.055,1.251-0.088,1.885-0.104V25.77h11.43v10.609  c1.193,0.486,2.347,1.051,3.454,1.688V17.071c0-3.492-2.842-6.332-6.333-6.332h-2.693v5.948c0,2.862-2.319,5.181-5.181,5.181  s-5.181-2.319-5.181-5.181v-5.948H28.563v5.948c0,2.862-2.32,5.181-5.182,5.181c-2.861,0-5.18-2.319-5.18-5.181v-5.948h-2.694  c-3.492,0-6.332,2.84-6.332,6.332v51.682c0,3.491,2.84,6.332,6.332,6.332h14.912C29.889,73.971,29.432,72.817,29.048,71.631z   M25.921,25.77h12.925v13.575H25.921V25.77z M24.037,71.631h-8.53c-1.587,0-2.878-1.291-2.878-2.878V57.138h11.409V71.631z   M24.037,55.254H12.628V41.229h11.409V55.254z M24.037,39.345H12.628V25.77h11.409V39.345z"/>
<path d="M56.219,87.133c-13.397,0-24.298-10.9-24.298-24.299c0-13.396,10.901-24.296,24.298-24.296  c13.396,0,24.298,10.9,24.298,24.296C80.517,76.232,69.615,87.133,56.219,87.133z M56.219,44.133  c-10.313,0-18.702,8.39-18.702,18.701c0,10.313,8.39,18.703,18.702,18.703s18.7-8.39,18.7-18.703  C74.919,52.522,66.531,44.133,56.219,44.133z"/>
<path d="M68.732,62.103h-2.351l0.987-1.138c0.265-0.306,0.232-0.768-0.074-1.033c-0.305-0.266-0.768-0.231-1.031,0.072l-1.821,2.099  H61.04c-0.119-0.801-0.434-1.535-0.894-2.158l2.406-2.406l2.77,0.196c0.017,0.001,0.035,0.002,0.053,0.002  c0.38,0,0.703-0.294,0.729-0.68c0.029-0.404-0.273-0.755-0.678-0.784l-1.502-0.106l1.662-1.661c0.285-0.285,0.285-0.749,0-1.035  c-0.287-0.286-0.751-0.286-1.036,0l-1.662,1.661l-0.107-1.503c-0.028-0.403-0.379-0.701-0.781-0.679  c-0.405,0.028-0.708,0.379-0.681,0.783l0.198,2.77l-2.405,2.404c-0.624-0.459-1.36-0.772-2.161-0.895V54.61l2.099-1.819  c0.307-0.265,0.339-0.728,0.074-1.033c-0.267-0.306-0.728-0.338-1.035-0.073l-1.138,0.986v-2.35c0-0.403-0.327-0.732-0.732-0.732  s-0.732,0.329-0.732,0.732v2.35l-1.138-0.986c-0.306-0.265-0.769-0.232-1.033,0.073s-0.232,0.769,0.073,1.033l2.098,1.819v3.401  c-0.801,0.122-1.535,0.436-2.159,0.895l-2.405-2.404l0.196-2.77c0.028-0.404-0.275-0.755-0.678-0.783  c-0.405-0.022-0.755,0.275-0.784,0.679l-0.106,1.501l-1.662-1.66c-0.284-0.286-0.749-0.286-1.035,0s-0.286,0.75,0,1.035l1.662,1.662  l-1.503,0.106c-0.403,0.029-0.708,0.38-0.679,0.784c0.026,0.386,0.349,0.68,0.729,0.68c0.019,0,0.035-0.001,0.054-0.002l2.77-0.196  l2.404,2.406c-0.458,0.623-0.772,1.357-0.895,2.158h-3.401l-1.819-2.099c-0.265-0.304-0.728-0.338-1.033-0.072  c-0.306,0.266-0.339,0.728-0.074,1.033l0.987,1.138h-2.35c-0.404,0-0.732,0.328-0.732,0.731c0,0.406,0.329,0.733,0.732,0.733h2.35  l-0.987,1.139c-0.265,0.306-0.232,0.768,0.074,1.034c0.138,0.12,0.31,0.178,0.479,0.178c0.205,0,0.408-0.085,0.554-0.252  l1.819-2.099h3.401c0.122,0.801,0.436,1.537,0.895,2.16l-2.405,2.406l-2.769-0.197c-0.406-0.024-0.755,0.274-0.783,0.679  c-0.029,0.403,0.275,0.754,0.679,0.782l1.502,0.107l-1.661,1.662c-0.286,0.286-0.286,0.75,0,1.035  c0.143,0.144,0.331,0.215,0.518,0.215c0.188,0,0.375-0.071,0.518-0.215l1.662-1.662l0.106,1.504c0.028,0.386,0.35,0.68,0.73,0.68  c0.019,0,0.035-0.001,0.054-0.002c0.402-0.028,0.706-0.38,0.678-0.782l-0.196-2.77l2.405-2.406c0.624,0.46,1.358,0.773,2.159,0.895  v3.401l-2.098,1.82c-0.306,0.265-0.338,0.728-0.073,1.033s0.728,0.338,1.033,0.073L55.485,73v2.35c0,0.404,0.327,0.732,0.732,0.732  s0.732-0.328,0.732-0.732v-2.351l1.138,0.987c0.14,0.12,0.311,0.18,0.48,0.18c0.206,0,0.409-0.086,0.555-0.253  c0.265-0.306,0.232-0.769-0.074-1.033l-2.099-1.82v-3.401c0.801-0.121,1.536-0.435,2.16-0.895l2.406,2.405l-0.198,2.771  c-0.027,0.402,0.275,0.754,0.681,0.782c0.017,0.001,0.034,0.002,0.052,0.002c0.381,0,0.702-0.294,0.729-0.68l0.107-1.505  l1.662,1.663c0.144,0.144,0.33,0.215,0.518,0.215s0.375-0.071,0.519-0.215c0.285-0.285,0.285-0.749,0-1.035l-1.663-1.662  l1.503-0.107c0.404-0.028,0.709-0.379,0.678-0.782c-0.027-0.404-0.376-0.701-0.781-0.679l-2.771,0.197l-2.405-2.406  c0.461-0.623,0.775-1.359,0.895-2.16h3.402l1.821,2.099c0.145,0.167,0.348,0.252,0.553,0.252c0.17,0,0.341-0.058,0.479-0.178  c0.307-0.267,0.339-0.729,0.074-1.034l-0.987-1.139h2.351c0.404,0,0.732-0.327,0.732-0.733  C69.465,62.431,69.137,62.103,68.732,62.103z"/>
</svg>