<?xml version="1.0" encoding="utf-8"?>
<!-- Generator: Adobe Illustrator 16.0.3, SVG Export Plug-In . SVG Version: 6.00 Build 0)  -->
<!DOCTYPE svg PUBLIC "-//W3C//DTD SVG 1.1//EN" "http://www.w3.org/Graphics/SVG/1.1/DTD/svg11.dtd">
<svg version="1.1" id="Warstwa_1" xmlns="http://www.w3.org/2000/svg" xmlns:xlink="http://www.w3.org/1999/xlink" x="0px" y="0px"
	 width="382.68px" height="382.68px" viewBox="0 0 382.68 382.68" enable-background="new 0 0 382.68 382.68" xml:space="preserve">
<g>
	<path fill="#E6E6E6" d="M288.171,151.924c-1.171-0.773-2.728-0.773-5.444,1.164c-2.717,1.946-7.387,1.168-9.719,0.78
		c-2.337-0.389-4.276,1.166-7.774-1.555c-3.502-2.721-0.389-5.442-3.889-7.385c-3.503-1.943-4.664-3.114-6.224-6.223
		c-1.555-3.107-2.717-4.271-5.053-5.831c-2.33-1.552-3.107-3.884-4.28-10.108c-1.163-6.214-5.433-14.379-7.765-17.489
		c-1.125-1.485-2.141-5.116-2.91-8.484c-0.838-3.68-1.367-7.072-1.367-7.072l-3.075,0.517l-1.594,0.265
		c0,0-9.331-1.166-13.606-1.557c-4.273-0.39-12.051-4.274-16.327-4.666c-4.275-0.383-2.334,4.666-5.439,6.613
		c-3.113,1.941,0,0-5.06,0c-5.05,0-3.887-0.777-6.219-2.727c-2.33-1.938-7.38-4.27-11.665-4.27c-4.273,0-2.328-3.891-1.16-8.167
		c1.16-4.277,1.941-3.886,0-4.277c-1.941-0.388-1.555-3.11-4.668-1.948c-3.112,1.169-6.217,0.389-7.774,0.781
		c-1.555,0.389-12.054,1.167-14.386,1.167c-2.33,0-6.217,3.108-8.94,3.89c-2.714,0.781-7.387,0.781-10.883-0.393
		c-3.5-1.165-2.341-2.332-3.5,0.393c-1.164,2.719-3.109,6.994-5.836,7.38c-2.718,0.393-5.434,4.669-5.434,7.779s0,6.215-3.502,7.001
		c-3.502,0.773-8.546,6.601-10.108,10.105c-1.555,3.494-4.663,6.61-7.772,9.72c-3.11,3.105,0.387,6.219,1.944,9.717
		c1.552,3.496-1.17,2.721-0.779,6.999c0.39,4.273-3.106,6.997-3.106,6.997c2.715,1.555,2.329,5.051,2.329,5.051
		c-1.555,3.5,1.167,2.727,4.277,5.441c3.108,2.723,5.051,4.282,5.831,8.562c0.78,4.271,7.386,5.824,10.496,8.931
		c3.108,3.114,3.108,5.06,7.385,3.114c4.278-1.935,10.501-1.559,14.384-0.391c3.891,1.168,8.555-2.723,12.053-4.273
		c3.496-1.557,7.776,0,10.886,1.937c3.109,1.95-1.941,2.727,1.948,3.118c3.88,0.386,5.437-0.782,8.94,1.939
		c3.496,2.721,1.941,6.999-0.393,10.885c-2.33,3.889,1.555,8.165,6.214,9.719c4.673,1.555-0.384,2.719,3.502,7.776
		c3.891,5.048,1.17,9.719,3.114,11.662c1.946,1.941,0.777,7.771-2.336,11.665c-3.105,3.887-1.55,10.106,0.393,15.935
		s6.605,15.165,6.996,19.048c0.389,3.891,5.054,12.056,7.39,16.324c2.332,4.282,1.941,12.833,3.496,13.997
		c1.555,1.169,6.996,3.109,9.715,1.558c2.728-1.558,7.001-1.169,10.888-1.169c3.883,0,6.996-4.664,10.497-7.77
		c3.496-3.12,3.496-4.277,6.992-7.389c3.504-3.104,3.118-3.892,3.118-8.16c0-4.276,4.273-5.837,7.773-7.001
		c3.5-1.168,1.555-6.605-0.387-10.11c-1.954-3.5-1.175-2.33,2.332-7.77c3.498-5.445,7.771-6.228,12.824-8.941
		c5.051-2.719-0.779-6.222,0.782-11.665c1.555-5.441-1.95-6.22-1.562-10.106s-1.553-5.448-2.328-8.164
		c-0.774-2.719,2.328-6.215,3.89-8.942c1.555-2.723,3.883-6.607,7.773-9.715c3.89-3.112,10.106-7,15.935-13.997
		C285.843,165.144,289.334,152.697,288.171,151.924z"/>
	<path fill="#E6E6E6" d="M266.591,261.16c0,0,1.168-1.751,0-6.997c-1.168-5.255-1.746-5.832,0-7.578
		c1.75-1.75-4.206-11.078,0.521-11.66c4.733-0.584,5.502,0,8.325-2.914c2.816-2.919,6.318-4.083,6.318-7.005
		c0-2.912,6.58,4.086,4.747,6.418c-1.835,2.332-2.419,4.083-2.419,6.415c0,2.336-2.912,6.412-2.912,8.16c0,1.754,0,7.001,0,7.001
		s-0.575,7.383-2.918,8.16C271.255,263.501,266.591,268.156,266.591,261.16z"/>
</g>
</svg>
