<?xml version="1.0" encoding="utf-8"?>
<!-- Generator: Adobe Illustrator 16.0.3, SVG Export Plug-In . SVG Version: 6.00 Build 0)  -->
<!DOCTYPE svg PUBLIC "-//W3C//DTD SVG 1.1//EN" "http://www.w3.org/Graphics/SVG/1.1/DTD/svg11.dtd">
<svg version="1.1" id="Warstwa_1" xmlns="http://www.w3.org/2000/svg" xmlns:xlink="http://www.w3.org/1999/xlink" x="0px" y="0px"
	 width="382.68px" height="382.68px" viewBox="0 0 382.68 382.68" enable-background="new 0 0 382.68 382.68" xml:space="preserve">
<g>
	<path fill="#E6E6E6" d="M292.641,301.838c-0.4,0.13-0.926,0.06-1.504-0.089c-1.547-0.398-3.477-1.393-4.367-0.771
		c-1.219,0.86,1.834,2.691,1.834,3.788c0,1.103-4.904-0.205-5.377,0.981c-0.244,0.613,1.711,1.464,3.543,0.855
		c1.707-0.566,2.881,0.024,3.826,0.503c0.068,0.038,0.141,0.076,0.207,0.105c0.98,0.492,1.221-0.488,3.424-1.219
		c2.199-0.732,5.744,0.61,5.744-1.103C299.971,303.18,294.104,301.35,292.641,301.838z"/>
	<path fill="#E6E6E6" d="M278.582,297.559c-1.834,0-7.824-4.16-13.322-5.379c-5.5-1.226-10.297,2.731-9.777,3.421
		c0.732,0.978,3.424-1.223,4.766-2.202c1.344-0.974,2.566,0.49,2.689,1.102c0.123,0.613,1.834,0.979,4.646,1.101
		c2.811,0.122,3.174,2.446,5.863,3.054c2.691,0.614,0,1.715,1.344,2.202c1.348,0.493,8.436,0.366,8.924-0.245
		C284.205,300.001,280.416,297.559,278.582,297.559z"/>
	<path fill="#E6E6E6" d="M272.35,305.992c0.486,0.855,5.131,2.077,5.623,0.976C278.461,305.868,271.742,304.929,272.35,305.992z"/>
	<path fill="#E6E6E6" d="M303.762,306.234c1.098,1.712,4.246,0.688,4.523,0C308.773,305.011,302.66,304.523,303.762,306.234z"/>
	<path fill="#E6E6E6" d="M214.535,114.214c2.689,1.836,1.834-1.465,4.891-1.343c3.055,0.122,3.178-4.889,3.666-6.72
		c0.488-1.838-2.445-1.714-1.713-0.369s-0.119,2.688-0.365,1.099c-0.244-1.587-2.564-0.12-3.424-1.343
		c-0.855-1.226,2.691-1.346,3.547-2.935c0.854-1.587-2.813-1.345-1.957-2.567c0.857-1.221-5.377,0.125-3.545,0.857
		c1.836,0.733,0.123,1.71-1.588,0.486c-1.713-1.218-6.453,0.824-4.768,2.203c1.346,1.1,5.377-0.73,3.055,2.445
		c-2.322,3.179-3.299-0.855-5.498-0.489c-2.201,0.369-1.223,3.054,2.078,4.034C212.213,110.548,211.846,112.38,214.535,114.214z"/>
	<path fill="#E6E6E6" d="M240.689,80.238c-2.197-1.101-4.957,1.225-2.686,2.078C239.959,83.049,242.893,81.337,240.689,80.238z"/>
	<path fill="#E6E6E6" d="M230.182,97.104c2.197-0.122,1.1-2.811-1.344-4.642c-2.445-1.834-7.938,1.931-6.967,2.686
		C222.969,96.006,227.98,97.227,230.182,97.104z"/>
	<path fill="#E6E6E6" d="M231.525,79.257c-0.244-0.73-9.512,0.386-8.066,1.47C225.904,82.56,231.77,79.994,231.525,79.257z"/>
	<path fill="#E6E6E6" d="M265.625,102.114c-0.73,1.59,1.59,1.59,1.715,3.424c0.119,1.833,2.443,2.444,4.154,1.343
		c1.709-1.099,6.598,0.328,6.598-1.099c0-1.346-5.131-3.79-6.965-3.423C269.293,102.728,266.357,100.525,265.625,102.114z"/>
	<path fill="#E6E6E6" d="M223.092,66.549c1.799,0.901,0.732,2.078,2.689,2.93c1.957,0.857,7.578-1.099,8.066,0.244
		c0.488,1.346-5.746,1.47-4.889,2.324c0.854,0.855,4.4,2.202,3.908,2.933c-0.488,0.733,5.867,2.813,6.479,1.834
		c0.613-0.98,2.326-0.734,3.912-0.121c1.59,0.608,1.709-3.792,2.813-3.059c1.1,0.732,0.979-1.588,2.811-2.322
		c1.832-0.732,4.477-0.742,4.645-1.59c0.121-0.608-0.49-1.465-2.688-1.221c-2.201,0.245-3.668-0.613-2.689-1.832
		c0.979-1.223-2.445-1.589-1.223-2.568c1.223-0.978-2.322-1.954-1.959-0.489c0.369,1.468-2.199,0.124-2.563-1.221
		c-0.369-1.346-5.381-1.834-8.676-4.77c-3.305-2.933-6.727-0.976-4.77-0.608c1.957,0.364,1.834,1.346,0.244,1.221
		c-1.59-0.125-4.4,0.125-1.832,1.099c2.564,0.979-0.246,1.346-2.324,1.346s-2.197,2.688,0.488,3.057
		c2.691,0.365,0.736,1.954-1.467,1.344C221.871,64.469,221.137,65.57,223.092,66.549z"/>
	<path fill="#E6E6E6" d="M216.49,85.859c-0.121,1.221-2.932-0.244-5.131-1.101c-2.203-0.853-0.857,1.713,0.854,3.179
		c1.713,1.464-0.854,0.732-3.178-0.857c-2.324-1.59-2.078,1.101-0.977,1.958c1.098,0.854-0.246,2.076-1.711,0.12
		c-1.469-1.954-2.201-4.032-4.525-4.154c-2.32-0.122-1.26,2.258-0.363,3.42c1.223,1.59,2.443,1.955,4.4,3.055
		c1.953,1.102,5.131-0.488,6.6-0.12c1.467,0.363-1.59,2.197-0.613,3.423c0.98,1.222,3.672,0.364,5.744,0.241
		c2.08-0.12,1.102-1.341,2.324-2.199c1.223-0.856-1.223-0.732-0.244-2.811C220.646,87.938,216.613,84.636,216.49,85.859z"/>
	<path fill="#E6E6E6" d="M216.49,66.671c0.857-1.468-5.154-2.617-3.664-1.347C213.68,66.059,215.635,68.138,216.49,66.671z"/>
	<path fill="#E6E6E6" d="M221.623,78.649c1.836,0,3.299-0.245,4.893-0.855c1.586-0.611-0.857-0.611,0.24-2.08
		c1.102-1.464-2.688-1.585-2.932-1.097c-0.244,0.486-5.012-2.936-5.746-1.834C217.348,73.88,219.791,78.649,221.623,78.649z"/>
	<path fill="#E6E6E6" d="M266.727,150.518c0.242-1.222-4.033-1.714-3.789-3.055c0.244-1.347-4.031-2.447-5.377-3.177
		c-1.346-0.734-3.424-1.101-3.424-2.569c0-1.465-2.934-0.366-3.055,1.834c-0.123,2.2-1.344,1.709-0.734,3.787
		c0.611,2.079-2.691,2.569-2.32,3.667c0.365,1.101,1.953-0.122,3.422-0.122c1.467,0-0.396,2.045,1.467,2.201
		c1.465,0.123,4.033-1.591,4.645-2.566c0.609-0.977,1.834-1.344,3.543-0.123C262.814,151.618,266.48,151.74,266.727,150.518z"/>
	<path fill="#E6E6E6" d="M268.684,159.928c0.854-0.119,2.564-3.179,0.365-3.055C266.85,156.995,267.352,160.119,268.684,159.928z"/>
	<path fill="#E6E6E6" d="M306.695,139.761c1.465,0.122,1.711,1.956,4.033,3.912c2.32,1.955,2.566,0.612,2.932-0.733
		c0.367-1.346,2.934-0.244,2.813-1.589c-0.121-1.346,2.078-2.933,3.543-3.544c1.467-0.612-1.219-2.08-3.176-1.958
		c-1.957,0.124-2.324-1.221-2.324-2.076c0-0.857-3.666-2.935-4.889-2.569c-1.221,0.366-3.299-1.59-4.889-1.712
		c-1.59-0.12-3.912-1.343-3.668-3.053c0.246-1.713,3.18,0.488,3.789-0.856c0.609-1.344-3.055-0.611-3.178-1.59
		c-0.119-0.977,0.857-0.61,1.59-1.223c0.734-0.61-0.611-1.832-1.467-2.32c-0.854-0.49-1.1,0.977-1.955,0.977s-0.123-1.345,0.488-2.2
		c0.613-0.857-2.811-1.834-4.277-1.346c-1.469,0.488-1.957-0.364-1.957-1.343c0-0.979-2.564,0-3.541,0.73
		c-0.98,0.737-2.203-0.73-0.98-0.853c1.221-0.122,2.689-1.101,2.322-2.203c-0.365-1.097-3.545-1.221-4.156,0.125
		c-0.609,1.345-3.18-1.467-3.18-2.568c0-1.1-3.908-0.122-3.42-1.954c0.49-1.834-4.521-2.324-5.865-2.324
		c-1.346,0-3.301,1.1-3.055,2.324c0.242,1.223-1.471,0.732-1.715-0.611c-0.244-1.343-3.545,1.465-4.521,1.465
		s0.611-3.542,0.121-4.644c-0.488-1.101-1.219-1.465-1.953-3.299c-0.738-1.834-4.4-1.101-5.379,0
		c-0.977,1.099-4.154,0.611-5.865,2.322c-1.713,1.712,0.119,3.421,0.854,4.032c0.736,0.607-2.566,1.589-1.467,2.567
		c1.102,0.981,2.813,0.49,2.934,2.078c0.121,1.589-4.033-0.486-4.645-1.834c-0.611-1.343,0.246-2.565-0.611-3.543
		c-0.854-0.977-0.123-2.198,1.469-3.912c1.586-1.709,2.811-1.465,2.811-2.444c0-0.976-6.846-0.976-10.879,2.689
		c-4.035,3.667-2.811,8.559-2.566,9.532c0.244,0.979,3.789,0.489,5.865,1.102c2.078,0.613,0.977,1.465-0.609,1.224
		c-1.588-0.245-4.277-0.735-4.156,0.366c0.121,1.102,3.422,3.178,5.379,2.69c1.955-0.49,1.955-0.49,2.809,0.609
		c0.857,1.101,3.18,0.734,5.5,0.857c2.324,0.122,5.014,0.976,6.111,1.099c1.102,0.122,2.447-0.61,2.811-1.222
		c0.371-0.612,4.893,0.978,6.234,0.855c1.346-0.123,0.49-1.344-0.363-1.711c-0.857-0.366-0.492-1.955,0.607-1.344
		c1.102,0.61,2.936,0.978,3.303,2.076c0.311,0.937,1.344,0.49,1.467,1.346c0.119,0.857,4.031,1.833,4.152,2.813
		c0.125,0.977-3.785,1.467-2.686,2.323c1.1,0.854,2.811-1.102,4.277-1.222c1.467-0.124,1.467,3.175,2.568,2.689
		c1.498-0.668,2.686,0.61,4.154,2.688c1.467,2.077-0.121,4.031,0,4.766c0.121,0.733,2.934,0.489,4.521-0.368
		c1.59-0.857,3.057,0.979,4.277,2.078c1.223,1.102-4.521,2.935-4.031,1.956c0.486-0.979-3.424-3.909-6.969-2.566
		c-3.543,1.346-1.1,3.424-0.73,4.645c0.363,1.223-3.18,2.444-6.48,1.345c-3.299-1.102-2.322,0.732-3.666,0.732
		c-1.342,0-2.811,2.077-1.588,3.424c1.219,1.341,3.908,0.122,6.111,0.244c2.197,0.12,2.443,0.733,2.686-0.488
		c0.248-1.224,2.568-0.613,4.156-0.247c1.592,0.366,1.223,2.569,3.18,2.813c1.953,0.241,0.367,2.199,1.588,3.543
		c1.223,1.345,5.133,0.609,6.602,2.078c1.467,1.467,7.684,4.389,8.557,3.299c0.975-1.221-5.381-6.845-7.215-7.332
		c-1.83-0.49,1.834-1.098,4.16,0.732c2.318,1.832,5.742,2.689,7.453,0.488c1.711-2.199-1.467-1.589-1.467-3.178
		c0-1.59-1.098-3.788-2.813-3.788c-1.711,0-6.107-3.423-4.521-4.154c1.59-0.734-0.486-1.713,0.734-3.056
		C304.006,137.072,305.227,139.639,306.695,139.761z"/>
	<path fill="#E6E6E6" d="M280.904,133.895c1.465-0.246,1.195-2.506,0.367-3.667c-0.611-0.855-2.201-0.979-3.545-0.855
		c-1.346,0.12-3.666,2.198-2.443,4.276C276.504,135.727,279.438,134.137,280.904,133.895z"/>
	<path fill="#E6E6E6" d="M237.879,54.447c1.711-1.099,3.057-0.366,1.592,0.366c-1.467,0.733-0.979,1.222,1.1,1.101
		c2.08-0.122-0.855,0.611-0.855,1.834c0,1.224,2.445,0.488,2.566,1.709c0.123,1.224,5.375,1.711,6.967,0.245
		c1.59-1.466,0.977,0.369,0.854,1.345c-0.121,0.978,7.459,1.832,7.824,0.613c0.367-1.226,1.469-0.735,2.936-0.368
		c1.465,0.368,8.676-1.345,8.799-2.811s2.322,0.732,0,2.322c-2.32,1.59-6.967,1.345-9.045,1.956c-2.078,0.61,1.346,2.076,3.42,3.666
		c2.078,1.589-2.686,0.732-4.641-1.343c-1.959-2.081-6.359-2.081-8.682-1.957c-2.32,0.12-1.586,4.4,0.125,4.4
		c1.709,0,3.422,0.613,5.133,3.3c1.709,2.691,5.379,2.078,5.379,3.304c0,1.219-4.768-0.979-7.457-1.47
		c-2.689-0.489-6.967,1.221-7.088,3.177c-0.125,1.958,3.908,1.712,6.6,0.123c2.689-1.59,0.732,0.49-0.613,1.714
		c-1.342,1.221,3.18,2.198,3.18,3.666c0,1.467-3.301,0.979-3.668-0.366c-0.367-1.343-1.59-2.691-4.764-2.444
		c-3.182,0.241-2.324,2.444-0.369,2.688c1.957,0.245,2.078,1.708-0.121,1.708c-2.201,0-7.164,1.381-5.625,2.813
		c1.711,1.59,7.947,0,9.047,0.977c1.102,0.979,4.156,1.345,4.887,0.247c0.736-1.102,3.18-0.613,5.621-0.613
		c2.443,0,3.057,0.366,4.158,1.346c1.102,0.977,3.057,0.61,4.4-0.366c1.344-0.979,1.344-0.979,3.055-0.979
		c1.713,0,2.08-1.097,1.227-2.442c-0.857-1.346-3.061,0.977-3.305,0c-0.299-1.212-2.32-1.59-5.742-1.101s-1.957-2.203,0.123-1.589
		c2.074,0.61,4.889,0.368,7.209-0.244c2.322-0.613,0.488-1.714,0.488-2.691s2.936-0.364,5.135-0.364c2.197,0,5.379-3.547,5.5-5.623
		c0.121-2.078-4.889-1.587-7.336-1.587c-2.443,0,1.59-1.836,6.236-1.589c4.643,0.242,2.568-1.834,3.424-2.566
		c0.855-0.735,3.053,0.854,5.377,0.366c2.32-0.49,0.73-2.446,2.32-2.446c1.127,0,3.67-1.709,8.68-4.522
		c5.01-2.811,8.922-2.323,9.166-3.912c0.244-1.588-6.967,0-8.189-0.488c-1.223-0.489,5.012-1.833,6.479-1.466
		c1.467,0.366,3.424,0,8.436-2.446c5.012-2.442,2.811-3.055,0.732-2.687c-2.078,0.367-4.4-0.369-4.277-1.713
		c0.117-1.342-3.057-0.122-3.18-0.853c-0.123-0.733-3.055-0.366-6.234,0.853c-3.178,1.225-0.246-1.219,1.104-1.71
		c1.342-0.488-8.068,0-9.658-1.099c-1.59-1.102-3.42,1.831-4.891,0.366c-1.465-1.467-5.256-0.243-4.768,0.857
		c0.492,1.097-0.609,1.097-2.078-0.124c-1.463-1.221-4.273,0.124-6.842-0.244c-2.566-0.366-1.469,2.078-4.279,0.857
		c-2.809-1.224-5.863-0.613-5.012-0.245c0.857,0.364-0.242,1.097-1.467,0.733c-1.219-0.369-2.32,0.12-1.709,1.343
		s-4.521-0.366-4.521,0.979c0,1.343-1.832,2.076-3.303,0.854c-1.465-1.223-6.109-1.589-4.766-0.488
		c1.348,1.098-4.154,0.488-2.689,1.589c1.469,1.099-1.832,1.956-1.832,1.343s-3.057-1.714-4.279-0.613
		c-1.219,1.101-1.588,2.446-2.197,1.714c-0.613-0.735-3.303-0.488-5.869,0.488C233.238,54.813,236.17,55.547,237.879,54.447z"/>
	<path fill="#E6E6E6" d="M202.682,94.416c0.854-0.977-1.834-3.055-2.568-1.345C199.379,94.784,201.809,95.41,202.682,94.416z"/>
	<path fill="#E6E6E6" d="M234.459,94.66c0.854,2.444,1.834,0.733,3.178,1.709c1.344,0.981,3.422,1.589,4.523,0.613
		c1.098-0.976,1.586-1.709,1.955-0.857c0.596,1.392,3.299,1.59,9.166,1.714c5.867,0.119,4.398-2.447,6.113-1.47
		c1.709,0.981,5.621,0.981,7.332,0.613c1.709-0.368,2.566-3.055,2.445-4.4c-0.123-1.346-13.201-2.442-15.525-1.102
		c-2.32,1.345-5.99-0.61-7.822,0.369c-1.83,0.977-1.221-1.222-4.521-1.345c-3.299-0.124,0.246-1.834,0.857-2.566
		c0.607-0.733-5.012-2.687-7.336-2.201c-2.322,0.489-3.664-0.732-5.865-1.711c-2.203-0.977-8.172-0.746-6.969,0.979
		c0.859,1.221,7.945,3.79,8.68,2.567c0.732-1.224,2.568,1.467,3.666,2.808C235.436,91.724,233.604,92.216,234.459,94.66z"/>
	<path fill="#E6E6E6" d="M199.746,72.415c1.467-0.978,4.156,0.612,3.666,1.714c-0.488,1.096-4.717-0.225-4.398,0.732
		c0.123,0.364,0.611,1.834,3.543,0.975c2.936-0.854,5.381-0.242,7.334,1.348c1.955,1.585,3.789,2.198,5.135,0.611
		c1.344-1.592-1.713-1.836-1.1-3.057c0.609-1.221-1.955-1.955-3.301-1.955s-1.834-2.446-2.934-1.958
		c-1.102,0.488-1.832,1.345-1.832-0.244c0-1.59-6.357-1.712-7.947-1.102C196.324,70.093,198.279,73.392,199.746,72.415z"/>
	<path fill="#E6E6E6" d="M206.348,122.038c0.734-0.854,3.789,1.712,3.91-0.122c0.123-1.833-3.422-2.688-4.889-3.666
		c-1.467-0.981-2.076-0.49-4.4-2.2c-2.322-1.712,0.613-2.568-1.102-3.912c-1.711-1.343-2.32-5.011-1.1-6.231
		c1.225-1.226,2.566-3.056,0.369-3.915c-2.203-0.854-5.748,0.735-5.377,1.224c0.367,0.489,3.42,2.198,3.42,2.935
		c0,0.73-2.813-2.081-3.791-1.469c-0.977,0.612-2.074-1.222-2.931,0c-0.856,1.226,1.1,5.501,1.832,6.722
		c0.736,1.226-0.732,1.226-1.708,1.467c-0.979,0.246-1.102-3.421-2.08-4.767c-0.978-1.343-4.889-2.933-5.133-1.954
		c-0.244,0.977,2.443,0.977,2.078,2.32c-0.366,1.346-1.834-0.854-3.178,0.244c-1.348,1.102-1.102,0.367-0.857-0.732
		c0.248-1.101-1.952-2.322-4.396-2.075c-2.447,0.244-1.1,1.955-1.834,2.563c-0.732,0.611-4.4-0.366-2.08-0.854
		c2.324-0.488,1.348-1.834,0.49-3.18c-0.857-1.345-3.178,0.245-6.965,1.59c-3.791,1.345-5.502,2.811-5.013,2.933
		c0.488,0.122,0.61,0.729-0.856,1.956c-1.468,1.224,0,2.325,1.345,2.325s0.163,1.076,1.099,1.343
		c0.857,0.244,5.258-1.712,6.48-0.857c1.222,0.857-7.213,1.346-7.213,2.813s4.645,2.319,8.066,1.711
		c3.425-0.613,9.412,0.488,9.412,1.345c0,0.855-4.031,0.609-7.088,0.487c-3.055-0.123-8.312,0.856-8.065,1.833
		c0.271,1.094,0.608,1.101,3.786,2.566c3.178,1.467,6.479-0.733,6.354,1.346c-0.12,2.078,1.712,2.566,5.987,2.685
		c4.281,0.125,6.236-1.953,8.314-1.829c2.08,0.12,3.054-0.245,4.035-1.712c0.975-1.467,1.832-0.612,2.078,0.122
		c0.242,0.733,2.932,0.611,3.543,1.221c1.559,1.559,6.723,1.101,8.68,0.124c1.953-0.979-0.859-3.669-1.836-2.446
		c-0.977,1.221-1.832,0.489-2.078-0.122C203.412,123.259,205.613,122.895,206.348,122.038z"/>
	<path fill="#E6E6E6" d="M257.926,157.239c1.957,1.224,4.889-2.077,4.645-3.054C262.326,153.207,255.563,155.766,257.926,157.239z"
		/>
	<path fill="#E6E6E6" d="M121.543,190.965c-2.201,1.168,3.088,6.751,4.191,6.049c0.754-0.48-1.306-2.821-1.306-4.26
		C124.429,191.311,123.74,189.797,121.543,190.965z"/>
	<path fill="#E6E6E6" d="M322.951,218.843c-0.857,0.122-0.186-1.222-0.064-1.894c0.127-0.674-1.83,0.304-1.893,1.098
		c-0.063,0.796-1.406,1.102-1.406,1.59c0,1.429-0.184,0.674-1.16,1.161c-0.979,0.489-4.768,0-4.889-0.857
		c-0.125-0.855-2.871-1.28-2.994-2.445c-0.123-1.16-1.469-1.523-0.367-2.807c1.102-1.286-0.184-1.896-1.223-0.92
		c-1.039,0.978-1.65-0.548-0.244-1.096c1.404-0.55,4.033-1.101,2.688-3.545c-1.344-2.445-9.777,0.729-11.916,1.953
		c-2.139,1.222-4.83,5.136-5.99,5.136c-1.158,0,2.016-2.081,2.506-2.876c0.488-0.791-0.121-1.59,0.551-1.28
		c0.674,0.304,2.566-2.63,3.852-3.607c1.281-0.978,2.688-0.061,2.871-0.856c0.184-0.794,0.795-1.344,2.018-2.444
		s15.828-0.915,17.232-0.856c1.406,0.063,4.158-1.834,4.949-3.054c0.795-1.224,1.836-1.224,3.789-1.099
		c1.957,0.12,2.875-1.651,3.852-2.323c0.979-0.673,0.611-0.978-0.244-1.161c-0.857-0.185-1.65-0.734-0.795-0.795
		c0.857-0.061,1.283-0.548,1.65-1.65c0.367-1.099-0.305-0.609-1.469-2.139c-1.158-1.527-1.77,0.487-2.932,0.366
		c-1.162-0.12,0.795-1.586-0.186-2.201c-0.977-0.608-2.811-0.178-4.275,1.042c-1.467,1.22-1.346-0.062-2.629,1.159
		c-1.281,1.221-1.281-0.611-0.672-1.101c0.613-0.485,1.041,0.06,1.588-0.669c0.551-0.736,1.1,0,2.506-0.918
		c1.408-0.918,2.629-0.489,3.055-1.162c0.428-0.67-0.67-1.59-2.016-1.284c-1.342,0.309-2.26-1.835-3.115-1.22
		c-0.859,0.611-0.672-0.921-1.65-0.308c-0.977,0.612-1.529-0.185-1.957-1.345c-0.426-1.161-3.055-3.056-4.645-3.543
		c-1.588-0.488-0.547-1.344,0.305-0.736c0.857,0.611,1.836-0.607,2.201-1.219c0.367-0.613-0.609-1.162-1.1-1.225
		c-0.488-0.063-0.488-0.859-0.367-1.468c0.123-0.612-1.709-1.407-1.771-2.016c-0.063-0.614-1.102-1.04-1.039-1.589
		c0.063-0.551-1.039-1.346-1.039-2.078c0-0.733-1.83-2.203-1.893-3.056c-0.063-0.856-1.039-1.464-1.406-2.506
		c-0.367-1.038-0.857-0.55-1.223,0.914c-0.367,1.47-1.65,1.408-1.283,1.897c0.754,1.002,0.184,1.035-0.367,1.648
		c-0.549,0.613,0.367,1.529-0.549,1.529c-0.918,0-0.49,1.895-0.98,1.039c-0.486-0.856-1.65-0.615-1.65,0.244
		c0,0.855-1.953,1.647-2.748,1.59c-0.795-0.064-0.795-1.714-1.465-1.223c-0.676,0.488-0.551-1.406-1.59-1.346
		s-1.775-0.061-1.467-0.977c0.303-0.918-1.773-1.346-1.102-1.896c0.674-0.549-0.184-1.525-0.307-3.115
		c-0.119-1.592,0.92-1.709,0.92-2.322c0-0.609-0.734-0.609-1.469-0.122c-0.732,0.487-0.732-0.67-1.531-0.612
		c-0.791,0.063-3.174-0.058-3.297-1.163c-0.121-1.097-0.916-0.547-1.283-1.585c-0.365-1.039-1.342-0.246-1.342-0.979
		c0-0.732-0.43-1.038-1.164-1.099c-0.73-0.063-0.977-0.855-1.955-0.979c-0.977-0.123-2.201,0.672-2.748,0.916
		c-0.551,0.244-1.957-0.854-2.506-0.428c-0.551,0.428-0.674-0.305-2.199-0.733c-1.531-0.428-3.549-0.552-3.668,0
		c-0.123,0.549-1.346,0.733-1.164,2.017c0.186,1.285,1.469,1.039,1.777,1.896c0.303,0.854-0.613,0.55-0.676,1.343
		c-0.061,0.795-0.854,0.737-0.854,1.283c0,0.551,0.547,0.429,0.854,1.53c0.307,1.097,0.916,1.038,1.102,2.504
		c0.182,1.468-0.492,1.161-1.102,1.345c-0.609,0.182,0.063,0.916-0.793,1.893c-0.857,0.98-1.59,2.02-0.918,2.631
		c0.672,0.61,3.178,1.649,4.156,3.299s0.916,4.217,0.611,6.054c-0.309,1.831-2.381,2.26-3.91,3.847
		c-1.529,1.594-3.117,1.346-3.852,1.404c-0.734,0.063-0.305,1.531,0.734,2.691c1.037,1.162,0.184,1.526,0.732,2.75
		c0.551,1.223,0,2.2,0.795,3.299c0.793,1.102,0.303,1.529-0.611,2.327c-0.916,0.793,0.367,0.365,0.426,1.403
		c0.063,1.038-0.426,0.429-1.221-0.123c-0.795-0.549-1.527,1.039-1.527,1.711s-1.896-0.914-2.324-0.855
		c-0.428,0.063,0.123-1.039-0.977-1.895s-1.955-1.039-1.955-1.894c0-0.855-1.895-1.467-1.895-2.445c0-0.979,0.246-3.481-0.184-4.216
		c-0.43-0.733-0.061-1.529,0.305-2.201c0.367-0.672-0.426-1.709-1.527-1.709c-1.1,0-2.627-0.369-4.154-0.248
		c-1.529,0.123-2.385-0.121-2.873-0.549c-0.488-0.427-1.895-1.346-3.787-1.832c-1.895-0.492-2.754-1.466-2.936-2.016
		c-0.186-0.551-2.078-0.979-2.504-1.531c-0.428-0.549-2.264-0.854-2.996-0.731c-0.734,0.122-2.568-1.53-3.67-1.468
		c-1.096,0.063-3.662,1.162-4.09,1.225c-0.432,0.061,0.061-0.918,0.365-1.349c0.305-0.427-0.918-2.261-1.225-3.483
		c-0.303-1.221-0.732-2.566-2.016-2.383c-1.281,0.18-2.688-0.488-3.055-0.732c-0.367-0.246-0.428-3.729-0.121-5.195
		c0.305-1.467,1.895-3.67,1.895-4.584s1.037-1.342,1.955-1.587c0.914-0.247,0.184-2.019,1.1-2.14
		c0.916-0.123,0.979-0.489,1.162-1.221c0.182-0.736,1.281-0.245,0.67-0.857c-0.609-0.611-0.121-0.793,1.281-0.793
		c1.41,0,3.484-0.49,3.18-1.896c-0.305-1.402-3.971-0.366-3.971-1.527c0-1.163-4.646-1.223-4.34-1.894
		c0.305-0.673,4.648,0.489,6.232,1.099c1.59,0.61,2.018,0.549,3.301,0.488c1.283-0.062,0.43-1.709,0.672-2.384
		c0.246-0.673,2.689,1.042,4.096,0.675c1.404-0.37,2.75-3.241,3.912-4.034c1.16-0.795,0.121-1.53-2.139-1.344
		c-2.262,0.18-3.543-0.674-4.77-1.592c-1.223-0.914-1.1-1.649,0.186-1.526c1.283,0.119,4.34,2.628,5.498,2.688
		c1.162,0.063,3.18-2.26,4.156-2.995c0.979-0.732-0.916-1.041-1.586-1.587c-0.674-0.551,1.16-0.917,2.137-0.917
		s1.406,0.855,1.771,1.284c0.367,0.426,2.078-0.304,2.936-0.304c0.855,0-0.123-1.408-1.529-1.958
		c-1.406-0.549,0.063-1.589,0.49-0.734c0.428,0.857,1.404,0.673,1.895,1.652c0.713,1.425,1.16,0.487,2.383,0.06
		c1.219-0.428,1.832-1.161,2.504-1.894c0.674-0.735,0.797,0.12,1.59-1.039c0.795-1.161-0.369-2.262-1.346-2.997
		c-0.977-0.732,0.063-1.463-0.916-1.953c-0.977-0.491-1.162-1.408,0.063-1.162c1.221,0.242,2.199-0.125,2.75-0.979
		c0.551-0.855-1.834-1.039-0.734-1.649c1.102-0.611,0.184-1.222-0.914-1.222c-1.102,0-2.018-0.55-2.08-1.467
		c-0.061-0.917-1.955-0.304-3.115-0.857c-1.162-0.548-3.727-0.428-4.34-0.366c-0.611,0.062-0.674,2.568,0.242,2.628
		c0.918,0.063,1.652,1.04,0.857,1.346c-0.795,0.304,0.123,1.281-0.486,1.218c-0.613-0.058-1.592-0.366-1.775,1.223
		c-0.182,1.59-0.307,2.203-1.346,2.753c-1.035,0.55-0.242-1.774-1.221-1.712c-0.977,0.06-1.1,1.956-0.365,2.141
		c0.73,0.182,0.854,0.792,1.035,1.707c0.186,0.919-1.342,0.246-1.955,1.348c-0.609,1.097-0.668-0.49-1.527-1.223
		c-0.855-0.735-1.893-1.956-1.832-2.872c0.053-0.802,0.488-1.1,1.162-1.224c0.67-0.122,0-0.73-0.061-1.832
		c-0.063-1.099-0.857-0.735-1.834-1.894c-0.98-1.163-2.018-1.163-2.566-0.613c-0.551,0.551-0.186,1.59-1.039,1.956
		c-0.857,0.367-0.49,2.078-1.223,2.2c-0.734,0.122-0.307-2.993-0.918-3.297c-0.607-0.307-0.549-1.041,0.365-1.163
		c0.918-0.122,1.467-1.101,0.674-1.101s-2.199-0.855-2.748-1.102c-0.551-0.242-1.467,1.04-2.08,0.55
		c-0.611-0.488,0.061-1.709,0.121-2.382c0.066-0.672,0.98,0.308,1.592-0.55c0.611-0.854-1.713-0.854-1.713-1.773
		c0-0.917-1.834-1.159-2.443-1.468c-0.611-0.304,0.428-1.832,0.121-2.444c-0.307-0.608-2.566-2.625-3.543-2.442
		c-0.977,0.182-1.223-1.284-0.674-1.222c0.553,0.058,0.98-0.306,2.018-1.467c1.039-1.163,1.162-1.53,0.428-1.772
		c-0.732-0.246-1.1-0.98,0.184-0.918c1.281,0.06,3.543,0.918,4.275,0.367c0.736-0.551,3.059-4.156,3.975-5.436
		c0.914-1.288-0.67-1.407-2.873-1.225c-2.199,0.182-2.688-0.855-4.521-0.978s-5.254,0.364-5.744,0.915
		c-0.488,0.551,0.918,1.04,0.734,1.652c-0.186,0.612-1.285-0.427-1.773-0.185c-0.49,0.247,0.18,1.04,0,3.18
		c-0.184,2.138,0.428,2.26,1.039,3.058c0.611,0.792,0.49,1.831,0.49,3.174c0,1.345-1.287,1.283-1.713,1.589
		c-0.428,0.306,1.1,0.795,0.855,1.652c-0.244,0.854-1.527-0.491-2.262-0.247c-0.732,0.247-1.344,2.325-0.549,2.995
		c0.797,0.674,1.1,0.55,0.488,1.345s-1.283,1.954,0.184,3.117c1.467,1.161,4.154,1.039,5.563,1.954
		c1.404,0.917-0.611,0.368-0.061,1.405c0.547,1.042-0.92,1.408-0.859,2.202c0.063,0.793,0.613,0.367,1.346-0.977
		c0.732-1.345,1.281,0.364,1.223,1.528c-0.063,1.161-1.1,0.488-1.893,1.647c-0.797,1.164-1.531,1.344-2.689,1.102
		c-1.162-0.242-0.49,1.652,0,2.691c0.488,1.037-0.123,1.403-1.471,1.037c-1.342-0.367-2.135-1.221-1.465-2.26
		c0.672-1.041,1.162-2.262,0.369-2.141c-0.799,0.125-2.629-0.059-3.18-0.914c-0.551-0.857,0.369-0.491,2.016-0.307
		c1.65,0.182,0.246-1.102,1.467-1.102c1.225,0,2.141,0.673,3.178-0.246c1.039-0.914-0.67-2.686-1.525-2.38
		c-0.859,0.304-2.201,0.67-2.201-0.185c0-0.856,1.467-0.246,2.262-0.428s-0.432-1.281-1.65-0.977
		c-1.223,0.305-2.08,0.367-3.057-0.672s-2.748-1.649-3.176,0.732c-0.432,2.385-2.141,1.1-2.814,1.896
		c-0.672,0.795,0.799,1.343,2.445,1.406c1.652,0.062,2.873,1.589,2.078,1.589c-0.793,0-0.426,1.159-1.281,0.732
		c-0.859-0.425-1.715,0-1.102,0.733c0.611,0.735-0.244,1.037-0.184,1.774c0.061,0.732-1.283,0.06-2.566-0.063
		c-1.283-0.123-3.666,0.304-5.377,0.673c-1.713,0.366-3.605-0.245-4.342-1.04c-0.73-0.792-1.709-0.672-2.932-0.672
		c-1.221,0-0.855-1.162-2.443-1.221c-1.59-0.063-1.223-1.405-1.406-2.203c-0.184-0.792-3.361-0.548-4.521,0.184
		c-1.162,0.735-3.424,0.429-4.035,1.774c-0.613,1.345,0.549,1.159,1.225,1.159c0.934,0,0.854-1.1,2.564-0.855
		c1.711,0.244,2.934-1.774,3.666-1.039c0.734,0.735-2.932,2.138-4.519,2.384c-1.59,0.246-1.224,1.528,0.304,3.79
		c1.529,2.26-0.673,0.975-0.673,2.076c0,1.099-2.871-0.367-1.709-0.733c1.159-0.368,0.609-1.529-0.309-2.262
		c-0.915-0.732-1.525,0-1.402-0.792c0.119-0.795-0.98,0.06-1.835-0.612c-0.856-0.673-1.284-1.22-2.443-0.611
		c-1.162,0.611-2.507,0.429-5.073,0.855c-2.566,0.428-7.271,0.306-8.131-0.551c-0.852-0.855,2.203-2.382,3.119-2.138
		c0.889,0.238,0.365-0.977-1.041-2.078c-1.402-1.098-4.521-1.771-4.459-1.098c0.062,0.673-1.771,0.062-4.032-0.366
		c-2.263-0.428-2.569-1.226-4.036-1.284c-1.416-0.063-3.665-0.49-5.377-1.831c-1.711-1.348-5.744-0.981-6.234,0.242
		c-0.488,1.221-1.833,1.161-3.176,1.161c-1.344,0,0.606-1.514,0.122-1.774c-0.644-0.343,0.06-2.016-0.917-2.135
		c-0.976-0.125-1.894,4.029-3.724,3.909c-1.836-0.122-2.632-4.4-4.159-5.501c-1.527-1.099-2.932-1.161-1.652,0.491
		c1.286,1.65-1.099,0.488-0.977,1.587c0.122,1.099-2.075,2.385-2.018,1.774c0.062-0.612-1.219-1.283-2.687,0.426
		c-1.468,1.71-2.506,1.468-2.628,0.857c-0.125-0.613-4.462,1.587-4.278,2.322c0.186,0.732-0.673,1.283-1.834,1.221
		c-1.162-0.062-0.245-1.036,0.672-1.526c1.033-0.549,3.852-2.811,5.314-3.053c1.471-0.247,4.282-1.408,4.341-2.08
		c0.062-0.673-1.406-0.123-2.382-0.307c-0.978-0.185-2.688,0.917-4.34,1.652c-1.648,0.735-3.543,0.488-3.058,1.466
		c0.49,0.979-1.523-0.123-1.954,0.55c-0.428,0.672-1.221-0.062-0.61-0.429c0.61-0.364-1.465-1.039-1.465-0.61
		c0,0.427-0.369,0.977-1.834,0.977c-1.468,0-2.935,1.038-1.958,1.775c0.979,0.731,1.589,1.097,1.102,1.585
		c-0.489,0.489-2.018-1.281-4.156-1.098c-2.138,0.182-6.417-2.383-6.417-2.993c0-0.498-3.008-0.189-5.093-0.415
		c-0.489-0.051-0.925-0.134-1.264-0.26c-1.771-0.672-4.4-1.893-5.805-1.59c-1.405,0.307-4.216,0.673-5.193,0.185
		c-0.979-0.488-2.324-0.915-4.34-0.611c-2.016,0.308-3.302-1.101-5.868-1.711c-2.568-0.613-6.172,0.182-7.026,0.489
		c-0.854,0.306-0.673-0.918-1.774-0.796c-1.101,0.123-0.244-0.488-0.854-1.403c-0.613-0.919-3.667-0.062-4.766,0.058
		c-1.1,0.123-1.408-0.546-1.346-1.097c0.061-0.55-0.979-0.368-1.405,0.364c-0.429,0.733-1.649,0.855-2.139,0.369
		c-0.49-0.488,1.038-0.672,1.1-1.223c0.06-0.55-1.589-0.854-2.2-1.04c-0.61-0.184-1.588,0.611-2.874,1.774
		c-1.283,1.159-3.177,1.037-4.339,0.915c-1.16-0.12-2.625,0.123-2.564,0.795c0.06,0.673,1.465,0.61,0.61,1.467
		c-0.855,0.854-1.161-1.161-2.019-0.247c-0.854,0.917-3.42,0.858-4.033,0.735c-0.61-0.122-2.626,2.076-3.237,2.688
		c-0.612,0.613,0.489,1.164-1.16,2.936c-1.65,1.771-6.052,1.405-6.967,1.405c-0.919,0-0.245,1.04-0.735,1.712
		c-0.488,0.67,0.551,1.283,3.058,1.953c2.506,0.673,4.215,3.972,4.522,4.767c0.304,0.795,3.422-0.061,4.641,0.124
		c1.226,0.182-0.122,1.894,0.918,2.384c1.038,0.489,2.628-0.247,2.935,0.611c0.306,0.853-2.079,0-3.302,0.914
		c-1.219,0.915-1.832,1.346-2.32,0.673c-0.489-0.673-2.506-0.246-3.546-0.122c-1.039,0.122-0.062-1.283,0-1.896
		c0.062-0.611-1.405-1.039-3.423,0.125c-2.015,1.159-1.283,0.732-1.527,1.647c-0.242,0.919-1.101-0.548-2.382,0.246
		c-1.286,0.795-3.362,1.345-3.73,2.141c-0.366,0.792,2.75,1.343,3.972,1.589c1.226,0.245-1.466,1.034-0.489,1.343
		c0.978,0.305,0.551,1.221,2.079,2.017c1.529,0.795,4.95,0,5.867,0c0.917,0,1.774,1.1,2.504,0.306
		c0.735-0.794,3.486-2.994,4.892-1.708c1.405,1.281-1.53,1.096-0.796,1.893c0.733,0.793,1.65,2.687,0.304,3.668
		c-1.343,0.977-2.624,0.303-3.359,0.242c-0.735-0.061-0.306,1.342-1.467,2.26c-1.161,0.92-2.018-0.977-3.483-0.977
		c-1.468,0-1.162,1.896-1.101,2.811c0.062,0.918-2.198-0.182-2.749,2.018c-0.55,2.2-2.873,0.307-1.346,2.444
		c1.528,2.138,1.284,0.794,2.509,1.649c1.218,0.857-1.347,2.387-0.124,2.629c1.223,0.244,2.566,2.444,3.421,3.238
		c0.854,0.795,1.956-0.428,3.239-0.488c1.285-0.062,0.673-1.834,1.405-1.16c0.735,0.672,1.773,2.626,1.099,3.116
		c-0.667,0.489-0.122,2.015-0.241,2.749c-0.122,0.734,2.81,0.49,2.994-0.366c0.182-0.856,2.507-1.102,3.788,0.306
		c1.283,1.406,1.714,1.647,1.714,0.551c0-1.102,1.097-2.324,1.159-1.41c0.062,0.92,1.101,1.164,2.995,0.309
		c1.894-0.856,1.039,0.063,0.06,1.281c-1.35,1.69,0,4.158-0.977,4.4c-0.977,0.246-1.772,2.752-3.361,2.938
		c-1.589,0.182-4.277,3.178-4.645,3.667c-0.366,0.489-3.79-0.978-4.278,0.427s-2.557,2.453-2.016,2.998
		c0.364,0.363,3.177-1.041,3.299-1.776c0.122-0.731,0.489-0.608,0.977-0.062c0.488,0.551,1.714-0.24,2.263-0.731
		c0.551-0.489,1.467-0.306,2.016-0.247c0.553,0.063,0.795-0.672,2.444-0.977c1.649-0.304,1.286-0.793,1.649-1.647
		c0.371-0.859,4.281-2.69,5.014-2.876c0.734-0.18,0.306-1.404,1.101-1.467c0.795-0.062,2.016-1.039,3.053-1.895
		c1.041-0.854,1.285-0.487,2.081-0.796c0.794-0.304,0.182-1.892,0.976-2.017c0.795-0.119,1.408-0.731,1.408-1.404
		s-2.019-0.673-2.203-1.099c-0.182-0.431,1.59-2.019,2.262-1.956c0.671,0.063,1.772-0.672,1.835-1.65
		c0.062-0.979,1.038-1.16,1.831-2.018c0.795-0.854,0.613-1.59,1.405-1.649c0.798-0.06,1.528-1.159,2.382-1.649
		c0.859-0.488,0,0.607,1.652,0.675c1.651,0.058,1.283,1.585,0.062,1.034c-1.224-0.551-1.772-0.488-2.873,0.551
		c-1.099,1.039-0.245,1.346-1.099,2.508c-0.855,1.158-0.917,1.893,0.184,2.014c1.1,0.123,0.061,0.918-0.979,1.225
		c-1.042,0.306-0.304,0.917,1.098,0.917c1.408,0,3.484-2.019,5.44-2.997c1.953-0.975,3.423,0,3.971-0.182
		c0.551-0.18-0.61-1.102,0.063-1.406s-0.795-0.49-1.221-1.65c-0.428-1.158,0.67-0.428,0.917-1.343
		c0.242-0.916,0.915-0.55,1.527-0.124c0.609,0.429,1.466-0.426,2.016,0.734c0.551,1.164,1.159-0.306,2.141,0.49
		c0.974,0.793-0.187,0.674-1.224,0.916c-1.039,0.244-0.488,1.649,0.305,0.977c0.794-0.672,1.467-1.1,2.202-0.426
		c0.73,0.672,1.037,0.365,1.647-0.246c0.613-0.609,0.613,0.062,0.613,0.55s1.282,0.671,3.117,0.978
		c1.832,0.306,5.132-0.123,5.987-0.183c0.857-0.06,0.553,1.284,2.447,1.649c1.894,0.369,2.382-1.893,3.361-1.096
		c0.977,0.791,0,1.096-0.548,1.709c-0.553,0.609,0.608,0.67,1.341,0.977c0.735,0.307,2.446,0.795,3.242,1.588
		c0.792,0.794,1.281,1.648,3.236,2.628c1.956,0.977,0.063-2.444,1.589-1.343c1.528,1.099,0.979,0.059,2.201,1.158
		c1.221,1.104,0.794-0.488,0.244-2.322c-0.551-1.831,0.55-0.61,1.102,0.246c0.55,0.855,0.55,2.507,0.182,3.605
		c-0.367,1.1-2.2,0.184-2.019-0.426c0.185-0.612-1.832-0.369-1.891,0.488c-0.062,0.854,1.281,2.506,2.26,2.689
		c0.979,0.184,0.244,1.711,0.854,1.895c0.839,0.252,0.795,1.832,1.286,1.588c0.487-0.244,0.304-2.138-0.246-2.992
		c-0.551-0.857-0.304-2.082,0.429-1.837c0.735,0.245,0,1.53,0.366,1.956c0.369,0.428,0.794-0.426,1.649-0.914
		c0.854-0.493-0.366-1.896-0.06-2.631c0.305-0.734,1.285,0.611,1.649,1.893c0.366,1.287-0.915,1.227-0.915,1.9
		c0,0.671-1.164,0.365-1.53,0.732c-0.366,0.369-0.184,2.812,0.304,2.875c0.491,0.057,0.796-2.021,1.102-0.982
		c0.304,1.039,1.467-1.345,1.774-0.365c0.304,0.977,1.772,2.077,2.32,1.834c0.55-0.244-0.244-1.285-1.099-1.346
		c-0.855-0.063-0.735-1.468,0.062-1.529c0.793-0.057,2.198,2.018,2.136,2.752c-0.058,0.732-0.73,0.67-1.405,1.406
		c-0.67,0.734-1.59-1.222-2.383-1.162c-0.795,0.061,0,1.283,0.369,2.139c0.366,0.855-0.979,2.017,0.06,2.689
		c1.039,0.672,0.735-0.426,0.915-0.914c0.187-0.492,0.981,0.119,1.532,0.55c0.51,0.396,0.608-0.98,0.608-1.528
		c0-0.551,0.917-0.248,1.405,0.486c0.489,0.733,0.551-0.794,1.284-0.673c0.735,0.125,0.246,1.284,0.246,1.958
		c0,0.672,1.283-0.552,1.161,0.181c-0.02,0.112-0.018,0.216-0.007,0.311c0.061,0.539,0.546,0.882,1.167,1.403
		c0.734,0.611-1.344,0.611-0.733,1.16c0.611,0.548-0.122,1.407,0.491,2.075c0.611,0.673,1.71,0.432,2.383-0.118
		c0.672-0.55,1.164,0.672,0.612,1.585c-0.55,0.92,0.61,1.594,1.161,0.92c0.549-0.675,1.709,1.099,2.26,1.406
		c0.55,0.304,1.099,1.22,0.184,1.22c-0.919,0-0.797,1.59-0.123,1.652c0.671,0.061,0.611,0.914,0.611,1.465
		c0,0.549,2.137,1.343,2.933,1.102c0.795-0.246,1.527,0.488,1.896,1.161c0.366,0.67,1.831,1.161,2.382,0.733
		c0.55-0.43,0.917,0.792,1.038,1.647c0.123,0.856,1.344,0.369,2.078,0.307c0.733-0.062,1.162,0.977,1.65,0.792
		c1.077-0.401,1.401,1.48,2.114,2.584c0.084,0.129,0.173,0.248,0.271,0.352c0.917,0.979,0.182,1.709,0.486,2.876
		c0.309,1.159,0.062,2.808-0.854,2.808s-1.038-1.039-0.365-1.405c0.67-0.366,0.304-1.711-0.366-1.711
		c-0.393,0-0.551-0.46-0.535-0.998c0.011-0.388,0.11-0.81,0.288-1.143c0.427-0.793-0.916-0.242-1.709-1.096
		c-0.794-0.858-2.875-0.675-3.179-1.471c-0.307-0.796-2.203-3.665-3.237-3.605c-1.042,0.063-2.384,0.123-3.608-0.792
		c-1.223-0.92-2.018-0.979-2.87-0.43c-0.857,0.552,0.915,0.674,0.853,1.285c-0.06,0.607,0.55,0.979,1.286,0.854
		c0.732-0.119,1.158,1.408,1.896,1.469c0.73,0.061,0.972,1.22,1.831,1.22c0.855,0,1.037,0.98,1.466,1.53
		c0.428,0.55,1.404,0.059,1.404,0.609c0,0.493,0.98,0.939,1.226,1.556c0.027,0.07,0.053,0.141,0.058,0.22
		c0.062,0.73,0.431,2.382,1.408,3.662c0.977,1.285,0.304,2.081,1.221,2.568c0.917,0.489,0.855,1.04,0,0.917
		c-0.854-0.119-0.244,0.673-0.548,2.508c-0.307,1.832-0.245,5.62-0.429,6.782c-0.182,1.161-1.53,3.058-0.732,4.276
		c0.793,1.225,1.343,2.936,0.917,4.463c-0.428,1.528-0.366,2.444,0.304,3.606c0.673,1.157,0.123,3.177,0.855,3.604
		c0.735,0.431,1.405,1.282,2.078,2.383c0.673,1.102,1.286,0.431,1.405,1.528c0.123,1.1,0.123,1.283,1.102,1.713
		c0.977,0.426,0.367,1.521,0.367,2.139c0,0.608,1.285,1.71,2.872,3.113c1.59,1.407,0.244,2.569,1.406,2.569
		c1.16,0,2.26,0.67,3.424,1.404c1.158,0.735,1.526,0.304,2.318,0.49c0.795,0.182,2.264,1.894,2.57,3.055
		c0.145,0.543,0.33,1.122,0.618,1.739c0.325,0.696,0.78,1.45,1.456,2.295c1.286,1.591,2.2,4.402,2.326,5.379
		c0.121,0.977,1.893,1.772,3.42,2.751c1.527,0.973,1.527,3.113,1.344,3.664c-0.181,0.55-2.076-0.366-2.199,0.184
		c-0.121,0.552,2.445,2.69,3.424,2.569c0.977-0.127,1.465,0.488,2.994,1.831c1.527,1.344,1.404,2.935,0.793,3.425
		c-0.611,0.487,1.223,1.527,3.18,2.809c1.956,1.282,2.749,2.871,2.931,3.545c0.185,0.675,1.041,0.062,1.345-0.857
		c0.307-0.913-0.609-1.158-0.609-2.197s-1.59-0.854-2.322-0.979c-0.732-0.123,0.063-1.71-0.673-2.444
		c-0.733-0.734-1.406-2.567-1.772-3.91c-0.365-1.348-2.262-2.688-3.057-4.153c-0.795-1.469-1.647-2.628-2.198-3
		c-0.55-0.365,0.796-0.917,0.306-1.463c-0.489-0.55-1.222-0.492-2.141-0.918c-0.916-0.428-1.525-1.159-1.525-2.139
		c0-0.979-0.611-3.298-0.92-4.095c-0.304-0.794,0.675-0.67,0.979-0.304c0.308,0.362,0.55,0.729,0.979,0.489
		c0.429-0.247,1.161-0.065,1.466,0.611c0.307,0.67,1.346,0.06,1.836,0.366c0.486,0.304-1.102,0.674,0.486,3.481
		c1.59,2.811,0.488,1.223,0.488,3.116c0,1.897,0.981,1.038,1.286,0.734c0.306-0.307,1.159,0.607,1.952,1.587
		c0.799,0.981,2.322,1.039,2.322,1.591c0,0.55,0.307,1.651,1.348,1.836c1.035,0.179,1.219,1.342,1.895,1.465
		c0.671,0.12,0.792,0.854,0.426,1.648c-0.365,0.796,0,1.466,1.709,2.141c1.715,0.674,0.92,0.792,2.266,2.078
		c1.343,1.281,5.13,5.439,5.927,6.601c0.795,1.159,1.039,2.137,1.342,2.992c0.305,0.858-0.609,1.286-0.121,2.02
		c0.488,0.731-0.916,0.427-0.855,0.977c0.061,0.551,0.855,3.301,2.201,3.425c1.344,0.118,2.873,1.768,3.973,2.687
		c1.1,0.918,2.75,0.734,4.4,1.343c1.648,0.613,3.053,2.077,5.438,2.753c2.385,0.673,4.709,1.709,6.234,2.686
		c1.527,0.978,3.422,0.557,5.561-0.303c2.141-0.855,3.791,0.241,5.012,0.732c0.601,0.241,1.783,1.252,2.965,2.309
		c0,0.001-0.001,0.002-0.002,0.003c1.221,1.078,2.439,2.206,3.027,2.579c1.158,0.732,3.055-0.062,3.85,0.671
		c0.023,0.019,0.057,0.044,0.086,0.067c0.826-0.784,1.68-1.555,1.961-1.634c0.042-0.013,0.068-0.039,0.1-0.06
		c0.438,0.162,0.859,0.358,1.197,0.587c1.299,0.886,2.539,0.119,3.008,0.768c0.16,0.22,0.107,0.941-0.025,1.799
		c0.24-0.196,0.424-0.331,0.824,0c0.357,0.296,0.291,0.67,0.246,1.036c-0.047,0.381-0.072,0.762,0.424,1.043
		c0.979,0.546,2.322,2.689,3.361,3.237c0.5,0.262,0.811,0.696,0.943,1.117c0.145,0.453,0.076,0.892-0.207,1.083
		c-0.551,0.366-0.613,1.833,0.732,2.384c1.342,0.551,0.914-0.304,1.588-0.304c0.672,0,0.611,1.039,1.219,1.039
		c0.613,0,2.021,0.729,1.959,1.71c-0.063,0.976,0.488,1.404,1.59,1.404c0.199,0,0.428,0.021,0.666,0.051
		c1.211,0.152,2.785,0.68,3.549,1.601c0.918,1.101,1.469,0.366,2.018,1.344c0.551,0.977,1.834,0.058,2.139-0.551
		c0.305-0.607-0.67-0.854-0.795-1.524c-0.119-0.673,1.225-0.431,1.469-1.349c0.242-0.916,2.199-1.342,3.057-0.976
		c0.852,0.366,1.586,0.976,0.793,1.894c-0.594,0.684,0.615,1.907,1.621,2.868c0.709-0.729,1.521-1.556,1.857-1.803
		c0.188-0.14,0.301-0.461,0.381-0.864c-0.482-0.227-1.043-1.138-1.721-2.158c-0.979-1.468-2.752-1.341-3.852-1.831
		c-1.098-0.488-2.506,0.185-3.912,1.465c-1.402,1.285-3.176,0.552-4.396-0.121c-0.365-0.198-0.869-0.682-1.42-1.265
		c-0.996-1.079-2.121-2.534-2.725-3.402c-0.174-0.258-0.309-0.462-0.381-0.591c-0.424-0.789,0.307-2.38,0.672-3.543
		c0.367-1.161-0.303-3.969,0.367-4.704c0.674-0.735,0.307-1.161,0.613-2.87c0.02-0.114,0.004-0.188,0.004-0.281
		c0.021-1.34-1.801-0.906-3.061-2.168c-1.346-1.339-4.279-0.731-5.869-0.12c-1.586,0.608-3.418-0.672-5.129,0.305
		c-0.023,0.01-0.043,0.021-0.063,0.03c-0.957,0.519-1.25,0.022-1.109-0.654c0.102-0.476,0.414-1.039,0.865-1.393
		c1.098-0.854-0.549-4.278,0.73-4.582c0.238-0.058,0.434-0.193,0.613-0.357c-0.001-0.001-0.002-0.001-0.002-0.002
		c0.793-0.735,1.072-2.393,1.225-3.733c0.184-1.652-0.367-2.203,0.486-3.12c0.857-0.919,1.773-0.977,1.529-2.263
		c-0.242-1.283-1.406,0-2.383-0.607c-0.977-0.613-1.834-0.182-4.34,0.185c-2.504,0.361-3.666,1.404-3.543,3.176
		c0.121,1.774-0.855,0.978-0.793,2.506c0.059,1.528-1.957,1.588-1.836,2.505c0.121,0.918-1.59,0-2.078-0.309
		c-0.488-0.303-5.742,1.286-6.479,1.407c-0.732,0.123-2.076-1.524-3.115-1.466s-1.467-1.527-1.59-2.812s-2.08-2.444-2.936-3.604
		c-0.854-1.163-0.975-3.729-1.037-5.38c-0.061-1.649-0.244-4.461,0.918-7.7c0.156-0.438,0.227-0.813,0.248-1.153
		c0.125-2.181-2.121-2.547-0.801-3.552c1.527-1.165-0.061-2.141,0.672-2.631c0.736-0.485,2.02-0.974,2.02-1.708
		c0-0.733,0.674-0.733,1.65-0.609c0.979,0.12,2.813-1.594,2.689-2.265c-0.123-0.672,0.18-0.793,1.342-0.55
		c1.164,0.246,0.979-1.343,1.713-1.1c0.732,0.245,1.344,0.673,1.406,0.123c0.061-0.552,0.795-0.431,1.342,0.304
		c0.551,0.734,2.141,0.919,2.262,0.063c0.127-0.856,1.041,0,1.836,0.855c0.795,0.854,1.16,0.608,2.318,0.671
		c1.164,0.061,1.164-0.243,1.225-0.978c0.063-0.733,1.283,1.59,2.445,1.711c1.162,0.124,0.242-0.733-0.609-1.404
		c-0.857-0.673,0.18-0.98-0.553-1.527c-0.732-0.552,0.916-1.286,2.385-1.223c1.465,0.06,1.404,0.43,1.955-0.43
		c0.551-0.856,1.102,0,1.102,0.732c0,0.735,2.383-0.428,3.666-0.428c1.281,0,2.443,1.101,2.563,1.835
		c0.123,0.733,0.98,1.098,1.898,0.306c0.914-0.793,1.711-1.713,2.564-0.854c0.857,0.854,1.713,2.017,2.75,3.051
		c1.041,1.039-0.486,2.326,0.063,3.12c0.551,0.794-0.063,1.896,1.162,2.751c1.221,0.855,0.121,2.627,1.098,2.872
		c0.977,0.247,1.773,1.771,1.896,2.383c0.119,0.613,1.953,1.406,2.076,0.365c0.123-1.036,1.104-2.261,1.225-3.236
		c0.121-0.979-0.736-4.462-1.529-5.563c-0.793-1.098,0.182-1.343-0.793-2.626c-0.979-1.283-1.59-3.543-1.529-5.38
		c0.061-1.835,2.199-4.828,3.24-5.742c1.039-0.919,2.199-0.43,2.443-1.408c0.246-0.977,1.527-2.201,2.262-2.201
		c0.732,0,1.529,0.185,1.648-0.608c0.125-0.798,1.344-1.773,2.934-2.017c1.592-0.245,0.674-1.103,0.246-1.835
		c-0.428-0.731,0.365-1.468,0.67-0.979c0.309,0.488,1.285,0.552,1.896,0.126c0.609-0.431,2.018-1.592,0.672-1.652
		c-1.344-0.061-1.65-0.608-0.855-0.917c0.793-0.305,0.123-1.77-0.979-1.895c-1.102-0.121-0.734-0.671-0.059-1.348
		c0.672-0.668-0.98-1.767-1.773-2.319c-0.795-0.552,0.486-0.856,1.098-0.978c0.615-0.123,0.123-2.934,0.43-3.604
		c0.305-0.671,1.344-0.671,0.918,0c-0.43,0.671-1.039,1.771-0.246,2.688c0.795,0.917,1.039,1.895,0.734,3.3
		c-0.307,1.406,0.305,1.04,1.221-0.794c0.918-1.836,1.039-3.422,0.428-3.606c-0.609-0.182-0.547-2.014,0.123-1.158
		c0.672,0.854,0.914,0.977,1.955-0.124c1.039-1.101,2.141-2.991,1.465-3.422c-0.67-0.427,0.307-0.856,1.531-0.793
		c1.221,0.057,3.85-0.735,4.033-1.102c0.596-1.194-4.219,0.548-4.219-0.124c0-0.673,3.059-1.344,4.463-1.403
		c1.406-0.062,0.732-1.955,1.346-1.163c0.607,0.796,1.527,0.673,2.32,0.185s0.184-1.896-0.73-2.139
		c-0.922-0.244,0.67-0.856,0.365-1.406c-0.309-0.552,0.609-2.751,1.771-2.996c1.162-0.242,0.611-0.977,1.588-0.977
		c0.98,0,1.164-1.162,2.016-2.019c0.857-0.851,2.082,1.347,3.424,0.125c0.551-0.502,1.295-1.059,2.059-1.542
		c1.104-0.7,2.242-1.244,2.893-1.209c1.102,0.063,2.748-1.404,3.238-2.322c0.486-0.916,1.162,0.854,0.184,1.162
		c-0.979,0.307,0.793,1.038,2.506,0.979c1.709-0.06-0.799,0.608-2.078,0.55c-1.283-0.061-1.834,0.118-3.547,1.835
		c-1.709,1.708-1.281,2.198-0.303,3.052c0.977,0.856,2.26,0.49,3.607-0.672c1.344-1.16,1.281-2.32,2.623-2.26
		c1.346,0.059,4.83-1.225,6.357-1.711c1.527-0.49,0.551-0.734,0.551-1.406c0-0.674,2.691-0.674,3.668-1.347
		C324.965,219.269,323.805,218.72,322.951,218.843z M242.825,315.705c0.004-0.006,0.006-0.012,0.009-0.018
		C242.831,315.693,242.829,315.699,242.825,315.705z M243.063,315.37c0.014-0.017,0.022-0.032,0.036-0.049
		C243.085,315.338,243.076,315.354,243.063,315.37z M242.246,307.389c0.064-0.001,0.123-0.002,0.182-0.004
		C242.371,307.387,242.309,307.388,242.246,307.389z M242.606,307.38c0.01-0.001,0.02-0.001,0.029-0.002
		c-0.004,0.001-0.007,0.001-0.011,0.001C242.619,307.379,242.612,307.379,242.606,307.38z M242.809,307.369
		c0.033-0.003,0.066-0.005,0.092-0.008C242.875,307.364,242.843,307.366,242.809,307.369z M242.181,307.39
		c-1.23,0.016-3.445-0.039-4.061-0.048C238.735,307.351,240.948,307.404,242.181,307.39z M218.813,191.588
		c0.979,1.221,2.447,6.232,3.299,7.82c0.857,1.589,0.857,4.155-0.24,4.277c-1.34,0.149,0.119-3.542-2.326-4.89
		c-2.871-1.579-4.152-4.522-4.152-6.11S217.836,190.365,218.813,191.588z M168.939,161.157c0.196-0.83,0.973-2.14,2.189-2.14
		c1.212,0,1.116-1.604-0.878-2.576c-1.991-0.971,2.869-1.604,3.983-0.047c1.119,1.556,3.112,2.675,4.229,1.556
		s7.484-4.228,7.484-2.771c0,1.455-4.714,2.43-6.607,4.082c-1.898,1.652-1.752,1.215-3.402,1.506
		c-1.652,0.289-0.343,1.944-2.334,2.087c-1.992,0.147-6.801,0.342-7.482-0.774C165.893,161.707,168.747,161.979,168.939,161.157z
		 M148.967,144.149c0.926-0.097,0.292-1.119,1.559-1.603c1.258-0.488-0.247-1.214,0.145-1.749c0.39-0.535,2.963,0.535,3.013-0.438
		c0.05-0.97-2.576-1.798-3.453-1.214c-0.873,0.582-2.915,1.943-5.344,0.872c-0.766-0.335,6.121-1.065,7.291-2.135
		c1.165-1.071,6.411-2.285,6.8-1.314c0.39,0.973-2.818,1.607-1.261,2.479c1.554,0.877,4.08,0.293,4.662-0.63
		c0.584-0.922,3.109-0.78,1.507,1.212c-1.603,1.991-2.14,2.287-3.79,1.991c-1.65-0.288-2.672,0.538-1.848,1.122
		c0.828,0.582,0.877,1.068-0.824,1.457c-1.701,0.39-2.82,1.7-3.5,1.557c-0.68-0.146,2.918-2.725,1.994-3.404
		c-0.924-0.679-3.208,1.17-3.254,1.994c-0.049,0.826-1.557,0.875-2.48,0.826C149.259,145.123,148.044,144.245,148.967,144.149z
		 M245.457,216.275c-1.342,0,0.98-2.566-0.975-1.469c-1.957,1.103-4.893,3.794-6.232,2.568c-1.346-1.218-2.568,0.368-3.549-0.608
		c-0.973-0.982,3.424-3.668,5.5-3.546c0.514,0.029,0.982-0.195,1.42-0.546c1.336-1.074,2.395-3.368,3.594-3.368
		c1.59,0,5.623,0.367,5.867,2.444c0.244,2.081,2.688,0.125,2.936,2.081c0.205,1.659,1.818,2.971,1.551,3.847
		c-0.051,0.158-0.148,0.306-0.332,0.432c-1.004,0.701-0.73-1.102-2.566-1.102c-1.832,0-3.666,1.711-5.131,0.979
		C246.07,217.253,246.805,216.275,245.457,216.275z M257.07,227.275c0.246-1.588,2.445-2.932,1.1-5.012
		c-1.344-2.076-3.789-2.076-4.277-0.488s-2.201,0.855-2.811,2.081c-0.611,1.217-1.225,3.909-0.734,5.864
		c0.49,1.956-0.123,2.932-1.955,4.034c-1.834,1.1-2.791-1.683-2.08-5.257c0.492-2.444,1.836-4.766,0.613-4.766
		s1.59-2.935,4.156-3.545c2.564-0.613,5.744-0.368,5.744-1.103c0-0.147,0.117-0.247,0.313-0.314c0.773-0.259,2.844,0.072,4.211,0.56
		c1.711,0.61,4.275-0.729,5.131,1.347c0.859,2.078,2.844,3.645,0.979,3.786c-1.588,0.125-3.666-2.074-3.545-0.854
		c0.121,1.224-0.854,0.614-0.854,2.445c0,1.836-1.223,4.401-1.957,4.275c-0.029-0.005-0.045-0.018-0.072-0.027
		c-0.697-0.306,0.395-3.043-1.027-3.514C258.537,226.298,256.826,228.866,257.07,227.275z M263.793,234.612
		c-2.322,1.221-5.5,0.609-5.5-1.226c0-1.83,1.711-1.467,2.078-0.61c0.137,0.321,0.551,0.089,1.107-0.314
		c0.93-0.677,2.268-1.84,3.416-1.764c1.832,0.121,2.32,1.222,3.541,0.369c1.225-0.857,1.467-1.225,1.713-0.612
		c0.033,0.077,0.006,0.174-0.041,0.272C269.641,231.677,265.891,233.506,263.793,234.612z M272.961,228.743
		c-0.941,0.033-1.646,0.133-2.193,0.206c-1.225,0.181-1.623,0.274-1.963-0.575c-0.49-1.22,3.666-2.441,5.621-2.199
		c1.855,0.232,3.158-1.069,3.809-0.27c0.035,0.043,0.072,0.091,0.104,0.148C279.219,227.642,276.016,228.619,272.961,228.743z"/>
	<path fill="#E6E6E6" d="M145.235,112.016c2.198,0.489,2.438,4.4,3.907,4.4c0.981,0,0.247-1.223,1.836-1.223
		c1.59,0,1.222-0.855,2.691-0.732c1.465,0.122,2.688-0.367,2.688-2.081c0-1.71,1.099-2.32,2.564-2.691
		c1.468-0.363,0.125-2.196,2.201-2.685s7.822-2.934,8.799-3.666c0.979-0.735-1.221-1.712-3.42-3.055
		c-2.201-1.347-3.91-1.712-5.624-0.61c-1.712,1.097-0.366-1.224-1.712-0.613c-1.344,0.613-5.01-0.979-5.497-1.59
		c-0.491-0.61-7.091,1.345-8.68,1.345c-1.588,0,0.122,1.709,1.223,2.564c1.101,0.86-2.688,3.546-1.957,4.159
		c0.733,0.613-0.732,2.198-2.443,4.151C140.101,111.648,143.033,111.528,145.235,112.016z"/>
	<path fill="#E6E6E6" d="M342.465,213.422c-0.486,0.898-1.221-0.651-0.164-1.467c1.061-0.813-0.162-1.137-1.141-0.649
		c-0.977,0.487-0.732-2.2,0.166-2.689c0.895-0.49-2.203-1.469-2.203-0.573c0,0.9-2.203,0.327-2.443-0.49
		c-0.242-0.81-1.791-1.055-1.223-1.628c0.572-0.565-1.873-0.894-2.117,0.083c-0.244,0.978-0.98-0.65,0.244-1.956
		c1.221-1.306,0.814-2.443,1.953-3.098c1.143-0.65-0.08-1.383-1.303-0.895c-1.223,0.489-4.48,4.972-4.48,6.193
		c0,1.223-0.082,2.69-1.221,2.607c-1.145-0.083-2.445,0.977-1.549,1.63c0.895,0.652-2.367,2.502-0.816,3.342
		c1.061,0.57,2.773-0.244,4.238-0.082c1.465,0.163,2.689,0.243,3.91-0.651c1.221-0.899,1.221,0.814,2.527,0.651
		c1.303-0.162-0.734,1.057-0.654,1.954c0.084,0.898,1.387-0.489,2.365-0.979c0.979-0.484,2.199,0,1.709,0.816
		c-0.486,0.815,2.691,1.629,3.424,0.325C344.424,214.565,342.955,212.528,342.465,213.422z"/>
	<path fill="#E6E6E6" d="M159.901,91.969c2.2,0.247,4.4-1.709,4.281-2.811C164.057,88.059,158.807,91.849,159.901,91.969z"/>
	<path fill="#E6E6E6" d="M311.459,206.132c0.244,0.978,7.338,3.91,7.58,2.566C319.281,207.354,311.25,205.291,311.459,206.132z"/>
	<path fill="#E6E6E6" d="M179.336,76.202c1.221,0.493,2.443-1.098,3.299-0.366c0.854,0.735,4.646,1.348,4.646-0.61
		c0-1.956-4.77-2.198-5.99-1.466c-1.223,0.733-6.844,0.978-5.257,2.199C177.006,76.712,178.113,75.714,179.336,76.202z"/>
	<path fill="#E6E6E6" d="M185.323,78.527c1.59-0.247,0.857-1.467-1.711-1.1c-2.566,0.367-6.967,0.359-6.967,2.201
		c0,1.462,0.857,2.198,3.668,2.443c2.811,0.245,5.254-2.443,3.912-2.443C182.879,79.628,183.737,78.768,185.323,78.527z"/>
	<path fill="#E6E6E6" d="M175.18,79.137c0.61-1.465-4.05-1.224-3.666-0.733C172.369,79.505,174.567,80.602,175.18,79.137z"/>
	<path fill="#E6E6E6" d="M200.602,82.683c0.98-1.223-3.912-5.135-4.156-3.302C196.203,81.215,199.563,83.981,200.602,82.683z"/>
	<path fill="#E6E6E6" d="M149.758,88.546c0.854,0.371,0,2.082,0.976,1.594c0.978-0.493,1.223-0.613,1.957-0.368
		c1.319,0.439,1.587-0.732,2.198-1.346c0.612-0.61,0.368,2.202,1.958,2.202c1.344,0,1.1-2.934,2.32-2.082
		c1.224,0.856,1.59-0.364,1.836-1.219c0.242-0.855,0.242-2.322,1.59-2.569c1.343-0.243,0.242,1.346,0.854,2.446
		c0.889,1.603,2.445,0.123,2.567-0.613c0.122-0.732,2.322-0.244,2.198-1.101c-0.122-0.854,0.613-1.097,0-2.076
		c-0.609-0.977,0.98-0.732,1.711-1.468c0.732-0.732-0.977-0.122-2.199-1.221c-1.221-1.099-1.71,0.364-1.71,1.099
		c0,0.734-2.322,0.122-3.667-0.366c-1.344-0.489-3.058,1.589-5.014,2.565c-1.955,0.979-2.076,2.688-3.91,2.566
		C151.589,86.472,148.9,88.182,149.758,88.546z"/>
	<path fill="#E6E6E6" d="M168.825,87.938c-1.713,0.122-1.588,1.834,0.367,1.834c1.951,0,2.564,0.608-0.246,0.488
		s-4.033,2.322-2.077,1.833c1.956-0.491,4.274-0.491,2.812,0c-1.469,0.489-5.461,0.823-4.888,1.59
		c0.364,0.487,1.954,0.363,3.543,0.976c1.587,0.613,2.566,0.977,3.79-0.366c1.221-1.345,2.808-2.691,2.197-0.854
		c-0.61,1.833,1.957,0.488,5.255,0.366c3.302-0.122-0.61,1.956-4.034,2.201c-3.418,0.243-2.811,1.953-0.119,2.565
		c2.688,0.611,8.435-1.711,9.777-3.054c1.346-1.346,2.566,0.732,3.912-0.245c1.344-0.979,3.912,0.12,6.234-0.368
		c2.322-0.489,2.688-4.889,0.977-5.621c-1.709-0.737-1.709,0.856-3.055,1.097c-1.343,0.248-2.078-1.463-3.179-2.565
		c-1.1-1.101-0.364-3.179-1.953-2.932c-1.578,0.241-5.014,2.811-2.936,3.055c2.08,0.244,1.346,1.346,0.244,1.834
		c-1.1,0.488,2.568,1.343,2.077,2.078c-0.487,0.733-6.112,0.12-6.356-1.101c-0.246-1.221-4.642-3.421-6.476-2.933
		c-1.833,0.489-1.101-1.467-2.935-1.589C169.922,86.104,170.534,87.815,168.825,87.938z"/>
	<path fill="#E6E6E6" d="M67.559,173.311c0.063-0.67-0.916-0.611-2.137,0.795c-1.223,1.406-2.262,2.14-2.444,2.813
		c-0.184,0.671-1.589-0.123-2.018,0.732c-0.429,0.857,0.304,2.754,1.161,2.141c0.857-0.61,0.917,0,1.467,0
		c0.551,0,3.055-1.711,3.605-2.568c0.548-0.857-0.976-1.1-1.039-1.649c-0.063-0.551,1.283-0.551,1.955-0.917
		C68.783,174.29,67.497,173.983,67.559,173.311z"/>
	<path fill="#E6E6E6" d="M58.408,301.041c-1.527,0.178-0.684,4.002,0.135,3.369c0.586-0.446,1.664-0.535,1.98-1.122
		C60.94,302.509,59.938,300.862,58.408,301.041z"/>
	<path fill="#E6E6E6" d="M26.186,193.176c1.467-0.613,2.078-1.346,1.467-2.078C27.041,190.365,25.059,193.645,26.186,193.176z"/>
	<path fill="#E6E6E6" d="M28.63,166.102c-0.122-0.979-2.748-0.059-2.444,0.855c0.304,0.916,2.786,1.514,3.85,1.16
		c0.919-0.305,1.226-1.283,0.55-1.896C29.916,165.611,28.754,167.082,28.63,166.102z"/>
	<path fill="#E6E6E6" d="M36.576,187.674c-1.346-0.488-4.885,1.661-3.666,1.834c0.854,0.124,1.222-0.732,2.198-0.732
		C36.087,188.775,37.919,188.163,36.576,187.674z"/>
	<path fill="#E6E6E6" d="M51.173,297.444c0.585,0.898,1.214,1.082,1.709,0.273C53.375,296.905,50.489,296.394,51.173,297.444z"/>
	<path fill="#E6E6E6" d="M46.859,295.604c0.808,0.853,1.394,0.631,1.618-0.136C48.703,294.707,45.993,294.688,46.859,295.604z"/>
	<path fill="#E6E6E6" d="M56.388,298.705c-0.899,0.134-0.32,1.773,0.268,1.343C57.645,299.336,57.287,298.571,56.388,298.705z"/>
</g>
</svg>
