<svg xmlns="http://www.w3.org/2000/svg" xmlns:xlink="http://www.w3.org/1999/xlink" version="1.1" id="Your_Icon" x="0px" y="0px" width="100px" height="100px" viewBox="0 0 100 100" enable-background="new 0 0 100 100" xml:space="preserve">
<path d="M86,5H14c-4.971,0-9,4.029-9,9v72c0,4.971,4.029,9,9,9h72c4.971,0,9-4.029,9-9V14C95,9.029,90.971,5,86,5z M59.191,12.683  c0-0.651,0.526-1.18,1.18-1.18h0.65c0.649,0,1.18,0.528,1.18,1.18v2.659c0,0.652-0.529,1.179-1.18,1.179h-0.65  c-0.652,0-1.18-0.526-1.18-1.179V12.683z M54.281,12.683c0-0.651,0.525-1.18,1.178-1.18h0.65c0.652,0,1.182,0.528,1.182,1.18v2.659  c0,0.652-0.529,1.179-1.182,1.179h-0.65c-0.652,0-1.178-0.526-1.178-1.179V12.683z M49.37,12.683c0-0.651,0.527-1.18,1.18-1.18  h0.651c0.65,0,1.18,0.528,1.18,1.18v2.659c0,0.652-0.529,1.179-1.18,1.179H50.55c-0.652,0-1.18-0.526-1.18-1.179V12.683z   M44.461,12.683c0-0.651,0.526-1.18,1.179-1.18h0.651c0.651,0,1.18,0.528,1.18,1.18v2.659c0,0.652-0.528,1.179-1.18,1.179H45.64  c-0.652,0-1.179-0.526-1.179-1.179V12.683z M39.55,12.683c0-0.651,0.528-1.18,1.18-1.18h0.651c0.651,0,1.18,0.528,1.18,1.18v2.659  c0,0.652-0.528,1.179-1.18,1.179H40.73c-0.651,0-1.18-0.526-1.18-1.179V12.683z M34.639,12.683c0-0.651,0.528-1.18,1.18-1.18h0.65  c0.652,0,1.18,0.528,1.18,1.18v2.659c0,0.652-0.527,1.179-1.18,1.179h-0.65c-0.651,0-1.18-0.526-1.18-1.179V12.683z M29.729,12.683  c0-0.651,0.528-1.18,1.18-1.18h0.65c0.652,0,1.18,0.528,1.18,1.18v2.659c0,0.652-0.527,1.179-1.18,1.179h-0.65  c-0.651,0-1.18-0.526-1.18-1.179V12.683z M14.013,10.339c1.911,0,3.467,1.556,3.467,3.467c0,1.911-1.556,3.465-3.467,3.465  c-1.91,0-3.465-1.554-3.465-3.465C10.548,11.895,12.103,10.339,14.013,10.339z M14.013,89.66c-1.91,0-3.465-1.555-3.465-3.465  c0-1.912,1.555-3.467,3.465-3.467c1.911,0,3.467,1.555,3.467,3.467C17.48,88.105,15.924,89.66,14.013,89.66z M14.672,57.287V25.411  l2.811-2.813h6.649c0.112-0.259,0.317-0.459,0.564-0.593v-2.151c0-1.137,0.888-2.061,2.005-2.14v-0.016h38.322v-1.229  c-0.523-0.12-0.922-0.566-0.922-1.127v-2.659c0-0.651,0.526-1.18,1.18-1.18h0.648c0.651,0,1.182,0.528,1.182,1.18v2.659  c0,0.561-0.399,1.007-0.924,1.127v1.229h2.758l1.037,0.572l1.04-0.004c0.21-0.395,0.612-0.673,1.091-0.673  c0.691,0,1.252,0.561,1.252,1.251c0,0.691-0.561,1.251-1.252,1.251c-0.475,0-0.873-0.274-1.085-0.665l-1.343,0.005l-1.039-0.573  H28.605v0.001h-1.754c-0.547,0-0.991,0.444-0.991,0.991v2.15c0.393,0.211,0.669,0.611,0.669,1.088c0,0.69-0.56,1.25-1.25,1.25  c-0.438,0-0.804-0.239-1.028-0.58h-3.322v2.578c0.393,0.211,0.669,0.611,0.669,1.088c0,0.69-0.56,1.25-1.25,1.25  s-1.25-0.56-1.25-1.25c0-0.476,0.276-0.875,0.667-1.087v-2.579h-1.799l-2.13,2.13v30.915l4.649,4.648h7.029l2.256-2.256V41.871  c-0.565-0.23-0.965-0.783-0.965-1.431c0-0.854,0.692-1.546,1.546-1.546s1.546,0.692,1.546,1.546c0,0.647-0.398,1.2-0.963,1.43  v17.812l-1.301,1.301l16.526,16.525h6.405l3.777,3.775c0.185-0.078,0.388-0.121,0.602-0.121c0.854,0,1.547,0.692,1.547,1.547  s-0.693,1.547-1.547,1.547c-0.649,0-1.202-0.4-1.433-0.967h-9.918c-0.23,0.565-0.783,0.965-1.43,0.965  c-0.854,0-1.545-0.691-1.545-1.545c0-0.098,0.011-0.193,0.029-0.286L28.753,68.529h-3.168c-0.12,0.523-0.567,0.924-1.128,0.924  h-2.658c-0.652,0-1.181-0.529-1.181-1.18v-0.652c0-0.652,0.528-1.178,1.181-1.178l2.658-0.002c0.561,0,1.009,0.398,1.128,0.924  h3.649l14.064,14.062c0.247-0.166,0.543-0.264,0.864-0.264c0.647,0,1.199,0.398,1.43,0.963h9.92  c0.003-0.007,0.004-0.014,0.007-0.021l-3.437-3.435h-6.405L28.81,61.805l-0.814,0.814h-7.991L14.672,57.287z M42.341,31.711  l2.298-2.299c-0.103-0.175-0.178-0.368-0.178-0.586v-2.658c0-0.651,0.526-1.179,1.179-1.179h0.651c0.651,0,1.18,0.527,1.18,1.179  v2.658c0,0.652-0.528,1.18-1.18,1.18h-0.6l-2.87,2.869H23.943l-2.49,2.49c0.086,0.169,0.146,0.354,0.146,0.557  c0,0.69-0.56,1.25-1.25,1.25s-1.25-0.56-1.25-1.25s0.56-1.25,1.25-1.25c0.045,0,0.083,0.021,0.126,0.025l2.987-2.986H42.341z   M34.639,28.826v-2.658c0-0.651,0.528-1.179,1.18-1.179h0.65c0.652,0,1.18,0.527,1.18,1.179v2.658c0,0.652-0.527,1.18-1.18,1.18  h-0.65C35.168,30.006,34.639,29.479,34.639,28.826z M59.191,26.916v-0.748c0-0.651,0.526-1.179,1.18-1.179h0.65  c0.649,0,1.18,0.527,1.18,1.179v2.658c0,0.652-0.529,1.18-1.18,1.18h-0.65c-0.652,0-1.18-0.527-1.18-1.18V28.08h-1.9v0.746  c0,0.652-0.529,1.18-1.182,1.18h-0.65c-0.652,0-1.178-0.527-1.178-1.18v-2.658c0-0.153,0.034-0.298,0.087-0.433l-1.593-1.592h-8.601  l-1.683,1.683c0.034,0.11,0.069,0.221,0.069,0.342v2.658c0,0.652-0.528,1.18-1.18,1.18H40.73c-0.651,0-1.18-0.527-1.18-1.18v-2.658  c0-0.651,0.528-1.179,1.18-1.179h0.651c0.089,0,0.167,0.032,0.25,0.05l2.061-2.061h9.564l2.044,2.042  c0.055-0.008,0.103-0.032,0.159-0.032h0.65c0.652,0,1.182,0.527,1.182,1.179v0.748H59.191z M64.102,28.826v-2.658  c0-0.651,0.526-1.179,1.18-1.179h0.648c0.651,0,1.182,0.527,1.182,1.179v2.658c0,0.652-0.529,1.18-1.182,1.18h-0.648  c-0.073,0-0.137-0.029-0.206-0.042l-5.032,5.032H26.809l-0.403,0.403c0.074,0.16,0.123,0.334,0.123,0.523  c0,0.69-0.56,1.25-1.25,1.25c-0.69,0-1.25-0.56-1.25-1.25s0.56-1.25,1.25-1.25c0.062,0,0.115,0.026,0.174,0.035l0.875-0.875h33.233  l4.619-4.618C64.137,29.091,64.102,28.964,64.102,28.826z M64.508,45.069c-0.854,0-1.547-0.692-1.547-1.547s0.693-1.547,1.547-1.547  c0.854,0,1.547,0.692,1.547,1.547S65.362,45.069,64.508,45.069z M66.055,53.037c0,0.854-0.692,1.547-1.547,1.547  c-0.854,0-1.547-0.692-1.547-1.547s0.693-1.547,1.547-1.547C65.362,51.49,66.055,52.183,66.055,53.037z M59.766,42.841v0.65  c0,0.651-0.527,1.179-1.18,1.179l-2.658,0.001c-0.652,0-1.18-0.527-1.18-1.18v-0.65c0-0.651,0.527-1.181,1.18-1.181h2.658  C59.238,41.66,59.766,42.189,59.766,42.841z M52.377,40.44c0,0.854-0.691,1.545-1.545,1.545s-1.545-0.691-1.545-1.545  c0-0.853,0.691-1.545,1.545-1.545S52.377,39.587,52.377,40.44z M41.654,52.662c0-0.65,0.527-1.18,1.18-1.18h2.656  c0.652,0,1.181,0.528,1.181,1.18l0.001,0.65c-0.001,0.651-0.528,1.18-1.18,1.18h-2.658c-0.652,0-1.18-0.527-1.18-1.18V52.662z   M41.652,43.491v-0.65c0-0.651,0.528-1.181,1.181-1.181h2.657c0.652,0,1.18,0.529,1.18,1.181v0.65c0,0.651-0.527,1.179-1.18,1.179  l-2.657,0.001C42.181,44.671,41.652,44.144,41.652,43.491z M25.635,43.491c0,0.651-0.527,1.179-1.18,1.179l-2.657,0.001  c-0.652,0-1.182-0.527-1.182-1.18v-0.65c0-0.651,0.529-1.181,1.182-1.181h2.657c0.652,0,1.18,0.529,1.18,1.181V43.491z   M25.636,47.75v0.651c0,0.652-0.527,1.18-1.18,1.18h-2.658c-0.652,0-1.181-0.527-1.181-1.18v-0.65c0-0.651,0.528-1.18,1.181-1.18  h2.658C25.108,46.571,25.636,47.099,25.636,47.75z M21.798,51.482h2.658c0.652,0,1.18,0.528,1.18,1.18l0.001,0.65  c-0.001,0.651-0.528,1.18-1.18,1.18h-2.658c-0.652,0-1.18-0.527-1.18-1.18l-0.002-0.65C20.617,52.012,21.146,51.482,21.798,51.482z   M49.37,28.826v-2.658c0-0.651,0.527-1.179,1.18-1.179h0.651c0.65,0,1.18,0.527,1.18,1.179v2.658c0,0.652-0.529,1.18-1.18,1.18  H50.55C49.898,30.006,49.37,29.479,49.37,28.826z M56.941,89.089c-0.647,0-1.2-0.399-1.43-0.964h-9.92  c-0.23,0.564-0.783,0.963-1.43,0.963c-0.647,0-1.2-0.398-1.43-0.963h-2.354L26.481,74.227h-0.896  c-0.121,0.524-0.567,0.924-1.128,0.924h-2.658c-0.652,0-1.18-0.528-1.18-1.182l-0.002-0.648c0-0.651,0.529-1.182,1.181-1.182h2.658  c0.561,0,1.008,0.399,1.128,0.924h1.378L40.86,86.961h1.873c0.23-0.564,0.782-0.963,1.43-0.963c0.647,0,1.199,0.398,1.43,0.963h9.92  c0.229-0.564,0.782-0.964,1.43-0.964c0.648,0,1.201,0.399,1.432,0.964h8.156l8.791-8.793l-18.652-18.65v-5.025H55.93  c-0.652,0-1.18-0.527-1.18-1.18v-0.65c0-0.65,0.527-1.18,1.178-1.18h2.658c0.652,0,1.18,0.528,1.18,1.18l0.002,0.65  c-0.002,0.651-0.529,1.18-1.182,1.18h-0.754v4.543l18.311,18.311l8.021-8.021V28.792l-4.648-4.649h-6.312  c-0.212,0.393-0.612,0.669-1.09,0.669c-0.477,0-0.877-0.276-1.088-0.669h-4.156l-1.924-1.923H33.399l-1.583,1.581v1.24  c0.524,0.12,0.923,0.566,0.923,1.127v2.658c0,0.652-0.527,1.18-1.18,1.18h-0.65c-0.651,0-1.18-0.527-1.18-1.18v-2.658  c0-0.56,0.399-1.007,0.924-1.127v-1.722l2.265-2.263h32.51l1.924,1.923h3.674c0.211-0.393,0.611-0.669,1.088-0.669  c0.478,0,0.878,0.276,1.09,0.669h6.793l5.332,5.331v41.497L67.012,88.125h-8.639C58.143,88.689,57.59,89.089,56.941,89.089z   M72.113,61.006c0.854,0,1.547,0.693,1.547,1.547c0,0.854-0.693,1.547-1.547,1.547c-0.854,0-1.547-0.692-1.547-1.547  C70.566,61.699,71.259,61.006,72.113,61.006z M70.566,34.008c0-0.854,0.692-1.547,1.547-1.547c0.854,0,1.547,0.693,1.547,1.547  c0,0.854-0.693,1.547-1.547,1.547C71.259,35.555,70.566,34.862,70.566,34.008z M77.29,61.007c0.854,0,1.546,0.692,1.546,1.546  S78.145,64.1,77.29,64.1s-1.546-0.693-1.546-1.547S76.436,61.007,77.29,61.007z M75.744,34.008c0-0.854,0.691-1.546,1.546-1.546  s1.546,0.692,1.546,1.546c0,0.854-0.691,1.546-1.546,1.546S75.744,34.862,75.744,34.008z M80.632,41.976  c0.854,0,1.546,0.692,1.546,1.546s-0.691,1.546-1.546,1.546c-0.854,0-1.546-0.692-1.546-1.546S79.778,41.976,80.632,41.976z   M79.951,38.452v-8.888c0-0.321,0.262-0.582,0.582-0.582c0.322,0,0.582,0.261,0.582,0.582v8.888c0,0.321-0.26,0.581-0.582,0.581  C80.213,39.033,79.951,38.773,79.951,38.452z M80.632,51.491c0.854,0,1.546,0.692,1.546,1.546s-0.691,1.546-1.546,1.546  c-0.854,0-1.546-0.692-1.546-1.546S79.778,51.491,80.632,51.491z M81.115,58.107v8.889c0,0.322-0.26,0.582-0.582,0.582  c-0.32,0-0.582-0.26-0.582-0.582v-8.889c0-0.32,0.262-0.58,0.582-0.58C80.855,57.527,81.115,57.787,81.115,58.107z M85.986,89.66  c-1.91,0-3.467-1.555-3.467-3.465c0-1.912,1.557-3.467,3.467-3.467s3.465,1.555,3.465,3.467  C89.451,88.105,87.896,89.66,85.986,89.66z M85.986,17.771c-1.91,0-3.467-1.554-3.467-3.465c0-1.911,1.557-3.467,3.467-3.467  s3.465,1.556,3.465,3.467C89.451,16.217,87.896,17.771,85.986,17.771z"/>
</svg>