<svg xmlns="http://www.w3.org/2000/svg" xmlns:xlink="http://www.w3.org/1999/xlink" version="1.1" id="Layer_1" x="0px" y="0px" width="50.4px" height="50.4px" viewBox="0 0 50.4 50.4" enable-background="new 0 0 50.4 50.4" xml:space="preserve">
<circle cx="22.24" cy="11.574" r="3.647"/>
<path d="M45.641,45.024c-0.25-0.438-0.803-0.592-1.238-0.344l-3.856,2.179l-9.846-17.182c-0.064-0.113-0.67-1.14-1.57-1.74  c-1.2-0.8-2.599-0.507-2.849-0.442l-1.959,0.688L19.031,24.9l2.027-3.777c0,0,1.476-2.725,0-4.579  c-0.492-0.794-1.559-1.54-2.479-1.653c-1.571-0.199-3.043,0.544-3.857,1.776l-4.249,7.933c-0.201,0.343-0.537,0.991-0.719,1.523  c-0.091,0.163-0.353,0.903-0.504,1.698l-1.549,8.924l-6.482,2.721c-2.192,0.955-1.38,4.894,2.052,3.884l7.115-3.027  c0.25-0.106,0.464-0.263,0.652-0.45c0.03-0.025,0.057-0.049,0.084-0.075c0.173-0.185,0.305-0.399,0.404-0.634  c0.008-0.023,0.03-0.04,0.039-0.064l1.495-4.73l4.106,4.402l-1.393,9.337c-0.082,3.129,3.892,2.978,4.271,0.026l1.355-9.11  c0.076-1.021-0.288-1.906-0.605-2.46l-0.448-0.783l-4.115-5.657l1.234-2.3c2.126,1.315,4.803,2.972,5.146,3.187  c1.247,0.783,2.404-0.138,2.552-1.199l1.627-0.575c0.007-0.002,0.777-0.158,1.333,0.211c0.462,0.308,0.882,0.927,1.003,1.136  l6.349,11.078c-0.904-0.847-2.109-1.374-3.441-1.374c-2.787,0-5.056,2.269-5.056,5.058c0,2.788,2.269,5.057,5.056,5.057  s5.056-2.269,5.056-5.057c0-0.372-0.045-0.729-0.122-1.076l2.453,4.278c0.167,0.293,0.473,0.457,0.789,0.457  c0.151,0,0.304-0.038,0.445-0.119l4.644-2.623C45.734,46.014,45.887,45.462,45.641,45.024z M32.033,47.15  c-0.996,0-1.806-0.812-1.806-1.807c0-0.996,0.81-1.808,1.806-1.808s1.806,0.812,1.806,1.808  C33.839,46.339,33.029,47.15,32.033,47.15z"/>
<rect x="36.724" y="29.903" transform="matrix(0.8676 -0.4973 0.4973 0.8676 -12.75 25.858)" width="10.9" height="13.928"/>
</svg>