<svg xmlns="http://www.w3.org/2000/svg" xmlns:xlink="http://www.w3.org/1999/xlink" version="1.1" id="Your_Icon" x="0px" y="0px" width="88px" height="97.236px" viewBox="0 0 88 97.236" enable-background="new 0 0 88 97.236" xml:space="preserve">
<g>
	<path fill-rule="evenodd" clip-rule="evenodd" d="M88,35.955c0,0.278,0,0.547,0,0.817c-2.334,1.188-4.501,2.546-6.888,3.68   c0.24,2.934,0.286,6.27,0,9.192c2.231,1.561,4.653,2.928,6.888,4.489c0,0.07,0,0.143,0,0.213c-0.441,1.379-0.756,2.887-1.185,4.291   c-2.524-0.111-5.453,0.211-7.673-0.215c-1.521,2.725-2.642,5.844-4.533,8.17c1.442,2.32,2.787,4.742,4.133,7.146   c-0.731,1.418-2.067,2.215-2.948,3.482c-2.39-1.201-4.728-2.457-6.888-3.879c-2.404,1.795-4.737,3.65-7.479,5.1   c0.052,2.857,0.476,5.346,0.386,8.383c-1.242,0.535-2.539,1.031-3.926,1.42c-1.913-1.836-3.221-4.295-4.533-6.734   c-2.673,0.625-5.424,1.166-8.865,1.023c-1.161,2.531-2.178,5.211-3.339,7.756c-1.506-0.145-3.083-0.217-4.333-0.609   c-0.543-2.447-0.877-5.086-0.985-7.971c-1.442-0.545-2.948-1.031-4.533-1.438c1.054-2.926,2.052-5.895,3.155-8.777   c19.701,6.326,39.179-7.049,37.801-28.386C71.26,27.846,58.85,17.249,45.081,16.96c-14.993-0.309-29.613,11.762-28.543,29.622   c0.465,7.725,3.137,11.991,7.087,17.567c-1.019,0.564-2.07,1.83-3.347,3.055c-0.759,0.734-2.695,3.068-3.148,3.068   c-1.077,0-2.065-3.426-3.155-3.68c-2.551,0.615-5.124,1.215-7.873,1.635c-0.489-1.32-1.298-2.326-1.77-3.682   c0.922-2.174,3.753-4.127,5.71-5.908c-1.055-2.602-1.851-5.443-2.17-8.795c-2.487-1.028-5.307-1.7-7.873-2.649   c0-1.498,0-2.997,0-4.496c2.441-0.87,5.085-1.524,7.873-2.038c0.288-3.383,1.013-6.308,2.17-8.787   c-1.767-2.319-4.246-3.897-5.71-6.535c0.912-1.091,1.21-2.83,2.363-3.672c2.461,0.643,4.955,1.254,7.28,2.039   c1.884-2.54,4.207-4.619,6.103-7.146c-0.837-2.397-1.604-4.866-2.163-7.559c0.874-1.201,2.361-1.77,3.54-2.657   c2.187,1.681,3.898,3.859,6.103,5.52c2.386-1.482,5.382-2.329,8.273-3.275c0.32-2.93,0.698-5.808,1.578-8.169   c1.335-0.178,2.55-0.48,4.133-0.404c1.09,2.334,1.867,5,2.755,7.558c3.036,0.259,6.296,0.275,8.658,1.221   c2.072-1.996,3.153-5.039,5.51-6.741c1.118,0.751,2.863,0.857,3.748,1.84c-0.168,2.69-0.502,5.2-0.785,7.764   c2.629,1.685,5.1,3.547,7.673,5.306c1.975-1.487,4.486-2.418,6.888-3.466c1.102,1.038,2.3,1.976,2.962,3.466   c-1.377,2.316-2.871,4.526-4.34,6.742c1.795,2.361,3.186,5.139,4.34,8.169c2.756-0.063,5.338,0.042,7.866,0.206   C87.473,33.104,87.505,34.767,88,35.955z"/>
	<path fill-rule="evenodd" clip-rule="evenodd" d="M12.205,97.236c-0.062,0-0.13,0-0.2,0c-1.061-0.938-2.586-1.41-3.34-2.656   c0.688-2.686,1.735-5.002,2.555-7.559c-1.051-1.162-2.409-1.99-3.147-3.48c1.215-0.777,1.865-1.848,3.147-3.055   c0.543-0.508,2.609-2.92,3.348-2.854c0.04,0.002,2.019,1.936,2.362,2.244c2.763,2.406,5.545,4.152,8.666,5.512   c-1.178,2.664-1.927,5.762-3.155,8.367c-1.381-0.535-2.846-0.984-3.933-1.834C16.341,93.631,14.338,95.484,12.205,97.236z"/>
</g>
</svg>