<svg xmlns="http://www.w3.org/2000/svg" xmlns:xlink="http://www.w3.org/1999/xlink" version="1.1" id="Layer_1" x="0px" y="0px" width="100px" height="100px" viewBox="0 0 100 100" enable-background="new 0 0 100 100" xml:space="preserve">
<path fill="#000000" d="M50.056,83.053c-0.01,0-0.02,0-0.029,0c-0.011,0-0.021,0-0.031,0H50.056z"/>
<path fill="#000000" d="M81.3,69.311c-1.377,0.711-4.33,1.701-8.146,2.666l-1.293-2.179c0,0-3.476-10.222-3.823-11.708  c-0.359-1.523-0.007-2.819,1.506-5.556c1.852-3.354,1.615-4.622,1.314-7.415c-0.237-2.213-1.367-3.368-0.778-3.465  c0.3-0.05,0.938,0.702,1.496,2.988c0.598,2.447,0.595,4.05,0.181,6.438c-0.359,2.066-1.07,3.138-1.138,4.135  c-0.042,0.649,0.558,1.271,1.014,1.452c1.004,0.397,2.381,0.801,2.887,0.397c0.672-0.537,1.017-2.289,1.254-5.198  c0.263-3.246-0.181-6.987-1.106-9.286c-0.862-2.142-1.556-3.294-3.061-4.424c-0.896-0.672-1.686-0.618-2.017-0.627  c-0.931-0.029-1.396,0.621-1.702,0.313c-0.403-0.403-1.631-0.651-2.228-0.61c-3.941,0.269-10.021,0.655-17.01,0.387  c-3.344-0.129-3.94-3.734-4.984-6.66c-1.195-3.348-6.573-9.439-14.1-9.439c0,0-1.643-2.271-3.076-3.346  c-0.672-0.505-1.202-0.837-1.744-1.054c-0.461-0.185-0.783-0.224-0.873-0.112c-0.09,0.112,0.063,0.721,0.194,0.98  c0.421,0.827,0.747,1.954,0.813,3.03c0.06,0.952,0.319,1.977-0.874,3.658c-0.98,1.385-1.61,4.489-0.534,6.641  c0.652,1.302,1.097,2.446,1.251,3.705c0.102,0.822-0.154,3.726-0.358,4.714c-0.358,1.731,0.479,2.688,1.853,3.165  c1.374,0.479,3.227-0.052,3.703-1.306c0.325-0.853,0.734-2.366,1.323-4.581c0.29-1.097,0.742-2.193,1.067-2.409  c0.717-0.478,2.001-0.212,1.643,2.476c-0.238,1.792-0.955,5.886-1.075,9.589c-0.121,3.702,1.789,7.736,0.447,11.021  c-1.049,2.574-4.482,12.287-4.482,12.287l-1.449,2.213c-4.018-0.985-7.169-2.019-8.702-2.763c-4.31-2.088-4.959-0.952-2.689,1.436  c2.27,2.389,12.356,12.178,34.023,12.188c22.558-0.01,31.751-9.799,34.02-12.188C86.317,68.478,85.481,67.149,81.3,69.311z   M32.551,71.347c0,0,3.695-10.321,4.781-11.83c1.375-1.907,3.104-3.227,5.258-4.064c1.418-0.55,3.82-0.834,8.599-0.716  c3.703,0.093,6.274,0.108,7.77,0.837c1.972,0.959,3.823,2.15,5.498,5.496c1.672,3.344,4.06,9.563,4.06,9.563L68.7,73  c-5.767,1.202-12.599,2.162-18.841,2.167c-5.882-0.005-12.178-0.831-17.628-1.907L32.551,71.347z"/>
</svg>