<svg xmlns="http://www.w3.org/2000/svg" xmlns:xlink="http://www.w3.org/1999/xlink" version="1.1" id="Layer_1" x="0px" y="0px" width="100px" height="100px" viewBox="0 0 100 100" enable-background="new 0 0 100 100" xml:space="preserve">
<path d="M90.126,60.352c1.921,0,3.492-1.571,3.492-3.492V14.089c0-1.921-1.571-3.493-3.492-3.493h-9.302l2.027-3.419h4.466  L86.23,3.699h-8.327l-1.087,3.478h3.531l-2.027,3.419H51.195V7.177h4.599l-1.087-3.478h-9.414l-1.086,3.478h4.598v3.419H21.681  l-2.028-3.419h3.531l-1.086-3.478h-8.327l-1.086,3.478h4.465l2.028,3.419H9.875c-1.921,0-3.493,1.572-3.493,3.493v42.771  c0,1.921,1.572,3.492,3.493,3.492h7.88v3.386H6.382v2.224h39.186v30.34h8.865v-30.34h39.186v-2.224H82.246v-3.386H90.126z   M45.567,63.737H19.576v-3.386h25.991V63.737z M80.424,63.737H54.433v-3.386h25.991V63.737z M14.342,54.666  c-1.251,0-2.274-1.023-2.274-2.274V18.556c0-1.251,1.023-2.274,2.274-2.274h71.316c1.251,0,2.274,1.023,2.274,2.274v33.836  c0,1.251-1.023,2.274-2.274,2.274H14.342z"/>
</svg>