<svg xmlns="http://www.w3.org/2000/svg" xmlns:xlink="http://www.w3.org/1999/xlink" version="1.1" id="Layer_1" x="0px" y="0px" viewBox="0 0 90 90" enable-background="new 0 0 90 90" xml:space="preserve" height="100px" width="100px">
<g>
	<path fill="#000000" d="M53.6,107.7c0,2.2,1.8,4,4,4s4-1.8,4-4s-1.8-4-4-4S53.6,105.5,53.6,107.7z M59.4,107.7c0,1-0.8,1.8-1.8,1.8   s-1.8-0.8-1.8-1.8c0-1,0.8-1.8,1.8-1.8S59.4,106.7,59.4,107.7z"/>
	<path fill="#000000" d="M26.5,170.7c0,0-1.7,1.7-4,4.4c-2.1,2.5-2.4,6.3,0,8.9c1.1,1.2,2.5,1.8,4,1.8c1.4,0,2.9-0.6,4-1.8   c2.4-2.6,2.1-6.3,0-8.9C28.1,172.4,26.5,170.7,26.5,170.7z"/>
	<path fill="#000000" d="M38.8,170.7c0,0-1.7,1.7-4,4.4c-2.1,2.5-2.4,6.3,0,8.9c1.1,1.2,2.5,1.8,4,1.8c1.4,0,2.9-0.6,4-1.8   c2.4-2.6,2.1-6.3,0-8.9C40.5,172.4,38.8,170.7,38.8,170.7z"/>
	<path fill="#000000" d="M51.2,170.7c0,0-1.7,1.7-4,4.4c-2.1,2.5-2.4,6.3,0,8.9c1.1,1.2,2.5,1.8,4,1.8c1.4,0,2.9-0.6,4-1.8   c2.4-2.6,2.1-6.3,0-8.9C52.9,172.4,51.2,170.7,51.2,170.7z"/>
	<path fill="#000000" d="M63.5,170.7c0,0-1.7,1.7-4,4.4c-2.1,2.5-2.4,6.3,0,8.9c1.1,1.2,2.5,1.8,4,1.8c1.4,0,2.9-0.6,4-1.8   c2.4-2.6,2.1-6.3,0-8.9C65.2,172.4,63.5,170.7,63.5,170.7z"/>
	<path fill="#000000" d="M82.1,123.2H64c0-0.3,0.1-0.5,0.1-0.8c0-2.7-2.2-4.9-4.9-4.9s-4.9,2.2-4.9,4.9c0,0.3,0,0.5,0.1,0.8h-5.8   c0-0.3,0.1-0.5,0.1-0.8c0-2.8-1.9-5.2-4.6-5.8c0-0.3-0.1-0.6-0.1-1l34.3,4.1c0.1,0,0.1,0,0.2,0c0.7,0,1.4-0.6,1.5-1.3   c0.1-0.8-0.5-1.6-1.3-1.6l-28.9-3.4l0.3-2.3c0.1-0.9-0.1-1.7-0.7-2.4c-0.5-0.7-1.3-1.1-2.1-1.2c-0.8-0.1-1.7,0.1-2.4,0.7   s-1.1,1.3-1.2,2.1l-0.3,2.3l-0.7-0.1c-1.5-2.1-4-3.4-6.8-3.2c-1.3-1.4-3.1-2.3-5-2.3c-2.5,0-4.6,1.3-5.8,3.3l-10.6-1.3   c-0.8-0.1-1.5,0.5-1.6,1.3s0.5,1.6,1.3,1.6l10.1,1.2c0,0.1,0,0.1,0,0.2c-4.1,0.3-7.3,3.7-7.3,7.8c0,0.7,0.1,1.3,0.3,1.9H7.9   c-2,0-3.6,1.6-3.6,3.6s1.6,3.6,3.6,3.6H11v29.9c0,5,4.1,9,9,9h49.9c5,0,9-4.1,9-9v-29.9h3.1c2,0,3.6-1.6,3.6-3.6   S84.1,123.2,82.1,123.2z M56.6,122.4c0-1.5,1.2-2.7,2.7-2.7s2.7,1.2,2.7,2.7c0,0.3-0.1,0.5-0.1,0.8h-5.1   C56.6,122.9,56.6,122.7,56.6,122.4z M24.8,115.6c0.2,0,0.3,0,0.5,0l1.4,0.1l-0.2-1.4c0-0.2-0.1-0.4-0.1-0.7c0-2.5,2-4.5,4.5-4.5   c1.4,0,2.8,0.7,3.6,1.9l0.4,0.5l0.7-0.1c3.4-0.5,6.4,2.1,6.4,5.4c0,0.2,0,0.3,0,0.5l-0.1,1.1l1.1,0.1c2,0.1,3.6,1.8,3.6,3.8   c0,2.1-1.7,3.9-3.9,3.9c-1,0-1.9-0.4-2.6-1l-1.2-1.1l-0.5,1.5c-0.5,1.5-1.9,2.4-3.4,2.4c-1.8,0-3.4-1.4-3.6-3.2l-0.2-1.7l1.2-1.2   l0.6-0.8l-2.6-3l-0.1,1.3c0,0,0.3,1.4,0,2.7c-0.2,1.1-0.9,2.2-0.9,2.2c-1,1.4-2.5,2.2-4.2,2.4c-1-0.9-2.2-1.4-3.6-1.4   c-0.2,0-0.4,0-0.6,0.1c-1.2-1-2-2.6-2-4.3C19.2,118.1,21.7,115.6,24.8,115.6z M21.7,127.6c1.8,0,3.2,1.5,3.2,3.2s-1.5,3.2-3.2,3.2   s-3.2-1.5-3.2-3.2S19.9,127.6,21.7,127.6z M82.1,127.4H76v32.9c0,3.3-2.7,6.1-6.1,6.1H20.1c-3.3,0-6.1-2.7-6.1-6.1v-32.9H7.9   c-0.4,0-0.7-0.3-0.7-0.7s0.3-0.7,0.7-0.7h10.8c0,0,0.1,0.1,0.1,0.1c-1.5,0.9-2.6,2.6-2.6,4.6c0,3,2.4,5.4,5.4,5.4s5.4-2.4,5.4-5.4   c0-0.7-0.1-1.4-0.4-2c1.2-0.3,2.3-0.8,3.2-1.6c1,1.9,2.9,3.1,5.1,3.1c2,0,3.8-1,4.8-2.6c0.9,0.5,1.9,0.7,2.9,0.7   c1.9,0,3.6-0.9,4.7-2.3h34.6c0.4,0,0.7,0.3,0.7,0.7S82.4,127.4,82.1,127.4z"/>
	<path fill="#000000" d="M68.1,146.3c-2,0-3.6,1.6-3.6,3.6s1.6,3.6,3.6,3.6s3.6-1.6,3.6-3.6S70.1,146.3,68.1,146.3z M68.1,151.4   c-0.8,0-1.5-0.7-1.5-1.5c0-0.8,0.7-1.5,1.5-1.5s1.5,0.7,1.5,1.5C69.6,150.7,68.9,151.4,68.1,151.4z"/>
	<path fill="#000000" d="M69.5,127.3h-0.3c-1.4,0-2.6,1.2-2.6,2.6v12.4c0,1.4,1.2,2.6,2.6,2.6h0.3c1.4,0,2.6-1.2,2.6-2.6v-12.4   C72.1,128.4,70.9,127.3,69.5,127.3z M69.9,142.2c0,0.2-0.2,0.4-0.4,0.4h-0.3c-0.2,0-0.4-0.2-0.4-0.4v-12.4c0-0.2,0.2-0.4,0.4-0.4   h0.3c0.2,0,0.4,0.2,0.4,0.4V142.2z"/>
	<path fill="#000000" d="M20.3,83.2h27.1l-3.7-18.3C55.2,70,68,70.5,79.2,66.5L14.7,13.1c-2.4,14.9,2.8,30.9,14.8,42.3L20.3,83.2z"/>
	<path fill="#000000" d="M51.1,40.3l4.1-7.4c1.6,0.4,3.3-0.1,4.4-1.4c1.5-1.8,1.3-4.6-0.6-6.1c-1.8-1.5-4.6-1.3-6.1,0.6   c-1.1,1.3-1.3,3.1-0.6,4.6l-6.5,5.4L51.1,40.3z"/>
	<path fill="#000000" d="M55.2,18.7l0.2,2.5c4.1-0.4,7.8,2.7,8.2,6.8l2.5-0.2C65.7,22.2,60.7,18.2,55.2,18.7z"/>
	<path fill="#000000" d="M72.1,27.2c-0.4-4.2-2.4-8.1-5.7-10.8c-3.3-2.7-7.4-4-11.7-3.6l0.2,2.5c7.4-0.7,14,4.7,14.6,12.1L72.1,27.2   z"/>
	<path fill="#000000" d="M75.4,26.9l2.5-0.2c-1.1-12-11.8-20.9-23.9-19.7l0.2,2.5C65,8.4,74.4,16.3,75.4,26.9z"/>
</g>
</svg>