<svg xmlns="http://www.w3.org/2000/svg" xmlns:xlink="http://www.w3.org/1999/xlink" version="1.1" id="Your_Icon" x="0px" y="0px" width="100px" height="100px" viewBox="0 0 100 100" enable-background="new 0 0 100 100" xml:space="preserve">
<path d="M0,50c0,27.569,22.431,50,50,50s50-22.431,50-50S77.569,0,50,0S0,22.431,0,50L0,50z M8.801,50  C8.801,27.283,27.283,8.801,50,8.801c22.717,0,41.199,18.481,41.199,41.199c0,22.717-18.482,41.202-41.199,41.202  C27.283,91.202,8.801,72.717,8.801,50L8.801,50z M87.5,50.409c0,20.642-16.84,37.427-37.524,37.427  c-20.673,0-37.476-16.785-37.476-37.427c0-3.696,0.556-7.407,1.624-11.005c0.195-0.635,0.824-1.031,1.471-0.952  c0.433,0.07,0.775,0.339,0.97,0.714c2.148,2.207,5.029,3.412,8.124,3.412c2.71,0,5.194-0.894,7.208-2.576  c0.476-0.644,1.575-0.699,2.106-0.083c2.038,1.755,4.59,2.658,7.342,2.658c2.936,0,5.627-1.059,7.672-2.988  c0.384-0.384,0.946-0.491,1.434-0.293c0.238,0.116,0.433,0.293,0.568,0.495c2.038,1.797,4.699,2.783,7.507,2.783  c2.967,0,5.811-1.139,7.831-3.141c0.385-0.396,0.958-0.503,1.453-0.302c0.25,0.11,0.451,0.281,0.592,0.488  c2.045,1.913,4.767,2.954,7.66,2.954c2.887,0,5.694-1.111,7.751-3.064c0.524-0.473,1.318-0.473,1.825-0.021  c0.177,0.162,0.366,0.449,0.451,0.684C87.023,43.521,87.5,46.973,87.5,50.409z"/>
</svg>