<svg xmlns="http://www.w3.org/2000/svg" xmlns:xlink="http://www.w3.org/1999/xlink" version="1.1" id="Layer_1" x="0px" y="0px" width="90px" height="90px" viewBox="0 0 90 90" enable-background="new 0 0 90 90" xml:space="preserve">
<circle cx="25.379" cy="82.783" r="5.549"/>
<path d="M64.229,1.917H23.002c-3.114,0-5.641,2.403-5.896,5.45h53.018C69.868,4.32,67.344,1.917,64.229,1.917z"/>
<path d="M70.142,8.079H17.088h-2.757v4.46h3.117l5.127,63.502c0.861-0.367,1.809-0.572,2.804-0.572c3.941,0,7.136,3.193,7.136,7.135  c0,1.301-0.354,2.518-0.964,3.568h26.731c3.284,0,5.946-2.662,5.946-5.947l5.548-67.686h3.123v-4.46H70.142z M46.706,35.037  c0.521-0.002,0.911,0.29,1.144,0.611l1.643,2.845l1.48-0.855l-2.938,3.593l-4.183,0.519l1.478-0.852l-1.91-3.309  c-0.577-0.855-1.044-1.537-2.4-2.55L46.706,35.037z M38.455,36.901c0.588-1.021,0.933-1.401,2.109-1.294  c0.612,0.205,1.442,0.829,2.481,2.549l-2.745,4.753l-3.909-2.435L38.455,36.901z M33.946,46.994  c-0.262-0.45-0.205-0.934-0.042-1.295l1.643-2.845l-1.48-0.856l4.58,0.747l2.541,3.364l-1.477-0.853l-1.91,3.308  c-0.453,0.927-0.81,1.674-1.009,3.353L33.946,46.994z M43.812,53.207h-4.125c-1.178,0.002-1.68-0.105-2.176-1.178  c-0.128-0.633-0.003-1.666,0.967-3.424h5.489L43.812,53.207z M50.439,52.818c-0.26,0.453-0.706,0.646-1.1,0.686h-3.286v1.709  l-1.644-4.339l1.644-3.884v1.707h3.819c1.028-0.071,1.853-0.137,3.407-0.804L50.439,52.818z M53.018,47.215  c-0.484,0.428-1.44,0.836-3.448,0.874l-2.744-4.753l4.062-2.167l2.062,3.572C53.541,45.762,53.697,46.25,53.018,47.215z"/>
</svg>