<svg xmlns="http://www.w3.org/2000/svg" xmlns:xlink="http://www.w3.org/1999/xlink" version="1.1" x="0px" y="0px" width="100px" height="100px" viewBox="0 0 100 100" enable-background="new 0 0 100 100" xml:space="preserve">
<g id="Captions">
</g>
<g id="Your_Icon">
	<path d="M46.622,49.975c-0.055,0.562-0.131,1.033-0.229,1.392c-0.643,2.357-2.612,2.831-3.763,1.246   c-0.696-0.958-1.099-3.041-0.71-4.857c0.32-1.493,0.601-3.424,0.784-5.453c-1.036-3.736-1.712-8.255-2.392-12.749   c-3.214-2.355-9.772-5.131-12-7.253c-1.762-1.678-2.945-0.789-3.3,1.076c-0.482,2.525-3.901,8.209-4.934,12.166   c-1.031,3.957-1.856,8.218,1.375,11.524c4.601,4.708,11.544,8.986,10.341,12.382c-0.462,1.305-2.108,1.829-4.515-0.063   c-3.446-2.711-9.804-11.867-10.297-19.714c-0.465-7.412,1.442-14.614,4.345-19.193c1.02-1.608,1.444-2.69,1.728-3.843   c0.161-0.655,0.294-2.148,0.119-2.934c-0.344-1.548,1.334-2.322,1.913-0.623c0.71,2.084,1.491,2.708,2.461,3.534   c1.095,0.931,6.848,2.763,11.918,7.59c-0.634-3.701-1.381-7.142-2.469-9.813C33.214,5.102,22.205-2.466,15.669,0.974   C9.132,4.413,4.318,15.765,8.103,29.868C11.888,43.972,27.257,65.78,32.2,73.491c4.027,6.282,13.371,6.257,20.939-0.966   C59.486,66.468,49.888,53.883,46.622,49.975z"/>
	<path d="M61.26,73.747c0.198,0.529,0.395,0.963,0.582,1.285c1.233,2.11,3.258,2.056,3.959,0.227   c0.422-1.105,0.27-3.223-0.578-4.875c-0.695-1.359-1.469-3.151-2.173-5.062c0.03-3.879-0.491-8.417-1.002-12.934   c2.491-3.108,8.103-7.493,9.704-10.121c1.266-2.079,2.639-1.527,3.467,0.181c1.121,2.314,5.898,6.914,7.924,10.466   c2.025,3.553,3.928,7.454,1.666,11.485c-3.221,5.742-8.814,11.679-6.77,14.645c0.785,1.141,2.512,1.219,4.344-1.234   c2.623-3.513,6.383-14.007,4.822-21.713c-1.477-7.278-5.189-13.737-9.182-17.405c-1.404-1.289-2.094-2.223-2.668-3.263   c-0.324-0.591-0.842-1.998-0.877-2.801c-0.068-1.585-1.891-1.897-2.008-0.105c-0.145,2.196-0.736,3.003-1.459,4.052   c-0.816,1.183-5.895,4.447-9.538,10.425c-0.348-3.738-0.521-7.255-0.164-10.119c1.24-9.951,9.903-20.118,17.11-18.494   c7.205,1.624,14.803,11.334,14.812,25.936c0.008,14.603-9.168,39.656-11.938,48.387c-2.258,7.112-11.287,9.516-20.472,4.506   C53.121,93.017,59.12,78.37,61.26,73.747z"/>
</g>
</svg>