<svg xmlns="http://www.w3.org/2000/svg" xmlns:xlink="http://www.w3.org/1999/xlink" version="1.1" id="&#1064;&#1072;&#1088;_1" x="0px" y="0px" width="100px" height="100px" viewBox="0 0 100 100" style="enable-background:new 0 0 100 100;" xml:space="preserve">
<path d="M84.953,78.768c11.713-15.706,11.507-37.522-0.655-52.989l2.486-2.486c1.126-1.129,1.129-2.958,0-4.087l-4.086-4.087  c-1.128-1.13-2.959-1.129-4.091,0l-2.604,2.605c-7.483-5.585-16.497-8.647-26.001-8.647c-9.511,0-18.524,3.064-26.006,8.647  L21.36,15.09c-1.127-1.13-2.96-1.13-4.089,0l-4.085,4.087c-1.128,1.128-1.128,2.958,0,4.086l2.516,2.516  c-12.151,15.45-12.367,37.233-0.69,52.939l-2.379,2.375c-1.127,1.13-1.127,2.963,0,4.086l4.09,4.095c1.125,1.12,2.958,1.12,4.086,0  l2.253-2.254c7.657,6.034,17.035,9.336,26.94,9.336c9.877,0,19.242-3.291,26.888-9.303l1.661,1.66c1.127,1.128,2.959,1.128,4.089,0  l4.085-4.087c1.13-1.127,1.126-2.96,0-4.086L84.953,78.768z M50.002,14.616c8.021,0,15.645,2.498,22.044,7.065l-8.22,8.218  c-4.128-2.515-8.867-3.887-13.824-3.887c-4.96,0-9.699,1.372-13.831,3.887l-8.219-8.218C34.354,17.114,41.977,14.616,50.002,14.616z   M61.883,71.854c-3.54,2.201-7.613,3.402-11.885,3.402c-4.374,0-8.554-1.253-12.149-3.563c0.291-0.983,0.087-2.083-0.689-2.859  l-4.088-4.088c-0.696-0.695-1.656-0.91-2.559-0.746c-4.219-7.302-4.033-16.466,0.598-23.583c0.906,0.169,1.871-0.041,2.572-0.744  l4.088-4.088c0.626-0.626,0.866-1.465,0.8-2.282c3.43-2.027,7.341-3.134,11.432-3.134c4.097,0,8.014,1.109,11.449,3.147  c-0.052,0.802,0.194,1.623,0.811,2.235l4.086,4.089c0.689,0.688,1.635,0.904,2.526,0.751c4.587,7.033,4.833,16.075,0.772,23.333  c-1.077-0.525-2.401-0.372-3.299,0.525l-4.086,4.087C61.302,69.296,61.209,70.743,61.883,71.854z M18.972,74.757  C9.395,61.287,9.625,42.975,19.66,29.739l8.145,8.146c-5.754,8.61-5.945,19.848-0.615,28.655L18.972,74.757z M50.002,90.813  c-8.421,0-16.398-2.749-22.982-7.75l8.142-8.146c4.356,2.922,9.478,4.495,14.837,4.495c5.343,0,10.445-1.56,14.793-4.46l8.145,8.147  C66.357,88.081,58.397,90.813,50.002,90.813z M80.994,74.809l-8.219-8.22c5.36-8.812,5.185-20.074-0.582-28.705l8.146-8.149  C90.385,42.989,90.604,61.332,80.994,74.809z"/>
</svg>