<?xml version="1.0" encoding="utf-8"?>
<!-- Generator: Adobe Illustrator 16.0.0, SVG Export Plug-In . SVG Version: 6.00 Build 0)  -->
<!DOCTYPE svg PUBLIC "-//W3C//DTD SVG 1.1//EN" "http://www.w3.org/Graphics/SVG/1.1/DTD/svg11.dtd">
<svg version="1.1" id="Your_Icon" xmlns="http://www.w3.org/2000/svg" xmlns:xlink="http://www.w3.org/1999/xlink" x="0px" y="0px"
	 width="100px" height="90.238px" viewBox="0.067 5.381 100 90.238" enable-background="new 0.067 5.381 100 90.238"
	 xml:space="preserve">
<g>
	<path d="M51.128,71.153L34.414,58.765c-1.588-1.175-4.501-2.14-6.474-2.14H5.649c-1.976,0-3.59,1.617-3.59,3.592v6.779
		c3.26-3.317,7.788-5.385,12.793-5.385c9.894,0,17.946,8.051,17.946,17.951c0,4.2-1.46,8.062-3.889,11.129h21.511
		c1.976,0,3.591-1.614,3.591-3.591v-10.22C54.012,74.907,52.714,72.33,51.128,71.153z"/>
	<path d="M56.031,86.311v-3.159c2.142,0,4.918-0.677,5.708-2.577c0.586-1.418,0.831-5.836-9.548-16.215
		c-1.223-1.223-3.284-3.441-5.465-5.788c-2.469-2.655-5.021-5.399-6.706-7.086c-1.467-1.468-3.804-3.913-6.066-6.277
		c-2.022-2.115-3.93-4.111-5.006-5.188C17.436,28.506,17.34,20.485,19.287,15.784c2.542-6.138,9.745-9.35,15.547-9.35v3.16
		c-4.636,0-10.638,2.594-12.627,7.399c-2.264,5.465,0.841,12.656,8.976,20.792c1.102,1.102,3.023,3.11,5.057,5.238
		c2.249,2.352,4.576,4.785,6.018,6.227c1.726,1.729,4.298,4.495,6.784,7.17c2.162,2.326,4.204,4.523,5.385,5.706
		c8.744,8.741,12.091,15.172,10.233,19.656C63.273,85.121,59.296,86.311,56.031,86.311z"/>
	<g>
		<path d="M96.322,88.409c-0.251-0.304-0.778-0.552-1.173-0.552h-7.491c-0.393,0-0.716-0.323-0.716-0.718v-1.69
			c0-0.396-0.022-0.899-0.047-1.119c-0.024-0.221-0.368-1.053-0.543-1.407L49.104,7.492c-0.175-0.354-0.536-0.879-0.805-1.169
			l-1.186-0.738c-0.378-0.111-1.009-0.203-1.404-0.203h-8.077c-0.395,0-0.717,0.322-0.717,0.717v3.833
			c0,0.395,0.322,0.717,0.717,0.717h6.44c0.395,0,0.859,0.288,1.034,0.642l36.25,73.414c0.175,0.354,0.318,0.965,0.318,1.36v1.075
			c0,0.395-0.322,0.718-0.718,0.718h-5.728c-0.395,0-0.854,0.291-1.021,0.648l-1.775,3.793c-0.167,0.357-0.305,0.973-0.305,1.365
			v1.238c0,0.395,0.324,0.717,0.719,0.717h26.498c0.396,0,0.719-0.322,0.719-0.717v-1.238c0-0.393-0.204-0.965-0.457-1.268
			L96.322,88.409z"/>
	</g>
	<g>
		<path d="M14.852,64.779c-0.899,0-1.768,0.109-2.622,0.261c-0.249,0.048-0.494,0.101-0.738,0.158
			c-0.658,0.157-1.301,0.356-1.919,0.597c-0.343,0.136-0.675,0.283-1.003,0.44c-0.497,0.237-0.98,0.487-1.444,0.779
			c-0.399,0.247-0.771,0.514-1.146,0.796c-0.188,0.146-0.362,0.297-0.543,0.45c-1.357,1.13-2.499,2.483-3.377,4.034
			c-0.494,0.856-0.889,1.767-1.202,2.72c-0.115,0.339-0.23,0.681-0.319,1.031c-0.084,0.342-0.161,0.676-0.218,1.027
			c-0.148,0.811-0.253,1.636-0.253,2.487c0,0.855,0.105,1.68,0.253,2.489c0.058,0.35,0.134,0.69,0.218,1.031
			c0.088,0.353,0.203,0.687,0.316,1.028c0.313,0.953,0.71,1.862,1.204,2.721v0.005c0.393,0.686,0.835,1.333,1.329,1.946
			c0.029,0.034,0.058,0.073,0.088,0.108c1.046,1.279,2.284,2.381,3.699,3.243c0.015,0.011,0.033,0.021,0.05,0.03
			c0.722,0.439,1.464,0.823,2.254,1.137c0.225,0.093,0.463,0.139,0.693,0.217c0.61,0.205,1.217,0.419,1.862,0.548
			c0.913,0.183,1.851,0.282,2.82,0.282c0.958,0,1.885-0.104,2.789-0.282c0.603-0.114,1.175-0.317,1.752-0.505
			c0.252-0.087,0.52-0.142,0.766-0.235c0.756-0.298,1.465-0.663,2.157-1.073c0.033-0.022,0.07-0.035,0.104-0.061
			c0.735-0.439,1.413-0.943,2.054-1.5h0.006c0,0,0.002-0.005,0.004-0.005c0.74-0.643,1.417-1.354,2.02-2.134
			c0.037-0.048,0.079-0.094,0.115-0.143c0.282-0.37,0.547-0.752,0.793-1.15c0.322-0.51,0.607-1.042,0.862-1.592
			c0.125-0.271,0.233-0.547,0.342-0.829c0.275-0.697,0.508-1.411,0.672-2.155c0.029-0.141,0.046-0.288,0.073-0.426
			c0.165-0.874,0.271-1.773,0.271-2.698C29.635,71.41,23.004,64.779,14.852,64.779z M23.16,81.106
			c-0.016,0.078-0.025,0.163-0.042,0.243c-0.094,0.426-0.227,0.835-0.385,1.234c-0.062,0.161-0.124,0.32-0.196,0.475
			c-0.146,0.315-0.311,0.619-0.495,0.911c-0.141,0.228-0.292,0.446-0.454,0.658c-0.021,0.027-0.045,0.055-0.066,0.083
			c-0.345,0.446-0.732,0.854-1.157,1.222c-0.001,0-0.002,0.002-0.002,0.002h-0.002c-0.367,0.319-0.755,0.606-1.175,0.857
			c-0.02,0.015-0.041,0.022-0.06,0.034c-0.397,0.235-0.803,0.444-1.235,0.615c-0.142,0.053-0.294,0.084-0.438,0.135
			c-0.331,0.106-0.658,0.223-1.004,0.288c-0.518,0.102-1.048,0.16-1.598,0.16c-0.554,0-1.091-0.057-1.614-0.16
			c-0.369-0.073-0.716-0.197-1.066-0.315c-0.132-0.043-0.269-0.068-0.397-0.123c-0.453-0.179-0.877-0.399-1.292-0.65
			c-0.009-0.006-0.02-0.012-0.027-0.019c-0.811-0.493-1.519-1.125-2.119-1.857c-0.018-0.021-0.033-0.041-0.051-0.062
			c-0.283-0.352-0.536-0.722-0.76-1.114V83.72c-0.284-0.491-0.51-1.011-0.688-1.558c-0.065-0.194-0.132-0.386-0.182-0.588
			c-0.049-0.196-0.092-0.39-0.125-0.591c-0.085-0.464-0.146-0.936-0.146-1.426c0-0.488,0.06-0.96,0.146-1.425
			c0.032-0.201,0.076-0.393,0.125-0.589c0.05-0.2,0.117-0.396,0.183-0.59c0.179-0.547,0.405-1.067,0.688-1.558
			c0.502-0.889,1.156-1.664,1.934-2.31C9.563,73,9.663,72.912,9.77,72.83c0.213-0.162,0.427-0.313,0.655-0.457
			c0.267-0.166,0.544-0.311,0.827-0.446c0.188-0.091,0.378-0.175,0.575-0.251c0.354-0.138,0.723-0.252,1.099-0.343
			c0.14-0.032,0.281-0.064,0.423-0.09c0.489-0.088,0.988-0.149,1.501-0.149c4.668,0,8.464,3.796,8.464,8.463
			C23.316,80.091,23.255,80.605,23.16,81.106z"/>
	</g>
</g>
</svg>
