<svg xmlns="http://www.w3.org/2000/svg" xmlns:xlink="http://www.w3.org/1999/xlink" version="1.1" x="0px" y="0px" width="100px" height="100px" viewBox="0 0 100 100" enable-background="new 0 0 100 100" xml:space="preserve">
<g id="Captions">
</g>
<g id="Your_Icon">
	<path fill="#000000" d="M87.835,18H67v-5.727C67,5.573,57.165,4,50.147,4h-0.295C42.831,4,33,5.573,33,12.273V18H12.165   C6.554,18,2,22.489,2,27.846v56.022C2,89.226,6.55,94,12.165,94h75.67C93.446,94,98,89.226,98,83.868V27.846   C98,22.489,93.45,18,87.835,18z M40,15.833C40,11.362,46.177,11,49.92,11h0.16c3.743,0,9.92,0.362,9.92,4.833V18H40V15.833z M67,59   H53v14h-6V59H33v-7h14V39h2.853h0.295H53v13h14V59z"/>
</g>
</svg>