<svg xmlns="http://www.w3.org/2000/svg" xmlns:xlink="http://www.w3.org/1999/xlink" version="1.1" id="Layer_1" x="0px" y="0px" width="100px" height="100px" viewBox="0 0 100 100" enable-background="new 0 0 100 100" xml:space="preserve">
<path d="M84.062,39.626L71.081,26.646c-5.672-5.672-17.31-5.41-17.31-5.41H16.99c-11.9,0-11.9,10.817-11.9,10.817v34.619  c0,3.322,5.993,3.038,5.993,3.038h0.401c-0.003,0.097-0.015,0.191-0.015,0.289c0,4.841,3.927,8.767,8.769,8.767  c4.841,0,8.767-3.926,8.767-8.767c0-0.098-0.011-0.192-0.015-0.289h40.243c-0.003,0.097-0.015,0.191-0.015,0.289  c0,4.841,3.926,8.767,8.769,8.767c4.841,0,8.767-3.926,8.767-8.767c0-0.098-0.011-0.192-0.015-0.289h1.234  c6.937,0,6.938-6.938,6.938-6.938C94.911,51.018,84.062,39.626,84.062,39.626z M33.691,39.338h-8.708v9.38H18.72v-9.38h-8.708  v-5.591h8.708V25.04h6.263v8.708h8.708V39.338z M62.144,42.271V27.714c8.88,2.02,17.761,14.556,17.761,14.556H62.144z"/>
</svg>