<svg xmlns="http://www.w3.org/2000/svg" xmlns:xlink="http://www.w3.org/1999/xlink" version="1.0" id="Livello_1" x="0px" y="0px" width="100px" height="100px" viewBox="0 0 100 100" enable-background="new 0 0 100 100" xml:space="preserve">
<g>
	<path fill-rule="evenodd" clip-rule="evenodd" d="M87.878,33.945c-9.211-0.257-11.967,5.948-14.593,12.28   c-13.897-2.918-32.945-2.968-46.631,0.179c-2.602-6.417-5.317-12.724-14.594-12.459c0.872-8.813,5.602-15.855,14.949-16.734   c6.664-0.623,14.874,0,22.962,0c7.988,0,16.198-0.547,22.778,0C82.423,18.021,87.113,25.439,87.878,33.945z"/>
	<path fill-rule="evenodd" clip-rule="evenodd" d="M24.518,52.099c14.232-4.839,36.581-5.108,50.725,0   c2.914-3.996,2.379-8.386,5.875-11.75c6.182-5.946,17.384,1.417,12.814,9.791c-1.07,1.955-2.862,2.883-4.985,4.093   c-1.356,4.126-0.111,9.34-1.78,13.53c-1.087,2.716-4.895,4.505-8.72,4.805c-8.305,0.646-18.488,0-28.303,0   c-10.116,0-19.49,0.59-28.297,0c-4.132-0.278-8.056-2.208-9.079-4.805c-1.523-3.881-0.642-9.323-1.601-13.349   C6.665,52.466,3.599,47.97,5.65,43.02c0.819-1.973,3.489-4.505,6.587-4.805C21.19,37.35,21.181,46.879,24.518,52.099z"/>
	<path fill-rule="evenodd" clip-rule="evenodd" d="M22.558,83.066c-1.6,0-3.202,0-4.804,0c-3.267-0.59-2.948-4.761-2.848-8.72   c2.364,1.73,6.338,1.85,10.502,1.781C25.684,79.665,25.317,82.562,22.558,83.066z"/>
	<path fill-rule="evenodd" clip-rule="evenodd" d="M82.184,83.066c-1.601,0-3.205,0-4.805,0c-2.708-0.38-3.342-3.773-2.669-6.939   c4.099,0.239,8.236-0.428,10.324-1.604C85.153,78.441,85.392,82.48,82.184,83.066z"/>
</g>
</svg>