<svg xmlns="http://www.w3.org/2000/svg" xmlns:xlink="http://www.w3.org/1999/xlink" version="1.1" id="Layer_1" x="0px" y="0px" width="100px" height="100.06px" viewBox="0 0 100 100.06" enable-background="new 0 0 100 100.06" xml:space="preserve">
<path d="M53.918,59.748l-5.201,0.002c0.797,0.215,1.466,0.729,1.883,1.42l1.434,0.002C52.451,60.48,53.121,59.965,53.918,59.748z"/>
<path d="M66.267,34.072H0.884v21.883H0v1.041h66.267V34.072z M15.027,42.916l-0.805,0.612l0.389,0.936l-0.935,0.383l0.133,1.004  l-1.004,0.129l-0.129,1.005l-1.003-0.135l-0.384,0.936l-0.935-0.389L9.74,48.2l-0.801-0.619L8.137,48.2l-0.614-0.804l-0.934,0.389  L6.203,46.85l-1.001,0.135l-0.13-1.005l-1.003-0.129l0.133-1.004l-0.936-0.383l0.389-0.936l-0.804-0.612l0.618-0.804l-0.618-0.801  L3.655,40.7l-0.389-0.936l0.936-0.386l-0.133-1.001l1.003-0.128l0.13-1.005l1.001,0.135l0.386-0.936l0.934,0.39l0.614-0.804  l0.802,0.616l0.801-0.616l0.614,0.804l0.935-0.39l0.384,0.936l1.003-0.135l0.129,1.005l1.004,0.128l-0.133,1.001l0.935,0.386  L14.222,40.7l0.805,0.612l-0.618,0.801L15.027,42.916z"/>
<path d="M53.918,59.748h1.658c-0.266-0.072-0.54-0.121-0.829-0.121S54.186,59.676,53.918,59.748z"/>
<path d="M48.717,59.75l5.201-0.002c0.268-0.072,1.393-0.072,1.658,0h10.703v-1.402L0,58.348v0.871  c0.22,0.484,0.401,0.531,0.937,0.531h1.141l0.952,3.793h0.107c0.333,1.398,1.584,2.445,3.085,2.445s2.752-1.047,3.085-2.445h0.439  c0.333,1.398,1.584,2.445,3.085,2.445s2.752-1.047,3.085-2.445h0.129l0.64-3.793c0,0,16.954,0,16.955,0h13.417  C47.324,59.676,48.451,59.676,48.717,59.75z M7.365,63.543c-0.248,0.381-0.656,0.648-1.143,0.648s-0.896-0.268-1.143-0.648  c-0.14-0.217-0.242-0.459-0.242-0.736c0-0.762,0.622-1.385,1.385-1.385s1.385,0.623,1.385,1.385  C7.607,63.084,7.505,63.326,7.365,63.543z M13.975,63.543c-0.248,0.381-0.656,0.648-1.143,0.648s-0.896-0.268-1.143-0.648  c-0.14-0.217-0.242-0.459-0.242-0.736c0-0.762,0.622-1.385,1.385-1.385s1.385,0.623,1.385,1.385  C14.217,63.084,14.115,63.326,13.975,63.543z"/>
<path d="M99.09,58.268v-3.639c-0.214-0.684-0.214-0.684-0.969-1.184l-8.884-1.076l-0.606-3.2h0.731c0,0-0.147-0.879-0.941-1.941  l-0.816-0.046c-0.697-1.204-2.008-3.013-5.542-4.77c0,0-8.055-3.201-13.438-3.738c-0.997,0.119-0.971,1.061-0.971,2.369v20.16  l-10.187-0.021c-0.418-0.697-1.09-1.215-1.892-1.434h-1.658c-0.797,0.217-1.467,0.732-1.884,1.424l-1.434-0.002  c-0.417-0.691-1.086-1.205-1.883-1.42h-1.659c-0.793,0.215-1.459,0.725-1.877,1.408l-3.246-0.006v0.922  c0,1.307,0.433,1.992,0.969,1.992h2.065c0.488,1.129,1.61,1.922,2.918,1.922s2.43-0.793,2.918-1.922h1.024  c0.488,1.129,1.609,1.922,2.917,1.922c1.31,0,2.431-0.793,2.919-1.922h17.941h15.085c0.486,1.129,1.607,1.922,2.917,1.922  c1.309,0,2.43-0.793,2.917-1.922h1.239c0.431,0,0.88-0.48,1.007-0.955c0,0,1.228,0.135,1.228-2.291  C100,58.047,99.09,58.268,99.09,58.268z M48.451,64.066c-0.173,0.078-0.361,0.125-0.563,0.125s-0.39-0.047-0.562-0.125  c-0.483-0.217-0.823-0.697-0.823-1.26c0-0.762,0.622-1.385,1.385-1.385s1.385,0.623,1.385,1.385  C49.273,63.369,48.933,63.85,48.451,64.066z M55.311,64.066c-0.173,0.078-0.362,0.125-0.563,0.125s-0.389-0.047-0.562-0.125  c-0.483-0.217-0.823-0.697-0.823-1.26c0-0.762,0.622-1.385,1.385-1.385c0.765,0,1.387,0.623,1.387,1.385  C56.134,63.369,55.793,63.85,55.311,64.066z M84.104,52.117c0-1.305,0-0.584,0-1.305S84,49.509,84.719,49.509  c0,0,1.514-0.016,1.953,0c0.439,0.017,0.926-0.096,1.025,0.464c0.099,0.561,0.378,2.145,0.378,2.145H84.104z M93.609,64.191  c-0.203,0-0.392-0.047-0.563-0.125c-0.483-0.217-0.823-0.697-0.823-1.26c0-0.762,0.622-1.385,1.387-1.385s1.386,0.623,1.386,1.385  c0,0.562-0.339,1.043-0.822,1.26C94,64.145,93.812,64.191,93.609,64.191z"/>
<path d="M47.888,59.627c-0.289,0-0.563,0.049-0.83,0.123h1.659C48.451,59.676,48.177,59.627,47.888,59.627z"/>
</svg>