<?xml version="1.0" encoding="utf-8"?>
<!-- Generator: Adobe Illustrator 15.1.0, SVG Export Plug-In . SVG Version: 6.00 Build 0)  -->
<!DOCTYPE svg PUBLIC "-//W3C//DTD SVG 1.1//EN" "http://www.w3.org/Graphics/SVG/1.1/DTD/svg11.dtd">
<svg version="1.1" id="Layer_1" xmlns="http://www.w3.org/2000/svg" xmlns:xlink="http://www.w3.org/1999/xlink" x="0px" y="0px"
	 width="72.803px" height="100px" viewBox="-4.462 -6.131 72.803 100" enable-background="new -4.462 -6.131 72.803 100"
	 xml:space="preserve">
<path d="M31.942-6.131c-20.104,0-36.405,16.297-36.405,36.405c0,3.067,1.107,6.998,3.079,11.127c1.848-2,4.249-3.21,6.885-3.21
	c3.623,0,6.898,2.294,8.812,5.954c1.916-3.66,5.191-5.954,8.812-5.954c3.621,0,6.896,2.294,8.813,5.958
	c1.918-3.664,5.191-5.958,8.814-5.958c3.621,0,6.892,2.294,8.81,5.954c1.919-3.66,5.192-5.954,8.817-5.954
	c2.674,0,5.104,1.247,6.966,3.301c1.919-4.1,2.994-8.036,2.994-11.217C68.346,10.167,52.047-6.131,31.942-6.131z"/>
<path d="M58.388,41.681c-3.772,0-6.854,4.115-7.051,9.276c-0.005,0.177-0.02,0.352-0.02,0.529c0,0.964-0.783,1.746-1.749,1.746
	c-0.96,0-1.748-0.784-1.748-1.746c0-0.178-0.008-0.354-0.015-0.53c-0.205-5.16-3.28-9.276-7.05-9.276
	c-3.769,0-6.852,4.114-7.054,9.276c-0.008,0.177-0.015,0.353-0.015,0.53c0,0.964-0.784,1.746-1.746,1.746s-1.745-0.784-1.745-1.746
	c0-0.178-0.014-0.354-0.021-0.53c-0.203-5.16-3.279-9.276-7.051-9.276c-3.77,0-6.848,4.114-7.048,9.276
	c-0.007,0.177-0.023,0.353-0.023,0.53c0,0.964-0.782,1.746-1.744,1.746s-1.744-0.784-1.744-1.746c0-0.178-0.014-0.354-0.022-0.53
	c-0.201-5.16-3.278-9.276-7.048-9.276c-2.014,0-3.831,1.179-5.12,3.061c1.21,2.091,2.627,4.188,4.215,6.215H4.584l17.601,23.107
	h19.511l17.791-23.107h-0.014c1.55-1.983,2.932-4.035,4.108-6.088C62.29,42.911,60.44,41.681,58.388,41.681z"/>
<rect x="23.854" y="85.555" width="16.176" height="8.314"/>
</svg>
