<svg xmlns="http://www.w3.org/2000/svg" xmlns:xlink="http://www.w3.org/1999/xlink" version="1.1" id="Layer_1" x="0px" y="0px" viewBox="0 0 100 100" enable-background="new 0 0 100 100" xml:space="preserve" height="100px" width="100px">
<path d="M39.2,25.6c0,2.4,2,4.4,4.4,4.4c2.4,0,4.4-2,4.4-4.4c0-1.8-1.1-3.4-2.7-4.1c0-0.4,0-1.3,0-3.5c0-1.3-0.4-2.3-1.3-2.8  c-0.8-0.5-1.9-0.4-3.1,0.2c-1.4,0.8-15.7,8-17.8,8.9c-1.9,0.8-2.9,1.2-5.1,1.2h-3.8c-0.7-2.5-3-4.4-5.7-4.4c-3.3,0-5.9,2.7-5.9,5.9  s2.7,5.9,5.9,5.9c2.8,0,5.1-1.9,5.7-4.5H18c2.8,0,4.2-0.6,6.3-1.5c2.3-1,16.3-8.1,18-9c0,1.5,0,2.5,0,3.1c0,0.1,0,0.1,0,0.2  C40.5,21.9,39.2,23.6,39.2,25.6z M8.5,30.1c-1.6,0-2.9-1.3-2.9-2.9c0-1.6,1.3-2.9,2.9-2.9c1.6,0,2.9,1.3,2.9,2.9  C11.4,28.8,10.1,30.1,8.5,30.1z"/>
<path d="M14.4,43.1h8.8c0.6,1.7,2.2,2.9,4.1,2.9c2.4,0,4.4-2,4.4-4.4c0-2.4-2-4.4-4.4-4.4c-1.9,0-3.5,1.2-4.1,2.9h-8.8  c-0.7-2.5-3-4.4-5.7-4.4c-3.3,0-5.9,2.7-5.9,5.9s2.7,5.9,5.9,5.9C11.5,47.6,13.8,45.7,14.4,43.1z M5.8,41.6c0-1.6,1.3-2.9,2.9-2.9  c1.6,0,2.9,1.3,2.9,2.9c0,1.6-1.3,2.9-2.9,2.9C7.1,44.6,5.8,43.2,5.8,41.6z"/>
<path d="M10,84.7V60.2c0-4.7,1.6-5.7,4.3-5.7c3.3,0,7,0,8.6,0.1c0.6,1.7,2.2,2.9,4.2,2.9c2.4,0,4.4-2,4.4-4.4c0-2.4-2-4.4-4.4-4.4  c-1.9,0-3.5,1.2-4.1,2.9c-1.7,0-5.4-0.1-8.6-0.1C7,51.6,7,58.1,7,60.2v24.4c-2.6,0.6-4.6,3-4.6,5.8c0,3.3,2.7,5.9,5.9,5.9  s5.9-2.7,5.9-5.9C14.3,87.7,12.5,85.4,10,84.7z M8.3,93.3c-1.6,0-2.9-1.3-2.9-2.9c0-1.6,1.3-2.9,2.9-2.9c1.6,0,2.9,1.3,2.9,2.9  C11.3,92,9.9,93.3,8.3,93.3z"/>
<path d="M72,46c1.7,0,3.2-1,3.9-2.4c1.7,0,4.7,0,7.3,0c6.8,0,6.8-6,6.8-8V13.5c2.4-0.6,4.2-2.8,4.2-5.4c0-3-2.5-5.5-5.5-5.5  c-3,0-5.5,2.5-5.5,5.5c0,2.5,1.6,4.6,3.9,5.3v22.2c0,4.2-1.3,5-3.8,5c-2.5,0-5.2,0-6.9,0c-0.4-2-2.2-3.5-4.3-3.5  c-2.4,0-4.4,2-4.4,4.4C67.5,44,69.5,46,72,46z M86.1,8.2c0-1.4,1.1-2.5,2.5-2.5c1.4,0,2.5,1.1,2.5,2.5c0,1.4-1.1,2.5-2.5,2.5  C87.3,10.7,86.1,9.6,86.1,8.2z"/>
<path d="M98.3,53.3c0-3.3-2.7-5.9-5.9-5.9c-2.7,0-5.1,1.9-5.7,4.4H75.9c-0.6-1.7-2.2-2.9-4.1-2.9c-2.4,0-4.4,2-4.4,4.4  s2,4.4,4.4,4.4c1.9,0,3.5-1.2,4.1-2.9h10.8c0.7,2.5,3,4.4,5.7,4.4C95.6,59.2,98.3,56.6,98.3,53.3z M92.4,50.4c1.6,0,2.9,1.3,2.9,2.9  c0,1.6-1.3,2.9-2.9,2.9s-2.9-1.3-2.9-2.9C89.4,51.7,90.8,50.4,92.4,50.4z"/>
<path d="M41.4,33.2c-3.5,0-6.3,2.8-6.3,6.3v15.8c0,3.5,2.8,6.3,6.3,6.3h16.2c3.5,0,6.3-2.8,6.3-6.3V39.5c0-3.5-2.8-6.3-6.3-6.3H41.4  z"/>
<path d="M8.2,18.3c2.8,0,5.1-1.9,5.8-4.5c2.7,0,11.2,0,15.2,0c1.8,0,7.6-2.1,18.4-6.4c2.5-1,5.2-2,6.2-2.4c0,0.1,0,0.3,0,0.5v15.9  c-1.7,0.6-2.9,2.2-2.9,4.1c0,2.4,2,4.4,4.4,4.4c2.4,0,4.4-2,4.4-4.4c0-1.9-1.3-3.6-3-4.2V5.5c0-0.9,0-3.6-2.9-3.6  c-0.5,0-1,0.2-7.4,2.7c-5.5,2.2-15.7,6.2-17.3,6.2c-4,0-12.5,0-15.2,0c-0.7-2.5-3-4.3-5.7-4.3c-3.3,0-5.9,2.7-5.9,5.9  C2.3,15.6,4.9,18.3,8.2,18.3z M8.2,9.4c1.6,0,2.9,1.3,2.9,2.9c0,1.6-1.3,2.9-2.9,2.9c-1.6,0-2.9-1.3-2.9-2.9  C5.3,10.8,6.6,9.4,8.2,9.4z"/>
<path d="M43.6,64.6c-1.8,0-3.4,1.1-4,2.6H25.5c-4.1,0-6.5,2.6-6.5,6.9c0,0.7,0,1.4,0,2c-2.6,0.6-4.5,3-4.5,5.7  c0,3.3,2.7,5.9,5.9,5.9s5.9-2.7,5.9-5.9c0-2.7-1.8-5-4.3-5.7c0-0.6-0.1-1.3-0.1-2c0-2.7,1.1-3.9,3.5-3.9h13.9  c0.5,1.9,2.2,3.2,4.2,3.2c2.4,0,4.4-2,4.4-4.4C48,66.6,46,64.6,43.6,64.6z M23.3,81.8c0,1.6-1.3,2.9-2.9,2.9s-2.9-1.3-2.9-2.9  s1.3-2.9,2.9-2.9S23.3,80.2,23.3,81.8z"/>
<path d="M71.9,80.1c0-1.4,0.1-3.7,0.1-6c0-4.3-2.4-6.9-6.5-6.9h-6.1c-0.7-1.6-2.2-2.6-4-2.6c-2.4,0-4.4,2-4.4,4.4  c0,2.4,2,4.4,4.4,4.4c2,0,3.7-1.4,4.2-3.2h5.9c2.4,0,3.5,1.2,3.5,3.9c0,2.3-0.1,4.6-0.1,6c-2.5,0.7-4.3,3-4.3,5.7  c0,3.3,2.7,5.9,5.9,5.9s5.9-2.7,5.9-5.9C76.4,83,74.5,80.7,71.9,80.1z M70.5,88.8c-1.6,0-2.9-1.3-2.9-2.9s1.3-2.9,2.9-2.9  s2.9,1.3,2.9,2.9S72.1,88.8,70.5,88.8z"/>
</svg>