<svg xmlns="http://www.w3.org/2000/svg" xmlns:xlink="http://www.w3.org/1999/xlink" version="1.1" id="Layer_1" x="0px" y="0px" width="100px" height="100px" viewBox="0 0 100 100" enable-background="new 0 0 100 100" xml:space="preserve">
<path d="M36.243,73.835c-3.7,0-6.702,3-6.702,6.701c0,3.7,3.002,6.702,6.702,6.702c3.701,0,6.703-3.002,6.703-6.702  C42.945,76.835,39.943,73.835,36.243,73.835z M36.243,83.377c-1.57,0-2.842-1.271-2.842-2.841c0-1.57,1.272-2.841,2.842-2.841  s2.842,1.271,2.842,2.841C39.085,82.105,37.812,83.377,36.243,83.377z"/>
<path d="M63.846,73.835c-3.701,0-6.703,3-6.703,6.701c0,3.7,3.002,6.702,6.703,6.702c3.7,0,6.701-3.002,6.701-6.702  C70.547,76.835,67.547,73.835,63.846,73.835z M63.846,83.377c-1.569,0-2.842-1.271-2.842-2.841c0-1.57,1.272-2.841,2.842-2.841  c1.57,0,2.843,1.271,2.843,2.841C66.688,82.105,65.416,83.377,63.846,83.377z"/>
<path d="M98.913,30.72c-1.274-1.863-3.52-2.72-6.185-2.72h-5.899c-2.271-2-4.071-3.304-6.255-5.969  c-1.643-2.005-6.379-1.483-8.825-2.712c-7.698-3.876-12.88-8.226-21.7-5.881c-3.555,0.944-5.78,1.8-9.461,1.417  c-4.572-0.475-9.832,0.475-13.198,4.27C26.581,20.036,15.391,26,15.846,28h-8.6c-2.639,0-4.884,0.856-6.159,2.72  c-1.212,1.77-1.422,3.947-0.576,6.197l14.18,37.7C16.25,78.76,21.075,82,25.711,82c0.035,0,0.07,0,0.104,0l-0.053-5  c-0.018,0-0.035,0-0.053,0c-2.505,0-5.396-2.031-6.207-4.186L5.323,35.06c-0.146-0.387-0.338-0.964,0.006-1.467  C5.639,33.14,6.377,33,7.274,33H92.7c0.925,0,1.662,0.1,1.972,0.552c0.344,0.503,0.15,1.133,0.005,1.519L80.496,72.698  c-0.816,2.171-3.693,4.107-6.259,4.094L74.185,82c0.035,0,0.069,0,0.104,0c4.636,0,9.461-3.306,11.018-7.446l14.182-37.591  C100.334,34.714,100.125,32.49,98.913,30.72z"/>
<path d="M51.598,78h-3.855c-1.419,0-2.57,1.08-2.57,2.5s1.151,2.5,2.57,2.5h3.855c1.419,0,2.569-1.08,2.569-2.5S53.017,78,51.598,78  z"/>
</svg>