<svg xmlns="http://www.w3.org/2000/svg" xmlns:xlink="http://www.w3.org/1999/xlink" version="1.1" id="Layer_1" x="0px" y="0px" width="100px" height="100px" viewBox="0 0 100 100" enable-background="new 0 0 100 100" xml:space="preserve">
<path fill="#000000" d="M73.985,58.043l-3.038-5.497c0.63-0.972,0.858-2.17,0.592-3.314c-0.085-0.584-0.292-1.128-0.586-1.613  l3.224-5.583c0.052,0.002,0.101,0.016,0.153,0.016c2.36,0,4.28-1.92,4.28-4.28c0-2.361-1.92-4.281-4.28-4.281  c-0.053,0-0.102,0.014-0.152,0.016l-3.225-5.583c0.391-0.646,0.629-1.394,0.629-2.202c0-2.361-1.92-4.281-4.28-4.281  c-1.634,0-3.04,0.931-3.761,2.281H57.26c-0.721-1.35-2.127-2.28-3.761-2.28c-2.36,0-4.28,1.92-4.28,4.281  c0,0.819,0.243,1.577,0.643,2.228l-3.208,5.556c-0.052-0.002-0.101-0.016-0.153-0.016c-1.607,0-2.991,0.903-3.722,2.217  l-6.148-0.116c-0.023-0.047-0.035-0.096-0.061-0.142c-1.141-2.066-3.751-2.817-5.817-1.676c-0.703,0.389-1.24,0.955-1.616,1.604  c-0.001,0.001-0.001,0.003-0.002,0.004c-0.06,0.103-0.119,0.205-0.169,0.312c-0.347,0.618-0.562,1.32-0.562,2.078  c0,0.8,0.235,1.541,0.619,2.182l-3.18,5.275c-0.758-0.032-1.534,0.122-2.245,0.515c-1.447,0.8-2.23,2.32-2.189,3.869  c-0.003,0.07-0.021,0.138-0.021,0.209c0,2.36,1.92,4.28,4.28,4.28c0.053,0,0.102-0.014,0.153-0.016l2.37,4.104l0.589,1.067  c-0.833,1.283-0.968,2.965-0.177,4.396c0.298,0.539,0.7,0.983,1.162,1.333c0.766,0.719,1.789,1.167,2.919,1.167  c1.635,0,3.041-0.932,3.762-2.281h6.057c0.01,0.026,0.019,0.052,0.033,0.078c0.754,1.364,2.152,2.129,3.607,2.178  c0.07,0.006,0.139,0.013,0.21,0.015l3.036,5.493c-0.833,1.284-0.967,2.965-0.177,4.395c1.142,2.066,3.75,2.818,5.816,1.677  c0.707-0.391,1.248-0.962,1.624-1.616l6.445,0.122c0.022,0.045,0.035,0.096,0.061,0.142c1.142,2.065,3.751,2.817,5.816,1.676  c2.066-1.142,2.818-3.751,1.677-5.816c-0.025-0.047-0.06-0.083-0.087-0.126l3.327-5.522c0.755,0.028,1.524-0.124,2.231-0.515  c2.065-1.142,2.818-3.752,1.677-5.817C77.011,58.802,75.516,58.021,73.985,58.043z M46.014,57.624  c-0.613,0.034-1.227,0.19-1.801,0.507c-0.729,0.403-1.284,0.995-1.661,1.676l-6.218-0.116c-0.246-0.412-0.554-0.782-0.917-1.091  c-0.822-0.838-1.952-1.286-3.106-1.277l-0.608-1.052l-2.365-4.28c0.381-0.639,0.612-1.374,0.612-2.17  c0-0.064-0.011-0.126-0.014-0.189c0.032-0.747-0.131-1.51-0.519-2.213c-0.008-0.015-0.019-0.026-0.028-0.04l3.088-5.349  c0.07,0.004,0.137,0.021,0.208,0.021c1.635,0,3.041-0.932,3.762-2.281h6.292c0.647,1.212,1.85,2.081,3.272,2.247  c0.221,0.039,0.445,0.063,0.671,0.067l3.18,5.509c-0.127,0.207-0.232,0.429-0.325,0.655c-0.506,1.171-0.502,2.546,0.162,3.748  c0.026,0.046,0.061,0.082,0.088,0.126l-3.296,5.47C46.329,57.591,46.171,57.606,46.014,57.624z M53.307,29.981  c0.065,0.003,0.127,0.02,0.192,0.02c1.635,0,3.041-0.931,3.762-2.281h6.28c0.721,1.35,2.127,2.28,3.761,2.28  c0.075,0,0.146-0.019,0.22-0.022l3.191,5.527c-0.414,0.659-0.663,1.432-0.663,2.266c0,0.833,0.249,1.606,0.663,2.265l-3.19,5.526  c-0.075-0.004-0.146-0.022-0.221-0.022c-1.634,0-3.04,0.932-3.761,2.281H57.26c-0.721-1.35-2.127-2.281-3.761-2.281  c-0.052,0-0.101,0.014-0.153,0.016l-0.661-1.146l-2.351-4.253c0.832-1.283,0.967-2.965,0.177-4.395  c-0.085-0.154-0.194-0.286-0.295-0.426L53.307,29.981z M70.307,64.371c0.037,0.067,0.087,0.119,0.127,0.183l-3.295,5.467  c-0.777-0.044-1.573,0.112-2.303,0.515c-0.729,0.403-1.286,0.995-1.662,1.677l-6.38-0.12c-0.033-0.067-0.052-0.139-0.087-0.204  c-0.79-1.43-2.286-2.21-3.815-2.188l-2.939-5.319c0.516-0.707,0.829-1.569,0.829-2.509c0-0.819-0.243-1.578-0.644-2.229l3.15-5.457  c0.751,0.03,1.521-0.123,2.228-0.514c0.73-0.403,1.286-0.995,1.662-1.676l6.377,0.118c0.029,0.06,0.044,0.121,0.076,0.179  c0.79,1.43,2.285,2.211,3.816,2.188l3.037,5.497C69.651,61.262,69.517,62.941,70.307,64.371z"/>
</svg>