<svg xmlns="http://www.w3.org/2000/svg" xmlns:xlink="http://www.w3.org/1999/xlink" version="1.1" x="0px" y="0px" width="100px" height="100px" viewBox="0 0 100 100" enable-background="new 0 0 100 100" xml:space="preserve">
<g id="Captions">
</g>
<g id="Your_Icon">
	<path d="M91.115,32.785H55.329l4.243-7.774h35.521c2.454,0,4.443-1.989,4.443-4.443c0-2.453-1.989-4.442-4.443-4.442H56.937   c-1.626,0-3.12,0.887-3.899,2.314l-7.829,14.345H33.361c-4.906,0-8.885,3.979-8.885,8.885v7.74L6.695,38.952   C6,38.543,5.222,38.338,4.442,38.338c-0.76,0-1.521,0.195-2.205,0.585C0.854,39.716,0,41.188,0,42.781v31.098   c0,1.594,0.854,3.064,2.236,3.855c0.684,0.393,1.445,0.588,2.206,0.588c0.779,0,1.557-0.205,2.251-0.613l17.783-10.451v7.732   c0,4.906,3.979,8.885,8.885,8.885h57.754c4.906,0,8.885-3.979,8.885-8.885V41.67C100,36.764,96.021,32.785,91.115,32.785z    M91.115,72.768c0,1.223-1,2.223-2.222,2.223H55.574c-1.221,0-2.221-1-2.221-2.223v-17.77c0-1.221,1-2.221,2.221-2.221h33.319   c1.222,0,2.222,1,2.222,2.221V72.768z"/>
</g>
</svg>