<?xml version="1.0" encoding="utf-8"?>
<!-- Generator: Adobe Illustrator 15.1.0, SVG Export Plug-In . SVG Version: 6.00 Build 0)  -->
<!DOCTYPE svg PUBLIC "-//W3C//DTD SVG 1.1//EN" "http://www.w3.org/Graphics/SVG/1.1/DTD/svg11.dtd">
<svg version="1.1" id="Ebene_1" xmlns="http://www.w3.org/2000/svg" xmlns:xlink="http://www.w3.org/1999/xlink" x="0px" y="0px"
	 width="100px" height="67.242px" viewBox="0 4.05 100 67.242" enable-background="new 0 4.05 100 67.242" xml:space="preserve">
<path d="M97.846,48.751c-1.621-0.565-3.354-0.611-5.667-0.998c-2.312-0.389-3.406,0.141-8.024-3.466
	c-4.617-3.604-2.521-25.047-17.773-33.657C58.676,6.28,47.357,2.123,33.825,5.005C-15.596,15.528,3.85,64.739,3.85,64.739
	s-4.039,2.565-3.843,3.695c0.13,0.754,1.609,2.905,4.179,2.857c10.772-0.2,25.572-13.845,42.269-17.288
	c7.958-1.641,21.794-0.821,28.609-1.103c6.814-0.28,23.037,0.232,24.137-0.812C100.977,50.403,99.466,49.317,97.846,48.751z
	 M31.087,33.744c-1.337,0.345-2.701-0.46-3.045-1.798c-0.345-1.336,0.459-2.7,1.797-3.045c1.337-0.345,2.7,0.46,3.045,1.797
	C33.229,32.035,32.424,33.399,31.087,33.744z M38.784,31.759c-1.338,0.345-2.701-0.459-3.046-1.796
	c-0.344-1.338,0.46-2.702,1.798-3.045c1.337-0.344,2.7,0.46,3.045,1.798C40.926,30.052,40.121,31.415,38.784,31.759z M46.479,29.775
	c-1.337,0.345-2.7-0.458-3.045-1.796s0.46-2.701,1.797-3.045c1.338-0.345,2.702,0.459,3.046,1.796
	C48.622,28.068,47.816,29.431,46.479,29.775z M71.733,24.742C68.282,14.238,51.75,9.399,34.17,13.931
	C17.591,18.203,5.855,29.318,6.294,39.681c-0.087-0.266-0.169-0.534-0.239-0.808c-2.852-11.063,9.45-23.799,27.478-28.447
	c18.028-4.646,34.952,0.557,37.802,11.622C71.564,22.937,71.696,23.838,71.733,24.742z"/>
</svg>
