<svg xmlns="http://www.w3.org/2000/svg" xmlns:xlink="http://www.w3.org/1999/xlink" version="1.1" id="Capa_1" x="0px" y="0px" width="100px" height="100px" viewBox="0 0 100 100" enable-background="new 0 0 100 100" xml:space="preserve">
<g>
	<path fill="#000000" d="M94.577,38.962c-0.567-0.567-1.486-0.567-2.054,0c-4.235,4.236-11.13,4.235-15.364,0   c-5.368-5.366-14.105-5.368-19.475,0v0.001c-2.056,2.053-4.782,3.184-7.684,3.184c-2.901,0-5.63-1.131-7.685-3.186   c-0.002,0-0.002,0-0.002-0.001c-5.369-5.367-14.104-5.366-19.471,0.001c-0.001,0-0.001,0.001-0.002,0.001   c-4.236,4.235-11.129,4.234-15.365-0.001c-0.565-0.567-1.485-0.567-2.053,0c-0.566,0.567-0.566,1.486,0,2.053   c2.684,2.685,6.209,4.026,9.736,4.026c3.525,0,7.052-1.342,9.736-4.026v-0.001c4.234-4.235,11.129-4.235,15.366,0.001   c0,0,0,0.001,0.003,0.001c2.602,2.602,6.059,4.034,9.731,4.034c3.676,0,7.133-1.433,9.737-4.036v-0.001   c4.235-4.236,11.131-4.233,15.366,0.001c0,0.001,0.002,0.001,0.004,0.002c2.685,2.682,6.207,4.023,9.73,4.023   s7.051-1.342,9.734-4.026C95.145,40.45,95.145,39.529,94.577,38.962z"/>
	<path fill="#000000" d="M94.577,48.968c-0.567-0.566-1.486-0.566-2.054,0c-4.235,4.237-11.13,4.236-15.364,0   c-5.368-5.366-14.105-5.368-19.475,0v0.001c-2.056,2.054-4.782,3.185-7.684,3.185c-2.901,0-5.63-1.131-7.685-3.186   c-0.002-0.001-0.002-0.001-0.002-0.002c-5.369-5.366-14.104-5.365-19.471,0.002c-0.001,0-0.001,0.001-0.002,0.001   c-4.236,4.235-11.129,4.234-15.365-0.001c-0.565-0.567-1.485-0.567-2.053,0c-0.566,0.568-0.566,1.487,0,2.053   c2.684,2.686,6.209,4.025,9.736,4.025c3.525,0,7.052-1.343,9.736-4.025l0,0c4.234-4.236,11.129-4.236,15.366,0   c0,0.002,0,0.002,0.003,0.002c2.602,2.603,6.059,4.035,9.731,4.035c3.676,0,7.133-1.436,9.737-4.037l0,0   c4.235-4.236,11.131-4.234,15.366,0.002c0,0,0.002,0,0.004,0.002c2.685,2.683,6.207,4.021,9.73,4.021s7.051-1.343,9.734-4.025   C95.145,50.456,95.145,49.537,94.577,48.968z"/>
	<path fill="#000000" d="M94.577,58.975c-0.567-0.564-1.486-0.564-2.054,0c-4.235,4.236-11.13,4.235-15.364,0   c-5.368-5.365-14.105-5.367-19.475,0v0.002c-2.056,2.053-4.782,3.186-7.684,3.186c-2.901,0-5.63-1.133-7.685-3.188   c-0.002,0-0.002,0-0.002-0.002c-5.369-5.365-14.104-5.365-19.471,0.002c-0.001,0-0.001,0.002-0.002,0.002   c-4.236,4.234-11.129,4.233-15.365-0.002c-0.565-0.565-1.485-0.565-2.053,0c-0.566,0.567-0.566,1.486,0,2.053   c2.684,2.687,6.209,4.027,9.736,4.027c3.525,0,7.052-1.344,9.736-4.027l0,0c4.234-4.234,11.129-4.234,15.366,0   c0,0.002,0,0.002,0.003,0.002c2.602,2.604,6.059,4.035,9.731,4.035c3.676,0,7.133-1.435,9.737-4.037l0,0   c4.235-4.234,11.131-4.232,15.366,0.002c0,0,0.002,0,0.004,0.003c2.685,2.683,6.207,4.022,9.73,4.022s7.051-1.344,9.734-4.027   C95.145,60.461,95.145,59.542,94.577,58.975z"/>
</g>
</svg>