<svg xmlns="http://www.w3.org/2000/svg" xmlns:xlink="http://www.w3.org/1999/xlink" version="1.1" id="Layer_1" x="0px" y="0px" width="50px" height="50px" viewBox="0 0 50 50" enable-background="new 0 0 50 50" xml:space="preserve">
<g>
	<path fill="#000000" d="M50.159,9.476c-0.168-0.349-0.432-0.487-0.668-0.516c-0.273-0.036-0.504,0.059-0.512,0.065l-0.005,0.006   l-4.075,5.052l-3.027,0.446l-4.393-4.288l0.129-3.845l5.238-4.062l-0.001-0.021c0.005-0.01,0.005-0.02,0.01-0.043   c0.037-0.311-0.038-0.521-0.155-0.65c-0.115-0.124-0.273-0.171-0.4-0.193c-0.11-0.008-0.203-0.008-0.227-0.002   c-0.09-0.016-0.914-0.172-2.025-0.332c-0.292-0.037-0.616-0.067-0.938-0.108c-3.29-0.335-5.177,0.887-6.22,2.198   c-0.969,1.201-1.234,2.483-1.27,2.68c0.004,0.008-0.002,0.01,0,0.013l-0.002,0.013c-0.006,0.072-0.045,0.387-0.191,1.688   c-0.232,2.005,0.281,4.889,0.734,6.313c0.061,0.205,0.069,0.443,0.039,0.7c-0.174,1.544-1.735,3.866-1.738,3.866l-3.272,3.917   l-1.673,1.864l-3.236-3.152c-0.149,0.177-0.328,0.387-0.519,0.609l-3.885-3.895l0.192-0.219c0.077-0.087,0.075-0.227-0.002-0.306   l-0.506-0.499l-1.41-1.412l0.041-0.045l0.53-0.607l-0.376-0.692c-0.313-0.565-0.578-1.306-0.617-1.666   c0.924-0.503,4.392-1.681,7.34-2.552l1.108-0.33l-0.394-1.128l-0.612-1.729l-0.206-0.594l-0.584-0.056   c-0.111-0.014-2.604-0.273-5.881,0.35c-4.39,0.823-8.09,2.848-10.727,5.845L5.52,12.453l-0.028,0.394   c-0.103,1.526-0.16,2.481-0.19,3.085c0.008,0.936-0.136,1.45-1.002,1.5l-1.138-1.141l-3.522,4.02l5.168,5.173l3.525-4.017   L6.848,19.98c0.168-0.271,0.563-0.567,1.364-0.855c0.653-0.191,2.276-0.555,3.427,0.166l0.687,0.432l0.417-0.477l1.411,1.414   l0.503,0.502c0.077,0.083,0.207,0.074,0.289-0.017l0.191-0.218l3.917,3.921c-0.285,0.337-0.554,0.657-0.787,0.942l3.121,3.043   L7.609,44.176c-0.767,0.843-0.417,2.507,0.774,3.729c1.192,1.218,2.761,1.541,3.522,0.686l13.89-15.466l14.276,13.912   c0.818,0.793,2.361,0.374,3.473-0.937c1.113-1.31,1.361-2.992,0.549-3.774L29.925,28.529l0.671-0.748l0.005,0.01l0.041-0.047   c0,0,3.281-3.539,4.98-5.582c0.842-1.015,1.834-1.533,2.615-1.793c0.787-0.271,1.355-0.285,1.357-0.279c0,0,3.205,0.375,3.57,0.422   c4.762,0.467,6.672-5.508,6.666-5.508c0.008-0.007,0.145-0.75,0.485-3.674C50.414,10.406,50.337,9.834,50.159,9.476z"/>
</g>
</svg>