<svg xmlns="http://www.w3.org/2000/svg" xmlns:xlink="http://www.w3.org/1999/xlink" version="1.1" id="Livello_1" x="0px" y="0px" width="95px" height="95px" viewBox="0 0 95 95" enable-background="new 0 0 95 95" xml:space="preserve">
<g>
	<path fill="#000000" d="M28.662,51.769H14.97l-6.809-12.49l6.809-12.491h13.691l6.808,12.491L28.662,51.769z M15.861,50.269h11.91   l5.989-10.99l-5.989-10.991h-11.91L9.87,39.278L15.861,50.269z M80.078,55.167h-13.69l-6.81-12.49l6.81-12.491h13.69l6.809,12.491   L80.078,55.167z M67.278,53.667h11.909l5.99-10.99l-5.99-10.991H67.278l-5.991,10.991L67.278,53.667z M17.771,54.858v-1.5h-3.764   l-1.73-3.175l-1.317,0.718l1.757,3.223l-1.558,2.538c-0.188-0.045-0.377-0.068-0.57-0.068c-0.935,0-1.778,0.517-2.203,1.349   c-0.622,1.213-0.139,2.708,1.078,3.332c0.347,0.176,0.735,0.27,1.123,0.27c0.936,0,1.782-0.518,2.208-1.35   c0.301-0.588,0.354-1.26,0.151-1.889c-0.105-0.326-0.277-0.62-0.497-0.87l1.583-2.577H17.771z M11.458,59.513   c-0.237,0.465-0.843,0.663-1.312,0.426c-0.479-0.246-0.669-0.834-0.424-1.314c0.167-0.326,0.5-0.53,0.869-0.53   c0.154,0,0.304,0.036,0.444,0.108c0.231,0.117,0.403,0.318,0.483,0.566S11.577,59.28,11.458,59.513z M21.897,24.73   c-0.387,0-0.775-0.094-1.123-0.271c-0.59-0.302-1.025-0.814-1.229-1.443s-0.15-1.3,0.152-1.889   c0.424-0.831,1.268-1.348,2.203-1.348c0.389,0,0.778,0.094,1.126,0.272c0.588,0.299,1.024,0.812,1.229,1.44   c0.203,0.629,0.149,1.299-0.151,1.888C23.678,24.214,22.833,24.73,21.897,24.73z M21.901,21.28c-0.369,0-0.701,0.203-0.868,0.53   c-0.119,0.233-0.141,0.497-0.061,0.745c0.081,0.248,0.253,0.449,0.484,0.568c0.469,0.238,1.075,0.04,1.312-0.426   c0.118-0.231,0.14-0.495,0.06-0.743c-0.08-0.247-0.252-0.449-0.484-0.566C22.204,21.316,22.055,21.28,21.901,21.28z M57.833,68.761   H44.141l-6.809-12.49l6.809-12.49h13.691l6.809,12.49L57.833,68.761z M60.245,38.205l-1.281-0.78l-1.829,3.002H53.29v1.5h4.687   L60.245,38.205z M39.667,45.812l-1.307,2.282l-4.609-2.723l-0.764,1.291l4.628,2.734l-1.292,2.257l1.303,0.745l3.344-5.842   L39.667,45.812z M47.049,70.351h-3.764l-1.731-3.174l-1.316,0.717l1.76,3.229l-1.973,3.331l1.291,0.766l1.995-3.369h3.738V70.351z    M71.664,66.147c-0.219-0.623-0.668-1.125-1.263-1.41c-0.945-0.455-2.104-0.199-2.83,0.516l-3.35-1.825l1.348-2.474l-1.316-0.717   l-3.55,6.513l1.316,0.718l1.483-2.723l3.391,1.848c-0.159,1.047,0.358,2.121,1.361,2.605c0.338,0.162,0.697,0.244,1.069,0.244   c0.947,0,1.824-0.551,2.233-1.401C71.844,67.444,71.882,66.772,71.664,66.147z M70.206,67.391   c-0.224,0.466-0.835,0.679-1.301,0.456c-0.484-0.234-0.688-0.818-0.455-1.303c0.164-0.34,0.5-0.552,0.878-0.552   c0.146,0,0.289,0.032,0.424,0.098c0.234,0.112,0.41,0.31,0.496,0.554C70.334,66.89,70.319,67.154,70.206,67.391z"/>
</g>
</svg>