<svg xmlns="http://www.w3.org/2000/svg" xmlns:xlink="http://www.w3.org/1999/xlink" version="1.1" id="Your_Icon" x="0px" y="0px" width="100px" height="100px" viewBox="0 0 100 100" enable-background="new 0 0 100 100" xml:space="preserve">
<g>
	<path fill="#000000" d="M36.413,43.857c0,0,25.375-5.252,26.259-10.957c0.887-5.704-26.625-6.5-49.047,2.585   C-8.799,44.573,27.046,33.504,36.413,43.857z"/>
	<path fill="#000000" d="M45.508,55.879c0,0,21.858-14.197,26.48-10.396c4.625,3.8-14.534,24.25-36.958,33.337   C12.608,87.906,46.035,70.688,45.508,55.879z"/>
	<path fill="#000000" d="M53.061,29.178c-19.033,7.714-32.016,20.194-28.995,27.877c3.022,7.682,20.901,7.659,39.935-0.055   c19.033-7.713,28.995-27.876,28.995-27.876S72.098,21.464,53.061,29.178z M46.316,52.968c-2.428,1.113-5.294,0.013-6.39-2.452   c-1.097-2.465-0.015-5.375,2.413-6.487c2.429-1.114,5.295-0.014,6.392,2.451C49.828,48.943,48.745,51.854,46.316,52.968z    M57.086,48.029c-2.428,1.115-5.293,0.016-6.391-2.45c-1.095-2.464-0.012-5.375,2.414-6.489c2.429-1.112,5.295-0.013,6.393,2.451   C60.598,44.006,59.516,46.917,57.086,48.029z M67.855,43.092c-2.429,1.113-5.297,0.014-6.393-2.45   c-1.096-2.465-0.012-5.377,2.416-6.489c2.428-1.114,5.295-0.014,6.393,2.45C71.367,39.068,70.283,41.979,67.855,43.092z"/>
	<path fill="#000000" d="M31.577,62.075l-10.178,0.437c0,0-1.53-0.22-2.7-3.188c-1.167-2.974-0.269-4.358-0.269-4.358l7.676-6.801   c0,0-0.977,3.941,0.515,7.732C28.113,59.691,31.577,62.075,31.577,62.075z"/>
</g>
</svg>