<svg xmlns="http://www.w3.org/2000/svg" xmlns:xlink="http://www.w3.org/1999/xlink" version="1.1" x="0px" y="0px" width="100px" height="100px" viewBox="0 0 100 100" enable-background="new 0 0 100 100" xml:space="preserve">
<g id="Layer_1">
</g>
<g id="money">
	<g>
		<path d="M43.888,46.613c0,1.299,0.419,2.388,1.258,3.263c0.842,0.877,2.262,1.576,4.267,2.098V41.42    c-1.711,0.226-3.06,0.819-4.047,1.781C44.38,44.16,43.888,45.299,43.888,46.613z"/>
		<path d="M83.112,29.438H63.191c-0.452-2.027-1.267-4.036-2.681-5.694c-2.197-2.576-5.354-3.881-9.383-3.881    c-4.317,0-7.724,1.339-10.125,3.98c-1.521,1.673-2.412,3.66-2.93,5.595h-20.01c-5.942,0-10.759,4.892-10.759,10.927V71.21    c0,6.035,4.817,10.927,10.759,10.927h65.05c5.942,0,10.759-4.892,10.759-10.927V40.365C93.871,34.33,89.054,29.438,83.112,29.438z     M44.652,26.842c1.466-1.604,3.584-2.385,6.475-2.385c2.54,0,4.384,0.711,5.638,2.178c0.67,0.784,1.142,1.752,1.469,2.802H43.096    C43.457,28.503,43.955,27.606,44.652,26.842z M59.535,68.123c-1.939,1.767-4.45,2.712-7.531,2.839v3.858h-2.591v-3.815    c-2.2-0.241-3.989-0.668-5.367-1.282c-1.376-0.615-2.566-1.609-3.569-2.979c-1.001-1.37-1.583-3.044-1.749-5.021l4.425-0.721    c0.342,2.049,0.945,3.553,1.811,4.514c1.238,1.356,2.722,2.112,4.449,2.267V55.641c-1.809-0.296-3.659-0.904-5.549-1.823    C42.462,53.139,41.382,52.2,40.625,51c-0.759-1.202-1.137-2.565-1.137-4.091c0-2.713,1.106-4.91,3.323-6.592    c1.484-1.13,3.686-1.822,6.603-2.076v-1.823h2.591v1.823c2.56,0.212,4.589,0.861,6.088,1.949c1.925,1.385,3.08,3.286,3.472,5.702    l-4.548,0.593c-0.261-1.497-0.802-2.646-1.626-3.443c-0.822-0.798-1.952-1.326-3.386-1.579v11c2.218,0.48,3.684,0.855,4.402,1.123    c1.367,0.523,2.484,1.159,3.349,1.909c0.863,0.748,1.528,1.639,1.992,2.669c0.464,1.032,0.699,2.147,0.699,3.349    C62.446,64.154,61.473,66.357,59.535,68.123z"/>
		<path d="M52.004,56.17v11.614c1.712-0.184,3.127-0.826,4.242-1.929c1.116-1.102,1.676-2.465,1.676-4.089    c0-1.385-0.396-2.497-1.185-3.338C55.944,57.586,54.368,56.835,52.004,56.17z"/>
	</g>
</g>
</svg>