<svg xmlns="http://www.w3.org/2000/svg" xmlns:xlink="http://www.w3.org/1999/xlink" version="1.1" id="Your_Icon" x="0px" y="0px" width="100px" height="100px" viewBox="0 0 100 100" enable-background="new 0 0 100 100" xml:space="preserve">
<path d="M50.179,58.915c4.713,0,8.541-0.233,11.151-0.536c0.257-0.027,0.498-0.06,0.729-0.09v-2.11  c-0.231,0.029-0.476,0.065-0.729,0.096c-2.476,0.295-6.03,0.497-11.151,0.497c-5.378,0-9.026-0.22-11.511-0.542  c-0.256-0.034-0.5-0.07-0.731-0.104v2.116c0.229,0.03,0.476,0.063,0.731,0.096C41.281,58.659,45.239,58.915,50.179,58.915z"/>
<path d="M62.062,60.468c-0.232,0.032-0.475,0.065-0.729,0.094c-2.477,0.299-6.03,0.5-11.152,0.5c-5.377,0-9.025-0.222-11.511-0.543  c-0.256-0.034-0.5-0.069-0.731-0.104c-0.503-0.077-0.946-0.156-1.343-0.24v38.474C38.643,99.271,43.238,100,50.181,100  c6.563,0,11.023-0.649,13.225-1.249V60.25C63.005,60.323,62.556,60.396,62.062,60.468z M43.027,70.718V89.66v3.217  c0,0.594-0.479,1.074-1.071,1.074c-0.593,0-1.072-0.48-1.072-1.074V89.66V70.718v-4.65c0-0.593,0.479-1.074,1.072-1.074  c0.592,0,1.071,0.481,1.071,1.074V70.718z"/>
<path d="M58.4,32.983V5.533c-0.756,1.91-2.014,3.992-3.726,6.032c-3.211,3.815-7.07,6.28-9.838,6.28  c-0.924,0-1.706-0.264-2.322-0.781c-0.076-0.062-0.134-0.136-0.201-0.206v16.088c2.092-0.225,4.705-0.34,7.867-0.34  C53.52,32.606,56.256,32.732,58.4,32.983z"/>
<path d="M61.33,54.088V35.677c-0.644-0.167-1.623-0.347-2.93-0.504c-1.997-0.24-4.741-0.423-8.222-0.423  c-3.277,0-5.904,0.162-7.867,0.381c-1.772,0.195-2.991,0.439-3.646,0.649v18.263c2.612,0.323,6.572,0.579,11.511,0.579  C54.892,54.625,58.72,54.389,61.33,54.088z"/>
<path d="M43.895,15.419c1.148,0.969,5.194-0.548,9.137-5.236c2.346-2.793,3.574-5.415,3.944-7.294  c0.253-1.277,0.111-2.214-0.356-2.607C56.399,0.094,56.082,0,55.676,0c-1.714,0-5.01,1.728-8.196,5.515  c-3.752,4.464-4.656,8.512-3.735,9.732C43.79,15.311,43.838,15.372,43.895,15.419z"/>
</svg>