<svg xmlns="http://www.w3.org/2000/svg" xmlns:xlink="http://www.w3.org/1999/xlink" version="1.1" id="Your_Icon" x="0px" y="0px" width="100px" height="100px" viewBox="0 0 100 100" enable-background="new 0 0 100 100" xml:space="preserve">
<path d="M100,58.839v-3.296l-44.178-6.403V16.652h3.082l-2.74-6.592H3.425l-2.74,6.592h3.082v68.75H0v4.538h100v-4.538h-3.767  V58.293L100,58.839z M19.52,79.909h-6.849V66.211h6.849V79.909z M19.52,59.361h-6.849V45.663h6.849V59.361z M19.52,38.813h-6.849  V25.114h6.849V38.813z M33.219,79.909H26.37V66.211h6.849V79.909z M33.219,59.361H26.37V45.663h6.849V59.361z M33.219,38.813H26.37  V25.114h6.849V38.813z M46.918,79.909h-6.849V66.211h6.849V79.909z M46.918,59.361h-6.849V45.663h6.849V59.361z M46.918,38.813  h-6.849V25.114h6.849V38.813z M88.962,79.909H58.298V61.416h30.664V79.909z"/>
</svg>