<svg xmlns:dc="http://purl.org/dc/elements/1.1/" xmlns:cc="http://creativecommons.org/ns#" xmlns:rdf="http://www.w3.org/1999/02/22-rdf-syntax-ns#" xmlns:svg="http://www.w3.org/2000/svg" xmlns="http://www.w3.org/2000/svg" xmlns:sodipodi="http://sodipodi.sourceforge.net/DTD/sodipodi-0.dtd" xmlns:inkscape="http://www.inkscape.org/namespaces/inkscape" version="1.1" id="Layer_1" x="0px" y="0px" width="100" height="100" viewBox="0 0 100.00001 100" enable-background="new 0 0 515.91 728.5" xml:space="preserve" inkscape:version="0.48.4 r9939" sodipodi:docname="departure.svg"><metadata id="metadata9"><rdf:RDF><cc:Work rdf:about=""><dc:format>image/svg+xml</dc:format><dc:type rdf:resource="http://purl.org/dc/dcmitype/StillImage"/><dc:title/></cc:Work></rdf:RDF></metadata><defs id="defs7"/><sodipodi:namedview pagecolor="#ffffff" bordercolor="#666666" borderopacity="1" objecttolerance="10" gridtolerance="10" guidetolerance="10" inkscape:pageopacity="0" inkscape:pageshadow="2" inkscape:window-width="1600" inkscape:window-height="1050" id="namedview5" showgrid="false" inkscape:zoom="1.179801" inkscape:cx="109.61496" inkscape:cy="364.25" inkscape:window-x="-4" inkscape:window-y="-4" inkscape:window-maximized="1" inkscape:current-layer="Layer_1"/>

<path style="font-size:medium;font-style:normal;font-variant:normal;font-weight:normal;font-stretch:normal;text-indent:0;text-align:start;text-decoration:none;line-height:normal;letter-spacing:normal;word-spacing:normal;text-transform:none;direction:ltr;block-progression:tb;writing-mode:lr-tb;text-anchor:start;baseline-shift:baseline;color:#000000;fill:#000000;fill-opacity:1;fill-rule:nonzero;stroke:none;stroke-width:8;marker:none;visibility:visible;display:inline;overflow:visible;enable-background:accumulate;font-family:Sans;-inkscape-font-specification:Sans" d="M 88.15625 20.9375 C 84.181629 20.9375 79.313684 21.896858 76.375 23.59375 L 57.75 34.34375 C 57.75 34.34375 37.936488 29.711466 28.03125 27.40625 C 24.908066 26.679314 18.541065 31.289877 20.65625 32.59375 C 27.121617 36.577952 40.0625 44.53125 40.0625 44.53125 L 23.96875 53.8125 C 23.96875 53.8125 15.221683 51.606211 10.84375 50.5 C 6.4354429 49.385839 3.9145644 52.758633 5.46875 53.75 C 11.863242 57.832189 22.934938 64.811663 23.65625 65.34375 C 24.658999 66.083399 25.439376 65.954637 26.375 65.375 C 27.136999 64.902557 69.007214 40.674941 90.90625 28.03125 C 93.667372 26.437389 96.094124 25.479835 94.5 22.71875 C 93.802689 21.51112 91.247559 20.9375 88.15625 20.9375 z M 6.5 76.0625 C 5.669001 76.0625 5 76.731501 5 77.5625 C 5 78.393499 5.669001 79.0625 6.5 79.0625 L 71.71875 79.0625 C 72.549749 79.0625 73.21875 78.393499 73.21875 77.5625 C 73.21875 76.731501 72.549749 76.0625 71.71875 76.0625 L 6.5 76.0625 z " transform="translate(0,-5e-6)" id="path15385"/></svg>