<?xml version="1.0" encoding="utf-8"?>
<!-- Generator: Adobe Illustrator 18.1.0, SVG Export Plug-In . SVG Version: 6.00 Build 0)  -->
<!DOCTYPE svg PUBLIC "-//W3C//DTD SVG 1.1//EN" "http://www.w3.org/Graphics/SVG/1.1/DTD/svg11.dtd" [
	<!ENTITY ns_flows "http://ns.adobe.com/Flows/1.0/">
	<!ENTITY ns_extend "http://ns.adobe.com/Extensibility/1.0/">
	<!ENTITY ns_ai "http://ns.adobe.com/AdobeIllustrator/10.0/">
	<!ENTITY ns_graphs "http://ns.adobe.com/Graphs/1.0/">
]>
<svg version="1.1" id="Layer_1" xmlns:x="&ns_extend;" xmlns:i="&ns_ai;" xmlns:graph="&ns_graphs;"
	 xmlns="http://www.w3.org/2000/svg" xmlns:xlink="http://www.w3.org/1999/xlink" xmlns:a="http://ns.adobe.com/AdobeSVGViewerExtensions/3.0/"
	 x="0px" y="0px" viewBox="0 0 20 76.5" enable-background="new 0 0 20 76.5" xml:space="preserve">
<path d="M19.3,23.2c-0.2-1.5-0.4-3-0.4-4.5c0-1.3-0.2-2.5-0.8-3.7c-0.6-1.2-1.6-1.9-2.6-2.6c-1.1-0.7-2.3-1.1-3.3-1.8
	c-0.3-0.3-0.7-0.5-1.1-0.7c0-0.4,0-0.7-0.1-1.1c0-0.3-0.2-0.6,0.1-0.8c0.2-0.1,0.3-0.2,0.4-0.4c0.2-0.4,0.3-0.9,0.2-1.4
	c0,0,0-0.1,0-0.1c0,0,0.1,0,0.1-0.1c0.1,0,0.2,0,0.3,0c0-0.2-0.4-0.3-0.1-0.4c0.1-0.2-0.3-0.4,0-0.6l-0.2-0.2
	c0.1-0.2,0.2-0.3,0.1-0.4L12,4.2c-0.4-0.2,0.2-0.4-0.2-0.6c0.2-0.2-0.1-0.5,0-0.8l-0.2-0.1c0.1-0.2-0.2-0.2-0.2-0.3
	c-0.2-0.3-0.2-0.8-0.7-0.8C10.3,1.4,10,0.8,9.4,0.8C9.3,0.7,9.1,0.6,9,0.6c0-0.2-0.2-0.2-0.3-0.3C8.6,0.4,8.4,0.5,8.4,0.3
	c0,0-0.1-0.1-0.2,0c0,0.1,0,0.2,0,0.2c-0.3,0.1-0.7,0-1,0.1C7,0.6,6.8,0.8,6.6,0.9C6.1,1,5.5,1.2,5.2,1.6C5,1.8,4.8,2.1,4.6,2.4
	C4.3,2.9,4,3.4,4.1,4c0.2,0.2,0,0.7,0.4,0.7c0,0.2,0,0.3,0.1,0.5c0,0.3,0.2,0.5,0,0.7C4.4,6.1,4.4,6.3,4.5,6.5
	C4.6,7.1,4.7,7.7,5,8.2c0.3,0.5,0.2,1.2,0.6,1.6c0.2,0.2,0.3,0.4,0.4,0.6c-0.2,0.2-0.5,0.3-0.7,0.5c-0.4,0.3-0.7,0.9-0.9,1.3
	c-0.7,0.7-1.6,1.2-2.3,1.9c-0.8,0.8-1.5,1.7-1.7,2.9c0,1.4,0.1,2.6,0.3,4c0.2,1.4,0.3,2.8,0.4,4.2c0.1,1.3,0,2.8,0.7,4
	c0.3,0.5-0.3,1.1-0.4,1.6C1.3,31.5,1.1,32,1,32.6c-0.2,1.4,0.1,2.9,0.3,4.3c0.5,2.9,0.9,5.9,1.5,8.7c0.3,1.5,0.6,3,1.2,4.4
	c0.3,0.6,0.3,1.4,0.5,2.1c0.2,0.7,0.3,1.3,0.3,2.1c-0.2,1.6-0.1,3.1,0,4.8c0,1.5,0.1,2.9,0.3,4.4c0.2,1.5,0.4,2.8,0.2,4.3
	c0,0.5,0.5,0.6,0.3,0.9c-0.3,0.4-0.8,0.6-1.2,0.7c-0.9,0.3-2,0.6-2.5,1.5c-0.4,0.7-0.5,1.7-0.1,2.4c0.6,1.2,2.4,0.6,3.2,0.1
	c0.5-0.3,1-0.5,1.5-0.8c0.6-0.2,0.9-0.7,1.3-1.1c0.5-0.5,1.3-0.3,1.8-0.8c0.1-0.1,0.2-0.3,0.4-0.3c0.4-0.1,0.2,0.4,0.2,0.7
	c0,0.9-0.4,3,1.1,3.1c0.3,2.2,4.2,3.1,5.4,1.4c0-0.6-0.1-1.4-0.5-1.9c-0.4-0.4-0.8-0.7-1.2-1.1c-0.4-0.4-0.8-0.7-1-1.2
	c-0.2-0.4-0.7-0.6-0.7-1.1c0.5,0,1.5,0.3,1.6-0.4c0.1-0.6,0-1.1,0-1.7c-0.1-1.2-0.1-2.4,0-3.5c0.3-3,0.4-5.9,0.2-8.9
	c-0.1-0.8-0.1-1.6-0.3-2.4c-0.1-0.7,0.1-1.3,0.2-2c0.1-0.6,0-1.1,0.1-1.7c0.1-0.6,0.2-1.3,0.3-1.9c0.3-2.9,0.6-5.7,0.6-8.6
	c0-1.3-0.4-3.3,0.3-4.3c0.8-1.1,1.5-2.2,2-3.4c0.5-1.2,1.4-2.7,1.5-4C19.9,25.9,19.5,24.5,19.3,23.2z"/>
</svg>
