<?xml version="1.0"?>
<svg viewBox="0 0 37 101" enable-background="new 0 0 37 101" xmlns="http://www.w3.org/2000/svg">

 <g>
  <title>background</title>
  <rect fill="none" id="canvas_background" height="103" width="39" y="-1" x="-1"/>
 </g>
 <g>
  <title>Layer 1</title>
  <path id="svg_1" d="m21.197001,6.026c-0.506001,3.139 -0.304001,4.354 1.012999,5.265c0.911001,0.709 1.823002,2.329 1.924002,3.747c0.101,1.316 0.303999,3.038 0.404999,3.746c0,0.709 2.633001,2.834999 5.771,4.860001l5.569002,3.644999l-0.607002,4.151001c-0.304001,2.329 -1.822998,8.302999 -3.240002,13.163c-2.429998,8.708 -2.429998,9.112999 -0.809998,13.668999c3.443001,9.719997 4.556999,15.086002 4.354,20.352001c-0.304001,6.176003 -0.304001,6.176003 -11.138,7.695l-4.860001,0.607002l0,7.086998c0,5.365997 -0.303999,6.986 -1.417,6.986s-1.416998,-1.518997 -1.315998,-6.784004l0.202999,-6.884995l-6.885,-0.607002c-3.748,-0.303001 -7.393,-1.112999 -8.001,-1.721001c-1.923,-1.923996 0.405,-16.908997 3.544,-23.896c1.519,-3.239998 2.734001,-7.289997 2.734001,-8.91c0,-1.619999 -1.62,-7.087997 -3.645,-12.250999c-1.924,-5.164001 -3.645,-10.934999 -3.747,-12.858c-0.202,-3.341 0,-3.544001 5.265,-5.468c4.658,-1.720999 5.67,-2.531 7.189,-6.176c1.013,-2.329 2.531001,-4.556 3.442,-4.86c1.114,-0.405 1.619999,-1.924 1.619999,-4.557c0,-2.126 0.304001,-4.252 0.607,-4.556c1.621,-1.519 2.634001,0.81 2.026001,4.556z"/>
 </g>
</svg>