<?xml version="1.0" encoding="utf-8"?>
<!-- Generator: Adobe Illustrator 18.1.0, SVG Export Plug-In . SVG Version: 6.00 Build 0)  -->
<!DOCTYPE svg PUBLIC "-//W3C//DTD SVG 1.1//EN" "http://www.w3.org/Graphics/SVG/1.1/DTD/svg11.dtd" [
	<!ENTITY ns_flows "http://ns.adobe.com/Flows/1.0/">
	<!ENTITY ns_extend "http://ns.adobe.com/Extensibility/1.0/">
	<!ENTITY ns_ai "http://ns.adobe.com/AdobeIllustrator/10.0/">
	<!ENTITY ns_graphs "http://ns.adobe.com/Graphs/1.0/">
]>
<svg version="1.1" xmlns:x="&ns_extend;" xmlns:i="&ns_ai;" xmlns:graph="&ns_graphs;"
	 xmlns="http://www.w3.org/2000/svg" xmlns:xlink="http://www.w3.org/1999/xlink" xmlns:a="http://ns.adobe.com/AdobeSVGViewerExtensions/3.0/"
	 x="0px" y="0px" viewBox="0 0 61 37.1" enable-background="new 0 0 61 37.1" xml:space="preserve">
<g id="Milan">
</g>
<g id="Layer_2" display="none">
</g>
<g id="Layer_3">
</g>
<g id="Layer_4">
	<g>
		<rect x="22.2" y="34.6" width="16.7" height="2.3"/>
		<polygon points="56.9,31.5 56.9,26.1 52.9,26.1 52.9,20.7 48.9,20.7 48.9,15.3 44.2,15.3 44.2,10 39.9,10 39.9,36.9 60.9,36.9 
			60.9,31.5 		"/>
		<polygon points="22.2,31.5 22.2,34 38.8,34 38.8,31.5 38.8,31.5 22.2,31.5 		"/>
		<rect x="22.2" y="28.3" width="16.7" height="2.6"/>
		<rect x="22.2" y="22" width="16.7" height="2.6"/>
		<polygon points="22.2,26.1 22.2,27.7 38.8,27.7 38.8,26.1 38.8,25.2 22.2,25.2 		"/>
		<polygon points="22.2,20.7 22.2,21.4 38.8,21.4 38.8,20.7 38.8,18.9 22.2,18.9 		"/>
		<rect x="22.2" y="15.7" width="16.7" height="2.6"/>
		<polygon points="16.8,15.3 12.1,15.3 12.1,20.7 8.1,20.7 8.1,26.1 4.1,26.1 4.1,31.5 0.1,31.5 0.1,36.9 21.1,36.9 21.1,10 
			16.8,10 		"/>
		<rect x="22.2" y="12.6" width="16.7" height="2.6"/>
		<rect x="22.2" y="10" width="16.7" height="1.9"/>
		<polygon points="28.2,4 32.8,4 32.8,9.3 39.9,9.3 39.9,0.3 21.1,0.3 21.1,9.3 28.2,9.3 		"/>
	</g>
</g>
</svg>
