<?xml version="1.0" encoding="utf-8"?>
<!-- Generator: Adobe Illustrator 18.1.0, SVG Export Plug-In . SVG Version: 6.00 Build 0)  -->
<!DOCTYPE svg PUBLIC "-//W3C//DTD SVG 1.1//EN" "http://www.w3.org/Graphics/SVG/1.1/DTD/svg11.dtd" [
	<!ENTITY ns_flows "http://ns.adobe.com/Flows/1.0/">
	<!ENTITY ns_extend "http://ns.adobe.com/Extensibility/1.0/">
	<!ENTITY ns_ai "http://ns.adobe.com/AdobeIllustrator/10.0/">
	<!ENTITY ns_graphs "http://ns.adobe.com/Graphs/1.0/">
]>
<svg version="1.1" xmlns:x="&ns_extend;" xmlns:i="&ns_ai;" xmlns:graph="&ns_graphs;"
	 xmlns="http://www.w3.org/2000/svg" xmlns:xlink="http://www.w3.org/1999/xlink" xmlns:a="http://ns.adobe.com/AdobeSVGViewerExtensions/3.0/"
	 x="0px" y="0px" viewBox="0 0 46 49.1" enable-background="new 0 0 46 49.1" xml:space="preserve">
<g id="Milan">
</g>
<g id="Layer_2" display="none">
</g>
<g id="Layer_3">
</g>
<g id="Layer_4">
	<g>
		<g>
			<path d="M27,35.6c0,0.3,0.1,0.9,0.1,1.9c0,0.3,0,0.6,0,1c0,0.3,0,0.7,0,1.1c0,0.4,0,0.8,0,1.1c0,0.4,0,0.8,0,1.2
				c0,0.8,0,1.6,0,2.3c0,0.7,0,1.4,0,2c0,1.2,0,2,0,2h0c0,0,0-0.8,0-2c0-0.6,0-1.3,0-2c0-0.7,0-1.5,0-2.3c0-0.4,0-0.8,0-1.2
				c0-0.4,0-0.8,0-1.1c0-0.4,0-0.7,0-1.1c0-0.3,0-0.7,0-1C26.9,36.5,26.9,35.8,27,35.6l-4.6-3c0,0,0,0.1,0,0.2c0,0.1,0,0.3,0,0.5
				c0,0.4,0,1,0.1,1.8c0,0.7,0,1.6,0.1,2.5c0,0.5,0,0.9,0,1.4c0,0.5,0,1,0,1.4c0,0.5,0,1,0,1.4c0,0.5,0,0.9,0,1.4c0,0.5,0,0.9,0,1.3
				c0,0.4,0,0.8,0,1.2c0,0.7,0,1.3,0,1.8c0,0.2,0,0.4,0,0.5c0,0.1,0,0.2,0,0.2s0-0.1,0-0.2c0-0.1,0-0.3,0-0.5c0-0.4,0-1-0.1-1.8
				c0-0.4,0-0.8,0-1.2c0-0.4,0-0.9,0-1.3c0-0.5,0-0.9,0-1.4c0-0.5,0-1,0-1.4c0-0.5,0-1,0-1.4c0-0.5,0-0.9,0-1.4c0-0.9,0-1.8,0-2.5
				c0-0.7,0-1.3,0-1.8c0-0.2,0-0.4,0-0.5c0-0.1,0-0.2,0-0.2L18,29.8l0,18.9l10.4,0l0-12.2L27,35.6z M19.5,42.6c0,0.5,0,1,0,1.5
				c0,0.5,0,0.9,0,1.3c0,0.8,0,1.5,0,2c0,0.2,0,0.4,0,0.6s0,0.2,0,0.2s0-0.1,0-0.2c0-0.1,0-0.3,0-0.6c0-0.5,0-1.2-0.1-2
				c0-0.4,0-0.8,0-1.3c0-0.5,0-1,0-1.5c0-0.5,0-1,0-1.6c0-0.5,0-1.1,0-1.6c0-0.5,0-1.1,0-1.6c0-0.5,0-1.1,0-1.6c0-1,0-2,0-2.8
				c0-0.8,0-1.5,0-2c0-0.2,0-0.4,0-0.6c0-0.1,0-0.2,0-0.2s0,0.1,0,0.2c0,0.1,0,0.3,0,0.6c0,0.5,0,1.2,0.1,2c0,0.8,0,1.8,0.1,2.8
				c0,0.5,0,1,0,1.6c0,0.5,0,1.1,0,1.6c0,0.5,0,1.1,0,1.6C19.5,41.6,19.5,42.1,19.5,42.6z M21,42.9c0,0.5,0,0.9,0,1.4
				c0,0.4,0,0.9,0,1.2c0,0.8,0,1.4,0,1.9c0,0.2,0,0.4,0,0.5c0,0.1,0,0.2,0,0.2s0-0.1,0-0.2c0-0.1,0-0.3,0-0.5c0-0.4,0-1.1-0.1-1.9
				c0-0.4,0-0.8,0-1.2c0-0.4,0-0.9,0-1.4c0-0.5,0-1,0-1.5c0-0.5,0-1,0-1.5c0-0.5,0-1,0-1.5c0-0.5,0-1,0-1.5c0-1,0-1.8,0-2.6
				c0-0.8,0-1.4,0-1.9c0-0.2,0-0.4,0-0.5c0-0.1,0-0.2,0-0.2s0,0.1,0,0.2c0,0.1,0,0.3,0,0.5c0,0.4,0,1.1,0.1,1.8c0,0.8,0,1.7,0.1,2.6
				c0,0.5,0,1,0,1.5c0,0.5,0,1,0,1.5c0,0.5,0,1,0,1.5C21,41.9,21,42.4,21,42.9z M24,40.9c0,0.9,0,1.8,0,2.7c0,0.8,0,1.6,0,2.3
				c0,1.4,0,2.3,0,2.3h0c0,0,0-0.9,0-2.3c0-0.7,0-1.5,0-2.3c0-0.8,0-1.7,0-2.7c0-0.9,0-1.8-0.1-2.7c0-0.4,0-0.8,0-1.2
				c0-0.4,0-0.8,0-1.1c0-0.3,0-0.6,0-0.9c0-0.3,0-0.5,0-0.7c0-0.4,0-0.6,0-0.6h0c0,0,0,0.2,0,0.6c0,0.2,0,0.4,0,0.7
				c0,0.3,0,0.6,0,0.9c0,0.3,0,0.7,0,1.1c0,0.4,0,0.8,0,1.2C24,39.1,24,40,24,40.9z M25.5,43.8c0,0.4,0,0.8,0,1.1c0,0.4,0,0.7,0,1
				c0,1.3-0.1,2.1-0.1,2.1s-0.1-0.8-0.1-2.1c0-0.3,0-0.7,0-1c0-0.4,0-0.7,0-1.1c0-0.4,0-0.8,0-1.2c0-0.4,0-0.8,0-1.3
				c0-0.4,0-0.8,0-1.3c0-0.4,0-0.8,0-1.2c0-0.8,0-1.5,0-2.2c0-1.3,0.1-2.1,0.1-2.1s0.1,0.8,0.1,2.1c0,0.6,0,1.4,0.1,2.2
				c0,0.4,0,0.8,0,1.2c0,0.4,0,0.8,0,1.3c0,0.4,0,0.8,0,1.3C25.5,43,25.5,43.4,25.5,43.8z"/>
		</g>
		<g>
			<path d="M42.8,8.7c0,0,2.8-0.8-0.8-0.4c0,0-1.9,0.2-2.4,0.7c0,0-6,0.9-10-0.6c0,0-1.8-1.1-4.2-0.7c0,0,1.1-7-1.9-6.8
				c0,0-2.5-1.3-2.7,6.5c0,0-3.8-0.3-7.8,1c0,0-4.8,0.8-7.6,0.2c0,0-0.7-0.8-3-0.7c0,0-1.1,0.3,1.2,0.5c0,0-4.7-0.2-3.2,0.8
				c0,0,1.4,1.4,5.8,1.1l2.3,3.8l4.9,0.2l3.3,1.2l-0.4,7.7l0.9,0c0,0-0.6,1.1,0.3,1.5l0,4.4l10.7,7L29,36v-5.1l0.5-0.7l-0.5-14.7
				l2.8-0.7l5.5-0.4l2.5-3.9c0,0,5.8,0,6-1.4C45.8,9.2,45.6,8.1,42.8,8.7z M24.9,2.9c0,0-0.7,0.4-1.1-0.1
				C23.8,2.8,24.1,2.5,24.9,2.9z M23.6,4.5c0,0,0.1,0,0.1,0c0.1,0,0.2,0,0.2,0c0,0,0,0,0,0c0,0,0,0,0,0c0,0,0,0,0,0
				c0,0,0.1,0,0.1,0.1c0,0,0,0,0.1,0.1c0,0,0,0,0,0s0,0,0,0c0,0,0,0,0,0.1c0,0,0,0.1-0.1,0.1c0,0,0,0,0,0c0,0,0,0,0,0c0,0,0,0,0,0
				c-0.1,0-0.2,0-0.2,0c0,0-0.1,0-0.1,0c0,0-0.1,0-0.1,0c-0.1,0-0.2,0-0.3,0c-0.1,0-0.2,0-0.2,0c0,0,0,0,0,0c0,0,0,0,0,0
				c0,0,0,0,0-0.1c0,0,0-0.1-0.1-0.1c0,0,0,0,0-0.1c0,0,0,0,0,0s0,0,0,0c0,0,0,0,0.1,0c0,0,0.1,0,0.1-0.1c0,0,0,0,0,0c0,0,0,0,0,0
				c0,0,0,0,0,0c0.1,0,0.1,0,0.2,0c0.1,0,0.2,0,0.3,0C23.5,4.5,23.5,4.5,23.6,4.5z M23.3,2.8c0,0,0,0.2-1.1,0
				C22.2,2.8,22.8,2.2,23.3,2.8z M13.4,13.5C13.4,13.5,13.4,13.5,13.4,13.5c0,0-0.1,0-0.3,0c0,0-0.1,0-0.1,0c-0.1,0-0.1,0-0.2,0
				c-0.1,0-0.1,0-0.2-0.1c-0.1,0-0.1,0-0.2-0.1c-0.1-0.1-0.3-0.1-0.4-0.2c-0.1,0-0.2-0.1-0.2-0.1c-0.1,0-0.2-0.1-0.2-0.1
				c-0.2-0.1-0.3-0.2-0.5-0.3c-0.2-0.1-0.3-0.2-0.5-0.4c-0.1-0.1-0.2-0.1-0.2-0.2c-0.1-0.1-0.2-0.1-0.2-0.2
				c-0.2-0.1-0.3-0.2-0.4-0.4c-0.1-0.1-0.3-0.2-0.4-0.4c-0.1-0.1-0.2-0.2-0.3-0.3C8.4,10.3,8.2,10,8.2,10c0,0,0,0,0,0c0,0,0,0,0,0
				c0,0,0.1,0.1,0.2,0.2c0.1,0.1,0.3,0.3,0.6,0.4c0.1,0.1,0.2,0.2,0.4,0.3c0.1,0.1,0.3,0.2,0.4,0.3c0.1,0.1,0.3,0.2,0.5,0.3
				c0.1,0.1,0.2,0.1,0.2,0.2c0.1,0.1,0.2,0.1,0.2,0.2c0.2,0.1,0.3,0.2,0.5,0.3c0.2,0.1,0.3,0.2,0.5,0.3c0.2,0.1,0.3,0.2,0.4,0.3
				c0.1,0,0.1,0.1,0.2,0.1c0.1,0,0.1,0.1,0.2,0.1c0.1,0.1,0.2,0.1,0.3,0.2c0.1,0,0.1,0.1,0.1,0.1c0,0,0.1,0,0.1,0.1
				C13.3,13.4,13.4,13.4,13.4,13.5L13.4,13.5C13.4,13.4,13.4,13.4,13.4,13.5z M15.3,12.9C15.3,12.9,15.3,12.9,15.3,12.9
				c0,0-0.1,0-0.3,0c-0.1,0-0.2,0-0.3-0.1c-0.1,0-0.1,0-0.2-0.1c-0.1,0-0.1,0-0.2-0.1c-0.1,0-0.1-0.1-0.2-0.1
				c-0.1,0-0.1-0.1-0.2-0.1c-0.1,0-0.1-0.1-0.2-0.1c-0.1,0-0.1-0.1-0.2-0.1c-0.1-0.1-0.3-0.2-0.4-0.3c-0.1-0.1-0.3-0.2-0.4-0.3
				c-0.1-0.1-0.3-0.2-0.4-0.3c-0.1-0.1-0.3-0.2-0.4-0.3c-0.1-0.1-0.2-0.2-0.3-0.3c-0.1-0.1-0.2-0.2-0.3-0.3
				c-0.4-0.4-0.6-0.6-0.6-0.6c0,0,0,0,0,0c0,0,0,0,0,0c0,0,0.3,0.2,0.7,0.5c0.2,0.2,0.4,0.3,0.7,0.5c0.1,0.1,0.3,0.2,0.4,0.3
				c0.1,0.1,0.3,0.2,0.4,0.3c0.1,0.1,0.3,0.2,0.4,0.3c0.1,0.1,0.3,0.2,0.4,0.3c0.1,0,0.1,0.1,0.2,0.1c0.1,0,0.1,0.1,0.2,0.1
				c0.1,0.1,0.2,0.2,0.3,0.2c0.1,0,0.1,0.1,0.2,0.1c0,0,0.1,0.1,0.1,0.1c0.1,0.1,0.2,0.1,0.2,0.1C15.3,12.8,15.3,12.9,15.3,12.9
				L15.3,12.9C15.3,12.9,15.3,12.9,15.3,12.9z M17,13.7c0,0.1,0,0.1,0,0.2c0,0.1,0,0.3,0,0.4c0,0.2-0.1,0.4-0.1,0.4
				c0,0,0-0.2-0.1-0.4c0-0.1,0-0.2,0-0.4c0-0.1,0-0.1,0-0.2c0-0.1,0-0.1,0-0.2c0-0.1,0-0.2,0-0.2c0-0.1,0-0.1,0-0.2
				c0-0.1,0-0.3,0-0.4c0-0.2,0.1-0.4,0.1-0.4c0,0,0,0.2,0.1,0.4c0,0.1,0,0.2,0,0.4c0,0.1,0,0.1,0,0.2c0,0.1,0,0.1,0,0.2
				C17,13.5,17,13.6,17,13.7z M17.5,12.4c-0.2-0.1-0.4-0.2-0.5-0.3c-0.2-0.1-0.3-0.2-0.5-0.3c-0.2-0.1-0.3-0.2-0.5-0.3
				c-0.3-0.2-0.6-0.4-0.9-0.6c-0.3-0.2-0.5-0.4-0.8-0.6c-0.2-0.2-0.4-0.4-0.6-0.6c-0.2-0.2-0.3-0.3-0.4-0.5C13.2,9.1,13.1,9,13,8.9
				c-0.1-0.1-0.1-0.1-0.1-0.1s0,0,0.1,0.1c0.1,0.1,0.2,0.2,0.3,0.3c0.1,0.1,0.3,0.3,0.5,0.4c0.2,0.2,0.4,0.3,0.6,0.5
				c0.2,0.2,0.5,0.4,0.8,0.6c0.1,0.1,0.3,0.2,0.4,0.3c0.1,0,0.2,0.1,0.2,0.1c0.1,0,0.2,0.1,0.2,0.1c0.2,0.1,0.3,0.2,0.5,0.3
				c0.1,0,0.2,0.1,0.3,0.1c0.1,0,0.2,0.1,0.3,0.1c0.2,0.1,0.3,0.2,0.5,0.3c0.1,0,0.2,0.1,0.3,0.1l0.3,0.1c0.2,0.1,0.4,0.1,0.5,0.2
				c0.2,0.1,0.4,0.1,0.6,0.2c0.2,0.1,0.4,0.1,0.6,0.2c0.2,0,0.4,0.1,0.5,0.1c0.2,0,0.4,0.1,0.5,0.1c0.2,0,0.3,0.1,0.5,0.1
				c0.2,0,0.3,0,0.5,0.1c0.2,0,0.3,0,0.5,0c0.1,0,0.3,0,0.4,0c0.1,0,0.3,0,0.4,0c0.2,0,0.5,0,0.6,0c0.3,0,0.6,0,0.6,0
				s-0.2,0-0.5,0.1c-0.2,0-0.4,0.1-0.6,0.1c-0.1,0-0.3,0-0.4,0c-0.1,0-0.3,0-0.4,0c-0.2,0-0.3,0-0.5,0c-0.2,0-0.3,0-0.5,0
				c-0.2,0-0.4,0-0.5-0.1c-0.2,0-0.4-0.1-0.6-0.1c-0.2,0-0.4-0.1-0.6-0.1c-0.2,0-0.4-0.1-0.6-0.2C19,13,18.8,13,18.6,12.9
				c-0.2-0.1-0.4-0.1-0.6-0.2l-0.3-0.1C17.7,12.5,17.6,12.5,17.5,12.4z M17.6,22.3c0,0,0-0.1,0-0.3c0-0.2,0-0.5,0-0.9
				c0-0.2,0-0.4,0-0.6c0-0.2,0-0.4,0.1-0.7c0-0.2,0-0.5,0.1-0.7c0-0.2,0.1-0.5,0.1-0.7c0-0.2,0.1-0.5,0.1-0.7c0-0.2,0.1-0.5,0.1-0.7
				c0-0.2,0.1-0.5,0.1-0.7c0-0.2,0.1-0.4,0.1-0.6c0.1-0.4,0.1-0.7,0.2-0.9c0-0.2,0.1-0.3,0.1-0.3s0,0.1,0,0.3c0,0.2,0,0.5,0,0.9
				c0,0.2,0,0.4,0,0.6c0,0.2,0,0.4-0.1,0.7c0,0.2,0,0.5-0.1,0.7c0,0.2-0.1,0.5-0.1,0.7c0,0.2-0.1,0.5-0.1,0.7c0,0.2-0.1,0.5-0.1,0.7
				c0,0.2-0.1,0.5-0.1,0.7c0,0.2-0.1,0.4-0.1,0.6c-0.1,0.4-0.1,0.7-0.2,0.9C17.6,22.2,17.6,22.3,17.6,22.3z M19.8,19.9
				c0,0.3,0,0.7,0,1c0,0.3,0,0.6,0,0.9c0,0.3,0,0.6,0,0.8c0,0.5-0.1,0.9-0.1,1.2c0,0,0,0,0,0c0,0,0,0,0,0.1c0,0.1,0,0.2,0,0.3
				c0,0.1-0.1,0.2-0.1,0.2c-0.1,0.1-0.2,0.2-0.3,0.3C19,24.9,18.8,25,18.7,25c-0.1,0-0.2,0-0.2,0.1c-0.1,0-0.1,0-0.2,0
				c-0.1,0-0.2,0-0.2,0s0.1,0,0.1-0.1c0.1-0.1,0.2-0.1,0.4-0.2c0.2-0.1,0.3-0.2,0.5-0.3c0.1-0.1,0.2-0.1,0.2-0.2c0,0,0-0.1,0-0.1
				c0,0,0,0,0-0.1c0,0-0.1-0.1-0.2-0.2c-0.1-0.1-0.2-0.1-0.3-0.2c-0.2-0.1-0.4-0.2-0.5-0.2c-0.2-0.1-0.3-0.1-0.4-0.2
				c-0.1,0-0.2-0.1-0.2-0.1s0.1,0,0.2,0c0.1,0,0.3,0,0.4,0c0.2,0,0.4,0.1,0.6,0.1c0.1,0,0.2,0.1,0.3,0.2c0.1,0,0.1,0.1,0.2,0.2
				c0-0.3,0-0.7-0.1-1.2c0-0.3,0-0.5,0-0.8c0-0.3,0-0.6,0-0.9c0-0.3,0-0.7,0-1c0-0.3,0-0.7,0-1c0-0.3,0-0.7,0-1c0-0.3,0-0.7,0-1
				c0-0.3,0-0.6,0-0.9c0-0.3,0-0.6,0-0.8c0-0.5,0-0.9,0.1-1.2c0-0.1,0-0.3,0-0.3c0-0.1,0-0.1,0-0.1s0,0,0,0.1c0,0.1,0,0.2,0,0.3
				c0,0.3,0,0.7,0.1,1.2c0,0.3,0,0.5,0,0.8c0,0.3,0,0.6,0,0.9c0,0.3,0,0.7,0,1c0,0.3,0,0.7,0,1C19.8,19.3,19.8,19.6,19.8,19.9z
				 M24.8,30.8c0,0-0.1-0.1-0.1-0.1c0,0-0.1-0.1-0.2-0.2c-0.1-0.1-0.1-0.1-0.2-0.2c0,0-0.1-0.1-0.1-0.1c0,0-0.1-0.1-0.1-0.1
				C24.1,30,24,29.9,24,29.8c-0.1-0.1-0.2-0.2-0.2-0.3c-0.1-0.1-0.2-0.2-0.2-0.4c-0.1-0.1-0.2-0.3-0.2-0.4c-0.2-0.3-0.3-0.6-0.5-0.9
				c-0.2-0.3-0.3-0.6-0.5-1c-0.1-0.3-0.3-0.7-0.4-1c-0.1-0.3-0.3-0.7-0.4-1c-0.1-0.3-0.2-0.7-0.4-1c-0.1-0.3-0.2-0.7-0.3-1
				c-0.1-0.3-0.2-0.6-0.3-0.9c-0.2-0.5-0.3-1-0.4-1.3c-0.1-0.3-0.1-0.5-0.1-0.5s0.3,0.7,0.6,1.8c0.2,0.5,0.4,1.1,0.7,1.8
				c0.1,0.3,0.3,0.7,0.4,1c0.1,0.3,0.3,0.7,0.4,1c0.1,0.3,0.3,0.7,0.4,1c0.1,0.3,0.3,0.7,0.4,1c0.1,0.2,0.1,0.3,0.2,0.5
				c0.1,0.2,0.1,0.3,0.2,0.4c0,0.1,0.1,0.1,0.1,0.2c0,0.1,0.1,0.1,0.1,0.2c0.1,0.1,0.1,0.3,0.2,0.4c0.1,0.1,0.1,0.2,0.2,0.3
				c0.1,0.1,0.1,0.2,0.2,0.3c0,0,0.1,0.1,0.1,0.1c0,0,0.1,0.1,0.1,0.1c0.1,0.1,0.1,0.2,0.2,0.2c0.1,0.1,0.1,0.1,0.1,0.2
				C24.8,30.7,24.8,30.7,24.8,30.8c0.1,0.1,0.1,0.1,0.1,0.1S24.9,30.8,24.8,30.8z M24.9,25.1c0,0-0.1,0-0.1-0.1c0,0-0.1-0.1-0.1-0.1
				c-0.1,0-0.1-0.1-0.2-0.1c-0.1,0-0.1-0.1-0.2-0.1c-0.1-0.1-0.3-0.2-0.4-0.4c-0.1-0.1-0.3-0.3-0.4-0.5c-0.1-0.2-0.3-0.4-0.4-0.6
				c-0.1-0.1-0.2-0.2-0.2-0.3c-0.1-0.1-0.1-0.2-0.2-0.3c-0.1-0.2-0.3-0.4-0.4-0.7c-0.1-0.2-0.3-0.5-0.4-0.7
				c-0.1-0.2-0.3-0.5-0.4-0.7c-0.1-0.2-0.2-0.4-0.3-0.6c-0.1-0.2-0.2-0.4-0.3-0.6c-0.3-0.7-0.5-1.2-0.5-1.2s0.3,0.5,0.7,1.2
				c0.2,0.3,0.4,0.8,0.7,1.2c0.1,0.2,0.3,0.4,0.4,0.7c0.1,0.2,0.3,0.5,0.4,0.7c0.1,0.2,0.3,0.5,0.4,0.7c0.1,0.2,0.3,0.4,0.4,0.6
				c0.1,0.1,0.1,0.2,0.2,0.3c0.1,0.1,0.1,0.2,0.2,0.3c0.1,0.2,0.3,0.4,0.4,0.5c0.1,0.2,0.2,0.3,0.4,0.4c0.1,0.1,0.1,0.1,0.2,0.2
				c0.1,0,0.1,0.1,0.1,0.1C24.7,24.9,24.7,25,24.9,25.1C24.8,25,24.8,25,24.9,25.1C24.9,25.1,25,25.1,24.9,25.1
				C25,25.1,24.9,25.1,24.9,25.1z M25,8.9l0,0.2l0,0.1c0,0,0,0.1,0,0.1l0,0.2c0,0.1,0,0.1-0.1,0.2c0,0.1,0,0.1-0.1,0.2
				c0,0.1-0.1,0.1-0.1,0.2l-0.1,0.2c0,0.1-0.1,0.1-0.1,0.2c0,0.1-0.1,0.1-0.1,0.2c0,0.1-0.1,0.1-0.1,0.2c0,0.1-0.1,0.1-0.1,0.2
				c0,0.1-0.1,0.1-0.2,0.2c-0.1,0-0.1,0.1-0.2,0.1c-0.1,0-0.1,0.1-0.2,0.1l0,0c-0.1,0-0.3,0-0.4,0.1l-0.2,0c-0.1,0-0.1,0-0.2,0
				c-0.1,0-0.3,0-0.4,0c-0.1,0-0.3,0-0.4,0c-0.1,0-0.1,0-0.2,0c-0.1,0-0.1,0-0.2,0l-0.2-0.1c-0.1,0-0.1,0-0.2-0.1l-0.1,0l-0.1,0
				c-0.1,0-0.1-0.1-0.2-0.1l-0.2-0.1c-0.1,0-0.1-0.1-0.2-0.1c-0.1,0-0.1-0.1-0.2-0.1c-0.1,0-0.1-0.1-0.2-0.1
				c-0.1-0.1-0.2-0.2-0.3-0.3l-0.2-0.1l-0.2-0.1c0-0.1-0.1-0.1-0.1-0.2l-0.1-0.2c-0.1-0.1-0.2-0.2-0.3-0.3c-0.1-0.1-0.2-0.2-0.2-0.4
				c-0.1-0.1-0.1-0.2-0.2-0.4c-0.1-0.1-0.1-0.3-0.1-0.4c0.1,0.1,0.1,0.2,0.2,0.3c0.1,0.1,0.2,0.2,0.2,0.3c0.1,0.1,0.2,0.2,0.3,0.3
				l0.1,0.2l0.1,0.1l0.1,0.1l0.1,0.1l0.2,0.1l0.2,0.1c0.1,0.1,0.2,0.2,0.3,0.2c0.1,0,0.1,0.1,0.2,0.1c0.1,0,0.1,0.1,0.2,0.1
				c0.1,0,0.1,0.1,0.2,0.1l0.2,0.1c0.1,0,0.1,0,0.2,0.1l0.1,0l0.1,0c0.1,0,0.1,0,0.2,0.1l0.2,0c0.1,0,0.1,0,0.2,0c0.1,0,0.1,0,0.2,0
				c0.1,0,0.3,0,0.4,0c0.1,0,0.3,0,0.4,0c0.1,0,0.3,0,0.4,0c0.1,0,0.2,0,0.4,0c0,0,0.1-0.1,0.1-0.1c0.1,0,0.1-0.1,0.2-0.1
				c0,0,0.1-0.1,0.1-0.1c0,0,0.1-0.1,0.1-0.1c0,0,0.1-0.1,0.1-0.1c0-0.1,0.1-0.1,0.1-0.2c0-0.1,0.1-0.1,0.1-0.2l0.1-0.2
				c0-0.1,0.1-0.1,0.1-0.2c0-0.1,0.1-0.1,0.1-0.2c0-0.1,0.1-0.1,0.1-0.2l0.1-0.2c0,0,0-0.1,0-0.1l0-0.1L25,8.9
				c-0.1-0.1-0.1-0.1,0-0.2l0-0.2l0,0.2C25,8.8,25,8.8,25,8.9z M28.9,29.9L28.9,29.9C29,29.9,29,29.9,28.9,29.9
				C29,29.9,29,29.9,28.9,29.9c0,0.1-0.1,0.2-0.1,0.2c0,0-0.1,0.1-0.1,0.1c0,0-0.1,0.1-0.1,0.1l-0.1,0l-0.1,0c0,0-0.1,0-0.1,0
				c0,0-0.1,0-0.1,0c0,0,0,0-0.1,0c0,0,0,0-0.1,0c-0.1-0.1-0.1-0.1-0.2-0.2c0-0.1-0.1-0.1-0.1-0.2c0-0.1-0.1-0.2-0.1-0.2
				c0-0.1,0-0.1,0-0.2l-1-0.1c-0.4,0-0.7,0-1.1-0.1l-0.1-0.2c0-0.4,0-0.9,0-1.3c0-0.4,0-0.9,0-1.3l0-1.3l0-1.3l0.1-5.2l0.1-5.2
				l0.1-5.2c0,0,0,0,0,0c0,0,0,0,0,0l0.1,5.2l0.1,5.2l0.1,5.2l0,1.3l0,1.3c0,0.4,0,0.9,0,1.3c0,0.4,0,0.8,0,1.2
				c0.3,0,0.6,0.1,0.9,0.1l1.1,0.1l0.1,0.1c0,0.1,0,0.2,0,0.2c0,0.1,0,0.2,0.1,0.2c0,0.1,0.1,0.1,0.1,0.2c0,0.1,0.1,0.1,0.1,0.2
				c0,0,0,0,0,0c0,0,0,0,0,0c0,0,0.1,0,0.1,0c0,0,0.1,0,0.1,0l0.1,0l0,0c0,0,0.1,0,0.1-0.1c0,0,0.1-0.1,0.1-0.1
				C28.8,30.1,28.9,30,28.9,29.9z M31.9,12.7c-0.1,0.1-0.2,0.1-0.3,0.2c-0.2,0.1-0.3,0.2-0.5,0.3c-0.1,0.1-0.2,0.1-0.2,0.2
				c-0.1,0.1-0.2,0.1-0.2,0.2c-0.2,0.1-0.3,0.2-0.5,0.3C30,13.9,29.9,14,29.8,14c-0.1,0-0.1,0.1-0.2,0.1c-0.1,0-0.1,0.1-0.2,0.1
				c-0.1,0.1-0.2,0.1-0.3,0.1c-0.1,0-0.1,0.1-0.2,0.1c0,0-0.1,0-0.1,0c0,0,0,0,0,0c0,0,0,0,0,0c0,0,0,0,0.1,0c0,0,0.1-0.1,0.2-0.1
				c0.1,0,0.2-0.1,0.3-0.2c0.1,0,0.1-0.1,0.2-0.1c0.1,0,0.1-0.1,0.2-0.1c0.1-0.1,0.3-0.2,0.4-0.3c0.1-0.1,0.3-0.2,0.4-0.3
				c0.1-0.1,0.2-0.1,0.2-0.2c0.1-0.1,0.2-0.1,0.2-0.2c0.2-0.1,0.3-0.2,0.5-0.4c0.1-0.1,0.2-0.1,0.2-0.2c0.1-0.1,0.1-0.1,0.2-0.2
				c0.1-0.1,0.3-0.3,0.4-0.4c0.1-0.1,0.3-0.2,0.4-0.3c0.1-0.1,0.1-0.1,0.2-0.2c0.1,0,0.1-0.1,0.2-0.1c0.1-0.1,0.2-0.2,0.3-0.2
				c0.1-0.1,0.2-0.1,0.3-0.2c0.1-0.1,0.2-0.1,0.2-0.1l0,0c0,0,0,0,0,0c0,0,0,0,0,0c0,0-0.1,0.1-0.2,0.2c-0.1,0.1-0.1,0.2-0.2,0.2
				c-0.1,0.1-0.2,0.2-0.3,0.3c-0.1,0.1-0.1,0.1-0.2,0.2c-0.1,0.1-0.1,0.1-0.2,0.2c0,0-0.1,0.1-0.1,0.1c0,0-0.1,0.1-0.1,0.1
				c-0.1,0.1-0.1,0.1-0.2,0.2c-0.1,0.1-0.3,0.2-0.5,0.4C32.1,12.6,32,12.6,31.9,12.7z M37.2,10.9C37.2,10.9,37.2,10.9,37.2,10.9
				c-0.1,0.1-0.1,0.1-0.2,0.2c-0.1,0.1-0.1,0.1-0.2,0.2c-0.1,0.1-0.2,0.2-0.3,0.3c-0.1,0.1-0.2,0.2-0.3,0.3
				c-0.1,0.1-0.3,0.2-0.4,0.3c-0.1,0.1-0.3,0.2-0.5,0.3c-0.2,0.1-0.3,0.2-0.5,0.3c-0.3,0.2-0.6,0.4-0.9,0.6
				c-0.3,0.2-0.6,0.4-0.8,0.5c-0.5,0.3-0.8,0.5-0.8,0.5c0,0,0,0,0,0c0,0,0,0,0,0c0,0,1.2-0.9,2.4-1.8c0.1-0.1,0.3-0.2,0.4-0.3
				c0.1-0.1,0.3-0.2,0.4-0.3c0.1-0.1,0.3-0.2,0.4-0.3c0.1,0,0.1-0.1,0.2-0.1c0.1,0,0.1-0.1,0.2-0.1c0.1-0.1,0.2-0.1,0.3-0.2
				c0.1-0.1,0.2-0.1,0.3-0.2C37.1,10.9,37.2,10.9,37.2,10.9L37.2,10.9C37.2,10.9,37.2,10.9,37.2,10.9C37.2,10.9,37.2,10.9,37.2,10.9
				z"/>
		</g>
		<rect x="8.8" y="48.5" width="28.1" height="0.7"/>
	</g>
</g>
</svg>
