<?xml version="1.0" encoding="utf-8"?>
<!-- Generator: Adobe Illustrator 18.1.0, SVG Export Plug-In . SVG Version: 6.00 Build 0)  -->
<!DOCTYPE svg PUBLIC "-//W3C//DTD SVG 1.1//EN" "http://www.w3.org/Graphics/SVG/1.1/DTD/svg11.dtd" [
	<!ENTITY ns_flows "http://ns.adobe.com/Flows/1.0/">
	<!ENTITY ns_extend "http://ns.adobe.com/Extensibility/1.0/">
	<!ENTITY ns_ai "http://ns.adobe.com/AdobeIllustrator/10.0/">
	<!ENTITY ns_graphs "http://ns.adobe.com/Graphs/1.0/">
]>
<svg version="1.1" xmlns:x="&ns_extend;" xmlns:i="&ns_ai;" xmlns:graph="&ns_graphs;"
	 xmlns="http://www.w3.org/2000/svg" xmlns:xlink="http://www.w3.org/1999/xlink" xmlns:a="http://ns.adobe.com/AdobeSVGViewerExtensions/3.0/"
	 x="0px" y="0px" viewBox="0 0 71 37.1" enable-background="new 0 0 71 37.1" xml:space="preserve">
<g id="Milan">
</g>
<g id="Layer_2" display="none">
</g>
<g id="Layer_3">
</g>
<g id="Layer_4">
	<g>
		<path fill="#1A1A1A" d="M70.1,22.7c0.1-0.1,0.4-0.2,0.5-0.5c0-0.1,0-0.1,0-0.2c0,0,0,0,0,0c0,0-0.1,0-0.2,0c0,0-0.1-0.1-0.3-0.1
			c0,0,0,0,0,0c0,0-0.1-0.1-0.2-0.1c-0.1,0-0.2-0.1-0.3-0.1l-0.2-0.7c0,0-0.1-0.2-0.4-0.2c0,0-0.2-0.1-0.3-0.4l-0.1,0.5
			c0,0-1.6,0.6-9.1,0.5c-0.1,0-0.1,0-0.2,0c-0.5,0-1,0-1.5,0l0-0.4l-0.3,0v0.4v0H13.7v0v-0.4l-0.3,0l0,0.4c-0.5,0-1,0-1.5,0
			c-0.1,0-0.1,0-0.2,0l0,0c-1.3,0-2.5,0-3.5,0H7.9l0,0c-4.3-0.1-5.3-0.5-5.3-0.5l-0.1-0.5c0,0.3-0.3,0.4-0.3,0.4
			c-0.3-0.1-0.4,0.2-0.4,0.2l-0.2,0.8c0,0,0,0,0,0l0,0.2c-0.1,0-0.1,0-0.1,0l0-0.2c-0.1,0-0.2,0.1-0.3,0.1c-0.1,0-0.2,0.1-0.2,0.1
			c0,0-0.1,0.1-0.1,0.1c-0.2,0-0.3,0.1-0.3,0.1c-0.1,0-0.1,0-0.2,0c-0.1,0-0.1,0-0.1,0c0,0.1,0,0.2,0.1,0.2c0.1,0.2,0.4,0.4,0.5,0.4
			c0,0,0,0,0,0c0,0.1,0.1,0.1,0.2,0.2c0.2,0.2,0.4,0.3,0.5,0.3c0.1,0,0.2,0,0.2,0c0,0.1,0.1,0.1,0.1,0.2c0.1,0.1,0.2,0.2,0.3,0.3
			c0,0,0.1,0,0.1,0c1.7,1.7,5.6,4,5.6,4C8.4,28.3,9.6,29,9.6,29c0.4,0.8,1,1.2,1,1.2v0.4V37h23.6H37h23.6v-6.4v-0.4
			c0,0,0.6-0.4,1-1.2c0,0,1.2-0.7,1.6-1.2c0,0,4-2.4,5.6-4.1c0,0,0,0-0.1,0c0.1-0.1,0.2-0.2,0.3-0.3c0,0,0.1-0.1,0.1-0.1
			c0,0,0.1,0,0.2-0.1c0.1,0,0.3-0.1,0.5-0.3C69.9,22.9,69.9,22.8,70.1,22.7C70,22.8,70,22.8,70.1,22.7z"/>
		<rect x="13.6" y="21.3" fill="#5E7176" width="43.7" height="0"/>
		<g>
			<polygon fill="#1A1A1A" points="35.4,0.4 35.4,0.4 35.4,0.4 35.4,0.4 			"/>
			<path d="M67.3,11.2c0,0-0.1-0.3-0.2-0.1c0,0-0.2,0.1-0.2,0l-0.1-0.1c0-0.1-0.1-0.2-0.3-0.3l-0.3-0.1V9.8l-0.3-0.1
				c0,0-1,1.1-12.1,0.6l0-0.1l-0.3-0.1l0-0.6c0,0,0.1-0.2-0.1-0.2c0,0-0.1-0.2-0.4,0c0,0-0.9-1.9-1.1-2.7c0,0,0.2,0,0.2-0.2
				c0,0,0,0,0-0.1c0,0,0-0.7-0.3-0.8V5h-1v0.8l0.2,0l0,0.2l-0.6,0l0,0l0,0.2c0,0-4.7,0.9-14.8,0.9c0-0.1-0.1-0.2-0.2-0.3l0-3.1
				l-0.1-3.4l0,0l-0.1,3.4l0,3.1c-0.1,0-0.2,0.1-0.2,0.3C25,7.1,20.3,6.2,20.3,6.2l0-0.2l0,0l-0.6,0l0-0.2l0.2,0V5h-1v0.6
				c-0.3,0-0.3,0.8-0.3,0.8c0,0,0,0,0,0.1c0,0.2,0.2,0.2,0.2,0.2c-0.2,0.8-1.1,2.7-1.1,2.7c-0.3-0.2-0.4,0-0.4,0
				c-0.2,0-0.1,0.2-0.1,0.2l0,0.6l-0.3,0.1l0,0.1C6.1,10.8,5.1,9.7,5.1,9.7L4.8,9.8v0.8l-0.3,0.1c-0.2,0-0.3,0.2-0.3,0.3
				c0,0,0,0,0,0l0,0c0,0,0,0,0,0c0,0,0,0,0,0c0,0.2-0.3,0-0.3,0c-0.1-0.1-0.2,0.1-0.2,0.1c-0.2,0.1,0.6,0.6,0.6,0.6
				c0.1,0.3,0.5,0.3,0.5,0.3l0,0.2L5,12.3v0.1c-0.2-0.1-0.2-0.1-0.2-0.1c-0.1,0-0.2,0-0.2,0.1c0,0.1,0,0.2,0.1,0.2
				c0,0,0.1,0,0.2,0.1c0,0-0.1,0-0.1,0.1c0,0.1,0,0.2,0.1,0.2c0,0,0,0,0.1,0c0,0,0,0,0,0.1c0,0.1,0,0.2,0.1,0.2c0,0,0.1,0,0.2,0.1
				c0,0,0,0-0.1,0.1c0,0.1,0,0.2,0.1,0.2c0,0,0.1,0,0.2,0.1c0,0,0,0,0,0c0,0.1,0,0.2,0.1,0.2c0,0,0,0,0.1,0c0,0,0,0,0,0.1
				c0,0.1,0,0.2,0.1,0.2c0,0,0.1,0,0.2,0.1c0,0,0,0,0,0c0,0.1,0,0.2,0.1,0.2c0,0,0.1,0,0.1,0c0,0,0,0,0,0c0,0.1,0,0.2,0.1,0.2
				c0,0,0,0,0.1,0c0,0,0,0,0,0.1c0,0.1,0,0.2,0.1,0.2c0,0,0.1,0,0.2,0.1c0,0,0,0,0,0c0,0.1,0,0.2,0.1,0.2c0,0,0.1,0,0.2,0.1
				c0,0,0,0,0,0c0,0.1,0,0.2,0.1,0.2c0,0,0,0,0.1,0c0,0,0,0,0,0.1c0,0.1,0,0.2,0.1,0.2c0,0,0.1,0,0.2,0.1c0,0,0,0,0,0
				c0,0.1,0,0.2,0.1,0.2c0,0,0.1,0,0.1,0c0,0,0,0,0,0c0,0.1,0,0.2,0.1,0.2c0,0,0,0,0.1,0c0,0,0,0,0,0.1c0,0.1,0,0.2,0.1,0.2
				c0,0,0.1,0,0.2,0.1c0,0,0,0-0.1,0.1c0,0.1,0,0.2,0.1,0.2c0,0,0.1,0,0.2,0.1c0,0,0,0,0,0c0,0.1,0,0.2,0.1,0.2c0,0,0,0,0.1,0
				c0,0,0,0,0,0.1c0,0.1,0,0.2,0.1,0.2c0,0,0.1,0,0.3,0.1c0,0,0,0,0,0c0,0.1,0,0.2,0.1,0.2c0,0,0.5,0.2,1.2,0.4
				c0.6,0.5,1.2,1,1.6,1.2c0.3,0.2,0.5,0.3,0.5,0.3c0.5,0.2,1,0.1,1,0.1c0.2,0.3,0.4,0.4,0.4,0.4l0,0.5l0.3,0v0.4h43.7v-0.4l0.3,0
				l0-0.5c0,0,0.2-0.1,0.4-0.4c0,0,0.6,0.1,1-0.1c0,0,0.2-0.1,0.5-0.3c0.4-0.3,1.1-0.7,1.7-1.3c0.6-0.2,1-0.3,1-0.3
				c0.1,0,0.1-0.1,0.1-0.2c0,0,0,0,0,0c0.2-0.1,0.3-0.1,0.3-0.1c0.1,0,0.1-0.1,0.1-0.2c0,0,0,0,0-0.1c0.1,0,0.1,0,0.1,0
				c0.1,0,0.1-0.1,0.1-0.2c0,0,0,0,0,0c0.1,0,0.2-0.1,0.2-0.1c0.1,0,0.1-0.1,0.1-0.2c0,0,0-0.1-0.1-0.1c0.1,0,0.2-0.1,0.2-0.1
				c0.1,0,0.1-0.1,0.1-0.2c0,0,0,0,0-0.1c0.1,0,0.1,0,0.1,0c0.1,0,0.1-0.1,0.1-0.2c0,0,0,0,0,0c0.1,0,0.1,0,0.1,0
				c0.1,0,0.1-0.1,0.1-0.2c0,0,0,0,0,0c0.1,0,0.1-0.1,0.2-0.1c0.1,0,0.1-0.1,0.1-0.2c0,0,0,0,0-0.1c0.1,0,0.1,0,0.1,0
				c0.1,0,0.1-0.1,0.1-0.2c0,0,0,0,0,0c0.1,0,0.2-0.1,0.2-0.1c0.1,0,0.1-0.1,0.1-0.2c0,0,0,0,0,0c0.1,0,0.2-0.1,0.2-0.1
				c0.1,0,0.1-0.1,0.1-0.2c0,0,0,0,0-0.1c0.1,0,0.1,0,0.1,0c0.1,0,0.1-0.1,0.1-0.2c0,0,0,0,0,0c0.1,0,0.1,0,0.1,0
				c0.1,0,0.1-0.1,0.1-0.2c0,0,0,0,0,0c0.1,0,0.2-0.1,0.2-0.1c0.1,0,0.1-0.1,0.1-0.2c0,0,0,0,0-0.1c0.1,0,0.1,0,0.1,0
				c0.1,0,0.1-0.1,0.1-0.2c0,0,0,0,0,0c0.1,0,0.2-0.1,0.2-0.1c0.1,0,0.1-0.1,0.1-0.2c0,0,0-0.1-0.1-0.1c0.1,0,0.2-0.1,0.2-0.1
				c0.1,0,0.1-0.1,0.1-0.2c0,0,0,0,0-0.1c0.1,0,0.1,0,0.1,0c0.1,0,0.1-0.1,0.1-0.2c0,0,0-0.1-0.1-0.1c0.1,0,0.2-0.1,0.2-0.1
				c0.1,0,0.1-0.1,0.1-0.2c0-0.1-0.1-0.1-0.2-0.1c0,0,0,0-0.1,0v0l0.3-0.1l0-0.2c0,0,0.3,0,0.5-0.3C66.7,11.8,67.6,11.3,67.3,11.2z"
				/>
		</g>
		<path fill="#41575C" d="M36.2,19.6h-1.5C35.2,19.6,35.7,19.6,36.2,19.6z"/>
		<path fill="#41575C" d="M36.2,19.6h-1.5C35.3,19.6,35.8,19.6,36.2,19.6z"/>
		<rect x="31.4" y="16" fill="#FFFFFF" width="8.3" height="2.3"/>
		<g>
			<g>
				<rect x="30.7" y="20" fill="#FFFFFF" width="2" height="1.3"/>
				<rect x="33.2" y="20" fill="#FFFFFF" width="2" height="1.3"/>
				<rect x="35.8" y="20" fill="#FFFFFF" width="2" height="1.3"/>
				<rect x="38.3" y="20" fill="#FFFFFF" width="2" height="1.3"/>
			</g>
			<g>
				<g>
					<g>
						
							<rect x="20.1" y="19.9" transform="matrix(-1 -5.245336e-03 5.245336e-03 -1 41.9783 41.2584)" fill="#FFFFFF" width="1.9" height="1.3"/>
						
							<rect x="22.5" y="20" transform="matrix(-1 -5.415564e-03 5.415564e-03 -1 46.8379 41.3007)" fill="#FFFFFF" width="1.9" height="1.3"/>
						
							<rect x="24.9" y="20" transform="matrix(-1 -5.800604e-03 5.800604e-03 -1 51.693 41.3501)" fill="#FFFFFF" width="1.9" height="1.3"/>
						
							<rect x="27.4" y="20" transform="matrix(-1 -5.225309e-03 5.225309e-03 -1 56.5677 41.3745)" fill="#FFFFFF" width="1.9" height="1.3"/>
					</g>
					<g>
						
							<rect x="14.5" y="19.7" transform="matrix(-0.9996 -2.935623e-02 2.935623e-02 -0.9996 30.2809 41.2071)" fill="#FFFFFF" width="1.9" height="1.3"/>
						
							<rect x="16.9" y="19.8" transform="matrix(-0.9996 -2.952901e-02 2.952901e-02 -0.9996 35.1352 41.4238)" fill="#FFFFFF" width="1.9" height="1.3"/>
					</g>
				</g>
				<g>
					<g>
						
							<rect x="49.3" y="19.6" transform="matrix(-5.661024e-03 -1 1 -5.661024e-03 29.6659 70.6468)" fill="#FFFFFF" width="1.3" height="1.9"/>
						
							<rect x="46.9" y="19.6" transform="matrix(-5.375761e-03 -1 1 -5.375761e-03 27.1943 68.2224)" fill="#FFFFFF" width="1.3" height="1.9"/>
						
							<rect x="44.5" y="19.6" transform="matrix(-5.659475e-03 -1 1 -5.659475e-03 24.7492 65.8097)" fill="#FFFFFF" width="1.3" height="1.9"/>
						
							<rect x="42" y="19.7" transform="matrix(-5.375761e-03 -1 1 -5.375761e-03 22.2784 63.3857)" fill="#FFFFFF" width="1.3" height="1.9"/>
					</g>
					<g>
						
							<rect x="54.9" y="19.4" transform="matrix(-2.935147e-02 -0.9996 0.9996 -2.935147e-02 36.8153 76.5126)" fill="#FFFFFF" width="1.3" height="1.9"/>
						
							<rect x="52.5" y="19.5" transform="matrix(-2.905441e-02 -0.9996 0.9996 -2.905441e-02 34.2265 74.151)" fill="#FFFFFF" width="1.3" height="1.9"/>
					</g>
				</g>
			</g>
		</g>
		<g>
			<g>
				<rect x="29.3" y="18.7" fill="#FFFFFF" width="2.6" height="0.8"/>
				
					<rect x="25.9" y="18.7" transform="matrix(0.9993 3.611110e-02 -3.611110e-02 0.9993 0.7059 -0.9715)" fill="#FFFFFF" width="2.6" height="0.8"/>
				
					<rect x="19.1" y="18.5" transform="matrix(0.9995 3.243153e-02 -3.243153e-02 0.9995 0.6238 -0.6538)" fill="#FFFFFF" width="2.6" height="0.8"/>
				
					<rect x="16.5" y="18.4" transform="matrix(0.9997 2.419469e-02 -2.419469e-02 0.9997 0.4601 -0.4177)" fill="#FFFFFF" width="1.9" height="0.8"/>
				
					<rect x="13.1" y="18.4" transform="matrix(0.9993 3.734508e-02 -3.734508e-02 0.9993 0.7097 -0.5106)" fill="#FFFFFF" width="1.9" height="0.8"/>
			</g>
			<g>
				<rect x="39.1" y="18.7" fill="#FFFFFF" width="2.6" height="0.8"/>
				
					<rect x="42.4" y="18.7" transform="matrix(-0.9993 3.611605e-02 -3.611605e-02 -0.9993 88.1645 36.5183)" fill="#FFFFFF" width="2.6" height="0.8"/>
				
					<rect x="49.2" y="18.5" transform="matrix(-0.9995 3.242702e-02 -3.242702e-02 -0.9995 101.6569 36.1577)" fill="#FFFFFF" width="2.6" height="0.8"/>
				
					<rect x="52.5" y="18.4" transform="matrix(-0.9997 2.419465e-02 -2.419465e-02 -0.9997 107.4529 36.3128)" fill="#FFFFFF" width="1.9" height="0.8"/>
				
					<rect x="56" y="18.4" transform="matrix(-0.9993 3.734522e-02 -3.734522e-02 -0.9993 114.6137 35.3404)" fill="#FFFFFF" width="1.9" height="0.8"/>
			</g>
		</g>
		<g>
			<g>
				<rect x="30.3" y="29.5" fill="#FFFFFF" width="2.7" height="0.9"/>
				<rect x="26.6" y="29.5" fill="#FFFFFF" width="2.7" height="0.9"/>
				<rect x="19.6" y="29.5" fill="#FFFFFF" width="2.7" height="0.9"/>
				<rect x="16.7" y="29.5" fill="#FFFFFF" width="2.3" height="0.9"/>
				<rect x="11" y="29.5" fill="#FFFFFF" width="2.3" height="0.9"/>
			</g>
			<g>
				<rect x="38" y="29.5" fill="#FFFFFF" width="2.7" height="0.9"/>
				<rect x="41.7" y="29.5" fill="#FFFFFF" width="2.7" height="0.9"/>
				<rect x="48.6" y="29.5" fill="#FFFFFF" width="2.7" height="0.9"/>
				<rect x="52.1" y="29.5" fill="#FFFFFF" width="2.2" height="0.9"/>
				<rect x="57.8" y="29.5" fill="#FFFFFF" width="2.2" height="0.9"/>
			</g>
		</g>
		<g>
			<g>
				<path fill="#FFFFFF" d="M35.5,31.4c0,0.3-0.2,0.5-0.5,0.5h-1.4c-0.3,0-0.5-0.2-0.5-0.5l0,0c0-0.3,0.2-0.5,0.5-0.5H35
					C35.3,30.9,35.5,31.1,35.5,31.4L35.5,31.4z"/>
				<path fill="#FFFFFF" d="M33.1,31.4c0,0.3-0.2,0.5-0.5,0.5h-1.4c-0.3,0-0.5-0.2-0.5-0.5l0,0c0-0.3,0.2-0.5,0.5-0.5h1.4
					C32.9,30.9,33.1,31.1,33.1,31.4L33.1,31.4z"/>
				<path fill="#FFFFFF" d="M40.3,31.4c0,0.3-0.2,0.5-0.5,0.5h-1.4c-0.3,0-0.5-0.2-0.5-0.5l0,0c0-0.3,0.2-0.5,0.5-0.5h1.4
					C40,30.9,40.3,31.1,40.3,31.4L40.3,31.4z"/>
				<path fill="#FFFFFF" d="M37.9,31.4c0,0.3-0.2,0.5-0.5,0.5H36c-0.3,0-0.5-0.2-0.5-0.5l0,0c0-0.3,0.2-0.5,0.5-0.5h1.4
					C37.7,30.9,37.9,31.1,37.9,31.4L37.9,31.4z"/>
			</g>
			<g>
				<g>
					<path fill="#FFFFFF" d="M13.8,31.4c0,0.3-0.2,0.5-0.5,0.5H12c-0.3,0-0.5-0.2-0.5-0.5l0,0c0-0.3,0.2-0.5,0.5-0.5h1.3
						C13.6,30.9,13.8,31.1,13.8,31.4L13.8,31.4z"/>
					<path fill="#FFFFFF" d="M18.3,31.4c0,0.3-0.2,0.5-0.5,0.5h-1.3c-0.3,0-0.5-0.2-0.5-0.5l0,0c0-0.3,0.2-0.5,0.5-0.5h1.3
						C18.1,30.9,18.3,31.1,18.3,31.4L18.3,31.4z"/>
					<path fill="#FFFFFF" d="M16.1,31.4c0,0.3-0.2,0.5-0.5,0.5h-1.3c-0.3,0-0.5-0.2-0.5-0.5l0,0c0-0.3,0.2-0.5,0.5-0.5h1.3
						C15.9,30.9,16.1,31.1,16.1,31.4L16.1,31.4z"/>
				</g>
				<g>
					<path fill="#FFFFFF" d="M54.9,31.4c0,0.3-0.2,0.5-0.5,0.5h-1.3c-0.3,0-0.5-0.2-0.5-0.5l0,0c0-0.3,0.2-0.5,0.5-0.5h1.3
						C54.7,30.9,54.9,31.1,54.9,31.4L54.9,31.4z"/>
					<path fill="#FFFFFF" d="M59.5,31.4c0,0.3-0.2,0.5-0.5,0.5h-1.3c-0.3,0-0.5-0.2-0.5-0.5l0,0c0-0.3,0.2-0.5,0.5-0.5H59
						C59.2,30.9,59.5,31.1,59.5,31.4L59.5,31.4z"/>
					<path fill="#FFFFFF" d="M57.2,31.4c0,0.3-0.2,0.5-0.5,0.5h-1.3c-0.3,0-0.5-0.2-0.5-0.5l0,0c0-0.3,0.2-0.5,0.5-0.5h1.3
						C57,30.9,57.2,31.1,57.2,31.4L57.2,31.4z"/>
				</g>
			</g>
			<g>
				<g>
					<path fill="#FFFFFF" d="M24.6,31.4c0,0.3-0.2,0.5-0.5,0.5h-1.3c-0.3,0-0.5-0.2-0.5-0.5l0,0c0-0.3,0.2-0.5,0.5-0.5h1.3
						C24.4,30.9,24.6,31.1,24.6,31.4L24.6,31.4z"/>
					<path fill="#FFFFFF" d="M22.3,31.4c0,0.3-0.2,0.5-0.5,0.5h-1.3c-0.3,0-0.5-0.2-0.5-0.5l0,0c0-0.3,0.2-0.5,0.5-0.5h1.3
						C22.1,30.9,22.3,31.1,22.3,31.4L22.3,31.4z"/>
					<path fill="#FFFFFF" d="M29.1,31.4c0,0.3-0.2,0.5-0.5,0.5h-1.3c-0.3,0-0.5-0.2-0.5-0.5l0,0c0-0.3,0.2-0.5,0.5-0.5h1.3
						C28.9,30.9,29.1,31.1,29.1,31.4L29.1,31.4z"/>
					<path fill="#FFFFFF" d="M26.9,31.4c0,0.3-0.2,0.5-0.5,0.5h-1.3c-0.3,0-0.5-0.2-0.5-0.5l0,0c0-0.3,0.2-0.5,0.5-0.5h1.3
						C26.7,30.9,26.9,31.1,26.9,31.4L26.9,31.4z"/>
				</g>
				<g>
					<path fill="#FFFFFF" d="M46.4,31.4c0,0.3-0.2,0.5-0.5,0.5h-1.3c-0.3,0-0.5-0.2-0.5-0.5l0,0c0-0.3,0.2-0.5,0.5-0.5h1.3
						C46.2,30.9,46.4,31.1,46.4,31.4L46.4,31.4z"/>
					<path fill="#FFFFFF" d="M44.1,31.4c0,0.3-0.2,0.5-0.5,0.5h-1.3c-0.3,0-0.5-0.2-0.5-0.5l0,0c0-0.3,0.2-0.5,0.5-0.5h1.3
						C43.9,30.9,44.1,31.1,44.1,31.4L44.1,31.4z"/>
					<path fill="#FFFFFF" d="M50.9,31.4c0,0.3-0.2,0.5-0.5,0.5h-1.3c-0.3,0-0.5-0.2-0.5-0.5l0,0c0-0.3,0.2-0.5,0.5-0.5h1.3
						C50.7,30.9,50.9,31.1,50.9,31.4L50.9,31.4z"/>
					<path fill="#FFFFFF" d="M48.7,31.4c0,0.3-0.2,0.5-0.5,0.5h-1.3c-0.3,0-0.5-0.2-0.5-0.5l0,0c0-0.3,0.2-0.5,0.5-0.5h1.3
						C48.4,30.9,48.7,31.1,48.7,31.4L48.7,31.4z"/>
				</g>
			</g>
		</g>
		<rect x="32.8" y="32.1" fill="#E6E6E6" width="5.5" height="3.9"/>
		<rect x="32.8" y="32.1" fill="#E6E6E6" width="5.5" height="3.9"/>
		<rect x="32.7" y="32.1" fill="#FFFFFF" width="5.6" height="4.9"/>
	</g>
</g>
</svg>
