<?xml version="1.0" encoding="utf-8"?>
<!-- Generator: Adobe Illustrator 18.1.0, SVG Export Plug-In . SVG Version: 6.00 Build 0)  -->
<!DOCTYPE svg PUBLIC "-//W3C//DTD SVG 1.1//EN" "http://www.w3.org/Graphics/SVG/1.1/DTD/svg11.dtd" [
	<!ENTITY ns_flows "http://ns.adobe.com/Flows/1.0/">
	<!ENTITY ns_extend "http://ns.adobe.com/Extensibility/1.0/">
	<!ENTITY ns_ai "http://ns.adobe.com/AdobeIllustrator/10.0/">
	<!ENTITY ns_graphs "http://ns.adobe.com/Graphs/1.0/">
]>
<svg version="1.1" xmlns:x="&ns_extend;" xmlns:i="&ns_ai;" xmlns:graph="&ns_graphs;"
	 xmlns="http://www.w3.org/2000/svg" xmlns:xlink="http://www.w3.org/1999/xlink" xmlns:a="http://ns.adobe.com/AdobeSVGViewerExtensions/3.0/"
	 x="0px" y="0px" viewBox="0 0 19 56.6" enable-background="new 0 0 19 56.6" xml:space="preserve">
<g id="Milan">
</g>
<g id="Layer_2" display="none">
</g>
<g id="Layer_3">
</g>
<g id="Layer_4">
	<g>
		<defs>
			<rect id="SVGID_1_" x="-15.5" y="-2" width="51" height="58.9"/>
		</defs>
		<clipPath id="SVGID_2_">
			<use xlink:href="#SVGID_1_"  overflow="visible"/>
		</clipPath>
		<g clip-path="url(#SVGID_2_)">
			<path d="M14.5,31.8l-9.9,0l0,9.9l9.9,0L14.5,31.8z M9.6,40.8c-2.3,0-4.1-1.8-4.1-4.1c0-2.3,1.8-4.1,4.1-4.1
				c2.3,0,4.1,1.8,4.1,4.1C13.6,39,11.8,40.8,9.6,40.8z"/>
			<path d="M16.8,28.7l0-4.7l0,0v-3.4l-0.7,1l0,1.2l-2.5-4.3l0-5.9L9.6,0.3L5.5,12.7l0,5.9L3,22.8l0-1.2l-0.7-1l0,3.4l0,4.7l-2.2,0
				l0,16.1h1.3l0,52.5l16.4,0l0-52.5h1.3l0-16.1L16.8,28.7z M14,25.3h0.5l0,2.8H14L14,25.3z M12.1,25.3h0.5l0,2.8h-0.5L12.1,25.3z
				 M11.3,14.1l0.5,0l0,2.8l-0.5,0L11.3,14.1z M10,14.1h0.5l0,2.8H10L10,14.1z M10.7,25.3l0,2.8h-0.5l0-2.8L10.7,25.3z M8.6,14.1
				h0.5l0,2.8H8.6L8.6,14.1z M8.4,25.3h0.5l0,2.8H8.4L8.4,25.3z M7.3,14.1h0.5l0,2.8H7.3L7.3,14.1z M6.5,25.3H7l0,2.8H6.5L6.5,25.3z
				 M4.6,25.3h0.5l0,2.8H4.6L4.6,25.3z M5.1,94.6H4.6l0-7h0.5L5.1,94.6z M5.1,84.5H4.6l0-7h0.5L5.1,84.5z M5.1,74.5H4.6l0-7h0.5
				L5.1,74.5z M5.1,64.4l-0.5,0l0-7l0.5,0L5.1,64.4z M5.1,54.4H4.6l0-7h0.5L5.1,54.4z M7,94.6H6.5l0-7H7L7,94.6z M7,84.5H6.5l0-7H7
				L7,84.5z M7,74.5H6.5l0-7H7L7,74.5z M7,64.4H6.5l0-7H7L7,64.4z M7,54.4H6.5l0-7H7L7,54.4z M8.9,94.6H8.4l0-7h0.5L8.9,94.6z
				 M8.9,84.5H8.4l0-7h0.5L8.9,84.5z M8.9,74.5H8.4l0-7h0.5L8.9,74.5z M8.9,64.4H8.4l0-7h0.5L8.9,64.4z M8.9,54.4H8.4l0-7h0.5
				L8.9,54.4z M10.7,94.6h-0.5l0-7h0.5L10.7,94.6z M10.7,84.5h-0.5l0-7h0.5L10.7,84.5z M10.7,74.5h-0.5l0-7h0.5L10.7,74.5z
				 M10.7,64.4h-0.5l0-7h0.5L10.7,64.4z M10.7,54.4h-0.5l0-7h0.5L10.7,54.4z M12.6,94.6h-0.5l0-7h0.5L12.6,94.6z M12.6,84.5h-0.5
				l0-7h0.5L12.6,84.5z M12.6,74.5h-0.5l0-7h0.5L12.6,74.5z M12.6,64.4h-0.5l0-7h0.5L12.6,64.4z M12.6,54.4h-0.5l0-7h0.5L12.6,54.4z
				 M14.5,94.6H14l0-7h0.5L14.5,94.6z M14.5,84.5H14l0-7h0.5L14.5,84.5z M14.5,74.5H14l0-7h0.5L14.5,74.5z M14.5,64.4H14l0-7h0.5
				L14.5,64.4z M14.5,54.4H14l0-7h0.5L14.5,54.4z M15,42.2l-10.9,0l0-10.9l10.9,0L15,42.2z"/>
			<path d="M9.8,36.6l0-3.3c0-0.1-0.1-0.2-0.2-0.2c-0.1,0-0.2,0.1-0.2,0.2l0,3.4v0c0,0,0,0.1,0,0.1c0,0,0,0.1,0.1,0.1c0,0,0,0,0,0
				l2.4,2.4c0,0,0.1,0.1,0.2,0.1c0.1,0,0.1,0,0.2-0.1c0.1-0.1,0.1-0.3,0-0.3L9.8,36.6z"/>
		</g>
	</g>
</g>
</svg>
