<?xml version="1.0" encoding="utf-8"?>
<!-- Generator: Adobe Illustrator 18.1.0, SVG Export Plug-In . SVG Version: 6.00 Build 0)  -->
<!DOCTYPE svg PUBLIC "-//W3C//DTD SVG 1.1//EN" "http://www.w3.org/Graphics/SVG/1.1/DTD/svg11.dtd" [
	<!ENTITY ns_flows "http://ns.adobe.com/Flows/1.0/">
	<!ENTITY ns_extend "http://ns.adobe.com/Extensibility/1.0/">
	<!ENTITY ns_ai "http://ns.adobe.com/AdobeIllustrator/10.0/">
	<!ENTITY ns_graphs "http://ns.adobe.com/Graphs/1.0/">
]>
<svg version="1.1" xmlns:x="&ns_extend;" xmlns:i="&ns_ai;" xmlns:graph="&ns_graphs;"
	 xmlns="http://www.w3.org/2000/svg" xmlns:xlink="http://www.w3.org/1999/xlink" xmlns:a="http://ns.adobe.com/AdobeSVGViewerExtensions/3.0/"
	 x="0px" y="0px" viewBox="0 0 30 53.7" enable-background="new 0 0 30 53.7" xml:space="preserve">
<g id="Milan">
</g>
<g id="Layer_2" display="none">
</g>
<g id="Layer_3">
</g>
<g id="Layer_4">
	<g>
		<g>
			<path d="M20.6,41.5l-2.4-7.6l-6,0L10,41.5H8.7l0,2l13,0l0-2H20.6z M14.1,36.3h2.5l0.9,5.1h-4.3L14.1,36.3z"/>
		</g>
		<g>
			<rect x="11.8" y="32.3" width="6.9" height="1.4"/>
		</g>
		<g>
			<polygon points="14.1,8.5 16.1,8.5 16.7,21.2 17.9,32.2 12.7,32.2 13.6,21.2 			"/>
		</g>
		<g>
			<polygon points="16.4,8.4 13.6,8.4 13.5,7.5 16.6,7.5 			"/>
		</g>
		<g>
			<polygon points="14.9,4.7 15.2,4.7 16.3,6 16.4,7.4 15.1,7.4 13.7,7.4 13.7,6 			"/>
		</g>
		<g>
			<rect x="14.8" y="0.9" width="0.4" height="3.7"/>
		</g>
		<path d="M26.4,52.9l-4.7-9.2L9,43.7l-4.5,9.2l-4.2,0l0,0.8l29.4,0v-0.8H26.4z M10.1,51.3c0-2.6,2.5-4.7,5.6-4.7s5.6,2.1,5.6,4.7
			c0,0.5-0.1,1.1-0.3,1.6l-10.6,0C10.2,52.4,10.1,51.9,10.1,51.3z"/>
	</g>
</g>
</svg>
