<?xml version="1.0" encoding="utf-8"?>
<!-- Generator: Adobe Illustrator 18.1.0, SVG Export Plug-In . SVG Version: 6.00 Build 0)  -->
<!DOCTYPE svg PUBLIC "-//W3C//DTD SVG 1.1//EN" "http://www.w3.org/Graphics/SVG/1.1/DTD/svg11.dtd" [
	<!ENTITY ns_flows "http://ns.adobe.com/Flows/1.0/">
	<!ENTITY ns_extend "http://ns.adobe.com/Extensibility/1.0/">
	<!ENTITY ns_ai "http://ns.adobe.com/AdobeIllustrator/10.0/">
	<!ENTITY ns_graphs "http://ns.adobe.com/Graphs/1.0/">
]>
<svg version="1.1" xmlns:x="&ns_extend;" xmlns:i="&ns_ai;" xmlns:graph="&ns_graphs;"
	 xmlns="http://www.w3.org/2000/svg" xmlns:xlink="http://www.w3.org/1999/xlink" xmlns:a="http://ns.adobe.com/AdobeSVGViewerExtensions/3.0/"
	 x="0px" y="0px" viewBox="0 0 49 45.8" enable-background="new 0 0 49 45.8" xml:space="preserve">
<g id="Milan">
	<g>
		<path d="M1.4,18.1l-0.1,0.6v1.8l-0.1,0.1l0,0l0,0.1c-0.1,0,0,0.1,0,0.1v1.3c-0.2,0.1,0,0.2,0,0.2v0.1H1l0,0.1v0.3l-0.2,1.1H0.7
			v0.1c-0.1,0,0,0.1,0,0.1v0.1l0,0.1v2H0.6v0.3c0,0.1,0.1,0.1,0.1,0.1l0,0c-0.2,0.1,0,0.4,0,0.4v0.5v5.6c-0.1,0-0.1,0.1-0.1,0.1
			l0,0.1c-0.1,0.1,0.1,0.1,0.1,0.1c-0.1,0.1,0,0.1,0,0.1V34c-0.1,0,0,0.1,0,0.1l0,0.1c-0.1,0.1,0,0.1,0,0.1c-0.1,0.2,0,0.2,0,0.2
			l0,0.1c-0.1,0.1,0,0.1,0,0.1l0,0.1c-0.1,0.1,0,0.2,0,0.2V35c-0.1,0.2,0,0.2,0,0.2v0c-0.1,0.1,0,0.1,0,0.1c-0.1,0.1,0,0.1,0,0.1
			l0,0.1c-0.1,0.2,0,0.2,0,0.2v3.9l-0.1,0.2l0,0.1l0,0.1l0,0.1l0.1,0.1l0.1,0.1v0.1l-0.1,0.1c-0.2,0.1,0,0.2,0,0.2l0,0.1l0,0.1v0.2
			c-0.1,0.3,0,0.4,0,0.4c0.1,0.2,0.1,0.3,0.1,0.3l-0.1,0.1c0.1,0.2-0.2,0.4-0.2,0.4h0.2v0.5c-0.1,0.3,0.2,0.2,0.2,0.2v1.6L0,45.2
			v0.5h49.1v-0.5l-0.5-0.8v-1.6c0,0,0.3,0.1,0.2-0.2v-0.5h0.2c0,0-0.3-0.2-0.2-0.4l-0.1-0.1c0,0,0-0.1,0.1-0.3c0,0,0.2-0.1,0-0.4
			v-0.2l0-0.1l0-0.1c0,0,0.2,0,0-0.2l-0.1-0.1v-0.1l0.1-0.1l0.1-0.1l0-0.1l0-0.1l0-0.1l-0.1-0.2v-3.9c0,0,0.1,0,0-0.2l0-0.1
			c0,0,0.1,0,0-0.1c0,0,0.1,0,0-0.1v0c0,0,0.1,0,0-0.2V35c0,0,0.1,0,0-0.2l0-0.1c0,0,0.1,0,0-0.1l0-0.1c0,0,0.1,0,0-0.2
			c0,0,0.1-0.1,0-0.1l0-0.1c0,0,0.1-0.1,0-0.1v-0.1c0,0,0.1,0,0-0.1c0,0,0.1,0,0.1-0.1l0-0.1c0,0,0-0.1-0.1-0.1v-5.6v-0.5
			c0,0,0.2-0.2,0-0.4l0,0c0,0,0.1,0,0.1-0.1v-0.3h-0.1v-2l0-0.1v-0.1c0,0,0.1-0.1,0-0.1v-0.1h-0.1l-0.2-1.1v-0.3l0-0.1H48v-0.1
			c0,0,0.2,0,0-0.2v-1.3c0,0,0.1-0.1,0-0.1l0-0.1l0,0l-0.1-0.1v-1.8l-0.1-0.6c0,0,0-0.1,0-0.1c0-0.1,0-0.1-0.1-0.1
			c-0.1,0-0.1,0-0.1,0.1l-0.1,0v-0.9l-0.1-0.8h-0.1l-0.1-0.8l0-0.1c0,0,0-0.1,0-0.3c0,0,0.1-0.1,0-0.1c0,0,0-0.1,0-0.3
			c0,0,0.1-0.3,0-0.6c0,0,0-0.1-0.1-0.1l0-0.1c0,0,0,0,0,0c0-0.1-0.2-0.2-0.1,0l0,0l0,0l-0.1,0c0,0-0.2,0.2,0,0.3c0,0.3,0,0.8,0.1,1
			l-0.1,0.8l-0.1,0L46.6,17l-0.1-0.7c0,0,0-0.1,0-0.1c0-0.1,0-0.3,0-0.4c0-0.1,0.2-0.9,0-1c-0.1-0.1-0.3,0.4-0.3,0.5l0,0.1l0,0.1v0
			v0.1v0.1l0,0v0.1l0,0.1l0,0.1V16l0,0.1l0,0.1l0,0.1v0.1L46.1,17c0,0-0.1-0.1-0.1,0.2v1.4L46,18.7h0c0,0,0,0,0,0
			c0-0.1,0-0.1-0.1-0.1c-0.1,0-0.1,0-0.1,0.1c0,0,0,0.1,0.1,0.1L45.7,20h0l0-0.2v-1.1l-0.1-0.8h0c0,0,0,0,0-0.1c0-0.1,0-0.1-0.1-0.1
			c-0.1,0-0.1,0-0.1,0.1c0,0,0,0,0,0l0,0v-0.9l-0.1-0.8h-0.1c0,0-0.1-0.8-0.1-0.8c0-0.1,0.1-0.1,0.1-0.2c0-0.1-0.1-0.2-0.1-0.3
			c-0.1-0.3,0.1-0.5,0.2-0.8c0.1-0.1,0.1-0.2,0.1-0.3c0-0.1-0.2-0.2-0.2-0.2c0,0.1-0.1,0.1,0,0.2c-0.2-0.1-0.2,0.1-0.2,0.2
			c-0.4,0.1,0,0.5-0.1,0.7l0,0.1l0,0.1l0,0.1l0,0.1l0,0v0.1l0,0.1l0,0.1l0,0.1l-0.1,0.8h-0.1l-0.1,0.8v0.9l0,0c0,0-0.1-0.1-0.1-0.1
			c-0.1,0-0.1,0-0.1,0.1c0,0,0,0,0,0.1l-0.2,0.7L44,19.3l0,0.4l-0.2,2.4l0-0.1h-0.1l-0.1,1.2v0.5c0,0-0.1,0.1-0.1,0.2V24
			c0,0-0.2,0.2,0,0.2v0.1h-0.2c0,0,0.1-0.2,0-0.3c0,0,0.1-0.1,0-0.2v-0.1c0,0,0.1-0.1,0-0.1c0,0,0.1-0.1,0-0.1c0,0,0.1-0.1,0-0.1
			v-0.1h-0.1v0.1c0,0-0.2,0.1,0,0.1v0.3L43,23.9v0.3h-0.1l-0.1-0.5h0.1v-0.1h-0.1v-0.3H43v-0.1h-0.2v-0.1h0.1V23h-0.1v-0.1h-0.1V23
			h-0.1v0.1h0.1v0.1h-0.2v0.1h0.2v0.3h-0.1v0.1h0.1l-0.3,0.9v-1.1c0,0,0.1,0,0.1-0.1c0,0,0-0.1-0.1-0.1h0v-0.3h0c0,0,0,0,0,0
			c0,0,0,0,0,0h0V23h0v-0.2h0c0,0,0,0,0,0c0,0,0,0,0,0h0v-0.1h-0.1v0.1h0c0,0,0,0,0,0c0,0,0,0,0,0h0V23h0v0.1h0c0,0,0,0,0,0
			c0,0,0,0,0,0h0v0.3h0c0,0-0.1,0-0.1,0.1c0,0,0,0.1,0.1,0.1v0.8l-0.4-1.7H42v-0.1h-0.1v-0.3H42v-0.1h-0.2V22h0.1v-0.1h-0.1v-0.1
			h-0.1v0.1h-0.1V22h0.1v0.1h-0.2v0.1h0.2v0.3h-0.1v0.1h0.1l-0.2,0.7v-1c0,0,0.1,0,0.1-0.1c0,0,0-0.1-0.1-0.1h0V22h0c0,0,0,0,0,0
			c0,0,0,0,0,0h0v-0.1h0v-0.2h0c0,0,0,0,0,0c0,0,0-0.1,0-0.1h0v-0.1h-0.1v0.1h0c0,0,0,0,0,0.1c0,0,0,0,0,0h0v0.2h0v0.1h0
			c0,0,0,0,0,0c0,0,0,0,0,0h0v0.3h0c0,0-0.1,0-0.1,0.1c0,0,0,0.1,0,0.1v0.9l-0.4-1.5H41v-0.1h-0.1v-0.3h0.2v-0.1h-0.2v-0.1h0.1v-0.1
			h-0.1V21h-0.1v0.1h-0.1v0.1h0.1v0.1h-0.2v0.1h0.2v0.3h-0.1v0.1h0.1l-0.3,0.6v-1.1c0,0,0.1,0,0.1-0.1c0,0,0-0.1-0.1-0.1h0V21h0
			c0,0,0,0,0,0c0,0,0,0,0,0h0v-0.1h0v-0.2h0c0,0,0,0,0,0c0,0,0,0,0,0h0v-0.1h-0.1v0.1h0c0,0,0,0,0,0c0,0,0,0,0,0h0v0.2h0v0.1h0
			c0,0,0,0,0,0c0,0,0,0,0,0h0v0.3h0c0,0-0.1,0-0.1,0.1c0,0,0,0.1,0.1,0.1v1.1l-0.4-1.7h0.1v-0.1H40v-0.3h0.2v-0.1h-0.2v-0.1H40V20
			h-0.1V20h-0.1V20h-0.1v0.1h0.1v0.1h-0.2v0.1h0.2v0.3h-0.1v0.1h0.1l-0.3,0.7v-1.1c0,0,0.1,0,0.1-0.1c0,0,0-0.1-0.1-0.1h0V20h0
			c0,0,0,0,0,0c0,0,0,0,0,0h0v-0.1h0v-0.2h0c0,0,0,0,0,0s0,0,0,0h0v-0.1h-0.1v0.1h0c0,0,0,0,0,0s0,0,0,0h0v0.2h0v0.1h0c0,0,0,0,0,0
			c0,0,0,0,0,0h0v0.3h0c0,0-0.1,0-0.1,0.1c0,0,0,0.1,0.1,0.1v0.9l-0.2-0.9v-4.8l0,0v-0.2c0,0,0,0,0-0.1c0-0.1,0-0.1-0.1-0.1
			c-0.1,0-0.1,0-0.1,0.1c0,0,0,0,0,0.1l-0.1,0.1l-0.1-0.2v-1.1l0.1-0.1h-0.1v-0.7l0-0.1v-1.2l-0.1-0.6c0,0,0.1-0.1,0.1-0.1
			c0-0.1,0-0.1-0.1-0.1c-0.1,0-0.1,0-0.1,0.1c0,0,0,0.1,0,0.1l-0.1,0.1v-1l-0.1-0.8h-0.1c0,0,0-0.7-0.1-0.9c0,0,0-0.1,0-0.1
			c0.1-0.2,0.1-0.7,0.1-1c0-0.1-0.1-0.4-0.2-0.4c-0.2-0.1-0.3,0.4-0.3,0.5l0,0.1l0,0.1l0,0.1l0.1,0.2l0,0.1l0,0.1c0,0,0,0,0,0.1
			c0,0,0,0.1,0,0.1l0,0c0,0-0.1,0.4-0.1,0.8h-0.1l0,0.8l0,1l-0.1-0.1c0,0,0,0,0,0c0-0.1,0-0.1-0.1-0.1c-0.1,0-0.1,0-0.1,0.1
			c0,0,0,0,0,0.1l0,0.1l-0.1,0.6v1.3l-0.1,0.2V14l0,0.1l0.1,0.1v1c0,0-0.1,0-0.1,0.3c0,0-0.2,0.1-0.2,0.4c0,0-0.1,0.1-0.1,0.4
			c0,0-0.1,0.1-0.1,0.3h0v-1.2l-0.1-0.8v-0.1c0,0,0.1-0.3-0.1-0.3l0-0.1l0-0.1c0,0,0-0.1,0-0.1c0.1-0.1-0.1-0.7-0.1-0.7
			c0,0-0.1,0.1-0.1,0.1c-0.2,0.3-0.1,0.8-0.1,1.1v0.2l-0.1,0.7v0.8c0,0-0.1,0.1-0.1,0.1v0.5l-0.2,0.3L36,16.6h0.1v-0.1H36v-0.3h0.2
			V16H36v-0.1h0.1v-0.1H36v-0.1h-0.1v0.1h-0.1v0.1h0.1V16h-0.2v0.1h0.2v0.3h-0.1v0.1h0.1l-0.3,0.6v-1.2c0,0,0.1,0,0.1-0.1
			c0,0,0-0.1-0.1-0.1h0v-0.3h0c0,0,0,0,0,0c0,0,0,0,0,0h0v-0.1h0v-0.2h0c0,0,0,0,0,0c0,0,0,0,0,0h0v-0.1h-0.1v0.1h0c0,0,0,0,0,0
			c0,0,0,0,0,0h0v0.2h0v0.1h0c0,0,0,0,0,0c0,0,0,0,0,0h0v0.3h0c0,0-0.1,0-0.1,0.1c0,0,0,0.1,0.1,0.1v1l-0.4-1.4h0.1v-0.1h-0.1v-0.3
			h0.2v-0.1h-0.2V15h0.1v-0.1h-0.1v-0.1h-0.1v0.1h-0.1V15h0.1v0.1h-0.2v0.1h0.2v0.3h-0.1v0.1h0.1l-0.3,0.7v-1.1c0,0,0.1,0,0.1-0.1
			c0,0,0-0.1-0.1-0.1h0v-0.3h0c0,0,0,0,0,0c0,0,0,0,0,0h0v-0.1h0v-0.2h0c0,0,0,0,0,0c0,0,0,0,0,0h0v-0.1h-0.1v0.1h0c0,0,0,0,0,0
			c0,0,0,0,0,0h0v0.2h0v0.1h0c0,0,0,0,0,0c0,0,0,0,0,0h0v0.3h0c0,0-0.1,0-0.1,0.1c0,0,0,0.1,0.1,0.1v1L34.1,15h0.1v-0.1h-0.1v-0.3
			h0.2v-0.1h-0.2v-0.1h0.1v-0.1h-0.1v-0.1H34v0.1H34v0.1H34v0.1h-0.2c0,0,0-0.1-0.1-0.1h0v-0.3h0c0,0,0,0,0,0c0,0,0,0,0,0h0v-0.1h0
			v-0.2h0c0,0,0,0,0,0c0,0,0,0,0,0h0v-0.1h-0.1v0.1h0c0,0,0,0,0,0c0,0,0,0,0,0h0v0.2h0V14h0c0,0,0,0,0,0c0,0,0,0,0,0h0v0.3h0
			c0,0-0.1,0-0.1,0.1c0,0,0,0.1,0,0.1v1L33.2,14h0.2v-0.1h-0.1v-0.3h0.2v-0.1h-0.2v-0.1h0.1v-0.1h-0.1v-0.1h-0.1v0.1h-0.1v0.1h0.1
			v0.1h-0.2v0.1h0.2v0.3H33V14h0.1l-0.2,0.6v-1.2c0,0,0.1,0,0.1-0.1c0,0,0-0.1-0.1-0.1h0V13h0c0,0,0,0,0,0c0,0,0,0,0,0h0v-0.1h0
			v-0.2h0c0,0,0,0,0,0s0,0,0,0h0v-0.1h-0.1v0.1h0c0,0,0,0,0,0s0,0,0,0h0v0.2h0v0.1h0c0,0,0,0,0,0c0,0,0,0,0,0h0v0.3h0
			c0,0-0.1,0-0.1,0.1c0,0,0,0.1,0,0.1v1l-0.3-1.1v-1.6c0,0,0.2-0.2,0-0.3V9.1V8.9l-0.1-0.1V8.6h-0.2v0.2L32,8.7l0-3.3L31.9,5
			c0,0,0.1-0.1,0.1-0.1c0-0.1,0-0.1-0.1-0.1c-0.1,0-0.1,0-0.1,0.1c0,0,0,0.1,0.1,0.1l-0.1,0.1l-0.1-0.2v-1l-0.1-0.6
			c0,0-0.1-0.6-0.1-0.6c0,0,0,0,0-0.1c0,0,0-0.1,0-0.1c0-0.1,0.1-0.7,0.1-0.7c0,0,0,0,0,0c0,0,0-0.2,0-0.2c0-0.1-0.1-0.1-0.1-0.1
			l0-0.1c0,0,0-0.1-0.1-0.1c-0.1,0-0.1,0.1-0.1,0.1c0,0.1-0.1,0.1-0.1,0.1c0,0.1,0,0.1,0,0.2c0,0.1,0,0.1,0,0.2c0,0.1,0,0.2,0,0.3
			c0,0,0,0,0,0c0,0,0,0,0,0c0,0.1,0,0.1,0,0.2c0,0,0,0.1,0,0.2l-0.1,0.6L31,4v0.9l-0.1,0.2L30.8,5c0,0,0.1-0.1,0.1-0.1
			c0-0.1,0-0.1-0.1-0.1c-0.1,0-0.1,0-0.1,0.1c0,0.1,0,0.1,0.1,0.1l-0.2,0.5l-0.1,3.2l-0.1,0.1h0V8.5h-0.1v0.3l-0.3,0.7v-4L29.8,5
			c0,0,0.1-0.1,0.1-0.1c0-0.1,0-0.1-0.1-0.1c-0.1,0-0.1,0-0.1,0.1c0,0,0,0.1,0,0.1l-0.1,0l0-1.1c0,0-0.2-0.7-0.2-0.7
			c0-0.1,0-0.2-0.1-0.3c0-0.1,0-0.1,0-0.2c0-0.1,0-0.1,0-0.2c0,0,0-0.1,0-0.1c0-0.1,0-0.2,0-0.3c0-0.1,0-0.2,0-0.3l0-0.1
			c0,0,0-0.2-0.1-0.3c0,0,0-0.1-0.1-0.1c0,0-0.1,0-0.1,0.1c0,0-0.1,0.1-0.1,0.4c0,0,0,0.4,0.1,0.5c0,0,0,0.1,0,0.1c0,0,0,0,0,0.1
			c0,0.1,0,0.1,0,0.2L29,3.3l-0.1,0.7V5l-0.1,0.1l0-0.1c0,0,0.1-0.1,0.1-0.1c0-0.1,0-0.1-0.1-0.1c-0.1,0-0.1,0-0.1,0.1
			c0,0,0,0.1,0.1,0.1l-0.2,0.5v2.9l-0.1,0.1V8.4h-0.1v0.2l-0.3,0.2l-0.1,0.5l-0.2,0.4V8.7c0,0,0.1,0,0.1-0.1c0,0,0-0.1-0.1-0.1h0
			V8.3h0c0,0,0,0,0,0c0,0,0,0,0,0h0V8.1h0V7.9h0c0,0,0,0,0,0c0,0,0,0,0,0h0V7.8h-0.1v0.1h0c0,0,0,0,0,0c0,0,0,0,0,0h0v0.2h0v0.1h0
			c0,0,0,0,0,0c0,0,0,0,0,0h0v0.3h0c0,0-0.1,0-0.1,0.1c0,0,0,0.1,0,0.1v1.1l-0.4-0.9h0.1V8.8h-0.1V8.5h0.2V8.3h-0.2V8.2h0.1V8.1
			h-0.1V8H27v0.1h-0.1v0.1H27v0.1h-0.2v0.1H27v0.3h-0.1v0.1H27l-0.2,0.6V8.3c0,0,0.1,0,0.1-0.1c0,0,0-0.1-0.1-0.1h0V7.9h0
			c0,0,0,0,0,0c0,0,0,0,0,0h0V7.8h0V7.6h0c0,0,0,0,0,0s0,0,0,0h0V7.4h-0.1v0.1h0c0,0,0,0,0,0s0,0,0,0h0v0.2h0v0.1h0c0,0,0,0,0,0
			c0,0,0,0,0,0h0v0.3h0c0,0-0.1,0-0.1,0.1c0,0,0,0.1,0,0.1v1.1l-0.3-1.2h0.1V8.1h-0.1V7.8h0.2V7.6h-0.2V7.5h0.1V7.4h-0.1V7.3h-0.1
			v0.1h-0.1v0.1h0.1v0.1h-0.2c0,0,0,0,0,0c0,0,0-0.1-0.1-0.1h0V7.3h0c0,0,0,0,0,0c0,0,0,0,0,0h0V7.1h0V6.9h0c0,0,0,0,0,0
			c0,0,0,0,0,0h0V6.8h-0.1v0.1h0c0,0,0,0,0,0c0,0,0,0,0,0h0v0.2h0v0.1h0c0,0,0,0,0,0c0,0,0,0,0,0h0v0.3h0c0,0-0.1,0-0.1,0.1
			c0,0,0,0.1,0.1,0.1v1.1l-0.3-1.2h0.1V7.5h-0.1V7.1h0.2V7h-0.2V6.9h0.1V6.8h-0.1V6.7h-0.1v0.1h-0.1v0.1h0.1V7h-0.2V6.9
			c0,0,0.1,0,0.1-0.1c0,0,0-0.1-0.1-0.1h0V6.5h0c0,0,0,0,0,0c0,0,0,0,0,0h0V6.3h0V6.2h0c0,0,0,0,0,0c0,0,0,0,0,0h0V6H25v0.1h0
			c0,0,0,0,0,0c0,0,0,0,0,0h0v0.2h0v0.1h0c0,0,0,0,0,0c0,0,0,0,0,0h0v0.2h0c0,0-0.1,0-0.1,0.1c0,0,0,0.1,0.1,0.1v1.1l-0.4-1.1h0.1
			V6.6h-0.1V6.1h0.2V5.9h-0.2V5.7h0.1V5.6h-0.1V5.4h-0.1v0.1h-0.1v0.1h0.1v0.2h-0.2v0.2h0.2v0.5h-0.1v0.2h0.1l0,0l-0.3,1.1V6.9
			c0,0,0.1,0,0.1-0.1c0,0,0-0.1-0.1-0.1h0V6.5h0c0,0,0,0,0,0c0,0,0,0,0,0h0V6.3h0V6.2h0c0,0,0,0,0,0c0,0,0,0,0,0h0V6H24v0.1h0
			c0,0,0,0,0,0c0,0,0,0,0,0h0v0.2h0v0.1h0c0,0,0,0,0,0c0,0,0,0,0,0h0v0.2h0c0,0-0.1,0-0.1,0.1c0,0,0,0.1,0,0.1V7h-0.2V6.9h0.1V6.8
			h-0.1V6.7h-0.1v0.1h-0.1v0.1h0.1V7h-0.2v0.1h0.2v0.3h-0.1v0.1h0.1l-0.3,1.2V7.7c0,0,0.1,0,0.1-0.1c0,0,0-0.1-0.1-0.1h0V7.3h0
			c0,0,0,0,0,0c0,0,0,0,0,0h0V7.1h0V6.9h0c0,0,0,0,0,0c0,0,0,0,0,0h0V6.8h-0.1v0.1h0c0,0,0,0,0,0c0,0,0,0,0,0h0v0.2h0v0.1h0
			c0,0,0,0,0,0c0,0,0,0,0,0h0v0.3h0c0,0-0.1,0-0.1,0.1c0,0,0,0,0,0H23V7.5H23V7.4H23V7.3h-0.1v0.1h-0.1v0.1h0.1v0.1h-0.2v0.1h0.2
			v0.3h-0.1v0.1h0.1l-0.3,1.2V8.3c0,0,0.1,0,0.1-0.1c0,0,0-0.1-0.1-0.1h0V7.9h0c0,0,0,0,0,0c0,0,0,0,0,0h0V7.8h0V7.6h0c0,0,0,0,0,0
			s0,0,0,0h0V7.4h-0.1v0.1h0c0,0,0,0,0,0s0,0,0,0h0v0.2h0v0.1h0c0,0,0,0,0,0c0,0,0,0,0,0h0v0.3h0c0,0-0.1,0-0.1,0.1
			c0,0,0,0.1,0.1,0.1v1.2l-0.2-0.6h0.1V8.8h-0.1V8.5h0.2V8.3h-0.2V8.2h0.1V8.1h-0.1V8H22v0.1h-0.1v0.1H22v0.1h-0.2v0.1H22v0.3h-0.1
			v0.1H22l-0.4,0.9V8.7c0,0,0,0,0-0.1c0,0,0-0.1-0.1-0.1h0V8.3h0c0,0,0,0,0,0c0,0,0,0,0,0h0V8.1h0V7.9h0c0,0,0,0,0,0c0,0,0,0,0,0h0
			V7.8h-0.1v0.1h0c0,0,0,0,0,0c0,0,0,0,0,0h0v0.2h0v0.1h0c0,0,0,0,0,0c0,0,0,0,0,0h0v0.3h0c0,0-0.1,0-0.1,0.1c0,0,0,0.1,0.1,0.1v1.2
			l-0.2-0.4l-0.1-0.5l-0.3-0.2V8.4h-0.1v0.1l-0.1-0.1V5.5L20.4,5c0,0,0.1-0.1,0.1-0.1c0-0.1,0-0.1-0.1-0.1c-0.1,0-0.1,0-0.1,0.1
			c0,0,0,0.1,0.1,0.1l0,0.1L20.2,5V3.9l-0.1-0.7c0,0-0.1-0.6-0.1-0.6c0,0,0-0.1,0-0.2c0,0,0,0,0-0.1c0,0,0,0,0-0.1c0,0,0,0,0-0.1
			C20,2.2,20,1.9,20,1.9c0-0.3-0.1-0.4-0.1-0.4c0-0.1-0.1-0.1-0.1-0.1c-0.1,0-0.1,0.1-0.1,0.1c-0.1,0.1-0.1,0.3-0.1,0.3l0,0.1
			c0,0.1,0,0.2,0,0.4c0,0,0,0.1,0,0.1c0,0.1,0,0.1,0,0.2c0,0.1,0,0.1,0,0.1c0,0,0,0,0,0.1l-0.1,0.6L19.5,4l0,1.1l-0.1,0
			c0,0,0,0,0-0.1c0-0.1,0-0.1-0.1-0.1c-0.1,0-0.1,0-0.1,0.1c0,0,0,0.1,0.1,0.1l-0.1,0.5v4l-0.3-0.7V8.5h-0.1v0.3h0l-0.1-0.1
			l-0.1-3.2L18.3,5c0,0,0.1,0,0.1-0.1c0-0.1,0-0.1-0.1-0.1c-0.1,0-0.1,0-0.1,0.1c0,0,0,0.1,0.1,0.1l-0.1,0.1l-0.1-0.2V4L18,3.4
			c0,0-0.1-0.6-0.1-0.6c0-0.1,0-0.1,0-0.2c0,0,0-0.1,0-0.1c0,0,0-0.1,0-0.1c0,0,0,0,0-0.1c0,0,0-0.1,0-0.1c0-0.1,0-0.2,0-0.2
			c0,0,0-0.1,0-0.1c0,0,0-0.1,0-0.1c0-0.1,0-0.1,0-0.2c0,0-0.1,0-0.1,0c0.1-0.1-0.1-0.2-0.1-0.2c-0.1,0-0.1,0.1-0.1,0.1s0,0.1,0,0.1
			c0,0-0.1,0.1-0.1,0.1c0,0.1,0,0.1,0,0.2c0.1,0,0,0.1,0,0.2c0,0.1,0,0.1,0,0.2c0,0.1,0,0.2,0,0.2c0,0.1,0,0.3,0,0.3l-0.1,0.6
			l-0.1,0.6v1l-0.1,0.2l0-0.1c0,0,0.1-0.1,0.1-0.1c0-0.1,0-0.1-0.1-0.1c-0.1,0-0.1,0-0.1,0.1c0,0,0,0.1,0.1,0.1l-0.1,0.5l0,3.3
			L17,8.8V8.6h-0.2v0.3l-0.1,0.1v0.2v2.2c-0.1,0.1,0,0.3,0,0.3v1.6l-0.3,1.1v-1c0,0,0.1,0,0.1-0.1c0,0,0-0.1-0.1-0.1h0V13h0
			c0,0,0,0,0,0c0,0,0,0,0,0h0v-0.1h0v-0.2h0c0,0,0,0,0,0s0,0,0,0h0v-0.1h-0.1v0.1h0c0,0,0,0,0,0s0,0,0,0h0v0.2h0v0.1h0c0,0,0,0,0,0
			c0,0,0,0,0,0h0v0.3h0c0,0-0.1,0-0.1,0.1c0,0,0,0.1,0.1,0.1v1.2L16,14h0.1v-0.1H16v-0.3h0.2v-0.1h-0.2v-0.1H16v-0.1h-0.1v-0.1h-0.1
			v0.1h-0.1v0.1h0.1v0.1h-0.2v0.1h0.2v0.3h-0.1V14h0.2l-0.4,1.5v-1c0,0,0,0,0-0.1c0,0,0-0.1-0.1-0.1h0v-0.3h0c0,0,0,0,0,0
			c0,0,0,0,0,0h0v-0.1h0v-0.2h0c0,0,0,0,0,0c0,0,0,0,0,0h0v-0.1h-0.1v0.1h0c0,0,0,0,0,0c0,0,0,0,0,0h0v0.2h0V14h0c0,0,0,0,0,0
			c0,0,0,0,0,0h0v0.3h0c0,0-0.1,0-0.1,0.1h-0.2v-0.1h0.1v-0.1h-0.1v-0.1h-0.1v0.1h-0.1v0.1h0.1v0.1h-0.2v0.1h0.2v0.3h-0.1V15h0.1
			l-0.4,1.3v-1c0,0,0.1,0,0.1-0.1c0,0,0-0.1-0.1-0.1h0v-0.3h0c0,0,0,0,0,0c0,0,0,0,0,0h0v-0.1h0v-0.2h0c0,0,0,0,0,0c0,0,0,0,0,0h0
			v-0.1h-0.1v0.1h0c0,0,0,0,0,0c0,0,0,0,0,0h0v0.2h0v0.1h0c0,0,0,0,0,0c0,0,0,0,0,0h0v0.3h0c0,0-0.1,0-0.1,0.1c0,0,0,0.1,0.1,0.1
			v1.1l-0.3-0.7h0.1v-0.1h-0.1v-0.3h0.2v-0.1h-0.2V15h0.1v-0.1h-0.1v-0.1H14v0.1H14V15H14v0.1h-0.2v0.1H14v0.3h-0.1v0.1H14l-0.4,1.4
			v-1c0,0,0.1,0,0.1-0.1c0,0,0-0.1-0.1-0.1h0v-0.3h0c0,0,0,0,0,0c0,0,0,0,0,0h0v-0.1h0v-0.2h0c0,0,0,0,0,0c0,0,0,0,0,0h0v-0.1h-0.1
			v0.1h0c0,0,0,0,0,0c0,0,0,0,0,0h0v0.2h0v0.1h0c0,0,0,0,0,0c0,0,0,0,0,0h0v0.3h0c0,0-0.1,0-0.1,0.1c0,0,0,0.1,0.1,0.1v1.2l-0.3-0.6
			h0.2v-0.1h-0.1v-0.3h0.2V16h-0.2v-0.1h0.1v-0.1h-0.1v-0.1h-0.1v0.1H13v0.1h0.1V16h-0.2v0.1h0.2v0.3H13v0.1h0.1l-0.2,0.5l-0.2-0.3
			v-0.5c0.1,0-0.1-0.1-0.1-0.1s0-0.7,0-0.8c0-0.2-0.1-0.4-0.1-0.7c0-0.5,0.2-0.9-0.1-1.4l-0.1-0.1l0,0l0,0v0.1l0,0.1
			c0,0.1,0,0.1,0,0.2c0,0,0,0.1,0,0.1c0,0.1,0,0.2,0.1,0.3l0,0.1l0,0.1c-0.1,0-0.1,0.3-0.1,0.3v0.1l-0.1,0.8v1.2h0
			c0-0.3-0.1-0.3-0.1-0.3c0-0.4-0.1-0.4-0.1-0.4c0-0.3-0.2-0.4-0.2-0.4c0-0.3-0.1-0.3-0.1-0.3v-1l0.1-0.1l0-0.1v-0.5l-0.1-0.2v-1.3
			l-0.1-0.6l0-0.1c0,0,0,0,0-0.1c0-0.1,0-0.1-0.1-0.1c-0.1,0-0.1,0-0.1,0.1c0,0,0,0,0,0l-0.1,0.1l0-1l0-0.8h-0.1
			c0-0.3-0.1-0.8-0.1-0.8l0,0c0,0,0-0.1,0-0.1c0,0,0-0.1,0-0.1c-0.1-0.1,0-0.2,0-0.4c0-0.1,0-0.2,0-0.3c0-0.1,0-0.2,0-0.2l0-0.1
			l0-0.1l-0.1-0.1c0-0.2-0.1-0.2-0.1-0.2c-0.1,0-0.1,0.2-0.1,0.2s0,0,0,0c-0.1,0,0,0.2,0,0.3c0,0,0,0.1,0,0.1c0,0.1,0,0.1,0,0.2
			c0,0.1,0,0.1,0.1,0.2c0,0.1,0,0.1,0,0.2c0,0.1,0,0.2,0,0.2l0,0.1l0,0.1c-0.1,0.2-0.1,0.9-0.1,0.9h-0.1l-0.1,0.8v1l-0.1-0.1
			c0,0,0-0.1,0-0.1c0-0.1,0-0.1-0.1-0.1c-0.1,0-0.1,0-0.1,0.1c0,0,0,0.1,0.1,0.1l-0.1,0.6v1.2l0,0.1V14h-0.1l0.1,0.1v1.1l-0.1,0.2
			l-0.1-0.1c0,0,0,0,0-0.1c0-0.1,0-0.1-0.1-0.1c-0.1,0-0.1,0-0.1,0.1c0,0,0,0.1,0,0.1v0.2l0,0v4.8l-0.2,0.9v-0.9c0,0,0.1,0,0.1-0.1
			c0,0,0-0.1-0.1-0.1h0V20h0c0,0,0,0,0,0c0,0,0,0,0,0h0v-0.1h0v-0.2h0c0,0,0,0,0,0s0,0,0,0h0v-0.1H9.6v0.1h0c0,0,0,0,0,0s0,0,0,0h0
			v0.2h0v0.1h0c0,0,0,0,0,0c0,0,0,0,0,0h0v0.3h0c0,0-0.1,0-0.1,0.1c0,0,0,0.1,0.1,0.1v1.1l-0.3-0.7h0.1v-0.1H9.3v-0.3h0.2v-0.1H9.3
			v-0.1h0.1V20H9.3V20H9.2V20H9.1v0.1h0.1v0.1H8.9v0.1h0.2v0.3H9v0.1h0.1l-0.4,1.7v-1.1c0,0,0,0,0-0.1c0,0,0-0.1-0.1-0.1h0V21h0
			c0,0,0,0,0,0c0,0,0,0,0,0h0v-0.1h0v-0.2h0c0,0,0,0,0,0c0,0,0,0,0,0h0v-0.1H8.7v0.1h0c0,0,0,0,0,0c0,0,0,0,0,0h0v0.2h0v0.1h0
			c0,0,0,0,0,0c0,0,0,0,0,0h0v0.3h0c0,0-0.1,0-0.1,0.1c0,0,0,0.1,0.1,0.1v1.1l-0.3-0.6h0.1v-0.1H8.3v-0.3h0.2v-0.1H8.3v-0.1h0.1
			v-0.1H8.3V21H8.2v0.1H8.2v0.1h0.1v0.1H8v0.1h0.2v0.3H8.1v0.1h0.1l-0.4,1.5v-0.9c0,0,0,0,0-0.1c0,0,0-0.1-0.1-0.1h0V22h0
			c0,0,0,0,0,0c0,0,0,0,0,0h0v-0.1h0v-0.2h0c0,0,0,0,0,0c0,0,0-0.1,0-0.1h0v-0.1H7.7v0.1h0c0,0,0,0,0,0.1c0,0,0,0,0,0h0v0.2h0v0.1h0
			c0,0,0,0,0,0c0,0,0,0,0,0h0v0.3h0c0,0-0.1,0-0.1,0.1c0,0,0,0.1,0,0.1v1l-0.2-0.7h0.1v-0.1H7.4v-0.3h0.2v-0.1H7.4V22h0.1v-0.1H7.4
			v-0.1H7.3v0.1H7.2V22h0.1v0.1H7.1v0.1h0.2v0.3H7.1v0.1h0.1l-0.4,1.7v-0.8c0,0,0.1,0,0.1-0.1c0,0,0-0.1-0.1-0.1h0v-0.3h0
			c0,0,0,0,0,0c0,0,0,0,0,0h0V23h0v-0.2h0c0,0,0,0,0,0c0,0,0,0,0,0h0v-0.1H6.8v0.1h0c0,0,0,0,0,0c0,0,0,0,0,0h0V23h0v0.1h0
			c0,0,0,0,0,0c0,0,0,0,0,0h0v0.3h0c0,0-0.1,0-0.1,0.1c0,0,0,0.1,0.1,0.1v1.1l-0.3-0.9h0.1v-0.1H6.4v-0.3h0.2v-0.1H6.4v-0.1h0.1V23
			H6.4v-0.1H6.3V23H6.2v0.1h0.1v0.1H6.1v0.1h0.2v0.3H6.2v0.1h0.1l-0.1,0.5H6.1v-0.3L6,23.8v-0.3c0.1,0,0-0.1,0-0.1v-0.1H5.9v0.1
			c-0.1,0,0,0.1,0,0.1c-0.1,0,0,0.1,0,0.1c-0.1,0,0,0.1,0,0.1v0.1c-0.1,0.1,0,0.2,0,0.2c-0.1,0.1,0,0.3,0,0.3H5.6v-0.1
			c0.2,0,0-0.2,0-0.2v-0.1c0-0.1-0.1-0.2-0.1-0.2v-0.5L5.3,22H5.3l0,0.1L5,19.7l0-0.4L5,18.6l-0.2-0.7c0,0,0,0,0-0.1
			c0-0.1,0-0.1-0.1-0.1c-0.1,0-0.1,0-0.1,0.1l0,0v-0.9l-0.1-0.8H4.5l-0.1-0.8l0-0.1l0-0.1l0-0.1c0-0.2,0-0.3,0-0.5l0-0.1l0-0.1
			c0.1-0.1,0.1-0.3,0.1-0.3c0-0.2-0.2-0.2-0.2-0.2v0l0-0.1c0-0.2-0.2-0.1-0.2-0.1v-0.1c-0.1-0.2-0.1,0-0.1,0c-0.1,0-0.1,0.2-0.1,0.2
			C3.9,14,4,14,4,14l0,0c0,0,0,0,0,0.1c0,0.1,0,0.1,0,0.1c0,0,0,0,0.1,0.1c0.1,0.1,0,0.2,0,0.3c0,0,0.1,0.2,0,0.3L4.2,15
			c-0.1,0.1,0,0.3,0,0.3L4,16.1H4l-0.1,0.8v0.9l0,0c0,0,0,0,0,0c0-0.1,0-0.1-0.1-0.1c-0.1,0-0.1,0-0.1,0.1c0,0,0,0.1,0,0.1h0
			l-0.1,0.8v1.1l0,0.2h0l-0.2-1.2c0,0,0.1-0.1,0.1-0.1c0-0.1,0-0.1-0.1-0.1c-0.1,0-0.1,0-0.1,0.1c0,0,0,0,0,0h0L3,18.6v-1.4
			C3,16.9,2.9,17,2.9,17l-0.1-0.6v-0.1l0-0.1l0-0.1l0-0.1c0,0,0-0.1,0-0.1c0,0,0-0.1,0-0.1c0-0.1,0-0.2,0-0.3c0-0.1,0-0.3,0-0.4
			c0-0.1-0.1-0.1-0.1-0.2c0-0.1,0-0.1-0.1-0.2c-0.1,0-0.1,0.1-0.1,0.2l0,0v0l0,0l0,0c-0.1,0.1,0,0.1,0,0.1c0,0.1,0,0.3,0,0.3
			c0,0.1,0,0.2,0.1,0.2c0,0.1,0,0.1,0,0.1c0,0.1,0,0.1,0,0.2c0,0.1-0.1,0.2,0,0.2l0,0.1L2.5,17l-0.1-0.8l-0.1,0l-0.1-0.8l0-0.1
			l0-0.1l0-0.1c0,0,0-0.1,0-0.1c0-0.1,0-0.1,0-0.2c0-0.1,0-0.1,0-0.2c0-0.1,0.1-0.2,0-0.3v-0.1c0.2,0,0-0.3,0-0.3l-0.1,0l0,0l0,0
			l0-0.1l0,0l0,0H2.1l0,0l0,0l0,0l0,0l0,0l0,0.1C2,14.1,2,14.2,2,14.2c-0.2,0.3,0,0.6,0,0.6c0,0.1,0,0.3,0,0.3c-0.1,0,0,0.1,0,0.1
			c0,0.1,0,0.3,0,0.3l0,0.1l-0.1,0.8H1.8l-0.1,0.8V18l-0.1,0c0-0.1,0-0.1-0.1-0.1C1.4,18,1.4,18,1.4,18.1"/>
		<path fill="#FFFFFF" d="M8.2,33.2c0-0.4-0.3-0.7-0.7-0.7H6.9c-0.4,0-0.7,0.3-0.7,0.7v3h2V33.2z"/>
		<path fill="#FFFFFF" d="M15.2,33.2c0-0.4-0.3-0.7-0.7-0.7h-0.5c-0.4,0-0.7,0.3-0.7,0.7v3h2V33.2z"/>
		<path fill="#FFFFFF" d="M15.2,26c0-0.4-0.3-0.7-0.7-0.7h-0.5c-0.4,0-0.7,0.3-0.7,0.7v3h2V26z"/>
		<path fill="#FFFFFF" d="M35.9,33.2c0-0.4-0.3-0.7-0.7-0.7h-0.5c-0.4,0-0.7,0.3-0.7,0.7v3h2V33.2z"/>
		<path fill="#FFFFFF" d="M35.7,26c0-0.4-0.3-0.7-0.7-0.7h-0.5c-0.4,0-0.7,0.3-0.7,0.7v3h2V26z"/>
		<path fill="#FFFFFF" d="M43,33.2c0-0.4-0.3-0.7-0.7-0.7h-0.5c-0.4,0-0.7,0.3-0.7,0.7v3h2V33.2z"/>
		<path fill="#FFFFFF" d="M24.6,22.5h0.5h0h0.9v-1.6h0l0,0v-2.3c0,0-0.3-2.1-1.5-2.4v0c0,0,0,0,0,0c0,0,0,0,0,0v0
			c-1.2,0.3-1.5,2.4-1.5,2.4v3.9H24.6L24.6,22.5z"/>
		<path fill="#FFFFFF" d="M24.2,27.7c-0.6,0-1,0.5-1,1v4.2H26v-4.2c0-0.6-0.5-1-1-1H24.2z"/>
	</g>
</g>
<g id="Layer_2" display="none">
</g>
<g id="Layer_3">
</g>
<g id="Layer_4">
</g>
</svg>
