<?xml version="1.0" encoding="utf-8"?>
<!-- Generator: Adobe Illustrator 18.1.0, SVG Export Plug-In . SVG Version: 6.00 Build 0)  -->
<!DOCTYPE svg PUBLIC "-//W3C//DTD SVG 1.1//EN" "http://www.w3.org/Graphics/SVG/1.1/DTD/svg11.dtd" [
	<!ENTITY ns_flows "http://ns.adobe.com/Flows/1.0/">
	<!ENTITY ns_extend "http://ns.adobe.com/Extensibility/1.0/">
	<!ENTITY ns_ai "http://ns.adobe.com/AdobeIllustrator/10.0/">
	<!ENTITY ns_graphs "http://ns.adobe.com/Graphs/1.0/">
]>
<svg version="1.1" xmlns:x="&ns_extend;" xmlns:i="&ns_ai;" xmlns:graph="&ns_graphs;"
	 xmlns="http://www.w3.org/2000/svg" xmlns:xlink="http://www.w3.org/1999/xlink" xmlns:a="http://ns.adobe.com/AdobeSVGViewerExtensions/3.0/"
	 x="0px" y="0px" viewBox="0 0 21 60.8" enable-background="new 0 0 21 60.8" xml:space="preserve">
<g id="Milan">
</g>
<g id="Layer_2" display="none">
</g>
<g id="Layer_3">
</g>
<g id="Layer_4">
	<path d="M18.9,60.8v-1.7l0.5-0.9l-0.8-0.7v-1.2c-0.4-0.4-2.4-2-2.4-2l-0.7-0.1c-0.3-0.7-0.3-1.6-0.4-1.7c-0.1-0.2-0.2-2.1-0.2-2.2
		s0.4-0.7,0.4-0.7s0-0.6,0-0.8s0.3-0.1,0.3-0.3s-0.1-2.9-0.1-3s0.2-0.5,0.2-0.6c0-0.1,0.4-0.2,0.4-0.3S16,43.5,16,43.5
		s0.3-0.2,0.3-0.3c0.1-0.2,0-0.3,0-0.8c-0.1-0.4-0.3-2.9-0.3-3.6c-0.1-0.8-0.3-2.4-0.3-2.4s0.3,0,0.5,0c0.2,0,0.7-0.5,0.8-0.6
		c0.1-0.1,0.3,0,0.7-0.3c0.3-0.3,0.7-1.9,0.8-2.4c0.1-0.5,0-1.3,0-1.3l0,0c0,0,0.4-0.3,0.6-0.3c0.2-0.1,0.3-0.5,0.4-0.8
		c0.1-0.3,0.7-1.4,0.7-1.7s-0.3-0.6-0.3-0.6l0.7-1l-0.3-0.3l0.3-0.4l-0.3,0l-2.3-1.3l0,0L17.8,26h-0.3l-0.8,1.2
		c-0.1-0.1-1.2-1-1.2-1c-0.1-0.3-0.5-1.8-0.7-2.2c-0.2-0.5-0.7-1.1-0.8-1.3s-0.5-0.1-0.6-0.2c-0.1,0,0-0.3,0-0.3
		c0-0.1-0.3-0.2-0.4-0.3c-0.2-0.2-0.5-1.4-0.6-1.6c0-0.2,0.3-0.3,0.3-0.4s-0.3-1.2-0.3-1.5c-0.1-0.3,0.1-1.4,0.1-1.4l2.9-0.4
		l-2.9-0.2c0-0.2-0.2-0.5-0.2-0.5l2.4-1.3L12,15.3c-0.2-0.3-0.5-0.5-0.5-0.5l1.3-2l-1.9,1.7c-0.2-0.2-0.8-0.3-0.8-0.3l-0.8-2.5
		l0.1,2.5c-0.3,0-0.8,0.3-0.8,0.3L6.1,13L8,15c-0.2,0.1-0.3,0.4-0.3,0.4l-2.2,0.1c0-0.3,0-0.5,0-0.8c0-0.6-0.6-2.3-0.8-2.8
		c-0.2-0.5-0.3-1.7-0.3-2c0-0.3,0-1.4-0.1-2.1S3.6,6.5,3.6,6.5s0-0.3,0.1-0.5C3.8,5.8,3.9,5.9,4,5.8C4,5.7,4,5.6,4,5.6
		s0.6-0.2,0.8-0.3C4.9,5.2,5.1,5,5.1,4.8c0-0.3-0.2-0.3-0.3-0.3c0-0.1-0.1-0.3-0.1-0.4c0-0.1,0.3-0.1,0.3-0.3c0-0.1,0-0.3-0.3-0.4
		c-0.3-0.1-1-0.3-1-0.3V2.9c0,0,0.2-0.2,0.3-0.3C4.1,2.4,4.1,2,4.2,1.9c0.1-0.3,0.3-0.3,0.3-0.6C4.5,1,4.4,0.9,4.4,0.9
		C4.1,1,3.8,1.4,3.8,1.4s0-0.3,0-0.5S3.6,0.7,3.5,0.8C3.3,0.9,2.9,1.1,2.7,1.2C2.5,1.3,2.2,1.5,2,1.7C1.9,2,1.9,2.2,1.9,2.5
		S2,2.9,2,2.9v0.3C1.3,3.2,0.9,3.6,0.8,3.6c-0.1,0.1,0,0.3,0,0.3C0.9,4.1,1,4.4,0.9,4.5c0,0.1-0.3,0-0.2,0.5c0.2,0.5,1,0.6,1,0.6
		S1.7,5.7,1.7,5.8C1.7,5.9,1.9,6,1.9,6v0.4c0,0.1-0.2,0.2-0.3,0.3c-0.1,0.1,0,0.2,0,0.3s0.1,0.1,0,0.2c-0.1,0.1,0,0.2,0,0.3
		c0,0.1,0.3,0.3,0.3,0.3H1.7c0,0,0,0.3,0.1,0.5C1.9,8.4,2,9,2,9s0,0.3,0,0.3S1.8,9.7,1.9,9.9c0,0.2,0.3,0.3,0.3,0.3
		c0,0.1,0,0.4,0.1,0.7c0.1,0.2,0.3,0.4,0.3,0.4c0,0.2,0.1,1.9,0.1,2.1c0,0.3,0.1,1.2,0.2,1.5c0.1,0.3,0.4,1,0.4,1.3
		c0.1,0.3,0.2,1.2,0.2,1.2c-0.3,0.4-0.9,1.8-1.1,2.4s0,1.9,0.3,2.1c0.3,0.2,0.8,0.3,0.8,0.3c-0.1,0.1-0.1,0.2-0.2,0.3
		c-0.1,0.2,0,0.6,0.1,0.8c0.1,0.2,0.4,0.1,0.5,0.3c0.2,0.2,0,0.8,0,1C3.8,24.7,4,25,4,25.3c0,0.3-0.3,0.8-0.3,1
		c0,0.3,0.3,0.6,0.5,0.8c0.2,0.2,0.3,0.5,0.3,0.5c-0.4,0.5-0.9,1.6-1.1,2S3,31.1,3,31.6s0.3,1.1,0.5,1.3S4,33.2,4,33.2
		c0,0.3-0.4,1.3-0.6,1.8c-0.2,0.3-0.2,1.9-0.1,2c0,0.2,0.3,0.8,0.4,1.1C3.9,38.5,4,40.4,4,40.9c0.1,0.4-0.1,1-0.1,1.3
		S3.9,43,3.9,43.4c0.1,0.4,0.3,0.5,0.3,0.5c0,0.1-0.2,0.5-0.3,0.7C3.8,44.8,4,47.9,4,48.3c0.1,0.4,0.4,1.5,0.4,1.8
		c0,0.2-0.3,0.5-0.3,0.6s0.1,0.2,0.1,0.3c0,0.1,0,0.6,0.1,0.9c0,0.3,0.2,0.3,0.2,0.3c-0.1,0.1-0.2,0.8-0.2,1c0,0.3-0.2,0.4-0.2,0.4
		s-0.3,0.1-0.9,0.1s-1,0.6-1,0.6v0.1l-0.7,0.3v1.5l-0.9,0.4l0.5,1.1v1.2l-0.5,0.5l0.1,1.5H18.9z M7.6,17.3c0,0.1-0.2,0.7-0.1,0.8
		c0,0.2,0.3,0.3,0.3,0.3c-0.2,0.1-0.6,0.8-0.6,0.8s-0.3-0.3-0.5-0.5c-0.2-0.2-0.2-0.7-0.2-0.9c0-0.2-0.2-0.5-0.3-0.8h1.3
		C7.6,17,7.7,17.1,7.6,17.3z M7.5,16c0,0.2,0,0.4,0,0.4l-1.3,0.4c0-0.1-0.1-0.2-0.1-0.2C6,16.4,5.5,16.1,5.4,16c0,0,0-0.2-0.1-0.4
		L7.5,16z"/>
</g>
</svg>
