<?xml version="1.0" encoding="utf-8"?>
<!-- Generator: Adobe Illustrator 16.0.3, SVG Export Plug-In . SVG Version: 6.00 Build 0)  -->
<!DOCTYPE svg PUBLIC "-//W3C//DTD SVG 1.1//EN" "http://www.w3.org/Graphics/SVG/1.1/DTD/svg11.dtd">
<svg version="1.1" id="Warstwa_1" xmlns="http://www.w3.org/2000/svg" xmlns:xlink="http://www.w3.org/1999/xlink" x="0px" y="0px"
	 width="300px" height="208.696px" viewBox="0 0 300 208.696" enable-background="new 0 0 300 208.696" xml:space="preserve">
<g>
	<title>Layer 1</title>
	<g id="Layer_1">
		<g id="svg_4">
			<path id="svg_5" fill="#FFFFFF" d="M299.361,2.625c-0.64-1.286-1.281-1.925-2.572-1.925c-0.64,0-1.278,0-1.278,0l-67.412,8.344
				c-1.924,0-3.209,1.925-2.565,3.853c0,1.925,1.28,2.567,3.211,2.567c0,0,0,0,0.64,0l57.138-7.705l-105.926,95.656l4.49,4.492
				l105.925-95.653l-14.118,55.21c-0.642,1.924,0.639,3.21,2.569,3.853h0.64c1.278,0,2.569-0.643,3.208-2.571L300,3.91l0,0l0,0
				C299.361,3.91,299.361,2.625,299.361,2.625z"/>
			<g id="svg_6">
				<polygon id="svg_7" fill="#FFFFFF" points="247.358,208.696 106.125,208.696 106.125,22.526 199.21,22.526 192.79,28.946 
					112.545,28.946 112.545,202.276 240.938,202.276 240.938,99.563 247.358,93.143 				"/>
			</g>
		</g>
	</g>
	<g id="Board">
	</g>
	<g id="Layer_7">
	</g>
	<g id="Export">
	</g>
	<g id="Share">
	</g>
	<g id="Information">
	</g>
	<g id="Account">
	</g>
</g>
</svg>
