<?xml version="1.0" encoding="utf-8"?>
<!-- Generator: Adobe Illustrator 16.0.3, SVG Export Plug-In . SVG Version: 6.00 Build 0)  -->
<!DOCTYPE svg PUBLIC "-//W3C//DTD SVG 1.1//EN" "http://www.w3.org/Graphics/SVG/1.1/DTD/svg11.dtd">
<svg version="1.1" id="Warstwa_1" xmlns="http://www.w3.org/2000/svg" xmlns:xlink="http://www.w3.org/1999/xlink" x="0px" y="0px"
	 width="300px" height="208.696px" viewBox="0 0 300 208.696" enable-background="new 0 0 300 208.696" xml:space="preserve">
<g id="Layer_1">
	<path fill="#FFFFFF" d="M300,208.695H53.486V28.428v-3.821c0-14.014,0-24.206,20.383-24.206h59.24
		c12.103,0,19.11,9.554,26.116,19.109c7.007,8.917,13.377,17.835,24.205,18.473h91.727c19.747,0,24.843,15.288,24.843,23.568
		V208.695z M59.856,202.325H293.63V61.552c0-1.911-0.638-17.198-18.473-17.198h-92.363c-14.013-0.637-21.657-11.466-28.663-21.021
		c-6.371-8.917-12.103-16.562-21.021-16.562H73.87c-14.014,0-14.014,3.822-14.014,17.836v3.821V202.325z"/>
</g>
<g id="Account">
</g>
</svg>
