<?xml version="1.0" encoding="utf-8"?>
<!-- Generator: Adobe Illustrator 18.1.1, SVG Export Plug-In . SVG Version: 6.00 Build 0)  -->
<!DOCTYPE svg PUBLIC "-//W3C//DTD SVG 1.1//EN" "http://www.w3.org/Graphics/SVG/1.1/DTD/svg11.dtd" [
	<!ENTITY ns_flows "http://ns.adobe.com/Flows/1.0/">
	<!ENTITY ns_extend "http://ns.adobe.com/Extensibility/1.0/">
	<!ENTITY ns_ai "http://ns.adobe.com/AdobeIllustrator/10.0/">
	<!ENTITY ns_graphs "http://ns.adobe.com/Graphs/1.0/">
]>
<svg version="1.1" xmlns:x="&ns_extend;" xmlns:i="&ns_ai;" xmlns:graph="&ns_graphs;"
	 xmlns="http://www.w3.org/2000/svg" xmlns:xlink="http://www.w3.org/1999/xlink" xmlns:a="http://ns.adobe.com/AdobeSVGViewerExtensions/3.0/"
	 x="0px" y="0px" viewBox="0 0 31.4 36.8" enable-background="new 0 0 31.4 36.8" xml:space="preserve">
<g id="Layer_1">
</g>
<g id="Board">
</g>
<g id="Layer_7">
</g>
<g id="Export">
</g>
<g id="Share">
	<path fill="#FFFFFF" d="M16.1,22.2c-5.6,0-10.2-4.6-10.2-10.2C5.8,6.4,10.4,1.8,16,1.8c0,0,0,0,0,0c5.6,0,10.2,4.6,10.2,10.2l-1,0
		c0-5.1-4.1-9.2-9.2-9.2c0,0,0,0,0,0C11,2.8,6.8,7,6.9,12.1c0,5.1,4.1,9.2,9.2,9.2c0,0,0,0,0,0L16.1,22.2
		C16.1,22.2,16.1,22.2,16.1,22.2z"/>
	<path fill="#FFFFFF" d="M16.3,34.3c-0.1,0-0.2,0-0.3,0l-0.5,0C10,34.1,5.7,29.5,5.9,24l0-0.9l1,0l0,0.9c-0.2,4.9,3.7,9.1,8.7,9.2
		l0.5,0c2.4,0.1,4.7-0.8,6.4-2.4c1.7-1.6,2.7-3.9,2.8-6.2l0-0.5c0.2-4.9-3.7-9.1-8.7-9.2l-0.9,0l0-1l0.9,0c5.5,0.2,9.8,4.8,9.6,10.3
		l0,0.5c-0.1,2.7-1.2,5.1-3.1,6.9C21.3,33.4,18.9,34.3,16.3,34.3z"/>
</g>
<g id="Information">
</g>
<g id="Account">
</g>
</svg>
