<?xml version="1.0" encoding="utf-8"?>
<!-- Generator: Adobe Illustrator 18.1.1, SVG Export Plug-In . SVG Version: 6.00 Build 0)  -->
<!DOCTYPE svg PUBLIC "-//W3C//DTD SVG 1.1//EN" "http://www.w3.org/Graphics/SVG/1.1/DTD/svg11.dtd" [
	<!ENTITY ns_flows "http://ns.adobe.com/Flows/1.0/">
	<!ENTITY ns_extend "http://ns.adobe.com/Extensibility/1.0/">
	<!ENTITY ns_ai "http://ns.adobe.com/AdobeIllustrator/10.0/">
	<!ENTITY ns_graphs "http://ns.adobe.com/Graphs/1.0/">
]>
<svg version="1.1" xmlns:x="&ns_extend;" xmlns:i="&ns_ai;" xmlns:graph="&ns_graphs;"
	 xmlns="http://www.w3.org/2000/svg" xmlns:xlink="http://www.w3.org/1999/xlink" xmlns:a="http://ns.adobe.com/AdobeSVGViewerExtensions/3.0/"
	 x="0px" y="0px" viewBox="0 0 35.4 26.1" enable-background="new 0 0 35.4 26.1" xml:space="preserve">
<g id="Layer_1">
</g>
<g id="Board">
</g>
<g id="Layer_7">
</g>
<g id="Export">
</g>
<g id="Share">
</g>
<g id="Information">
</g>
<g id="Account">
	<g>
		<path d="M10.9,0.8l-5.7,0c-2.3,0-2.9,1-2.9,3.1l0,21.1l28.1-0.5c0.4,0,0.3-0.5,0.3-0.9l0.4-15.6c0,0-0.2-2.5-2.9-2.5
			c-0.7,0-11.1,0-11.1,0C14.1,5.3,13.6,0.8,10.9,0.8L10.9,0.8z"/>
		<path fill="#FFFFFF" d="M1.8,25.5l0-21.6c0-2.1,0.6-3.6,3.4-3.6h5.7c1.5,0,2.4,1.2,3.3,2.4c0.8,1.1,1.6,2.2,2.9,2.2l11.1,0
			c2.5,0,3.3,1.9,3.4,3l-0.4,15.7l0,0.1c0,0.3,0,0.8-0.3,1c-0.1,0.1-0.3,0.2-0.5,0.2L1.8,25.5z M5.2,1.3c-1.9,0-2.4,0.6-2.4,2.6
			l0,20.5L30.2,24c0-0.1,0-0.2,0-0.2l0-0.2l0.4-15.6c0-0.1-0.3-2-2.4-2l-11.1,0c-1.8-0.1-2.8-1.4-3.7-2.6c-0.8-1.1-1.4-2-2.5-2H5.2z
			"/>
	</g>
	<g>
		<path fill="#020202" d="M2.3,25c0.5-3.3,0.3-1.6,0.4-2.5l2.8-10.6c0.3-0.9,0.9-1.5,1.7-1.5l25.2,0c1.1,0,1.6,0.6,1.4,1.7
			l-3.1,12.5C30.3,24.6,2.3,25,2.3,25z"/>
		<path fill="#FFFFFF" d="M1.7,25.5L1.8,25C2,23.7,2.1,23,2.2,22.7l0,0c0,0,0-0.1,0-0.2L5,11.8c0.4-1.1,1.2-1.8,2.2-1.9l25.2,0
			c0.7,0,1.2,0.2,1.6,0.6c0.3,0.4,0.5,1,0.3,1.7l-3.2,12.9h-0.4c-0.4,0-28.1,0.4-28.4,0.4L1.7,25.5z M3.1,23c0,0.1-0.1,0.4-0.2,1.5
			c3.9-0.1,24.3-0.3,27.4-0.4l3-12.1c0-0.3,0.1-0.6-0.1-0.9c-0.2-0.2-0.5-0.2-0.8-0.2l-25.2,0c-0.5,0-1,0.5-1.2,1.2L3.2,22.7
			C3.2,22.8,3.2,22.9,3.1,23z"/>
	</g>
</g>
</svg>
