<?xml version="1.0" encoding="utf-8"?>
<!-- Generator: Adobe Illustrator 16.0.3, SVG Export Plug-In . SVG Version: 6.00 Build 0)  -->
<!DOCTYPE svg PUBLIC "-//W3C//DTD SVG 1.1//EN" "http://www.w3.org/Graphics/SVG/1.1/DTD/svg11.dtd">
<svg version="1.1" id="Warstwa_1" xmlns="http://www.w3.org/2000/svg" xmlns:xlink="http://www.w3.org/1999/xlink" x="0px" y="0px"
	 width="382.68px" height="382.68px" viewBox="0 0 382.68 382.68" enable-background="new 0 0 382.68 382.68" xml:space="preserve">
<g>
	<path fill="#E6E6E6" d="M335.289,131.625c-2.959-0.873-1.92-0.873-2.959-1.568c-1.049-0.698-1.049,2.263-1.572,2.44
		c-0.521,0.171-1.57-0.351-1.57-2.44c0-2.095-1.037-0.698-1.742-1.222c-0.695-0.525-1.914-1.745-3.488-2.09
		c-1.563-0.35-3.656-2.27-6.098-3.487c-2.443-1.219-4.705-1.918-7.148-1.569c-2.441,0.35-4.186-0.521-6.975-1.044
		c-2.785-0.526-0.521,1.044,0.174,2.961c0.703,1.916-1.918,0.699-4.01,0.175c-2.088-0.523,1.92-1.566,1.051-2.788
		c-0.875-1.221-1.395,0.696-2.27,0.873c-0.869,0.173-2.268,0.349-3.66,0.695c-1.395,0.347-1.918,0-4.531-0.522
		s-1.395,0.695-2.44,0.176c-1.047-0.526-1.571,0-3.312-0.176c-1.742-0.173-0.701-1.57-1.566-3.138
		c-0.874-1.571-5.928-1.571-8.02-1.047c-2.096,0.524-3.492,0.7-4.533,0c-1.049-0.698-1.919-0.698-3.837-1.22
		c-1.916-0.522,1.048-1.222-0.171-2.266c-1.223-1.045-5.234-0.523-7.67-1.572c-2.443-1.044-7.674-1.741-7.674-0.869
		c0,0.869-1.564,0.524-3.313,0.869c-1.742,0.353,0.354,1.572-0.172,2.792c-0.523,1.219-2.795,1.567-3.311,1.567
		c-0.524,0-2.095-0.522-3.666-1.044c-1.565-0.523-1.395,0.522-3.482,0.347c-2.098-0.171-0.697-2.441-2.441-1.219
		c-1.743,1.219-2.963,2.965-4.184,2.439c-1.219-0.523-0.873-1.392-1.742-2.79c-0.877-1.396,0.869-1.74-0.177-3.66
		c-1.045-1.918-5.23-2.265-8.717-2.614c-3.485-0.35-3.137,2.266-7.493,2.439c-4.357,0.174,0.699-1.744-1.918-1.916
		c-2.613-0.175-7.496,0.521-8.369,0.695c-0.871,0.175-0.344-1.045-1.215-1.393c-0.875-0.348-2.964-1.046-3.49,0
		c-0.523,1.046-3.664,1.046-5.574,1.915c-1.922,0.874-4.363,0.699-3.314,0c1.045-0.696,8.888-5.751,10.631-6.097
		c1.747-0.351,2.79-1.399,2.267-2.616c-0.52-1.222-7.674-3.835-8.714-3.661c-1.046,0.173-1.917-1.396-4.011-1.045
		c-2.092,0.347-0.519-1.57-1.395-2.267c-0.871-0.698-5.233,0.522-6.799,1.045c-1.569,0.522-1.915,1.569-2.266,2.616
		c-0.349,1.046-4.706,1.392-5.751,1.569c-1.049,0.172-2.613-0.523-4.01,0c-1.396,0.522-3.14,0.698-5.231,1.567
		c-2.091,0.872-5.577,1.394-7.321,1.745c-1.742,0.349-1.395,1.919-2.617,4.184c-1.219,2.265-6.101,1.221-7.491,1.046
		c-1.395-0.176-4.535-0.176-3.313,2.091c1.222,2.263,3.484,3.312,5.402,5.056c1.921,1.741-1.218,4.53-2.089,4.183
		c-0.87-0.349-0.526-2.964-0.526-2.964s-1.916-2.439-2.44-2.79c-0.523-0.345-2.612-1.566-5.053-1.044
		c-2.443,0.521,0.521,4.706,0.521,4.706s-2.096-0.349-2.964-0.523c-0.872-0.173-2.962-0.349-1.743-2.44
		c0.688-1.179-0.335-2.355-1.113-3.036c0.465,0.9-0.654,2.422-1.677,2.865c-1.217,0.521-1.394,1.914-0.519,3.309
		c0.868,1.393-1.048,2.265-0.353,3.663c0.699,1.392,3.315,1.045,6.103,1.741c2.791,0.695,2.091,4.705,0.699,4.183
		c-1.396-0.523-0.699-1.395-1.221-2.615c-0.524-1.22-1.571,0-2.964-0.35c-1.396-0.346-1.918,0.176-1.222,1.571
		c0.697,1.395,0,1.916-0.696,3.136c-0.699,1.224-1.917,2.268-3.833,2.964c-1.918,0.696-5.405-1.218-3.136-0.872
		c2.264,0.35,3.307-2.44,4.88-4.185c1.567-1.74-1.398-1.917-0.873-3.833c0.52-1.918,0-1.569,0-4.531
		c0-2.965-0.871-2.615,0.173-4.182c1.047-1.572,0.522-4.012-1.568-3.14c-2.093,0.872-2.266-0.872-4.881,0.522
		c-2.614,1.396-0.349,2.962-1.918,3.485c-1.568,0.526-3.484,0.526-1.918,1.918c1.569,1.397,0.35,2.266,0,3.663
		c-0.349,1.393,2.789,1.741,3.487,2.788c0.698,1.045,0,2.439-1.047,2.439c-1.043,0-3.311-2.09-5.4-3.136
		c-0.234-0.116-0.463-0.204-0.694-0.286c0.176,1.283,0.694,0.286,0.866,1.508c0.173,1.216-0.522,2.264,0.699,2.613
		c1.219,0.35,0,2.265,0,2.265s-1.047,1.224-1.566,1.746c-0.527,0.522-2.967,2.092-4.011,2.612c-1.051,0.523-2.617,1.748-3.488,2.616
		c-0.873,0.873-1.393,2.443-1.568,3.485c-0.173,1.05-0.698,4.361-1.047,5.926c-0.347,1.571-2.788,1.047-3.66,1.397
		c-0.871,0.349-3.487,1.741-6.103,4.708c-2.612,2.963,0.349,1.741,0.349,3.485s0,1.744,0.522,3.31c0.524,1.57,0,1.919,0,2.615
		c0,0.698-0.698,2.617-1.567,3.141c-0.872,0.522-1.045,1.393-2.615,2.438c-1.57,1.045,0,4.187,0,4.187c-0.52,0.695-2.44,0-2.44,0
		l-0.871,1.22c0,0-0.177,2.264-0.872,2.264c-0.698,0-3.663-1.395-3.663-1.395s0,1.395-1.042,2.438c-1.047,1.048,0,2.269,0,2.269
		l1.566,1.392l1.219-1.042c0,0,1.395,0.696,1.395,1.567s0,1.743,0.699,2.443c0.697,0.702,1.745,1.045,2.397,2.101
		c0.661,1.055,0.741,0.513,0,1.383c-0.735,0.871-1.7,1.223-0.829,2.095c0.871,0.87,4.357,2.613,4.183,3.133
		c-0.173,0.528-0.35,1.921-0.869,3.489c-0.525,1.568,0.52,2.092,1.043,2.441c0.523,0.348,1.223,1.219,1.223,1.219l0.871,4.302
		l-0.351,1.624c0,0-4.356,0.173-5.271,0c-0.91-0.175-2.397-1.743-3.444-2.441c-1.047-0.693,0-1.693,0-1.693s0.06-1.032,0.524-1.616
		c0.466-0.58,1.162-1.978,0.933-2.556c-0.235-0.585-1.283-1.747-1.457-2.209c0,0-0.035-0.053-0.092-0.146
		c-0.256-0.256-0.821-0.055-1.126,0.146c-0.347,0.232-0.115,1.16-1.514,0.348c-1.39-0.812-3.132-2.675-3.713-2.784
		c-0.584-0.123-2.444-0.586-2.79-0.586c-0.348,0-1.627-0.695-1.975-0.929c-0.35-0.232-2.324,0.233-2.907,0
		c-0.583-0.232-2.211-0.067-2.211-0.067s1.396,1.112,1.862,1.347c0.463,0.235,1.16,1.435,1.16,1.435l-0.022,1.582
		c-1.295,0.366-2.921,0.83-3.232,0.935c-0.524,0.172-2.789,0.172-4.009,0c-1.217-0.175-1.746-1.047-2.09-1.57
		c-0.349-0.524-2.615-0.872-3.489-0.872c-0.871,0-1.394-0.175-2.791,0c-1.394,0.177-0.521,0.872-1.565,1.842
		c-1.049,0.966-1.221,0.076-1.917,0.076c-0.698,0-0.698-0.175-1.725,0c-1.022,0.175-2.113,0.869-2.284,1.743
		c-0.174,0.873-4.534,0-4.534,0c1.745,0.696,0.696,1.046,0.696,2.438c0,1.397,0.522,2.094,1.048,3.139
		c0.52,1.048,0.871,2.789,3.485,2.614c2.614-0.173,4.009-0.348,5.923,0.352c1.922,0.694,3.49,0.173,5.058-0.352
		c1.096-0.363,1.254-0.036,1.37,0.779c0.047,0.352,0.095,0.785,0.199,1.315c0.35,1.744-2.266,4.704-2.616,6.449
		c-0.349,1.741-2.262,1.914-2.262,1.914h-1.164c0,0,0.316,2.029,0.818,4.229c0.054,0.048,0.114,0.09,0.167,0.135
		c1.572,1.219,1.396,1.392,2.44,0.873c1.046-0.528,1.745-0.528,2.268,0.869c0.523,1.394,0.697,3.486,2.615,5.578
		c1.918,2.093,2.09,2.966,2.439,4.532c0.349,1.568,0.172,1.743,2.09,3.139c1.921,1.392,3.488,5.751,5.578,9.413
		c2.095,3.661,0.873,3.834,1.394,5.4c0.525,1.572,3.838-1.916,5.928-1.217c2.093,0.692,4.01-1.92,6.278-1.92
		c2.264,0,0.869-2.264,2.091-2.093c1.22,0.179,2.09-0.347,2.788-1.39c0.696-1.048,1.217-1.748,3.488-1.57
		c2.267,0.173,3.662-2.265,3.833-2.789c0.175-0.525,1.221-2.267,1.741-2.789c0.527-0.523,1.745-0.873,2.094-1.394
		c0.349-0.525-1.045-3.664-1.918-4.706c-0.871-1.047-1.917-0.876-2.965-1.224c-1.044-0.349-1.393-2.614-1.564-2.094
		c-0.177,0.522-4.185,2.094-4.185,2.094s-1.747,1.045-2.792,1.045s-0.868-1.394-1.394-2.266c-0.524-0.873,0-1.742-0.524-3.139
		c-0.522-1.394-1.563,0.697-2.09,0c-0.523-0.696-2.442-3.136-2.789-4.01c-0.349-0.871,1.218-1.39,1.917-2.265
		c0.697-0.869,2.268,0.526,2.962,2.092c0.699,1.57,2.443,1.92,2.617,2.964c0.171,1.045,3.135,2.093,5.056,1.572
		c1.918-0.527,2.439-1.225,3.833,0c1.392,1.22,1.917,1.392,1.917,1.392s3.66,0.87,4.881,1.394c0.269,0.114,0.781,0.169,1.413,0.185
		c2.252,0.053,6.139-0.397,6.954-0.535c1.049-0.173,2.615,1.748,4.011,2.967c1.393,1.22,3.836,1.916,3.836,1.916l-2.618,0.876
		c0,0,0.698,1.217,1.221,1.913c0.523,0.699,2.963,0.699,3.661,0.35c0.698-0.35,1.571-2.263,1.571-1.397
		c0,0.877,0.692,2.271,0.524,3.664c-0.178,1.396,0,4.185,0.694,5.755c0.696,1.568,0.873,3.657,1.571,5.578
		c0.698,1.914,2.09,3.312,2.614,4.003c0.523,0.7,2.438,6.628,2.964,6.628c0.521,0,1.917-1.918,2.438-2.267
		c0.524-0.35,1.222-1.045,1.742-3.312c0.525-2.266,1.221-2.966,1.045-4.884c-0.17-1.917,0-1.394,0.353-2.612
		c0.345-1.221,0.696-0.696,1.567-2.267c0.868-1.57,3.482-1.916,4.182-1.739c0.699,0.169,0.527-1.749,1.048-2.793
		c0.523-1.046,1.392-2.962,3.659-2.091c2.269,0.87,1.394-1.048,1.919-1.744c0.524-0.695,0.524-0.695,1.394-1.92
		c0.873-1.215,1.569,0.177,2.093,0.352c0.524,0.173,1.57,0.173,2.962-1.217c1.392-1.398,2.092,0.694,2.618,2.438
		c0.519,1.741,2.437,3.66,3.657,4.879c1.22,1.22,0,3.663,1.22,4.011c1.219,0.347,2.096-0.87,2.79-1.222
		c0.701-0.349,1.568,3.488,2.79,5.059c1.22,1.568-0.349,2.612-1.046,2.785c-0.701,0.177-0.352,3.139,0.697,5.232
		c1.046,2.093,1.222,5.578,3.139,5.578c1.917,0,1.917,5.051,3.138,7.496c1.219,2.439,5.401,1.566,4.358,0.869
		c-1.048-0.696-0.528-3.485-0.697-5.23c-0.176-1.743-1.395-1.743-2.092-2.267c-0.701-0.521-2.791-2.438-3.66-3.312
		c-0.875-0.869-0.524-6.624-0.524-8.19c0-1.568,1.919-0.522,2.437-0.522c0.525,0,1.747,1.394,2.444,2.439
		c0.697,1.045,2.437,0.872,2.962,1.918c0.521,1.048,1.043,4.181,1.395,3.137c0.349-1.048,1.745-2.616,2.967-2.616
		c1.217,0,2.085-1.566,2.612-2.093c0.521-0.523,2.092-2.263,2.092-3.309c0-1.049-1.046-3.139-2.265-4.357
		c-1.222-1.22-2.616-3.663-3.487-4.882c-0.872-1.221,1.048-3.486,1.219-4.012c0.178-0.524,2.268-2.087,4.008-1.916
		c1.743,0.177,2.267,2.441,2.267,0.872c0-1.568,3.66-2.785,5.23-2.442c1.566,0.352,3.484-0.343,3.484-0.343l6.277-4.713
		c0,0,1.396-2.61,1.565-3.137c0.177-0.521,2.613-2.614,3.315-3.833c0.694-1.219-1.047-1.918-1.047-1.918s-0.17-1.221,0.521-2.09
		c0.698-0.872,1.397-0.872,1.397-0.872s-1.222-2.269-1.397-3.664c-0.177-1.392-1.219-2.266-2.613-2.438
		c-1.395-0.176-0.346-1.046-0.346-2.614c0-1.57,1.045-1.57,2.609-2.443c1.569-0.867,2.617-0.173,2.094-1.566
		c-0.524-1.397-1.568-0.873-2.963-0.524c-1.395,0.35-1.914,1.397-2.963,0.87c-1.047-0.521-1.047-0.695-1.047-2.612
		c0-1.92,1.57-0.872,3.139-2.791c1.568-1.916,2.439-1.216,3.31-0.521c0.873,0.696-1.569,1.916-0.347,2.265
		c1.22,0.35,1.22-0.694,4.356-1.394c3.143-0.696,1.397,1.394,1.048,1.918c-0.35,0.522,0.873,1.741,1.916,2.09
		c1.051,0.35,1.051,2.093,1.22,3.312c0.177,1.221-1.041,4.884-0.697,4.185c0.349-0.696,0.697-1.046,3.317-1.219
		c2.613-0.173,2.959-1.568,3.132-3.487c0.176-1.92-1.389-3.659-2.96-5.055c-1.571-1.394-1.221-1.918,0.521-1.918
		s2.964-4.357,3.491-5.753c0.519-1.394,4.529-0.694,7.143-1.217s2.789-4.534,6.101-7.149c3.313-2.613,3.142-3.311,4.015-6.625
		c0.873-3.311,2.436-6.622,1.742-8.363c-0.701-1.748,0-2.966-0.521-3.491c-0.527-0.521-2.27-1.396-3.488-0.171
		c-1.223,1.216-1.747,1.043-2.793,0.52c-1.043-0.52-0.351-1.566-1.92-1.744c-1.566-0.173,0-1.217,2.966-4.181
		c2.966-2.965,8.194-5.405,10.288-7.146c2.091-1.744,4.185,0.348,6.795-0.179c2.614-0.52,5.405,0,6.453-0.171
		c1.043-0.173,0.697,2.617,2.27,1.045c1.561-1.568,3.481,0,5.225-0.176c1.742-0.172-0.172-1.219-1.395-1.741
		c-1.222-0.523,2.092-1.744,2.613-2.962c0.523-1.222,4.883-2.093,6.629-2.616c1.35-0.404,0.809,2.222,0.504,3.181
		c0.583-0.744,2.727-2.236,4.374-2.834c1.919-0.695,2.79-2.962,2.79-1.391c0,1.567-0.523,3.484-2.79,4.354
		c-2.265,0.872-5.054,4.36-5.927,5.406c-0.871,1.047-2.438,0.525-2.617,1.394c-0.173,0.872-1.218,2.616-3.309,3.315
		c-2.095,0.694-0.176,4.702,0.697,7.495c0.867,2.789-0.527,7.496,1.92,6.45c2.438-1.049,4.182-5.407,4.182-6.278
		c0-0.87,2.961-0.349,2.961-1.916c0-1.571,1.219-3.136,2.789-3.658c1.57-0.526-1.221-1.749-0.169-2.97
		c1.042-1.217,1.392-1.738-0.353-3.308c-1.746-1.571,0,0,1.395-2.963c1.392-2.968,2.439-0.35,3.484-1.744
		c1.051-1.397,0.877,1.744,1.918,1.219c1.051-0.521,1.742-2.266,3.834-2.093c2.096,0.176,2.965,3.312,3.49,1.397
		c0.521-1.92,6.445-5.056,8.713-6.1c2.268-1.048,2.096-1.744,4.535-1.222c2.438,0.522,1.918,2.09,2.611,0.696
		c0.695-1.394-0.346-1.917-0.346-3.486c0-1.57-1.225-0.699-3.311-0.871c-2.096-0.174-0.521-3.313,1.391-2.266
		c1.92,1.047,2.617-1.396,3.666-2.091c1.039-0.698-0.354-1.397,0-2.443c0.346-1.044,2.789-0.171,2.436,0.872
		c-0.348,1.05,2.271,0.523,3.656,1.05c1.402,0.522,1.053,1.914,2.271,2.089c1.219,0.175,1.922,0.873,2.615,1.221
		c0.697,0.35,2.096-0.697,3.311-2.441c1.221-1.744,3.664-2.09,3.664-2.09S338.254,132.497,335.289,131.625z"/>
	<path fill="#E6E6E6" d="M212.221,243.189c-0.346,0.258,0.869,2.524,0.869,2.524c0.351,0.173,0.351,0.087,0.438,0.61
		c0.045,0.271,0,0.434,0.872,1.57c0.868,1.135,0,0,0.257-0.521c0.263-0.522,0.611,0.345,0.611,0.345s0.438,0.177,0.614,0.526
		c0.171,0.346,0.349,0.261,0.959,0.086c0.605-0.174,0,0,0.784-0.265l0.609,0.524l0.437,0.612l1.217,0.61c0,0-0.081-0.35-0.171-0.783
		c-0.089-0.439-0.265-0.699-0.435-1.396c-0.175-0.697-0.349-0.177-0.785-0.177c-0.438,0-0.521-0.521-0.785-0.783
		c-0.266-0.265-0.525-0.175-0.871-0.09c-0.35,0.09-0.525,0.789-0.959,0.614c-0.438-0.175-0.087-0.524-0.351-1.047
		c-0.264-0.523,0.175-1.479,0.351-2.179c0.171-0.698,1.66-1.044,1.484-1.569c-0.18-0.524-0.613-0.781-0.875-1.304
		c-0.261-0.526,0.262-0.789,0.262-1.833c0-1.045-0.438-0.087-1.047-0.264c-0.608-0.175-0.787-0.347-1.481-0.347
		c-0.697,0-0.697,0.347-1.222,1.046c-0.521,0.698,0.086,0.871,0.086,1.566c0,0.702,0.094,1.397,0,2.092
		C213.004,244.058,212.57,242.929,212.221,243.189z"/>
	<path fill="#E6E6E6" d="M208.475,256.784c0.869-0.434,1.309-1.048,1.484-1.394c0.174-0.35,0.52-0.61,1.217-0.96
		c0.699-0.35,0.525-0.783,0.611-1.307c0.088-0.522-0.438-0.958-0.438-0.958s0,0.349,0,0.7c0,0.346-0.783,0.781-0.871,1.133
		c-0.088,0.344-1.398,1.303-1.656,1.564C208.561,255.824,207.604,257.22,208.475,256.784z"/>
	<path fill="#E6E6E6" d="M224.078,258.091c-0.094-0.871,0.086-1.307-0.27-1.567c-0.344-0.262-0.082-0.437-0.259-0.699
		c-0.173-0.261-0.344-1.129-0.956-1.044c-0.609,0.088-0.088,0.61-0.266,1.044c-0.172,0.438-0.955,0.612-1.389,0.869
		c-0.438,0.268-0.781,0.526-0.781,0.526s-0.613,0.871-0.875,0.697c-0.266-0.175,0.083-0.697,0.083-0.697s-0.349-0.436-0.868-0.346
		c-0.521,0.087-0.438,0.346-0.872,0.695c-0.438,0.348,0,0-0.438,0.084c-0.434,0.089-0.695,0.35-1.046,0.876
		c-0.346,0.521-0.52,1.743-0.52,1.743s0.694-0.609,0.87-0.874c0.174-0.261,0.695-0.436,1.051-0.436c0.349,0,1.65,0.521,1.65,0.521
		s0.436,0.44,0.436,0.788c0,0.347,0.179,0.696,0.697,1.132c0.524,0.434,0.613,0,0.957,0.085c0.354,0.092,0.178,0.523,0.873,0.785
		c0.699,0.263,0.525-0.785,0.525-0.785s-0.264-0.433-0.434-0.695c-0.176-0.261-0.092-0.521,0-0.869
		c0.08-0.352,0.434-0.262,0.87-0.091c0.432,0.177,0.69,1.48,0.78,1.135c0.086-0.35,0.611-0.696,0.349-1.306
		C223.984,259.051,224.164,258.963,224.078,258.091z"/>
	<path fill="#E6E6E6" d="M217.626,255.913c0,0,0.78-0.26,0.872-0.699c0.088-0.434,0.868-0.696,0.868-0.696s0.179-0.437,0.263-0.96
		c0.089-0.521,0.179-0.868-0.521-1.043c-0.306-0.078,0,0.609,0,0.87c0,0.263-0.785,1.221-0.702,0.869
		c0.092-0.346,0.352-1.042,0.352-1.042s-0.435-0.61-0.781-0.61c-0.351,0-0.351,0.522-0.434,0.869
		c-0.096,0.35-0.176,0.697-0.441,0.872c-0.26,0.175-0.175,0.61-0.175,0.61L217.626,255.913z"/>
	<path fill="#E6E6E6" d="M220.762,253.212c0,0,0.35,1.042,0.875,0.956c0.52-0.087,0,0,0-0.348c0-0.35-0.09-1.219-0.176-1.568
		c0,0-0.61-0.177-1.135-0.261C219.808,251.902,220.326,252.515,220.762,253.212z"/>
	<path fill="#E6E6E6" d="M221.637,249.813h-1.311c-0.263,0.261,0.785,1.219,0.957,1.829c0.178,0.61,1.311,1.048,1.045,0.524
		c-0.256-0.524,0.09-0.958,0.09-1.482C222.418,250.162,221.637,249.813,221.637,249.813z"/>
	<path fill="#E6E6E6" d="M214.657,248.505c-0.345-0.086-1.129,0.085-1.129,0.085s0.438-0.085,0.522,0.612
		c0.092,0.694,0.175,0.96,0.35,1.217c0.174,0.265,0.959,0,0.783-0.695C215.01,249.029,215.01,248.59,214.657,248.505z"/>
	<path fill="#E6E6E6" d="M215.883,253.294c0.349,0.354,0.695,0.264,1.044,0c0.349-0.257,0.965-0.692,1.05-1.042
		c0.084-0.35-0.529-0.785-0.789-0.96c-0.261-0.173-1.305-1.13-1.565-0.261c0,0,0.344,0.783,0.344,1.135
		C215.966,252.515,215.532,252.951,215.883,253.294z"/>
	<path fill="#E6E6E6" d="M187.38,281.452c-0.347-0.612,0.088-0.875,0.261-2.01c0.177-1.129,0.177-0.608-0.432-1.916
		c-0.612-1.303-1.746-1.74-2.357-2.964c-0.611-1.219-0.697,0.087-1.396-0.084c-0.694-0.175,0.266-1.31,0.179-2.008
		c-0.088-0.693-0.438,0.177-1.22-1.566c-0.784-1.743-1.484-1.046-2.265-1.305c-0.787-0.266-1.311-0.699-2.095-1.484
		c-0.785-0.785-0.785-1.133-1.919-1.568c-1.129-0.438-1.653-2.267-2.348-3.139c-0.703-0.871-1.052-0.521-2.093-0.173
		c-1.049,0.346-0.961-0.523-1.655-0.873c-0.702-0.35-1.484,0.35-1.484,0.35c-0.352,0.696,2.963,3.662,3.57,4.271
		c0.61,0.608,1.138,1.308,1.397,1.829c0.265,0.522,0.873,0.874,1.657,1.828c0.784,0.96,0.524,0.614,2.614,2.443
		c2.092,1.829,0.348,0.956,0.348,2.177s1.395,2.008,1.657,2.618s3.138,2.614,3.837,3.223c0.693,0.612,1.044,0.876,1.396,1.049
		c0.346,0.171,1.654,0.434,2.002,0.434C187.38,282.583,187.73,282.063,187.38,281.452z"/>
	<path fill="#E6E6E6" d="M178.229,276.569c-0.959-2.091-0.694-0.868-1.744-1.743c-1.044-0.868-0.875-1.31-1.479-2.179
		c-0.611-0.87-0.524-1.743-0.875-2.616c-0.344-0.87-0.782-0.96-1.479-1.828c-0.701-0.873-1.657-0.873-2.182-1.307
		s-0.78-0.522-1.916-0.874c-1.134-0.347-0.963,0.352-0.963,0.352c0,1.39,1.66,1.131,2.965,2.697c1.31,1.568,1.395,2.006,2.268,3.054
		c0.874,1.044,0.613,1.044,1.395,3.051c0.787,2.006,1.044,1.483,1.744,2.265c0.694,0.783,0.694,1.394,1.482,2.355
		c0.784,0.956,1.828,1.132,1.828,1.132s0.613-1.307-0.084-2.267C178.489,277.701,179.188,278.661,178.229,276.569z"/>
	<path fill="#E6E6E6" d="M202.72,286.416c-0.697-1.133,0,0-1.048,0.091c-1.044,0.086-0.52-0.522-0.52-0.785
		c0-0.262-0.611-0.695-1.222-0.695c-0.609,0-0.956,0-1.743-0.261c-0.783-0.263-0.083-0.612-1.133-1.312
		c-1.049-0.694-1.049,0-1.219,0.699c-0.176,0.692-1.484,0.612-2.354,0.523c-0.871-0.09-1.043-0.174-1.83-0.351
		c-0.784-0.173-0.607-0.173-0.96-0.697c-0.348-0.522-0.526-0.434-1.132-0.61c-0.609-0.173-0.958,0.088-2.092,0.61
		c-1.129,0.524-0.783,0.608-0.783,0.608c0.61-0.175,1.308,0.177,1.567,0.608c0.261,0.438,0.438,0.787,1.571,0.438
		c1.134-0.347,1.391,0.876,2.087,0.96c0.702,0.089,2.617-0.084,3.226-0.173c0.61-0.086,0.7,0.262,1.046,0.785
		c0.352,0.521,0.873,0.521,1.656,0.434c0.785-0.086,0.877-0.345,1.309-0.434c0.436-0.086,1.047,0.348,1.306,0.608
		c0.265,0.264,0.7,0.437,1.395,0.785c0.7,0.348,1.57,0.087,1.397-0.259C203.068,287.639,203.417,287.551,202.72,286.416z"/>
	<path fill="#E6E6E6" d="M210.652,270.296c-0.086-0.61-0.785-0.265-1.047-0.962c-0.262-0.696-0.525-1.044-0.525-1.044l-0.954-0.526
		c0,0-0.435-0.694,0.349-1.741l-0.527-1.565h0.701l1.045,0.261c0,0,0-0.522,0.348-0.964c0.35-0.434,1.047,0.09,1.047,0.09
		s0.346-0.696,0.262-1.132c-0.088-0.438-0.523-0.524-0.959-0.61c-0.432-0.089-1.129,0.347-1.568,0.086s-0.348-0.35-0.439-1.219
		c-0.084-0.875-0.17-0.781-0.605-0.875c-0.438-0.083-0.96-0.083-1.307-0.083c-0.351,0-0.697,0.608-0.789,1.046
		c-0.086,0.433-0.348,0.433-0.43,0.781c-0.092,0.35-0.699,1.135-0.699,1.135s-0.526,0.175-0.697,0.522
		c-0.176,0.349-0.268,1.048-0.877,1.048c-0.607,0-0.956-0.871-1.307-0.439c-0.347,0.439-0.52,0.962-0.695,1.223
		c-0.176,0.265-0.697,1.394-1.046,1.656c-0.349,0.262-1.131-0.349-1.653-0.263c-0.521,0.086-0.784,0.524-1.135,1.223
		c-0.347,0.695,0.174,1.129-0.088,1.743c-0.259,0.61-0.873,0.173-1.831-0.261c-0.96-0.438-0.432-0.354-0.872-0.872
		c-0.438-0.527-0.869,0.085-1.566,1.047c-0.697,0.955,0,1.215-0.087,1.742c-0.087,0.519,0.521,1.394,0.956,2.002
		c0.438,0.614,0.872,0.96,0.872,0.96s0.266,1.397,0.266,1.831c0,0.435,0,0.611,0,0.958c0,0.348,0.522,0.695,1.044,0.608
		c0.526-0.086,0.346-0.086,0.96-0.175c0.608-0.086,0.608-0.17,0.96,0.089c0.349,0.263,1.742,1.307,1.742,1.307
		s1.303-0.608,2.174-0.434c0.875,0.173,0.965,1.221,1.659,0.954c0.695-0.261,0,0,0.695,0.09c0.696,0.089,1.396-0.09,1.483-0.959
		c0.086-0.872,0.521-0.958,0.61-1.217c0.087-0.264,0.609-0.264,0.609-0.61c0-0.352-0.609-0.438-0.872-0.96
		c-0.262-0.526,0.613-0.526,0.96-0.785c0.349-0.26,1.13-1.657,1.13-1.657s0-0.608,0-0.873c0-0.257,0.179-0.783,0.266-1.217
		c0.086-0.439,0.348-0.35,1.049-0.35C209.959,270.904,210.736,270.904,210.652,270.296z"/>
	<path fill="#E6E6E6" d="M219.545,270.207c-0.467,0.115-1.4,0.235-2.443,0.235c-1.048,0-1.048-0.35-1.395-0.464
		c-0.348-0.12-1.395,0.114-2.672,0.808c-1.281,0.7-0.698,1.166-0.698,1.749c0,0.58-1.161,1.392-1.161,2.09
		c0,0.695,0,1.044-0.117,1.51c-0.115,0.464-0.58,1.159-0.58,1.743c0,0.58,0.348,0.815,1.275,1.159
		c0.934,0.351-0.345,2.443-0.345,2.443l1.161,1.046l0.699-0.813c0,0,0.115-0.927,0.115-1.278c0-0.348-0.465-1.163-0.465-1.163
		v-1.048l1.737,0.234c0,0,0.237,1.163,0.237,1.739c0,0.589,1.045,0.237,1.045,0.237s1.508-0.114,1.162-0.697
		c-0.348-0.582-0.232-0.582-0.348-1.164c-0.115-0.577,0-0.695-0.465-1.279c-0.464-0.576-0.813-0.462-0.35-1.277
		c0.465-0.812,0.465-0.348,1.043-0.93c0.586-0.582,1.977-1.16,1.748-1.626c-0.232-0.464-1.045,0-1.748,0
		c-0.693,0-0.806,0.349-1.506,0.698c-0.699,0.352-0.582,0.352-1.742-0.12c-0.542-0.217,0.113-0.93,0.466-1.857
		c0.345-0.928,1.276-0.462,2.204-0.815c0.928-0.344,1.043,0,2.094,0.12c1.047,0.115,0.811,0.113,1.159,0.113
		c0.351,0,0.697-0.233,1.05-0.695c0.345-0.462,1.395-0.926,0.461-1.743C220.239,268.351,220.008,270.093,219.545,270.207z"/>
	<path fill="#E6E6E6" d="M251.729,197.108c-0.229-0.812-0.345-0.694-0.345-1.624c0-0.935-0.349-0.699-0.926-0.93
		c-0.584-0.231-0.584,0.114-1.513,0.578c-0.93,0.464-0.701,0.93-0.701,1.514c0,0.582-0.577,2.207-0.923,3.022
		c-0.354,0.811,0,1.274-0.587,1.974c-0.582,0.696-1.859,1.275-2.555,1.859c-0.695,0.58-0.582-1.629-0.932-1.394
		c-0.351,0.23-0.928,1.508-1.158,2.207c-0.235,0.694-0.464,1.276-1.283,2.209c-0.813,0.929-0.578-0.815-1.045-0.697
		c-0.458,0.116-2.093,0.116-3.369,0.348c-1.281,0.232-3.02,1.394-3.488,1.974c-0.465,0.586-0.465,1.162-1.041,1.514
		c-0.585,0.348-0.467,0.115-1.164,0.578c-0.7,0.464-1.046,0.701-1.046,1.395c0,0.7,0.697,0.118,1.507,0c0.818-0.115,0,1.396,0,1.396
		s0,0.816,0.818,1.628c0,0,1.276-0.812,1.276-1.396c0-0.58,0.351-0.694,0.351-1.048c0-0.346,1.859-0.346,1.859-0.346l1.396-0.58
		c0,0,1.274-1.163,2.443-0.815c0.345,0.106,0.925,0.696,1.273,0.58c0.349-0.112,0.579-0.694,0.7-1.044
		c0.111-0.348,1.858-0.815,2.207-1.275c0.346-0.468,1.504-0.932,1.504-0.932l1.282,0.231c0,0,0.697-0.583,0.931-1.047
		c0.234-0.463,0.693-0.692,0.693-0.692s0.465,0.81,1.168,0.692c0.698-0.114,0.35-1.16,0.576-1.628
		c0.235-0.464,0.235-0.926,0.352-1.275c0.115-0.35,0-0.813,0-1.279s0.115-1.162,0.579-1.396c0.466-0.234,1.046-0.114,1.515-2.905
		C252.549,195.717,251.969,197.924,251.729,197.108z"/>
	<path fill="#E6E6E6" d="M253.246,164.804c-0.583-0.117-1.162,1.629-1.277,1.976c-0.117,0.348-0.24,1.047-0.585,1.974
		c-0.349,0.929,0.345,1.396,0.813,2.095c0.466,0.695,0.234,1.043,0.115,2.672c-0.115,1.629-0.344,2.324-0.813,3.251
		c-0.465,0.93,0.115,1.048,0.229,1.861c0.117,0.81,0,1.976-0.229,2.671c-0.232,0.7,0.584,2.324,0.584,2.324
		c-0.115-0.346,0.579-0.813,1.276-0.813c0.699,0,1.048,1.163,1.048,1.163s0.346-0.467,0.346-1.278c0-0.818-0.578-0.696-1.162-0.93
		c-0.578-0.233-0.346-1.627-0.346-1.627s0-1.277,0.114-2.211c0.114-0.928,0.231-1.045,1.048-1.394c0.811-0.346,1.74,0.698,1.74,0
		c0-0.696-0.694-1.743-0.93-2.32c-0.232-0.585-0.465-1.864-0.577-3.026c-0.125-1.16,0-0.811-0.582-1.973
		c-0.585-1.161-0.349-1.861-0.349-2.44C253.711,166.198,253.826,164.918,253.246,164.804z"/>
	<path fill="#E6E6E6" d="M257.895,189.438c0-0.693,0-1.512-0.699-0.693c-0.697,0.813-1.863-0.699-2.906-0.932
		c-1.043-0.229-1.167-0.578-1.512-1.508c-0.346-0.932-1.394-1.397-1.51-0.816c-0.109,0.58-0.109,2.438-0.109,3.023
		c0,0.58,0.109,1.046-0.355,1.741c-0.462,0.695-1.511-0.464-1.511-0.464s-0.583,1.279-1.163,1.392
		c-0.579,0.119-0.693,1.048-0.234,1.279c0.465,0.235,0,1.277,0,1.277c1.397,0.354,1.979-0.229,1.979-0.229s0-0.584,0.116-0.928
		c0.115-0.352,1.277-0.468,2.207-1.049c0.925-0.583,1.277,1.164,1.629,1.627c0.35,0.462,0.815-0.93,0.928-1.627
		c0.117-0.692,1.282-0.815,2.092-0.692c0.813,0.109,1.859,0,1.513-0.47C258.008,189.905,257.895,190.139,257.895,189.438z"/>
</g>
</svg>
