<?xml version="1.0" encoding="utf-8"?>
<!-- Generator: Adobe Illustrator 16.2.0, SVG Export Plug-In . SVG Version: 6.00 Build 0)  -->
<!DOCTYPE svg PUBLIC "-//W3C//DTD SVG 1.1//EN" "http://www.w3.org/Graphics/SVG/1.1/DTD/svg11.dtd">
<svg version="1.1" id="Warstwa_1" xmlns="http://www.w3.org/2000/svg" xmlns:xlink="http://www.w3.org/1999/xlink" x="0px" y="0px"
	 width="382.68px" height="382.68px" viewBox="0 0 382.68 382.68" enable-background="new 0 0 382.68 382.68" xml:space="preserve">
<g>
	<path fill="#E6E6E6" d="M73.983,233.155c0,0-3.229-4.93-1.438-4.93c1.798,0,5.38,0.706,5.38-1.062c0-1.76-0.357-3.52,2.514-3.52
		c2.87,0,5.735,0.699,6.09,1.76c0.368,1.053,1.804,2.821,0.368,5.988c-1.437,3.167-2.874,3.167-2.156,5.633
		c0.719,2.465,1.433,4.227-1.793,4.227s-5.023-2.463-6.459-1.057c-1.431,1.414-4.301,2.814-5.378,0.705
		C70.035,238.786,75.413,235.266,73.983,233.155z"/>
	<path fill="#E6E6E6" d="M92.274,206.03c0,0-3.941,1.056-4.661,4.582c-0.716,3.522-0.359,7.04-0.359,7.04s0.359,1.055,2.872,2.815
		c2.506,1.771,3.226,2.462,1.787,4.583c-1.436,2.11,0.719-0.708,2.875,1.404c2.154,2.123,4.302,4.222,2.868,5.286
		c-1.437,1.055-6.818,1.762-5.743,3.525c1.076,1.758,3.593,3.521-0.352,5.279c-3.95,1.77,0,2.117,4.656,1.403
		c4.665-0.697,0.723,1.414-3.586,3.885c-4.3,2.465-5.379,4.578-5.379,4.578s4.309-0.7,7.534-2.113
		c3.224-1.413,6.453-3.175,8.964-3.175c2.514,0,7.887,2.117,8.967-1.407c1.083-3.521,2.512-1.768,1.799-6.691
		c-0.715-4.935-5.026-2.466-5.39-4.582c-0.351-2.111-2.863-5.986-5.737-6.335c-2.86-0.353-0.71-5.288-4.301-5.986
		c-3.584-0.701,2.87-3.882,2.151-7.391c-0.71-3.521-5.022-1.417-6.813-2.117C92.633,209.905,102.321,202.864,92.274,206.03z"/>
	<path fill="#E6E6E6" d="M323.996,138.755c0.713,3.883,5.374,4.23,8.245,7.049c2.869,2.812-2.152,5.279-5.013,6.693
		c-2.879,1.405,1.069-2.819-1.444-4.582c-2.511-1.76-5.735,2.813-8.607,1.763c-2.865-1.063-4.298,1.405-8.604,2.819
		c-4.305,1.405,1.43-5.639-4.305-4.225c-5.743,1.406-12.555,5.984-15.788,6.337c-3.23,0.351-7.176,7.043-11.116,5.285
		c-3.95-1.769,1.076-2.471,2.155-5.638c1.074-3.175-15.066-5.984-10.049-4.23c5.03,1.762-0.717,4.934,1.799,9.513
		c2.501,4.578-0.722,5.633-4.661,3.169c-3.946-2.466-5.383,3.173-7.896,3.872c-2.515,0.705-0.719,6.337-4.667,7.046
		c-3.946,0.706-4.663-2.46-8.966-2.46c-4.3,0,2.518,5.632-1.436,5.632c-3.94,0-3.94-0.7-6.099-3.172
		c-2.142-2.46-2.142-4.93-2.865-7.396c-0.729-2.466-7.892-5.632-5.021-6.335c2.87-0.708,17.221,4.224,23.314,4.224
		c6.097,0,7.179-4.224,6.097-7.399c-1.078-3.167-13.993-9.159-18.653-9.51c-4.666-0.351-5.737-0.698-8.25-3.164
		c-2.506-2.465-7.53-1.061-12.191-2.113c-4.664-1.057,0.359-5.988-2.157-7.05c-2.507-1.058-4.659,0.706-8.614,2.117
		c-3.938,1.409,0.362-2.822-3.938-4.232c-4.307-1.403-4.666,2.819-8.25,2.819s-8.256,4.932-11.122,4.583
		c-2.864-0.359-4.66-0.359-7.886,2.466c-3.231,2.813-5.385,4.924-8.608,4.924c-3.231,0-1.799,2.466-3.231,5.285
		c-1.432,2.815-5.739,5.28-8.253,6.694c-2.507,1.409-4.662,10.924-7.171,11.626c-2.514,0.696-5.021,3.167-6.451,7.397
		c-1.443,4.229-10.413,4.569-14.358,6.333c-3.947,1.764,0.366,4.925-0.709,7.396c-1.081,2.464,1.432,3.881,1.075,7.752
		c-0.366,3.874-2.514,5.281-2.514,5.281s2.872,2.816,6.814,3.884c3.949,1.049,4.299-2.124,7.529-3.533
		c3.229-1.41,2.164,1.409,3.593-2.814c1.432-4.229,3.945-1.062,4.666,3.168c0.713,4.229,0.356,7.046,3.584,10.207
		c3.23,3.181,0.362,4.581,3.23,6.002c2.869,1.404,3.58-3.533,6.092-2.473c2.513,1.053,5.387-0.702,5.029-3.869
		c-0.362-3.169-1.8-8.105,1.433-8.812c3.225-0.7,6.094-3.517,6.46-5.984c0.356-2.467-3.235-4.22-5.028-4.928
		c-1.789-0.707,1.079-4.229,0.356-7.048c-0.713-2.818,6.097-9.867,9.331-10.215c3.229-0.346,4.666-4.576,6.102-9.157
		c1.43-4.58,8.962-4.928,10.041-4.231c1.074,0.708,3.584,1.41,3.584,5.645c0,4.223-9.679,9.508-11.473,9.854
		c-1.797,0.361-4.3,2.821-3.233,5.987c1.081,3.174-1.069,7.749-1.069,7.749s3.228,1.765,5.729,3.175
		c2.512,1.404,5.383,1.404,9.687-0.36c4.306-1.757,12.204-3.513,12.204-1.397c0,2.106,8.243,2.46,5.016,3.517
		c-3.232,1.055-5.016,1.411-6.095,3.174s-3.945-0.701-3.945-0.701s-8.971,0-11.483,0.347c-2.504,0.354-2.504,5.986,1.079,5.986
		c3.582,0,0.718,5.285-1.438,6.341c-2.147,1.061-2.513-2.465-4.658-3.169c-2.161-0.704-5.026,4.569-5.026,4.569
		s2.158,6.692-1.069,8.105c-3.233,1.411-0.365,4.235-4.666,4.588c-4.309,0.347-2.867-1.769-3.942-2.116
		c-1.084-0.359-9.33,1.054-11.126,2.463c-1.795,1.4-5.019,1.4-7.176-1.054c-2.154-2.472-5.02,0-6.813,1.403
		c-1.792,1.407-5.017-1.403-7.533-2.465c-2.508-1.058,1.078-5.28,2.154-8.456c1.076-3.163,1.432-8.094,1.076-6.686
		c-0.356,1.407-3.948,1.056-6.093,2.466c-2.155,1.411-3.591,5.981-2.155,7.045c1.435,1.049,3.231,4.925,2.51,8.8
		c-0.724,3.878-2.869,2.824-7.179,2.111c-4.302-0.7-3.224,4.235-4.655,6.346c-1.439,2.112-3.586-2.824-4.304,0
		c-0.722,2.82-1.437,3.875-4.67,5.634c-3.224,1.767-5.018-1.059-5.731,2.818c-0.715,3.875-2.877,2.819-5.026,4.572
		c-2.152,1.763-5.739-1.753-6.811-1.052c-1.083,0.699,1.788,3.872,0.353,4.937c-1.026,0.742-7.809,0.791-10.509,0.742
		c2.343,0.363,0.853,2.926,5.855,4.889c5.372,2.109,3.94,4.224,6.447,6.688c2.513,2.471,0.72,9.86-2.146,11.622
		c-2.875,1.765-12.919-1.411-12.919-1.411s-6.813-1.055-10.399,0.353c-3.589,1.409-5.745,1.409-3.95,4.582
		c1.794,3.17,1.076,8.099,0.361,10.919c-0.717,2.816-0.361,3.877,1.075,7.04c1.44,3.175-3.23,3.871-0.36,5.635
		c2.874,1.764,6.458-0.699,6.458-0.699c2.153-1.063,4.665,3.519,5.736,3.519c1.077,0,2.878-0.347,4.669-2.104
		c1.794-1.773,7.532-2.478,11.117-2.826c3.587-0.348,2.154-1.757,3.229-5.281c1.079-3.526,1.43-2.465,2.151-6.338
		c0.721-3.876,6.099-4.931,8.611-4.931c2.511,0,2.152-2.818,2.152-6.34c0-3.526,6.1-1.403,7.888-0.7
		c1.797,0.7,4.669-1.413,9.327-5.286c4.664-3.875,6.816,0.354,7.893,1.051c1.076,0.711,1.076,3.173,2.143,4.235
		c1.083,1.056,2.523,3.169,5.748,5.279c3.226,2.113,2.147,0,4.665,1.406c2.503,1.412,2.151,2.475,6.811,5.988
		c4.666,3.524,0.718,2.819,0.359,4.584c-0.359,1.76-3.592,2.458-6.807,2.111c-2.185-0.235-5.303,0.158-6.692,0.344
		c0.988,0.223,1.272,2.091,3.456,4.227c2.507,2.477,7.537,4.581,6.451,0.705c-1.076-3.869,3.591-2.812,6.823-4.929
		c3.224-2.111-0.357-3.173,0.356-5.63c0.717-2.468,5.379-1.059,4.303-2.826c-1.074-1.757-3.227-3.514-6.816-4.927
		c-3.582-1.409-3.23-2.111-3.23-4.223c0-2.11-3.943-3.523-6.091-4.936c-2.152-1.41-2.152-2.459-3.59-3.863
		c-1.439-1.414,1.793-3.876,2.509-4.931c0.715-1.064,6.819,1.406,7.529,3.869c0.722,2.466,3.948,7.049,8.971,7.751
		c5.018,0.701,4.669,3.516,5.384,5.636c0.715,2.11-1.074,4.933,4.302,8.798c5.378,3.877-0.715,3.173-0.715,5.637
		c0,2.463,2.867,7.397,5.022,5.988c2.144-1.411,1.79-4.223,4.654-4.223c2.88,0,7.541,3.17,7.177,1.053
		c-0.358-2.11-1.432-2.11-3.945-3.868c-2.512-1.761-2.512-1.414-2.512-3.879s2.161-0.354,1.796-2.111
		c-0.354-1.769,1.793-1.057,2.873-2.11c1.075-1.063,2.869-0.71,6.455,0.698c0,0,8.97,1.766,9.329,0
		c0.349-1.763,2.598-3.165,4.698-3.52c2.113-0.352,2.113,0,3.547,0s1.786,1.799,3.95-0.151c2.151-1.961,0.352-3.364,3.223-3.724
		c2.872-0.354,3.95,0,5.74,0c1.804,0,6.461,0.701,7.177,1.763c0.71,1.059,1.796,2.821,4.301,3.176c2.519,0.343,7.177,0.343,8.253,0
		c0.641-0.215,3.98-1.152,6.649-1.887l0.05-3.198c0,0-1.44-2.427-2.393-2.901c-0.961-0.473-3.828-2.723-3.828-2.723
		s3.35-0.333,4.549,0.136c1.195,0.476,5.257-0.469,5.979,0c0.718,0.476,3.353,1.881,4.066,1.881c0.711,0,4.535,0.931,5.736,1.181
		c1.195,0.222,4.781,3.987,7.646,5.628c2.876,1.638,2.398-0.232,3.113-0.697c0.718-0.48,2.158-0.943,2.507,0
		c0,0-3.949-6.023-3.949-8.24c0-2.216-6.564-4.681-4.896-6.088c1.669-1.41,4.032-2.462,4.283-5.986
		c0.265-3.525,4.206,6.004,6.715-2.459c-1.44-1.419-1.44-3.175-1.44-4.937s-2.868-3.174-2.868-3.174l-2.505,2.109l-3.226-2.812
		c0,0-2.155-2.471,0-4.585c2.141-2.108,2.141-4.922,2.141-4.922s6.103,2.813,7.539,2.813c1.43,0,1.796-4.57,1.796-4.57l1.789-2.466
		c0,0,3.955,1.4,5.022,0c0,0-3.229-6.352,0-8.463c3.23-2.112,3.585-3.869,5.383-4.921c1.784-1.063,3.224-4.936,3.224-6.353
		c0-1.403,1.077-2.109,0-5.283c-1.075-3.162-1.075-3.162-1.075-6.684c0-3.528-6.093-1.058-0.717-7.044
		c5.382-5.999,10.763-8.811,12.556-9.513c1.796-0.708,6.817,0.348,7.532-2.825c0.716-3.161,1.799-9.85,2.156-11.974
		c0.363-2.105,1.433-5.28,3.224-7.042c1.794-1.751,5.023-4.23,7.181-5.285c2.146-1.051,7.171-4.223,8.251-5.28
		c1.07-1.056,3.223-3.527,3.223-3.527s2.512-3.869,0-4.573c-2.513-0.706-1.078-2.823-1.437-5.28
		c-0.351-2.468-1.422-0.455-1.784-3.049l0,0c-3.828-1.324-7.7-0.711-11.845-2.586C329.016,140.52,323.273,134.883,323.996,138.755z"
		/>
	<path fill="#E6E6E6" d="M317.899,137.352c0,0-10.762,0.829-14.347-4.865c-3.589-5.697-5.026-4.848,0-10.911
		c5.021-6.059,5.547-8.878,5.547-8.878s7.364-6.339,8.8-7.757c1.435-1.397,5.265,2.341,7.169,0c5.745-7.036,7.176-7.743,9.332-7.743
		c2.152,0,6.686,0,6.686,0s3.356,3.521,5.507,0c2.152-3.522,11.843-4.223,13.097-2.82c1.249,1.412,0,4.931,0,4.931l-9.832,1.41
		c0,0-6.39-1.41-8.771,1.407c-2.384,2.815-5.971,4.232-5.971,4.232s-6.453,0.705-10.044,5.631
		c-3.588,4.931-8.604,8.168-8.604,10.776C316.467,125.373,311.804,135.945,317.899,137.352z"/>
	<path fill="#E6E6E6" d="M28.067,177.5c0,0,4.301-4.932,0-6.334c-4.308-1.413-4.308-1.413-4.308-1.413s-2.388-7.045,3.118-6.344
		c5.491,0.709,6.929,7.026,6.929,7.026s2.875-6.414,6.455-7.073c3.592-0.653,2.156-0.044,6.463,0c4.302,0.047,8.611-0.3,8.611-0.3
		s1.428,7.048,2.146,7.22c0.715,0.183,5.021,2.996,0,4.4c-5.02,1.416-10.28-1.404-13.385,2.818c-3.113,4.229-9.572,0-9.572,0H28.067
		z"/>
	<path fill="#E6E6E6" d="M160.071,87.971v-3.451c-4.311-2.115-6.686-2.816-6.686-2.816s-0.673-4.79-2.149-6.342
		c-3.372-3.521,1.641-7.407,4.417-6.34c7.289,2.819,13.639,3.521,13.639,3.521v-3.701c6.559,0.18,10.145,2.999,10.145,2.999
		s2.157-6.341,5.023-6.341c2.869,0,7.175,0,7.175,0h5.743c0,0,0.711,0,5.736,0c5.028,0,10.511,0.702,9.198,2.819
		c-1.316,2.111-9.198,4.929-9.198,4.929c-9.33,0-9.33,4.155-11.479,3.491c-2.15-0.671-10.324-2.789-10.324-2.789l7.447,6.338
		c6.463,0,10.051-0.706,10.051,1.412c0,2.105-12.194,6.268-12.194,6.268c-3.587-4.162-3.587-4.162-3.587-4.162s6.456-4.924,0,0
		c-6.457,4.938-12.402,9.213-13.739,9.889c0,0-5.729-1.042-7.068-2.833"/>
</g>
</svg>
