<?xml version="1.0" encoding="utf-8"?>
<!-- Generator: Adobe Illustrator 16.0.3, SVG Export Plug-In . SVG Version: 6.00 Build 0)  -->
<!DOCTYPE svg PUBLIC "-//W3C//DTD SVG 1.1//EN" "http://www.w3.org/Graphics/SVG/1.1/DTD/svg11.dtd">
<svg version="1.1" id="Warstwa_1" xmlns="http://www.w3.org/2000/svg" xmlns:xlink="http://www.w3.org/1999/xlink" x="0px" y="0px"
	 width="382.68px" height="382.68px" viewBox="0 0 382.68 382.68" enable-background="new 0 0 382.68 382.68" xml:space="preserve">
<g>
	<path fill="#E6E6E6" d="M90.226,41.452c-0.703-0.969-2.557,0.176-4.499-1.145c-0.507-0.348-1.137-0.637-1.79-0.879
		c-0.049,0.025-0.088,0.064-0.15,0.087c-0.417,0.12-1.693,1.268-2.929,2.443c1.392,1.099,6.583,2.735,8.003,2.735
		c0.667,0,1.025-0.307,1.326-0.549C90.391,42.858,90.464,41.782,90.226,41.452z"/>
	<path fill="#E6E6E6" d="M94.551,44.187c0.176-0.353-1.06-2.382,1.323-2.559c2.382-0.176,4.144-0.44,4.499-1.94
		c0.354-1.498,3.176-0.792,3.97-0.882c0.654-0.072,2.757-2.009,4.814-1.932c0.028-2.007-2.695-1.357-4.581-3.244
		c-2.009-2.004-6.397-1.094-8.772-0.179c-2.375,0.913-5.116-1.007-7.675,0.455c-0.032,0.016-0.059,0.031-0.089,0.046
		c-0.559,0.706-1.327,1.572-2.224,2.295c-1.723,1.398-1.249,2.778-1.878,3.18c0.653,0.243,1.283,0.532,1.79,0.879
		c1.941,1.321,3.796,0.176,4.499,1.145c0.238,0.33,0.165,1.406-0.039,2.691c0.361-0.294,0.635-0.499,1.232,0
		c0.535,0.444,0.437,1.001,0.369,1.549l1.527-0.358C93.316,45.334,94.375,44.542,94.551,44.187z"/>
	<path fill="#E6E6E6" d="M40.885,28.882c3.563,1.007,7.039,2.559,9.321,4.018c2.284,1.464,5.117,0.828,8.316-0.455
		c3.199-1.278,5.667,0.366,7.494,1.099c0.901,0.358,2.667,1.871,4.436,3.451c1.613-2.318,3.163-4.407,3.368-4.453
		c0.439-0.087,5.029,0.534,5.469-0.616c0.442-1.146-3.439-3.704-2.999-3.972"/>
	<path fill="#E6E6E6" d="M76.29,27.954c-0.44,0.269,3.441,2.827,2.999,3.972c-0.44,1.15-5.03,0.529-5.469,0.616
		c-0.205,0.046-1.755,2.134-3.37,4.453c1.822,1.615,3.642,3.302,4.521,3.859c1.735,1.096,4.569-0.092,5.756,1.004
		c0.037,0.031,0.085,0.066,0.131,0.1c1.236-1.176,2.513-2.323,2.929-2.443c0.883-0.269,0.176-1.764,2.028-3.267
		c0.897-0.723,1.665-1.59,2.224-2.295c-1.434,0.775-1.87,0.031-1.659-0.979l-2.064,0.278l0.213-8.327"/>
	<path fill="#E6E6E6" d="M84.53,24.925l-0.213,8.327l2.064-0.278c0.148-0.713,0.617-1.557,1.292-2.083
		c1.644-1.278-0.822-6.395,1.096-6.85"/>
	<path fill="#E6E6E6" d="M101.131,53.899c0.906,0.452,3.169,0,4.078,0.675c0.439,0.334,1.184,0.34,2.04,0.228
		c-0.263-0.384-0.466-0.69-0.57-0.885c-0.638-1.183,0.458-3.56,1.006-5.298c0.548-1.738-0.457-5.935,0.548-7.034
		c1.005-1.099,0.458-1.738,0.915-4.294c0.028-0.169,0.006-0.281,0.009-0.417c-2.058-0.077-4.16,1.86-4.814,1.932
		c-0.794,0.089-3.617-0.616-3.97,0.882c-0.354,1.5-2.117,1.764-4.499,1.94c-2.382,0.176-1.146,2.206-1.323,2.559
		c-0.175,0.355-1.234,1.147-1.234,1.147l-1.527,0.358c-0.072,0.572-0.111,1.137,0.636,1.557c1.461,0.82,3.471,4.023,5.024,4.843
		c0.748,0.394,1.211,1.04,1.411,1.671C99.754,53.695,100.665,53.662,101.131,53.899z"/>
	<path fill="#E6E6E6" d="M234.429,243.99c2.56-1.83,1.921-2.92,3.104-5.113c1.189-2.195,0.187-3.107,2.196-5.027
		c2.009-1.92-0.364-3.201,2.193-4.387c2.559-1.188,2.192,1.1,0.092,3.744c-2.104,2.654-2.468,3.383,0.273,1.373
		c2.739-2.01,3.747-4.844,5.302-8.043c1.553-3.197,2.74-4.203,4.111-4.387c1.369-0.182,1.369-3.563,1.188-5.938
		c-0.184-2.377-0.914-4.57,0.09-6.123c1.007-1.553,0-3.014,1.28-3.014s3.199-1.922,5.208-3.932c2.013-2.012,3.291-2.193,5.393-2.377
		c2.102-0.182,0.914-0.914,2.285-1.277c1.37-0.365,2.284-1.646,3.197-2.469c0.914-0.82,4.661,0.092,6.854,0.092
		c2.192,0,3.653,0.182,3.653-1.186c0-1.373,1.006-2.471,2.286-2.471c1.276,0,1.827-0.365,1.827-2.191
		c0-1.828,0.547-2.924,1.646-3.748c1.096-0.82,1.28-2.645,1.643-3.836c0.366-1.188,1.552-0.461,1.552-2.193
		c0-1.738,0.645-3.654,0.645-5.027c0-1.367,1.462-1.188,2.101-2.193c0.639-1.004-0.55-2.282,0.455-5.117
		c1.007-2.832,0-5.482,0-8.041c0-2.558,0-5.209,0.915-6.033c0.915-0.818,0.457-1.275-0.273-1.646
		c-0.733-0.363,0.092-1.367,0.73-1.182c0.637,0.18,1.37,1.553,2.559,0.818c1.191-0.73,2.285-3.839,3.29-6.395
		c1.004-2.559,2.65-2.467,3.928-3.016c1.281-0.547,4.024-3.655,5.761-8.133c1.734-4.476-0.092-8.862-0.824-11.97
		c-0.732-3.11-1.735-2.469-3.561-2.377c-1.833,0.092-5.304-0.365-9.871-5.298c-4.57-4.938-9.048-4.57-12.063-3.747
		c-3.017,0.823-6.123-1.464-8.134-1.919c-2.01-0.455-3.93,2.101-5.389,2.65c-1.464,0.544,0.729-2.195,0.821-3.931
		c0.092-1.738-5.485-4.205-9.687-5.848c-4.202-1.646-6.029-0.82-6.029,1.828c0,2.653-1.646-0.823-2.926,2.011
		c-1.281,2.834-3.658,1.004-2.104,0.092c1.555-0.915,3.016-3.019,3.564-4.751c0.548-1.738-6.029-3.111-8.314-2.193
		c-2.284,0.91-0.824,4.202-2.652,3.198c-1.827-1.004-0.366-3.476,1.098-3.382c1.463,0.092,3.108-2.924,4.113-5.117
		c1.003-2.193-1.738-2.563-3.383-4.386c-1.625-1.812-1.289-7.082-2.955-7.916c-1.789,1.771-4.194,4.54-4.871,6.569
		c-0.868,2.599-1.981,1.112-4.332,1.858c-2.348,0.741-3.464-0.253-4.082-1.237c-0.617-0.997-2.971,0-4.574-0.128
		c-1.61-0.125-0.621,1.981-1.734,2.602c-1.113,0.616-3.959-1.237-4.948-0.125c-0.987,1.115-1.607,0-2.101,0.989
		c-0.496,0.989-2.229,0.373-2.723,0.989c-0.496,0.616-2.225,0.989-4.456-1.485c-2.225-2.472-1.855-6.556-0.864-7.297
		c0.988-0.741,0.988-2.847-0.373-3.466c-1.361-0.613,0-3.215-1.728-3.463c-1.733-0.245-1.485,1.981-2.599,2.349
		c-1.113,0.371-3.836,2.229-5.075,1.981c-1.235-0.248-2.845,0.248-2.845,1.607c0,1.365-1.359,0.992-1.607-0.123
		c-0.247-1.112-2.843-0.496-3.586-1.237c-0.742-0.741-4.206-0.371-2.723,0.494c1.485,0.866,1.607,1.733,1.607,3.095
		c0,1.359,1.115,0.986,1.115,2.597c0,1.605,1.236,0.493,2.101,0.493c0.868,0,0.868,1.49-0.491,1.733
		c-1.361,0.248-1.98,0.987-2.352,2.231c-0.373,1.237-1.607,0.365-2.721,1.354c-1.117,0.994-2.104,1.983-2.848,1.485
		c-0.742-0.491-1.36-0.12-2.226,0.374c-0.864,0.493-1.235,0-2.474-0.989c-0.927-0.741-1.507-2.53-3.149-4.159
		c-0.979,0.463-2.965,1.181-4.033,1.181c-1.444,0-5.978-0.33-6.222,0.458c-0.25,0.779,0.328,2.101,1.068,2.262
		c0.743,0.166,2.307,0.619,0.828,1.689c-1.488,1.071-2.806-0.371-2.806,2.224c0,2.597,3.327,4.284,2.638,6.681
		c-0.356,1.232-0.846,4.401-0.846,5.621c0,1.217-0.484,5.36-1.581,5.6c-1.097,0.248-2.073-0.969-3.535,0.248
		c-1.463,1.216-3.288,0.485-4.994,1.83c-1.704,1.334-3.532,0.849-3.655,2.433s-1.705,2.436-1.34,3.9
		c0.365,1.459-0.732,1.094-1.829,2.19c-1.094,1.099,0.122,1.828-0.61,2.684c-0.731,0.851,0.244,2.188,1.098,3.53
		c0.852,1.342,1.83,2.313,1.707,3.535c-0.123,1.217,0.852,1.708,2.07,1.583c1.218-0.121,0.242,2.315,2.193,2.315
		c1.949,0,3.897,0.491,4.385-0.606c0.49-1.099,1.828-1.95,1.828-0.365c0,1.58-0.363,5.851,0.975,5.36
		c1.342-0.488,4.022-0.368,5.364,0.12c1.338,0.488,2.677,0,3.53-0.851c0.855-0.854,1.826-0.851,3.531-1.828
		c1.711-0.977,3.293-2.193,4.877-2.193c1.586,0,4.264-0.977,3.899,0.24c-0.368,1.222-0.608,5.728,1.339,8.043
		c1.947,2.315,3.045,3.169,4.873,2.927c1.828-0.246,1.584,0.729,2.926,0.61c1.34-0.125,0.488,1.457,1.704,1.457
		c1.218,0,3.411,0.245,3.411,1.585c0,1.342,3.654,0.245,4.512,0.977c0.854,0.729,1.824,1.339,1.583,2.799
		c-0.247,1.464,1.827,2.563,0.609,3.169c-1.221,0.608,0.365,1.827,0.488,3.412c0.118,1.585,1.825,2.192,4.506,2.07
		c2.681-0.118,3.412,0.122,3.412,2.075c0,1.945,1.826,2.19,2.437,4.021c0.61,1.825-0.731,3.896-0.486,5.36
		c0.186,1.121-0.493,2.311-1.254,2.801c0.936,1.196,1.016,1.738,0.172,2.203c-1.109,0.616,1.365,2.35,0.746,5.068
		c-0.616,2.725-0.742,3.215,2.105,3.34c2.842,0.127,2.595,0.99,3.583,0.369c0.99-0.615,2.474,2.105,2.845,3.471
		c0.373,1.357,1.486,4.57,1.98,4.57c0.497,0,1.979-1.484,3.465-0.738c1.38,0.688-0.342,5.334-0.391,7.373
		c1.032-0.035,2.295-0.033,2.711,0.176c0.742,0.371,1.111,5.367,0.742,6.297c-0.371,0.924-3.428,1.758-5.002,2.775
		c-1.571,1.02-5.368,4.629-7.128,7.502c-1.043,1.699-2.563,3.102-3.634,4.332c0.508,0.074,0.938,0.053,1.227-0.074
		c0.833-0.373,2.13-0.373,3.52,1.293c1.391,1.668,1.298,2.965,1.853,2.873c0.555-0.096,1.204-2.221,2.314-0.65
		c1.11,1.576,3.979,2.779,4.629,3.52c0.646,0.742,2.775,1.297,2.775,3.238c0,1.395-0.655,4.023,0.435,6.252
		C233.027,245.223,233.623,244.566,234.429,243.99z"/>
	<path fill="#E6E6E6" d="M232.073,239.643c0-1.941-2.129-2.496-2.775-3.238c-0.65-0.74-3.519-1.943-4.629-3.52
		c-1.11-1.57-1.76,0.555-2.314,0.65c-0.555,0.092-0.462-1.205-1.853-2.873c-1.39-1.666-2.687-1.666-3.52-1.293
		c-0.289,0.127-0.719,0.148-1.227,0.074c-0.739,0.848-1.275,1.615-1.275,2.33c0,1.762-1.295,3.703-1.383,7.037
		c-0.098,3.336-1.021,2.777-1.112,5.369c-0.093,2.596,0.832,2.129,1.2,2.502c0.207,0.203-0.047,1.027-0.306,1.729
		c0.39,0.342,0.775,0.885,1.628,0.789c1.646-0.182,3.291,0.461,5.303,1.373c2.009,0.912,1.276-0.279,3.197,0
		c1.918,0.273,4.111,0.457,6.213-0.826c1.438-0.875,2.16-2.395,3.287-3.852C231.418,243.666,232.073,241.037,232.073,239.643z"/>
	<path fill="#E6E6E6" d="M168.955,355.119c-0.657-0.107-0.152-11.061-0.025-13.57c-0.1-0.025-0.199-0.053-0.295-0.053
		c-1.186,0-3.837,0.271-3.381-1.557c0.08-0.32,0.253-0.51,0.48-0.609c-0.541-0.488-1.307-1.039-2.221-1.281
		c-1.857-0.492-6.311,0-7.3,0.125c-0.991,0.121-1.361-1.73-1.979-1.73c-0.62,0-0.743-3.217-0.249-4.703
		c0.493-1.484-2.844-0.74-3.836-1.236c-0.988-0.494,0.373-1.484-0.74-2.723c-1.112-1.234-0.248-2.973-0.125-3.836
		s0.865-2.723,2.229-2.723c1.358,0,0.37-1.98,1.73-2.842c1.361-0.863-1.237-2.348-0.122-3.213c1.113-0.869,0-2.479,1.73-2.721
		c1.731-0.252,0-2.48,1.237-2.848c1.238-0.371-0.25-1.734,0.124-3.219c0.37-1.484-0.991-2.596,0.617-3.215s0.497-1.855-0.617-2.721
		c-1.114-0.871,0.247-0.871,1.607-0.871c1.361,0,0.62-2.221-0.618-1.854c-1.467,0.443-2.351-0.986-1.237-2.1
		c1.112-1.117-0.989-1.859-0.618-2.598c0.371-0.74,0.371-1.732-0.371-2.227c-0.741-0.494-0.248-4.207,0.619-4.332
		c0.863-0.123,0.244-3.461,0.244-4.455c0-0.984-0.987-1.975-0.863-2.84c0.123-0.871,1.113-1.119,1.113-2.846
		c0-1.736,0.371-2.475,1.113-2.6c0.74-0.123,0.125-2.104,0.248-3.096c0.122-0.986,2.104,0,2.35-1.604
		c0.246-1.611-1.236-1.361-0.99-2.348c0.297-1.186-0.125-2.725-0.125-5.447s2.229-3.338,3.094-4.082
		c0.865-0.744-1.113-4.699,0-5.195s0.371-2.35,1.238-2.971c0.866-0.615,0.617-1.979,1.113-3.463
		c0.493-1.484-0.989-2.229-0.989-3.586c0-1.363-0.249-2.6-1.362-4.084c-1.113-1.482-0.742-4.451,0-4.451
		c0.744,0,0.371-2.846,1.734-3.217c1.358-0.369,0.617-2.475,0-4.207c-0.621-1.736,1.11-0.863,1.11-2.227
		c0-1.359,0.743-3.215,1.858-3.711c1.111-0.496,1.236-2.598,1.236-3.469c0-0.863,1.607-1.234,2.473-1.975
		c0.867-0.74-1.484-1.977-0.123-2.723c1.361-0.744-1.113-3.834-0.371-4.451c0.741-0.621,0.123-1.982,0.248-2.971
		c0.123-0.988,4.205-2.844,4.699-3.709c0.361-0.635,0.721-2.854,0.842-4.82c-1.273,0.828-2.385,1.271-2.589,0.797
		c-0.362-0.854,0.122-3.414-0.972-4.51c-1.096-1.096-0.366-3.289-1.464-3.773c-1.096-0.488-2.435-2.682-1.461-3.416
		c0.974-0.73,0-2.188,0.854-2.921c0.853-0.731-0.488-0.856-1.707-2.317c-1.218-1.46,0.487-3.287-0.974-4.387
		c-1.463-1.097-1.463-2.436-1.828-1.824c-0.367,0.61-0.486,2.681-1.705,3.289c-0.2,0.1-0.516,0.337-0.895,0.648
		c0.008,1.01-0.354,2.715,0.043,3.707c0.545,1.372,0.818,8.043,0.273,10.6c-0.55,2.563-1.101,4.658-1.646,6.213
		c-0.547,1.557,1.281,1.648,0.546,2.377c-0.729,0.73-0.455,2.561-0.455,5.484s-1.735,7.857-1.827,9.412
		c-0.092,1.551-1.281,2.559-1.097,4.293c0.183,1.738-0.823,2.742-1.827,3.563c-1.005,0.826,1.643,3.475,1.555,4.936
		c-0.092,1.463-2.01,2.102-1.555,4.48c0.572,2.965,0,8.037,0,9.047c0,1.004-1.188,0.912-0.916,2.828
		c0.277,1.922-1.186,2.381-1.459,5.121c-0.275,2.744-2.378,6.67-3.199,8.771c-0.824,2.1-0.824,3.289-1.918,3.289
		c-1.099,0-1.372,1.188-0.549,3.018c0.821,1.828-0.55,3.379,0.549,5.209c1.094,1.826,0.729,2.467,0.181,4.203
		c-0.547,1.732-1.279,1.828-1.279,3.471c0,1.646-1.278,3.018-0.548,4.844c0.734,1.83,0.548,2.471-0.365,2.471
		c-0.912,0-1.371,1.461-1.736,4.477c-0.365,3.01-0.273,2.924,1.92,2.74c2.193-0.18,0.456-7.402,1.828-7.402
		c1.371,0,0.181-1.189,1.553-1.553c1.371-0.365,0.182,1.275,1.098,1.553c0.914,0.273,1.553,1.006,0.273,1.824
		c-1.279,0.826,0.273,2.473-0.365,3.477c-0.641,1.004-1.554,2.102-1.006,3.291c0.547,1.189-0.641,1.098-0.732,2.648
		c-0.092,1.555,0.824,1.646,0.185,2.01c-0.64,0.365,0.821,1.553-0.093,1.738c-0.912,0.178-0.365,1.369,0.182,2.465
		c0.551,1.098-1.187,0.455-2.101,1.189c-0.913,0.729,0.914,1.732,0.366,2.742c-0.547,1.004-2.012-0.549-2.65-1.096
		c-0.639-0.551,1.006-1.646,1.828-2.742c0.822-1.098-0.822-3.564-2.193-3.02c-1.371,0.549,1.371,2.102,1.371,3.289
		c0,1.189-2.284-0.27-2.195,1.008c0.092,1.279-1.552,0.822-2.374,1.734c-0.822,0.914,1.098,1.738,0.184,2.016
		c-0.914,0.27-2.469,1.551-2.56,2.465c-0.09,0.914,1.006,1.098,1.006,0.18c0-0.912,1.462-1.184,1.917,0
		c0.459,1.191,1.098,0,2.378,0.275c1.277,0.273,1.098,2.195,0.363,2.104c-0.729-0.092-1.46,1.189-1.276,2.559
		c0.181,1.373,2.741,0,3.836,0.365c1.099,0.367,0.732,2.283,0.095,1.645c-0.643-0.637-2.104-1.738-2.744-0.637
		c-0.64,1.092-1.646,0.547-2.467,0.18c-0.823-0.363-3.747,1.557-2.743,2.285c1.006,0.729,0.915,1.918,1.557,1.83
		c0.639-0.094,1.645-0.553,2.008-1.281c0.367-0.734,1.646-1.463,1.735,0.18c0.094,1.648-1.735,0.824-2.098,1.736
		c-0.368,0.918-1.098,1.646-2.196,2.471c-1.097,0.822,0,2.195,0.914,1.736c0.914-0.459-0.274,1.096,1.005,1.275
		c1.179,0.17,1.552-0.73,1.279-1.643c-0.273-0.912,0.641-2.922,1.738-1.918c1.096,1.006-0.549,2.01-0.549,2.922
		c0,0.918-0.641,2.104-0.641,3.105c0,1.008-1.188,0.457-1.097,1.557c0.091,1.1-2.559,0.365-1.369,1.1
		c1.185,0.727-0.731,1.732-0.092,2.463c0.638,0.729,1.187-1.004,2.19-0.639c1.008,0.365,0.824,0.639,2.104,0.092
		c1.278-0.549,2.011,1.006,0.822,1.369c-1.188,0.365-2.467,1.736-1.918,1.922c0.549,0.182,2.101-0.914,2.466,0.273
		c0.366,1.188,1.279,0.822,1.372-0.459c0.09-1.275,2.285-0.184,2.648,0.916c0.367,1.094-2.285,1.734-3.654,1.465
		c-1.371-0.279-2.102,1.275-1.188,2.463c0.916,1.191,2.009,0,3.015-1.004s5.94-0.73,6.306,0.365c0.366,1.094-2.284,0.184-2.559,0.82
		c-0.275,0.639-2.283,1.189-2.559,0.461c-0.275-0.732-2.194,0.27-2.283,1.459c-0.092,1.186-1.555,1.186,0.089,1.646
		c1.646,0.455,1.19-1.736,3.747-1.555c2.56,0.182,3.931-2.377,4.66-0.91c0.731,1.459-2.101,2.648-3.106,1.73
		c-1.003-0.912-2.191,0.643-2.101,2.012c0.09,1.373-2.926-0.365-4.388-0.549c-1.462-0.182-0.821,1.371,0.458,2.742
		c1.277,1.373,2.01-0.18,3.563,0.822c1.555,1.008,1.555,2.104,2.649,1.1c1.098-1.01,0-0.912-0.729-1.373
		c-0.73-0.457-0.092-2.008,1.643-1.191c1.738,0.826,3.748-0.729,3.202-2.92c-0.551-2.193,1.552-3.201,3.655-3.932
		c2.101-0.729,1.006,1.373-0.549,2.008c-1.555,0.643-1.828,1.104-0.642,2.381c1.19,1.279,2.743-0.826,3.747,0.182
		c1.006,1.006-1.827,0.822-2.283,1.83c-0.458,1.002,1.734,2.189,0.182,2.924c-1.553,0.73-0.822-3.02-1.736-3.385
		c-0.914-0.363-1.736,0.461-0.822,2.564c0.913,2.098-1.098,0.27-2.011-0.734s-2.192,0.457-1.098,1.555
		c1.098,1.096-2.1-0.092-2.1,1.643c0,1.736,1.37,0.273,3.013,0.643c1.646,0.365,0.917,2.742,2.104,3.654"/>
	<path fill="#E6E6E6" d="M160.502,356.574c1.189,0.912,0.184-2.926,1.46-3.199c1.282-0.273,0.095,2.924,2.928,3.838"/>
	<path fill="#E6E6E6" d="M228.457,200.988c-1.486-0.746-2.968,0.738-3.465,0.738c-0.494,0-1.607-3.213-1.98-4.57
		c-0.371-1.365-1.854-4.086-2.845-3.471c-0.988,0.621-0.741-0.242-3.583-0.369c-2.848-0.125-2.722-0.615-2.105-3.34
		c0.619-2.719-1.855-4.452-0.746-5.068c0.844-0.465,0.764-1.007-0.172-2.203c-0.232,0.148-0.47,0.246-0.696,0.246
		c-0.976,0-2.194-1.711-3.9-1.711c-1.704,0-3.532-0.119-4.75,0.488c-1.222,0.613-3.534-0.12-4.997,0.856
		c-1.463,0.974-3.288,3.044-3.168,3.896c0.121,0.855-0.488,6.094-1.218,6.336c-0.22,0.072-0.765,0.033-1.413-0.035
		c0.975,1.691,3.861,4.721,5.72,5.857c2.229,1.359,2.104,2.598,4.577,2.846c2.474,0.242,3.712,1.236,4.578,2.35
		c0.864,1.113,7.175,2.965,7.668,3.834c0.493,0.865-3.215,3.338-3.215,5.564c0,2.229-1.361,1.982-1.361,2.725
		s2.845,0.246,3.835,0.861c0.99,0.621,2.721-0.367,3.956,0.373c1.238,0.744,2.602-0.988,3.592-0.74s1.977-1.73,3.215-1.611
		c1.234,0.127,2.35-4.326,2.102-6.059C227.837,207.047,229.94,201.727,228.457,200.988z"/>
	<path fill="#E6E6E6" d="M110.695,62.505c-0.136-0.475-0.055-1.689,0.629-2.62c-1.494-1.61-3.177-3.785-4.076-5.083
		c-0.856,0.112-1.6,0.107-2.04-0.228c-0.909-0.675-3.172-0.223-4.078-0.675c-0.466-0.238-1.376-0.205-2.271-0.136
		c0.213,0.675,0.113,1.332-0.313,1.621c-0.823,0.547-0.914,2.74,1.097,3.561c2.009,0.823,1.369-0.455,2.375-0.455
		c1.005,0,0.914,1.554,1.827,1.554c0.914,0,3.018,1.096,2.925,2.556c-0.092,1.462,0.731,2.101,2.377,2.101
		c0.299,0,0.641,0.031,0.996,0.077C110.424,63.801,110.838,63.009,110.695,62.505z"/>
	<path fill="#E6E6E6" d="M131.627,62.508c-1.462-2.193-4.114-2.009-5.758-2.74c-1.644-0.731-3.747,0.276-5.848,2.196
		c-2.101,1.917-4.75,0.82-6.578-0.184c-0.543-0.299-1.304-1.017-2.119-1.894c-0.684,0.93-0.765,2.145-0.629,2.62
		c0.143,0.504-0.271,1.296-0.552,2.272c1.812,0.225,4.164,1.017,5.309,2.395c1.372,1.646,2.193,0.544,3.015,2.009
		c0.825,1.462,2.742,0.087,3.199-0.826c0.457-0.91-1.004-1.275-1.187-2.28c-0.182-1.004,1.828-0.642,2.193-2.014
		c0.364-1.37,3.29-2.009,4.569-1.462c1.279,0.55,2.375,1.462,1.187,2.834c-0.883,1.02,0.919,2.853,2.428,4.287
		c1.057-1.086,2.272-2.326,2.777-2.691c0.276-0.21,0.45-0.693,0.569-1.293C133.478,65.396,132.641,64.034,131.627,62.508z"/>
	<path fill="#E6E6E6" d="M134.171,98.319c1.141,0.669,2.763,0.48,3.145,0c0.378-0.476,1.426,0.572,2.952,2.29
		c0.066,0.074,0.122,0.135,0.186,0.207c1.279-0.279,2.896-0.519,3.546-0.11c1.146,0.715,0.86,3.297,2.438,3.44
		c1.576,0.141,2.725,1.723,2.582,2.579c-0.145,0.864,1.719,1.293,1.576,2.584c-0.142,1.291,4.161,1.002,4.733,0.575
		c0.573-0.432,1.72-0.718,2.438-0.289c0.718,0.427,2.009-0.429,2.726-0.143c0.717,0.289,3.586,1.437,3.011,2.436
		c-0.573,1.007-2.579,2.584-2.147,3.448c0.34,0.677,1.838,1.102,2.449,1.953c0.068-0.002,0.135,0,0.202-0.015
		c1.097-0.24,1.581-4.383,1.581-5.6c0-1.219,0.489-4.389,0.846-5.621c0.689-2.397-2.638-4.084-2.638-6.681
		c0-2.594,1.317-1.152,2.806-2.224c1.479-1.071-0.085-1.523-0.828-1.689c-0.74-0.161-1.318-1.482-1.068-2.262
		c0.244-0.787,4.777-0.458,6.222-0.458c1.438,0,4.573-1.316,4.612-1.526c0.042-0.205,0.373-1.237-0.741-2.101
		c-1.112-0.864-0.699-2.101,0.165-3.09c0.867-0.989-0.535-1.978-1.606-3.172c-1.071-1.196-0.247-5.523,0.989-7.54
		c1.234-2.017-2.516-1.566-4.822-1.278c-2.308,0.289-4.285-0.619-5.768-2.512c-1.483-1.896-3.502-0.701-7.047-0.621
		c-3.545,0.084-2.844-3.916-2.681-5.439c0.165-1.526-1.812-1.73-1.812-2.72s-1.029-0.989-1.939-0.907
		c-0.903,0.084,0-1.109,0.623-1.894c0.617-0.785,0.574-1.401,0.617-3.052c0.042-1.648,2.43-3.044,3.624-4.657
		c0.292-0.389,0.741-0.642,1.253-0.798c0.146-0.386,0.437-0.69,1.002-0.802c1.826-0.366,2.742-1.552,1.002-2.561
		c-1.733-1.004-2.739,1.922-4.656,2.195c-1.92,0.273-2.286,1.459-3.566,2.101c-1.278,0.639-3.654,0.092-3.744,1.188
		c-0.102,1.196-0.824,0-1.919-0.273c-1.098-0.276-3.931,2.19-3.839,3.563c0.092,1.37,0.547,2.65-1.463,3.931
		c-2.009,1.278-3.198,3.655-4.111,4.751c-0.28,0.332-0.58,0.36-0.898,0.209c-0.119,0.601-0.292,1.083-0.569,1.293
		c-0.504,0.365-1.72,1.605-2.777,2.691c0.514,0.493,0.994,0.938,1.319,1.286c1.281,1.372,0.457,2.469,0.824,3.202
		c0.364,0.729,0.73,1.825,0,2.283c-0.732,0.458-0.094,5.482,0.73,6.397c0.822,0.91,0,1.738-0.914,3.561
		c-0.914,1.83-1.738,2.653-3.382,2.742c-1.645,0.092-1.553,2.65-2.101,2.65c-0.438,0-0.755,0.925-0.82,1.72
		c1.535,1.288,4.29,2.85,5.087,2.85C132.457,96.412,133.029,97.654,134.171,98.319z"/>
	<path fill="#E6E6E6" d="M215.301,174.544c-0.61-1.83-2.437-2.075-2.437-4.021c0-1.953-0.731-2.193-3.412-2.075
		c-2.681,0.122-4.388-0.485-4.506-2.07c-0.123-1.585-1.709-2.804-0.488-3.412c1.218-0.606-0.856-1.705-0.609-3.169
		c0.241-1.46-0.729-2.07-1.583-2.799c-0.857-0.731-4.512,0.365-4.512-0.977c0-1.34-2.193-1.585-3.411-1.585
		c-1.216,0-0.364-1.582-1.704-1.457c-1.342,0.118-1.098-0.856-2.926-0.61c-1.828,0.242-2.926-0.611-4.873-2.927
		c-1.947-2.316-1.707-6.822-1.339-8.043c0.364-1.217-2.313-0.24-3.899-0.24c-1.584,0-3.166,1.216-4.877,2.193
		c-1.705,0.977-2.676,0.974-3.531,1.828c-0.854,0.851-2.192,1.339-3.53,0.851c-0.374-0.136-0.857-0.24-1.38-0.312
		c0.719,1.794,2.455,4.737,2.84,5.797c0.488,1.339-0.609,1.705-1.096,2.192c-0.488,0.483,0.242,4.872,0.367,5.849
		c0.119,0.973-1.711,2.803-0.979,3.409c0.732,0.608-0.972,2.438-0.972,3.534c0,1.1,1.584,1.1,1.584,1.948
		c0,0.856-1.344,2.804-2.193,3.29c-0.449,0.255-0.457,0.947-0.349,1.693c0.255-0.084,0.435,1.025,1.688,1.961
		c1.461,1.1-0.244,2.927,0.974,4.387c1.219,1.461,2.56,1.586,1.707,2.317c-0.854,0.733,0.12,2.19-0.854,2.921
		c-0.974,0.734,0.365,2.928,1.461,3.416c1.098,0.484,0.368,2.678,1.464,3.773c1.094,1.096,0.609,3.656,0.972,4.51
		c0.366,0.852,3.657-1.219,5.604-3.289c1.955-2.07,1.83-0.365,3.658-0.125c1.826,0.244,3.898,0.244,4.75,1.951
		c0.855,1.705,1.828-1.707,2.436-2.438c0.612-0.729,4.753,0.246,5.485,0c0.729-0.242,1.339-5.48,1.218-6.336
		c-0.12-0.852,1.705-2.922,3.168-3.896c1.463-0.977,3.775-0.243,4.997-0.856c1.218-0.607,3.046-0.488,4.75-0.488
		c1.706,0,2.925,1.711,3.9,1.711c0.973,0,2.194-1.586,1.95-3.047C214.569,178.439,215.911,176.369,215.301,174.544z"/>
	<path fill="#E6E6E6" d="M165.346,173.568c0.051-0.085,0.098-0.126,0.14-0.137c-0.108-0.746-0.101-1.438,0.349-1.693
		c0.85-0.486,2.193-2.434,2.193-3.29c0-0.849-1.584-0.849-1.584-1.948c0-1.096,1.704-2.926,0.972-3.534
		c-0.731-0.606,1.099-2.437,0.979-3.409c-0.125-0.977-0.855-5.365-0.367-5.849c0.486-0.487,1.584-0.854,1.096-2.192
		c-0.385-1.061-2.121-4.003-2.84-5.797c-1.357-0.191-3.017-0.161-3.984,0.192c-1.338,0.491-0.975-3.78-0.975-5.36
		c0-1.585-1.338-0.733-1.828,0.365c-0.487,1.097-2.436,0.606-4.385,0.606c-1.951,0-0.976-2.436-2.193-2.315
		c-1.219,0.125-2.193-0.366-2.07-1.583c0.123-1.222-0.855-2.193-1.707-3.535c-0.854-1.342-1.829-2.679-1.098-3.53
		c0.732-0.856-0.483-1.584,0.61-2.684c1.097-1.097,2.194-0.731,1.829-2.19c-0.365-1.465,1.217-2.316,1.34-3.9
		s1.951-1.099,3.655-2.433c1.706-1.345,3.531-0.614,4.994-1.83c1.372-1.145,2.317-0.156,3.333-0.233
		c-0.611-0.851-2.109-1.275-2.449-1.953c-0.432-0.864,1.574-2.441,2.147-3.448c0.575-1-2.294-2.147-3.011-2.436
		c-0.717-0.286-2.008,0.57-2.726,0.143c-0.718-0.429-1.864-0.143-2.438,0.289c-0.572,0.427-4.875,0.716-4.733-0.575
		c0.143-1.291-1.721-1.72-1.576-2.584c0.143-0.856-1.006-2.438-2.582-2.579c-1.577-0.143-1.291-2.725-2.438-3.44
		c-0.65-0.409-2.267-0.169-3.546,0.11c1.376,1.554,1.867,2.203,0.957,2.934c-1.211,0.969,0,1.143-2.286,4.187
		c-2.287,3.055-6.192,3.813-8.099,4.389c-1.904,0.57-2.668,4.089-3.716,6.571c-1.047,2.477-1.904,1.618-2.951,0.189
		c-1.048-1.429-1.904,0.287-3.144-0.856c-1.238-1.14-0.667-1.14,0-2.096c0.36-0.514-0.04-1.332-0.799-2.119
		c-1.359,0.281-2.736,2.162-3.411,3.599c-0.732,1.554,1.278,4.567,1.553,5.664s-1.098,0.092-1.279,1.097
		c-0.182,1.004,3.017,2.466,4.478,3.563c1.462,1.096,2.741,4.207,4.111,5.666c1.371,1.465,1.463,2.74,2.925,6.306
		c1.46,3.563,4.386,9.595,6.397,12.154c2.01,2.559,2.924,4.57,2.465,5.301c-0.455,0.733,0.092,2.742,1.554,3.746
		c1.463,1.006,2.65,2.651,6.487,4.57c3.839,1.92,10.874,5.572,11.881,7.311c1.005,1.732,4.297,3.379,4.935,3.746
		c0.177,0.101,0.229,0.389,0.233,0.77c0.379-0.312,0.694-0.549,0.895-0.648C164.859,176.249,164.979,174.179,165.346,173.568z"/>
	<path fill="#E6E6E6" d="M155.142,52.23c-1.194,1.613-3.582,3.008-3.624,4.657c-0.043,1.651,0,2.267-0.617,3.052
		c-0.623,0.785-1.526,1.979-0.623,1.894c0.91-0.082,1.939-0.082,1.939,0.907s1.977,1.194,1.812,2.72
		c-0.163,1.523-0.864,5.523,2.681,5.439c3.545-0.08,5.563-1.275,7.047,0.621c1.482,1.894,3.46,2.801,5.768,2.512
		c2.307-0.289,6.057-0.739,4.822,1.278c-1.236,2.017-2.061,6.344-0.989,7.54c1.071,1.194,2.474,2.183,1.606,3.172
		c-0.864,0.989-1.277,2.227-0.165,3.09c1.114,0.864,0.783,1.896,0.741,2.101c-0.008,0.056-0.232,0.184-0.579,0.345
		c1.643,1.628,2.223,3.417,3.149,4.159c1.238,0.989,1.609,1.482,2.474,0.989c0.865-0.494,1.483-0.864,2.226-0.374
		c0.743,0.499,1.73-0.491,2.848-1.485c1.113-0.989,2.348-0.118,2.721-1.354c0.371-1.245,0.99-1.983,2.352-2.231
		c1.359-0.243,1.359-1.733,0.491-1.733c-0.864,0-2.101,1.112-2.101-0.493c0-1.61-1.115-1.237-1.115-2.597
		c0-1.362-0.122-2.229-1.607-3.095c-1.483-0.864,1.98-1.235,2.723-0.494c0.743,0.741,3.339,0.125,3.586,1.237
		c0.248,1.114,1.607,1.487,1.607,0.123c0-1.36,1.609-1.855,2.845-1.607c1.239,0.248,3.962-1.61,5.075-1.981
		c0.58-0.192,0.792-0.887,1.111-1.478c-0.814-1.109-2.113-2.829-2.703-3.323c-0.887-0.738,0.597-1.181,0.446-2.216
		c-0.148-1.038,0-1.779,1.925-1.927c1.923-0.146,1.627-1.628,0.59-2.221c-1.037-0.593,0.443-2.221,1.481-2.814
		c0.425-0.24,0.993-0.969,1.513-1.973c-1.969-0.744-4.792-0.675-5.976-0.608c-1.556,0.092,1.003-1.733,1.095-3.379
		s-4.385-1.922-6.123-2.285c-1.736-0.366-1.279-2.193,0.549-2.283c1.828-0.095-1.006-1.373-3.472-1.009
		c-2.467,0.365-5.94,1.738-7.949,2.834c-2.011,1.096-5.482-3.198-7.771-2.285c-2.283,0.915-5.482,0.915-5.39-0.913
		c0.092-1.83-0.914-3.384-3.198-3.197c-2.284,0.179-1.736-2.288-3.472-2.288c-1.737,0,0,2.101-1.187,2.65
		c-1.19,0.549-5.305,1.554-5.578,3.198c-0.273,1.646,2.195,4.388,1.371,6.034c-0.821,1.644-3.563,0.271-4.385-1.462
		c-0.822-1.738,2.374-4.386,1.827-5.393c-0.378-0.695-0.868-1.994-0.544-2.853C155.883,51.589,155.434,51.842,155.142,52.23z"/>
	<path fill="#E6E6E6" d="M217.667,77.601c0.592,1.186-0.739,1.776-1.923,1.924c-1.187,0.148-0.891,2.814-1.63,3.555
		c-0.741,0.741,2.813,2.666,3.403,4.292c0.352,0.964,1.531,3.07,2.439,4.629c0.818,0.205,1.598,0.391,2.066,0.13
		c1.113-0.621,0.124-2.727,1.734-2.602c1.604,0.128,3.957-0.869,4.574,0.128c0.117,0.176,0.252,0.355,0.403,0.529
		c0.517-0.782,1.071-1.63,1.22-1.927c0.299-0.591,0.299-3.701-0.447-5.475c-0.739-1.776-0.144-4.148,0.746-4.887
		c0.187-0.159,0.474-0.961,0.805-2.116c-1.471-0.575-2.887-1.092-4.124-0.936c-2.19,0.276-4.476,1.28-5.297,0.092
		c-0.824-1.188-2.013-1.004-3.109-0.092c-0.124,0.104-0.262,0.135-0.406,0.118C217.748,76.031,217.368,77.002,217.667,77.601z"/>
	<path fill="#E6E6E6" d="M205.083,66.643c-1.038,0.593-2.519,2.221-1.481,2.814c1.037,0.593,1.333,2.076-0.59,2.221
		c-1.925,0.148-2.073,0.89-1.925,1.927c0.15,1.035-1.333,1.478-0.446,2.216c0.59,0.494,1.889,2.213,2.703,3.323
		c0.287-0.542,0.658-0.986,1.487-0.872c1.728,0.248,0.366,2.85,1.728,3.463c1.361,0.619,1.361,2.725,0.373,3.466
		c-0.991,0.741-1.36,4.826,0.864,7.297c2.231,2.474,3.96,2.101,4.456,1.485c0.494-0.616,2.227,0,2.723-0.989
		c0.493-0.989,1.113,0.125,2.101-0.989c0.573-0.644,1.761-0.299,2.882-0.005c-0.908-1.559-2.088-3.665-2.439-4.629
		c-0.59-1.625-4.145-3.55-3.403-4.292c0.739-0.741,0.443-3.407,1.63-3.555c1.184-0.148,2.515-0.739,1.923-1.924
		c-0.299-0.598,0.081-1.569,0.455-2.638c-1.14-0.113-2.824-3.407-3.797-3.407c-1.098,0-2.374-0.913-2.101-2.466
		c0.273-1.552-2.559-1.738-4.113-3.471c-0.366-0.417-0.902-0.721-1.516-0.948C206.076,65.674,205.508,66.403,205.083,66.643z"/>
	<path fill="#E6E6E6" d="M229.508,82.784c0.746,1.774,0.746,4.884,0.447,5.475c-0.148,0.296-0.703,1.145-1.22,1.927
		c0.674,0.759,1.759,1.314,3.679,0.708c2.351-0.746,3.464,0.741,4.332-1.858c0.677-2.029,3.082-4.797,4.871-6.569
		c-0.021-0.01-0.038-0.028-0.061-0.036c-1.736-0.733-4.387-4.936-7.035-5.482c-1.157-0.24-2.325-0.721-3.463-1.168
		c-0.331,1.155-0.618,1.958-0.805,2.116C229.364,78.636,228.769,81.007,229.508,82.784z"/>
	<path fill="#E6E6E6" d="M214.325,335.738c-1.461-2.742-8.226,2.375-6.761,3.105C209.025,339.578,215.034,337.068,214.325,335.738z
		 M206.831,333.73c-2.008-0.369-6.829,3.705-4.751,4.75C204.272,339.578,208.843,334.092,206.831,333.73z"/>
	<path fill="#E6E6E6" d="M140.269,100.609c-1.526-1.718-2.574-2.766-2.952-2.29c-0.382,0.48-2.004,0.669-3.145,0
		c-1.143-0.665-1.715-1.907-2.573-1.907c-0.797,0-3.553-1.562-5.087-2.85c-0.015,0.202-0.021,0.399-0.004,0.567
		c0.092,0.821-1.276,1.368-2.831,1.459c-1.555,0.092-1.371,1.83-1.371,3.014c0,1.188-1.281,1.188-1.828,2.469
		c-0.548,1.278,0.183,1.554-1.098,2.196c-1.279,0.636-1.644,1.738-0.914,2.832c0.731,1.094-0.092,2.101-0.273,2.74
		c-0.181,0.642,1.098,0.917,2.377,2.101c1.281,1.191,1.461-0.455,2.01,0.458c0.547,0.915-0.367,2.561-1.827,2.561
		c-0.11,0-0.225,0.031-0.336,0.056c0.759,0.787,1.159,1.605,0.799,2.119c-0.667,0.956-1.238,0.956,0,2.096
		c1.24,1.143,2.096-0.573,3.144,0.856c1.046,1.429,1.904,2.288,2.951-0.189c1.048-2.482,1.812-6.001,3.716-6.571
		c1.907-0.575,5.812-1.334,8.099-4.389c2.286-3.044,1.075-3.218,2.286-4.187C142.363,102.991,141.793,102.321,140.269,100.609z
		 M75.245,99.428c-1.826,2.742,1.802,5.416,2.557,4.202C78.715,102.17,77.072,96.688,75.245,99.428z"/>
	<path fill="#E6E6E6" d="M297.286,350.111c0.355,1.602,1.964,0.889,3.566,2.32c1.603,1.424,3.031,4.094,4.636,1.605
		C307.095,351.539,297.087,349.221,297.286,350.111z"/>
	<path fill="#E6E6E6" d="M198.313,57.938c-0.549-0.511,0.811-1.518-0.107-1.937c-0.914-0.424,2.078-1.654,3.025-0.852
		c0.955,0.813,1.059,2.047,0.213,2.4C200.599,57.902,198.803,58.393,198.313,57.938z"/>
	<path fill="#E6E6E6" d="M177.773,355.479c0.913-1.006,3.654-0.459,5.119-1.371c1.461-0.914-0.459-1.188-2.744-1.279
		c-2.283-0.092-6.762-4.295-8.131-5.395c-1.372-1.096-0.366-2.191-2.011-1.916c-1.646,0.271-0.551-1.281,0.364-1.738
		c0.841-0.424-0.326-1.979-1.444-2.23c-0.12,2.451-0.632,13.463,0.028,13.57"/>
	<path fill="#E6E6E6" d="M230.777,208.537c-0.416-0.209-1.679-0.211-2.711-0.176c-0.003,0.154,0,0.297,0.018,0.42
		c0.248,1.732-0.867,6.186-2.102,6.059c-1.238-0.119-2.225,1.859-3.215,1.611s-2.354,1.484-3.592,0.74
		c-1.235-0.74-2.966,0.248-3.956-0.373c-0.99-0.615-3.835-0.119-3.835-0.861s1.361-0.496,1.361-2.725
		c0-2.227,3.708-4.699,3.215-5.564c-0.493-0.869-6.804-2.721-7.668-3.834c-0.866-1.113-2.104-2.107-4.578-2.35
		c-2.474-0.248-2.348-1.486-4.577-2.846c-1.858-1.137-4.745-4.166-5.72-5.857c-1.51-0.156-3.644-0.473-4.072,0.035
		c-0.607,0.73-1.58,4.143-2.436,2.438c-0.852-1.707-2.924-1.707-4.75-1.951c-1.828-0.24-1.703-1.945-3.658,0.125
		c-0.864,0.922-1.993,1.832-3.016,2.492c-0.121,1.967-0.48,4.186-0.842,4.82c-0.494,0.865-4.576,2.721-4.699,3.709
		c-0.125,0.988,0.493,2.35-0.248,2.971c-0.742,0.617,1.732,3.707,0.371,4.451c-1.361,0.746,0.99,1.982,0.123,2.723
		c-0.865,0.74-2.473,1.111-2.473,1.975c0,0.871-0.125,2.973-1.236,3.469c-1.115,0.496-1.858,2.352-1.858,3.711
		c0,1.363-1.731,0.49-1.11,2.227c0.617,1.732,1.358,3.838,0,4.207c-1.363,0.371-0.99,3.217-1.734,3.217
		c-0.742,0-1.113,2.969,0,4.451c1.113,1.484,1.362,2.721,1.362,4.084c0,1.357,1.482,2.102,0.989,3.586
		c-0.496,1.484-0.247,2.848-1.113,3.463c-0.867,0.621-0.125,2.475-1.238,2.971s0.865,4.451,0,5.195
		c-0.864,0.744-3.094,1.359-3.094,4.082s0.422,4.262,0.125,5.447c-0.246,0.986,1.236,0.736,0.99,2.348
		c-0.246,1.604-2.228,0.617-2.35,1.604c-0.123,0.992,0.492,2.973-0.248,3.096c-0.742,0.125-1.113,0.863-1.113,2.6
		c0,1.727-0.99,1.975-1.113,2.846c-0.124,0.865,0.863,1.855,0.863,2.84c0,0.994,0.619,4.332-0.244,4.455
		c-0.867,0.125-1.36,3.838-0.619,4.332c0.742,0.494,0.742,1.486,0.371,2.227c-0.371,0.738,1.73,1.48,0.618,2.598
		c-1.113,1.113-0.229,2.543,1.237,2.1c1.238-0.367,1.979,1.854,0.618,1.854c-1.36,0-2.722,0-1.607,0.871
		c1.114,0.865,2.226,2.102,0.617,2.721s-0.247,1.73-0.617,3.215c-0.374,1.484,1.114,2.848-0.124,3.219
		c-1.237,0.367,0.494,2.596-1.237,2.848c-1.73,0.242-0.617,1.852-1.73,2.721c-1.115,0.865,1.483,2.35,0.122,3.213
		c-1.36,0.861-0.372,2.842-1.73,2.842c-1.363,0-2.105,1.859-2.229,2.723s-0.987,2.602,0.125,3.836
		c1.113,1.238-0.248,2.229,0.74,2.723c0.992,0.496,4.329-0.248,3.836,1.236c-0.494,1.486-0.371,4.703,0.249,4.703
		c0.617,0,0.987,1.852,1.979,1.73c0.989-0.125,5.442-0.617,7.3-0.125c0.914,0.242,1.68,0.793,2.221,1.281
		c1.061-0.469,3.381,1.045,3.906,0.521c0.64-0.643-2.283-3.018-2.191-3.838c0.09-0.822-0.459-2.197-0.459-3.109
		s-0.457-2.922,0.822-3.84c1.28-0.91,1.373-1.824,2.194-1.639c0.823,0.18,2.466-0.734,2.559-2.928
		c0.092-2.193,1.098-3.014,2.925-4.57c1.99-1.689,5.299-3.287,4.842-4.021c-0.457-0.729,0.73-3.105,0.73-4.018
		c0-0.914-3.107-0.732-4.113-1.096c-1.004-0.369-4.658-2.928-2.83-6.303c1.826-3.385,5.665-3.752,6.762-3.842
		c1.098-0.092,0.092-1.645,1.006-2.193s1.096-1.459,1.096-2.834c0-1.555,0-4.018,1.645-4.203c1.646-0.184,2.102-1.098,1.096-1.369
		c-1.003-0.275-1.461-1.459,0.185-1.646c1.644-0.184,1.095,1.371,2.284,1.371c1.188,0,3.197-2.01,1.645-3.201
		c-1.553-1.188-2.012,0.551-2.834,0.734c-0.821,0.182-1.461-1.098-2.282-1.098c-0.825,0-0.276-2.285-0.64-3.105
		c-0.366-0.824-0.914-2.834-0.186-3.838c0.732-1.008,3.839,1.551,6.581,1.738c2.741,0.184,4.752-1.371,4.752-2.381
		c0-1.004-1.282-2.834,0.364-3.926c1.646-1.096,0.277-1.467-0.182-2.926c-0.457-1.463,0.73-2.379,1.463-1.645
		c0.73,0.732,6.119,0.275,10.6-0.635c4.479-0.918,7.586-2.564,7.858-3.84c0.274-1.281,3.108-4.297,3.747-5.393
		c0.641-1.1,0.09-2.473-1.736-2.742c-1.828-0.273-1.736-2.377-0.73-3.564s-0.549-2.283-2.286-2.469
		c-1.735-0.184-4.478-1.369-2.925-2.828c0.75-0.711,1.116-0.566,1.479-0.246c0.259-0.701,0.513-1.525,0.306-1.729
		c-0.368-0.373-1.293,0.094-1.2-2.502c0.092-2.592,1.015-2.033,1.112-5.369c0.088-3.334,1.383-5.275,1.383-7.037
		c0-1.756,3.152-3.791,4.909-6.662c1.76-2.873,5.557-6.482,7.128-7.502c1.574-1.018,4.631-1.852,5.002-2.775
		C231.889,213.904,231.52,208.908,230.777,208.537z"/>
</g>
</svg>
